<svg width="92" height="46" viewBox="0 0 92 46" fill="none" xmlns="http://www.w3.org/2000/svg">
<g filter="url(#filter0_dd)">
<path d="M16.745 21.385H15.245L18.0629 22.1013L16.745 21.385ZM17.855 20.335L17.1952 18.9879H17.1952L17.855 20.335ZM19.64 19.975H21.14V18.475H19.64V19.975ZM19.64 21.37L19.454 22.8584L21.14 23.0692V21.37H19.64ZM17.465 22.06L16.3815 21.0226L16.381 21.0232L17.465 22.06ZM16.805 28V29.5H18.305V28H16.805ZM15.365 28H13.865V29.5H15.365V28ZM15.365 20.05V18.55H13.865V20.05H15.365ZM16.745 20.05H18.245V18.55H16.745V20.05ZM18.0629 22.1013C18.1578 21.9268 18.2918 21.7913 18.5148 21.6821L17.1952 18.9879C16.4382 19.3587 15.8322 19.9232 15.4271 20.6687L18.0629 22.1013ZM18.5148 21.6821C18.7497 21.567 19.1061 21.475 19.64 21.475V18.475C18.7739 18.475 17.9403 18.623 17.1952 18.9879L18.5148 21.6821ZM18.14 19.975V21.37H21.14V19.975H18.14ZM19.8261 19.8816C19.6555 19.8603 19.4741 19.855 19.31 19.855V22.855C19.363 22.855 19.4022 22.856 19.4294 22.8572C19.4581 22.8585 19.4643 22.8597 19.454 22.8584L19.8261 19.8816ZM19.31 19.855C18.2085 19.855 17.1699 20.1993 16.3815 21.0226L18.5485 23.0974C18.6601 22.9807 18.8515 22.855 19.31 22.855V19.855ZM16.381 21.0232C15.5916 21.8485 15.305 22.9322 15.305 24.04H18.305C18.305 23.4278 18.4584 23.1915 18.549 23.0968L16.381 21.0232ZM15.305 24.04V28H18.305V24.04H15.305ZM16.805 26.5H15.365V29.5H16.805V26.5ZM16.865 28V20.05H13.865V28H16.865ZM15.365 21.55H16.745V18.55H15.365V21.55ZM15.245 20.05V21.385H18.245V20.05H15.245ZM31.3057 20.05H32.8057V18.55H31.3057V20.05ZM31.3057 28V29.5H32.8057V28H31.3057ZM29.9407 28H28.4407V29.5H29.9407V28ZM29.9407 26.8H31.4407V22.0817L28.716 25.9338L29.9407 26.8ZM28.7857 27.76L29.4216 29.1186L29.4338 29.1127L28.7857 27.76ZM24.7357 27.22L23.6928 28.2982L23.7021 28.3071L24.7357 27.22ZM23.8207 20.05V18.55H22.3207V20.05H23.8207ZM25.2607 20.05H26.7607V18.55H25.2607V20.05ZM25.8157 26.215L24.7145 27.2336L24.7209 27.2405L24.7275 27.2474L25.8157 26.215ZM29.2057 26.11L30.2896 27.1468L29.2057 26.11ZM29.8657 20.05V18.55H28.3657V20.05H29.8657ZM29.8057 20.05V28H32.8057V20.05H29.8057ZM31.3057 26.5H29.9407V29.5H31.3057V26.5ZM31.4407 28V26.8H28.4407V28H31.4407ZM28.716 25.9338C28.5825 26.1226 28.4013 26.2809 28.1375 26.4073L29.4338 29.1127C30.13 28.7791 30.7188 28.2974 31.1653 27.6662L28.716 25.9338ZM28.1498 26.4015C27.8942 26.5211 27.5986 26.59 27.2407 26.59V29.59C28.0028 29.59 28.7371 29.4389 29.4216 29.1185L28.1498 26.4015ZM27.2407 26.59C26.4611 26.59 26.033 26.3838 25.7693 26.1329L23.7021 28.3071C24.6583 29.2162 25.9002 29.59 27.2407 29.59V26.59ZM25.7785 26.1418C25.5504 25.9212 25.3207 25.5031 25.3207 24.625H22.3207C22.3207 26.0269 22.7009 27.3388 23.6928 28.2982L25.7785 26.1418ZM25.3207 24.625V20.05H22.3207V24.625H25.3207ZM23.8207 21.55H25.2607V18.55H23.8207V21.55ZM23.7607 20.05V24.46H26.7607V20.05H23.7607ZM23.7607 24.46C23.7607 25.4517 23.9989 26.4599 24.7145 27.2336L26.9168 25.1964C26.8925 25.1701 26.7607 25.0083 26.7607 24.46H23.7607ZM24.7275 27.2474C25.4556 28.0148 26.4273 28.3 27.4057 28.3V25.3C27.004 25.3 26.9158 25.1952 26.9039 25.1826L24.7275 27.2474ZM27.4057 28.3C28.4893 28.3 29.5124 27.9594 30.2896 27.1468L28.1217 25.0732C28.0189 25.1806 27.842 25.3 27.4057 25.3V28.3ZM30.2896 27.1468C31.0732 26.3276 31.3657 25.2591 31.3657 24.16H28.3657C28.3657 24.7409 28.2181 24.9724 28.1217 25.0732L30.2896 27.1468ZM31.3657 24.16V20.05H28.3657V24.16H31.3657ZM29.8657 21.55H31.3057V18.55H29.8657V21.55Z" fill="white"/>
<path d="M39.53 15.37V13.87H38.4661L38.1144 14.8741L39.53 15.37ZM40.835 15.37L42.2506 15.8659L42.9499 13.87H40.835V15.37ZM35.885 29.5V31H36.9489L37.3006 29.9959L35.885 29.5ZM34.58 29.5L33.1644 29.0041L32.4651 31H34.58V29.5ZM39.53 16.87H40.835V13.87H39.53V16.87ZM39.4194 14.8741L34.4694 29.0041L37.3006 29.9959L42.2506 15.8659L39.4194 14.8741ZM35.885 28H34.58V31H35.885V28ZM35.9956 29.9959L40.9456 15.8659L38.1144 14.8741L33.1644 29.0041L35.9956 29.9959Z" fill="#AC24FF"/>
<path d="M52.52 24.505V26.005H53.8626L54.0108 24.6707L52.52 24.505ZM46.07 24.505V23.005H44.3648L44.5822 24.6963L46.07 24.505ZM46.985 26.2L46.0291 27.356L46.0411 27.3659L46.0534 27.3756L46.985 26.2ZM51.245 25.87L52.3852 24.8953L51.2779 23.6L50.1335 24.8627L51.245 25.87ZM52.04 26.8L53.1789 27.7762L54.0145 26.8013L53.1802 25.8253L52.04 26.8ZM50.69 27.76L50.124 26.3708L50.1149 26.3746L50.69 27.76ZM46.67 27.58L45.9589 28.9007L45.9668 28.905L45.9748 28.9091L46.67 27.58ZM45.155 26.125L43.8488 26.8624L43.8532 26.8703L43.8578 26.8782L45.155 26.125ZM45.14 21.94L43.8338 21.2026L43.8292 21.2107L43.8248 21.2188L45.14 21.94ZM46.565 20.5L47.3045 21.8051L47.3115 21.8011L46.565 20.5ZM50.645 20.5L49.8797 21.7901L49.8925 21.7977L49.9055 21.805L50.645 20.5ZM52.04 21.94L50.7159 22.6448L50.7203 22.653L50.7248 22.6612L52.04 21.94ZM46.88 21.82L45.8805 20.7015L45.8745 20.7069L45.8686 20.7123L46.88 21.82ZM46.07 23.47L44.5803 23.2947L44.3832 24.97H46.07V23.47ZM51.17 23.47V24.97H52.8598L52.6594 23.2922L51.17 23.47ZM50.345 21.835L49.3207 22.9308L49.333 22.9423L49.3455 22.9535L50.345 21.835ZM51.05 24.07C51.05 24.1009 51.0464 24.1841 51.0292 24.3393L54.0108 24.6707C54.0336 24.4659 54.05 24.2591 54.05 24.07H51.05ZM52.52 23.005H46.07V26.005H52.52V23.005ZM44.5822 24.6963C44.7183 25.7545 45.2014 26.6715 46.0291 27.356L47.9409 25.044C47.7286 24.8685 47.6017 24.6555 47.5578 24.3137L44.5822 24.6963ZM46.0534 27.3756C46.8882 28.0371 47.8862 28.33 48.95 28.33V25.33C48.4538 25.33 48.1418 25.2029 47.9166 25.0244L46.0534 27.3756ZM48.95 28.33C50.2762 28.33 51.4619 27.8644 52.3565 26.8773L50.1335 24.8627C49.8681 25.1556 49.5238 25.33 48.95 25.33V28.33ZM50.1048 26.8447L50.8998 27.7747L53.1802 25.8253L52.3852 24.8953L50.1048 26.8447ZM50.9011 25.8238C50.7049 26.0527 50.4552 26.2359 50.1241 26.3709L51.2559 29.1491C52.0048 28.8441 52.6551 28.3873 53.1789 27.7762L50.9011 25.8238ZM50.1149 26.3746C49.7925 26.5084 49.397 26.59 48.905 26.59V29.59C49.733 29.59 50.5275 29.4516 51.2651 29.1454L50.1149 26.3746ZM48.905 26.59C48.2718 26.59 47.7714 26.4633 47.3652 26.2509L45.9748 28.9091C46.8686 29.3767 47.8582 29.59 48.905 29.59V26.59ZM47.3811 26.2593C46.9675 26.0366 46.6687 25.7447 46.4522 25.3718L43.8578 26.8782C44.3613 27.7453 45.0725 28.4234 45.9589 28.9007L47.3811 26.2593ZM46.4612 25.3876C46.2502 25.0137 46.13 24.572 46.13 24.025H43.13C43.13 25.038 43.3598 25.9963 43.8488 26.8624L46.4612 25.3876ZM46.13 24.025C46.13 23.4841 46.247 23.0409 46.4552 22.6612L43.8248 21.2188C43.353 22.0791 43.13 23.0259 43.13 24.025H46.13ZM46.4462 22.6774C46.6669 22.2865 46.9494 22.0063 47.3045 21.805L45.8255 19.195C44.9806 19.6737 44.3131 20.3535 43.8338 21.2026L46.4462 22.6774ZM47.3115 21.8011C47.6761 21.5918 48.1001 21.475 48.62 21.475V18.475C47.6199 18.475 46.6739 18.7082 45.8185 19.1989L47.3115 21.8011ZM48.62 21.475C49.1405 21.475 49.5457 21.592 49.8797 21.7901L51.4103 19.2099C50.5643 18.708 49.6195 18.475 48.62 18.475V21.475ZM49.9055 21.805C50.2528 22.0018 50.5172 22.2714 50.7159 22.6448L53.3641 21.2352C52.9028 20.3686 52.2372 19.6782 51.3845 19.195L49.9055 21.805ZM50.7248 22.6612C50.9284 23.0325 51.05 23.4885 51.05 24.07H54.05C54.05 23.0515 53.8316 22.0875 53.3552 21.2188L50.7248 22.6612ZM48.62 19.69C47.599 19.69 46.6524 20.0118 45.8805 20.7015L47.8795 22.9385C48.0476 22.7882 48.261 22.69 48.62 22.69V19.69ZM45.8686 20.7123C45.1151 21.4002 44.6979 22.2947 44.5803 23.2947L47.5597 23.6453C47.6021 23.2853 47.7249 23.0798 47.8914 22.9277L45.8686 20.7123ZM46.07 24.97H51.17V21.97H46.07V24.97ZM52.6594 23.2922C52.5394 22.2872 52.1071 21.398 51.3445 20.7165L49.3455 22.9535C49.5229 23.112 49.6406 23.3128 49.6806 23.6478L52.6594 23.2922ZM51.3693 20.7392C50.6038 20.0236 49.6507 19.69 48.62 19.69V22.69C48.9693 22.69 49.1662 22.7864 49.3207 22.9308L51.3693 20.7392ZM63.5729 20.86L62.5122 21.9207L62.5212 21.9296L62.5304 21.9385L63.5729 20.86ZM64.4729 28V29.5H65.9729V28H64.4729ZM63.0329 28H61.5329V29.5H63.0329V28ZM59.0429 21.955L60.1036 23.0157L60.1094 23.0098L60.1151 23.0039L59.0429 21.955ZM58.3679 28V29.5H59.8679V28H58.3679ZM56.9279 28H55.4279V29.5H56.9279V28ZM56.9279 20.05V18.55H55.4279V20.05H56.9279ZM58.3079 20.05H59.8079V18.55H58.3079V20.05ZM58.3079 21.25H56.8079V25.9683L59.5325 22.1162L58.3079 21.25ZM59.4779 20.305L58.8738 18.932L58.8635 18.9366L59.4779 20.305ZM61.1729 21.475C61.8744 21.475 62.261 21.6694 62.5122 21.9207L64.6336 19.7993C63.7048 18.8706 62.4913 18.475 61.1729 18.475V21.475ZM62.5304 21.9385C62.746 22.1469 62.9729 22.5529 62.9729 23.425H65.9729C65.9729 22.0371 65.5998 20.7331 64.6154 19.7815L62.5304 21.9385ZM62.9729 23.425V28H65.9729V23.425H62.9729ZM64.4729 26.5H63.0329V29.5H64.4729V26.5ZM64.5329 28V23.59H61.5329V28H64.5329ZM64.5329 23.59C64.5329 22.6016 64.296 21.587 63.5661 20.8176L61.3897 22.8824C61.3998 22.893 61.5329 23.0384 61.5329 23.59H64.5329ZM63.5661 20.8176C62.838 20.0502 61.8662 19.765 60.8879 19.765V22.765C61.2895 22.765 61.3778 22.8698 61.3897 22.8824L63.5661 20.8176ZM60.8879 19.765C59.796 19.765 58.7611 20.0981 57.9706 20.9061L60.1151 23.0039C60.2247 22.8919 60.4198 22.765 60.8879 22.765V19.765ZM57.9822 20.8943C57.1665 21.7101 56.8679 22.795 56.8679 23.905H59.8679C59.8679 23.315 60.0193 23.0999 60.1036 23.0157L57.9822 20.8943ZM56.8679 23.905V28H59.8679V23.905H56.8679ZM58.3679 26.5H56.9279V29.5H58.3679V26.5ZM58.4279 28V20.05H55.4279V28H58.4279ZM56.9279 21.55H58.3079V18.55H56.9279V21.55ZM56.8079 20.05V21.25H59.8079V20.05H56.8079ZM59.5325 22.1162C59.6569 21.9404 59.8293 21.7915 60.0923 21.6734L58.8635 18.9366C58.1465 19.2585 57.5389 19.7396 57.0833 20.3838L59.5325 22.1162ZM60.082 21.678C60.3646 21.5536 60.7192 21.475 61.1729 21.475V18.475C60.3666 18.475 59.5912 18.6164 58.8738 18.932L60.082 21.678ZM77.1212 20.05H78.6212V18.55H77.1212V20.05ZM76.0862 29.995L75.0493 28.911L75.0412 28.9189L76.0862 29.995ZM70.8512 30.685L71.2938 29.2518L71.2841 29.2488L71.2744 29.246L70.8512 30.685ZM69.2012 29.815L67.9272 29.0231L67.266 30.0869L68.1948 30.9273L69.2012 29.815ZM69.8912 28.705L70.8724 27.5705L69.5443 26.4218L68.6172 27.9131L69.8912 28.705ZM71.2562 29.455L71.746 28.0372L71.7382 28.0346L71.7305 28.032L71.2562 29.455ZM75.0062 29.08L73.9575 28.0075L73.9515 28.0134L73.9455 28.0193L75.0062 29.08ZM75.6812 26.44H77.1812V22.2813L74.5265 25.4825L75.6812 26.44ZM74.4212 27.37L74.988 28.7588L74.995 28.7559L75.002 28.753L74.4212 27.37ZM70.7462 27.19L70.0324 28.5093L70.0453 28.5162L70.0582 28.5229L70.7462 27.19ZM69.3062 25.825L68.0161 26.5903L68.0219 26.6L69.3062 25.825ZM69.3062 21.82L70.5905 22.595L70.5963 22.5853L69.3062 21.82ZM70.7462 20.455L70.0582 19.122L70.0493 19.1267L70.7462 20.455ZM74.4812 20.305L73.887 21.6824L73.8967 21.6865L74.4812 20.305ZM75.7562 21.28L74.5662 22.1932L77.2562 25.6983V21.28H75.7562ZM75.7562 20.05V18.55H74.2562V20.05H75.7562ZM74.3762 26.08L73.6802 24.7513L73.6735 24.7547L73.6669 24.7583L74.3762 26.08ZM75.3512 25.165L74.0649 24.3932L74.0591 24.403L75.3512 25.165ZM74.9462 21.955L73.9181 23.0473L73.9239 23.0527L73.9297 23.058L74.9462 21.955ZM71.0012 21.955L72.0177 23.058L72.0235 23.0527L72.0292 23.0473L71.0012 21.955ZM70.5812 25.165L69.2808 25.9127L69.292 25.9321L69.3037 25.9511L70.5812 25.165ZM71.5562 26.08L70.8469 27.4017L70.8535 27.4053L70.8602 27.4087L71.5562 26.08ZM75.6212 20.05V26.92H78.6212V20.05H75.6212ZM75.6212 26.92C75.6212 28.0885 75.3308 28.6418 75.0493 28.911L77.123 31.079C78.2216 30.0282 78.6212 28.5315 78.6212 26.92H75.6212ZM75.0412 28.9189C74.7312 29.2198 74.1422 29.5 72.9962 29.5V32.5C74.5901 32.5 76.0611 32.1102 77.1311 31.0711L75.0412 28.9189ZM72.9962 29.5C72.3881 29.5 71.8229 29.4152 71.2938 29.2518L70.4086 32.1182C71.2395 32.3748 72.1042 32.5 72.9962 32.5V29.5ZM71.2744 29.246C70.7579 29.094 70.4236 28.8981 70.2075 28.7027L68.1948 30.9273C68.8188 31.4919 69.5845 31.876 70.4279 32.124L71.2744 29.246ZM70.4751 30.6069L71.1651 29.4969L68.6172 27.9131L67.9272 29.0231L70.4751 30.6069ZM68.9099 29.8395C69.4506 30.3072 70.0857 30.646 70.7818 30.878L71.7305 28.032C71.3466 27.904 71.0717 27.7428 70.8724 27.5705L68.9099 29.8395ZM70.7664 30.8728C71.4734 31.117 72.2039 31.24 72.9512 31.24V28.24C72.5384 28.24 72.1389 28.173 71.746 28.0372L70.7664 30.8728ZM72.9512 31.24C74.0843 31.24 75.2326 30.9748 76.0668 30.1407L73.9455 28.0193C73.8997 28.0651 73.6781 28.24 72.9512 28.24V31.24ZM76.0548 30.1525C76.8985 29.3276 77.1812 28.1983 77.1812 27.07H74.1812C74.1812 27.7417 74.0138 27.9524 73.9575 28.0075L76.0548 30.1525ZM77.1812 27.07V26.44H74.1812V27.07H77.1812ZM74.5265 25.4825C74.3436 25.7031 74.1218 25.8688 73.8403 25.987L75.002 28.753C75.7205 28.4512 76.3387 27.9969 76.8358 27.3975L74.5265 25.4825ZM73.8543 25.9812C73.5608 26.101 73.2205 26.17 72.8162 26.17V29.17C73.5718 29.17 74.3015 29.039 74.988 28.7588L73.8543 25.9812ZM72.8162 26.17C72.2737 26.17 71.8229 26.0577 71.4341 25.8571L70.0582 28.5229C70.9095 28.9623 71.8386 29.17 72.8162 29.17V26.17ZM71.4599 25.8707C71.0794 25.6648 70.7988 25.3953 70.5905 25.05L68.0219 26.6C68.5135 27.4147 69.193 28.0552 70.0324 28.5093L71.4599 25.8707ZM70.5963 25.0597C70.3963 24.7226 70.2812 24.3216 70.2812 23.815H67.2812C67.2812 24.8084 67.516 25.7474 68.0161 26.5903L70.5963 25.0597ZM70.2812 23.815C70.2812 23.308 70.3964 22.9166 70.5905 22.595L68.0219 21.045C67.516 21.8834 67.2812 22.822 67.2812 23.815H70.2812ZM70.5963 22.5853C70.8039 22.2353 71.078 21.9748 71.443 21.7833L70.0493 19.1267C69.1943 19.5752 68.5085 20.2246 68.0161 21.0547L70.5963 22.5853ZM71.4341 21.7879C71.8229 21.5873 72.2737 21.475 72.8162 21.475V18.475C71.8386 18.475 70.9095 18.6827 70.0582 19.1221L71.4341 21.7879ZM72.8162 21.475C73.2284 21.475 73.5793 21.5496 73.887 21.6823L75.0753 18.9277C74.363 18.6204 73.6039 18.475 72.8162 18.475V21.475ZM73.8967 21.6865C74.1882 21.8098 74.4009 21.9778 74.5662 22.1932L76.9461 20.3668C76.4515 19.7222 75.8142 19.2402 75.0656 18.9235L73.8967 21.6865ZM77.2562 21.28V20.05H74.2562V21.28H77.2562ZM75.7562 21.55H77.1212V18.55H75.7562V21.55ZM72.9812 27.91C73.7191 27.91 74.4327 27.752 75.0854 27.4017L73.6669 24.7583C73.4997 24.848 73.2833 24.91 72.9812 24.91V27.91ZM75.0722 27.4087C75.7275 27.0655 76.2644 26.5694 76.6432 25.927L74.0591 24.403C73.978 24.5406 73.8648 24.6545 73.6802 24.7513L75.0722 27.4087ZM76.6374 25.9367C77.0274 25.2868 77.2112 24.5666 77.2112 23.815H74.2112C74.2112 24.0634 74.155 24.2432 74.0649 24.3933L76.6374 25.9367ZM77.2112 23.815C77.2112 22.6772 76.8167 21.639 75.9627 20.852L73.9297 23.058C74.0957 23.211 74.2112 23.4128 74.2112 23.815H77.2112ZM75.9742 20.8627C75.1461 20.0833 74.1047 19.735 72.9812 19.735V22.735C73.4576 22.735 73.7263 22.8667 73.9181 23.0473L75.9742 20.8627ZM72.9812 19.735C71.8532 19.735 70.8048 20.0799 69.9731 20.8627L72.0292 23.0473C72.2175 22.8701 72.4891 22.735 72.9812 22.735V19.735ZM69.9847 20.852C69.1307 21.639 68.7362 22.6772 68.7362 23.815H71.7362C71.7362 23.4128 71.8517 23.211 72.0177 23.058L69.9847 20.852ZM68.7362 23.815C68.7362 24.5548 68.9092 25.2664 69.2808 25.9127L71.8815 24.4173C71.7932 24.2636 71.7362 24.0752 71.7362 23.815H68.7362ZM69.3037 25.9511C69.6848 26.5705 70.2075 27.0586 70.8469 27.4017L72.2654 24.7583C72.0848 24.6614 71.9575 24.5395 71.8587 24.3789L69.3037 25.9511ZM70.8602 27.4087C71.5192 27.754 72.2377 27.91 72.9812 27.91V24.91C72.6646 24.91 72.4331 24.846 72.2522 24.7513L70.8602 27.4087Z" fill="#AC24FF"/>
</g>
<defs>
<filter id="filter0_dd" x="0.86499" y="0.870117" width="90.7562" height="44.63" filterUnits="userSpaceOnUse" color-interpolation-filters="sRGB">
<feFlood flood-opacity="0" result="BackgroundImageFix"/>
<feColorMatrix in="SourceAlpha" type="matrix" values="0 0 0 0 0 0 0 0 0 0 0 0 0 0 0 0 0 0 127 0"/>
<feOffset dx="3" dy="3"/>
<feGaussianBlur stdDeviation="5"/>
<feColorMatrix type="matrix" values="0 0 0 0 0 0 0 0 0 0 0 0 0 0 0 0 0 0 1 0"/>
<feBlend mode="normal" in2="BackgroundImageFix" result="effect1_dropShadow"/>
<feColorMatrix in="SourceAlpha" type="matrix" values="0 0 0 0 0 0 0 0 0 0 0 0 0 0 0 0 0 0 127 0"/>
<feOffset dx="-3" dy="-3"/>
<feGaussianBlur stdDeviation="5"/>
<feColorMatrix type="matrix" values="0 0 0 0 1 0 0 0 0 1 0 0 0 0 1 0 0 0 0.29 0"/>
<feBlend mode="normal" in2="effect1_dropShadow" result="effect2_dropShadow"/>
<feBlend mode="normal" in="SourceGraphic" in2="effect2_dropShadow" result="shape"/>
</filter>
</defs>
</svg>
