<svg width="52" height="52" viewBox="0 0 52 52" fill="none" xmlns="http://www.w3.org/2000/svg">
<g filter="url(#filter0_dd)">
<path d="M26 13C18.8551 13 13 18.9059 13 26.0508C13 33.1542 18.8018 39 26 39C33.1893 39 39 33.1629 39 26.0508C39 18.9059 33.1449 13 26 13ZM28.2852 37.248C27.554 37.4004 26.777 37.4766 26 37.4766C25.223 37.4766 24.446 37.4004 23.7148 37.248V33.6832C23.7148 32.8301 23.9434 32.5254 24.248 32.114C24.4032 31.9366 24.4968 31.7776 25.1925 30.7278L24.0195 30.5449C21.003 30.1032 19.8148 28.5339 19.3425 27.3152C18.7331 25.6852 19.0531 23.6436 20.15 22.3489C20.3177 22.1507 20.4547 21.8155 20.3329 21.4652C20.1042 20.7644 20.1348 19.6523 20.2871 19.2257C21.0948 19.3411 21.9254 19.9197 22.6181 20.3379C22.9373 20.5242 23.1047 20.475 23.2578 20.4902C23.8144 20.3744 24.6827 20.0941 26.0153 20.0941C26.8379 20.0941 27.7063 20.2159 28.5595 20.4597C28.712 20.4561 28.9572 20.5858 29.3821 20.3379C30.1061 19.8967 30.9085 19.3379 31.7129 19.2257C31.8652 19.6523 31.8958 20.7644 31.6673 21.4652C31.5453 21.8155 31.6823 22.1507 31.8502 22.3489C32.9469 23.6438 33.2669 25.6852 32.6575 27.3152C32.1852 28.5339 30.997 30.1032 27.9805 30.5449L26.8075 30.7278C27.5266 31.8129 27.6024 31.943 27.7522 32.114C28.0566 32.5254 28.2852 32.8301 28.2852 33.6832V37.248ZM29.8086 36.8063V33.6832C29.8086 32.8148 29.6257 32.236 29.3819 31.8093C31.6976 31.1848 33.343 29.8136 34.0742 27.8484C34.8512 25.7766 34.5009 23.3086 33.2058 21.6023C33.4345 20.5817 33.4345 18.9515 32.886 18.1898C32.6422 17.8548 32.307 17.6719 31.8805 17.6719C31.8652 17.6719 31.8652 17.6719 31.8652 17.6719C30.684 17.7357 29.7542 18.3306 28.7575 18.9362C27.8434 18.6925 26.9141 18.5707 25.9847 18.5707C25.0403 18.5707 24.0957 18.7077 23.258 18.9362C22.2087 18.3035 21.2879 17.7342 20.0739 17.6719C19.693 17.6719 19.3578 17.8548 19.114 18.1898C18.5657 18.9515 18.5657 20.5817 18.7942 21.6023C17.4991 23.3086 17.1488 25.7917 17.9258 27.8484C18.657 29.8136 20.3024 31.1848 22.6181 31.8093C22.429 32.14 22.2795 32.5667 22.2206 33.1441C21.7528 33.3054 21.3472 33.3579 20.9699 33.247C20.572 33.1294 20.2619 32.8638 19.9925 32.4107C19.3875 31.3943 18.357 30.5646 17.1837 30.6725L17.3176 32.19C17.8609 32.1402 18.4017 32.715 18.6825 33.1889C19.1459 33.9693 19.7702 34.4811 20.5384 34.708C21.1087 34.876 21.63 34.872 22.1914 34.7522V36.8063C17.7582 35.2523 14.5234 31.0172 14.5234 26.0508C14.5234 19.7438 19.693 14.5234 26 14.5234C32.307 14.5234 37.4766 19.7438 37.4766 26.0508C37.4766 31.0172 34.2418 35.2523 29.8086 36.8063Z" fill="#AC24FF"/>
</g>
<defs>
<filter id="filter0_dd" x="0" y="0" width="52" height="52" filterUnits="userSpaceOnUse" color-interpolation-filters="sRGB">
<feFlood flood-opacity="0" result="BackgroundImageFix"/>
<feColorMatrix in="SourceAlpha" type="matrix" values="0 0 0 0 0 0 0 0 0 0 0 0 0 0 0 0 0 0 127 0"/>
<feOffset dx="-3" dy="-3"/>
<feGaussianBlur stdDeviation="5"/>
<feColorMatrix type="matrix" values="0 0 0 0 1 0 0 0 0 1 0 0 0 0 1 0 0 0 0.3 0"/>
<feBlend mode="normal" in2="BackgroundImageFix" result="effect1_dropShadow"/>
<feColorMatrix in="SourceAlpha" type="matrix" values="0 0 0 0 0 0 0 0 0 0 0 0 0 0 0 0 0 0 127 0"/>
<feOffset dx="3" dy="3"/>
<feGaussianBlur stdDeviation="5"/>
<feColorMatrix type="matrix" values="0 0 0 0 0 0 0 0 0 0 0 0 0 0 0 0 0 0 1 0"/>
<feBlend mode="normal" in2="effect1_dropShadow" result="effect2_dropShadow"/>
<feBlend mode="normal" in="SourceGraphic" in2="effect2_dropShadow" result="shape"/>
</filter>
</defs>
</svg>
