<svg width="50" height="50" viewBox="0 0 50 50" fill="none" xmlns="http://www.w3.org/2000/svg">
<g filter="url(#filter0_dd)">
<path d="M16.8086 39H35.1914C37.2915 39 39 37.2915 39 35.1914V16.8086C39 14.7085 37.2915 13 35.1914 13H16.8086C14.7085 13 13 14.7085 13 16.8086V35.1914C13 37.2915 14.7085 39 16.8086 39ZM14.5234 16.8086C14.5234 15.5486 15.5486 14.5234 16.8086 14.5234H35.1914C36.4514 14.5234 37.4766 15.5486 37.4766 16.8086V35.1914C37.4766 36.4514 36.4514 37.4766 35.1914 37.4766H16.8086C15.5486 37.4766 14.5234 36.4514 14.5234 35.1914V16.8086Z" fill="#AC24FF"/>
<path d="M26 32.8555C29.78 32.8555 32.8555 29.78 32.8555 26C32.8555 22.22 29.78 19.1445 26 19.1445C22.22 19.1445 19.1445 22.22 19.1445 26C19.1445 29.78 22.22 32.8555 26 32.8555ZM26 20.668C28.9402 20.668 31.332 23.0598 31.332 26C31.332 28.9402 28.9402 31.332 26 31.332C23.0598 31.332 20.668 28.9402 20.668 26C20.668 23.0598 23.0598 20.668 26 20.668Z" fill="#AC24FF"/>
<path d="M33.6172 20.668C34.8772 20.668 35.9023 19.6428 35.9023 18.3828C35.9023 17.1228 34.8772 16.0977 33.6172 16.0977C32.3572 16.0977 31.332 17.1228 31.332 18.3828C31.332 19.6428 32.3572 20.668 33.6172 20.668ZM33.6172 17.6211C34.0371 17.6211 34.3789 17.9629 34.3789 18.3828C34.3789 18.8027 34.0371 19.1445 33.6172 19.1445C33.1973 19.1445 32.8555 18.8027 32.8555 18.3828C32.8555 17.9629 33.1973 17.6211 33.6172 17.6211Z" fill="#AC24FF"/>
</g>
<defs>
<filter id="filter0_dd" x="0" y="0" width="50" height="50" filterUnits="userSpaceOnUse" color-interpolation-filters="sRGB">
<feFlood flood-opacity="0" result="BackgroundImageFix"/>
<feColorMatrix in="SourceAlpha" type="matrix" values="0 0 0 0 0 0 0 0 0 0 0 0 0 0 0 0 0 0 127 0"/>
<feOffset dx="3" dy="3"/>
<feGaussianBlur stdDeviation="4"/>
<feColorMatrix type="matrix" values="0 0 0 0 0 0 0 0 0 0 0 0 0 0 0 0 0 0 1 0"/>
<feBlend mode="normal" in2="BackgroundImageFix" result="effect1_dropShadow"/>
<feColorMatrix in="SourceAlpha" type="matrix" values="0 0 0 0 0 0 0 0 0 0 0 0 0 0 0 0 0 0 127 0"/>
<feOffset dx="-3" dy="-3"/>
<feGaussianBlur stdDeviation="5"/>
<feColorMatrix type="matrix" values="0 0 0 0 1 0 0 0 0 1 0 0 0 0 1 0 0 0 0.29 0"/>
<feBlend mode="normal" in2="effect1_dropShadow" result="effect2_dropShadow"/>
<feBlend mode="normal" in="SourceGraphic" in2="effect2_dropShadow" result="shape"/>
</filter>
</defs>
</svg>
