<svg width="52" height="52" viewBox="0 0 52 52" fill="none" xmlns="http://www.w3.org/2000/svg">
<g filter="url(#filter0_dd)">
<path d="M35.1914 13H16.8086C14.7085 13 13 14.7085 13 16.8086V35.1914C13 37.2915 14.7085 39 16.8086 39H35.1914C37.2915 39 39 37.2915 39 35.1914V16.8086C39 14.7085 37.2915 13 35.1914 13ZM37.4766 35.1914C37.4766 36.4514 36.4514 37.4766 35.1914 37.4766H16.8086C15.5486 37.4766 14.5234 36.4514 14.5234 35.1914V16.8086C14.5234 15.5486 15.5486 14.5234 16.8086 14.5234H35.1914C36.4514 14.5234 37.4766 15.5486 37.4766 16.8086V35.1914Z" fill="#AC24FF"/>
<path d="M17.6211 34.4297H22.1914V23.6641H17.6211V34.4297ZM19.1445 25.1875H20.668V32.9062H19.1445V25.1875Z" fill="#AC24FF"/>
<path d="M29.813 23.6641C29.8116 23.6641 29.81 23.6641 29.8086 23.6641C29.2819 23.6641 28.769 23.7521 28.2852 23.9231V23.6641H23.7148V34.4297H28.2852V28.9961C28.2852 28.5762 28.6269 28.2344 29.0469 28.2344C29.4668 28.2344 29.8086 28.5762 29.8086 28.9961V34.4297H34.3789V28.4724C34.3789 26.0071 32.379 23.6664 29.813 23.6641ZM32.8555 32.9062H31.332V28.9961C31.332 27.7361 30.3069 26.7109 29.0469 26.7109C27.7869 26.7109 26.7619 27.7361 26.7617 28.9959V32.9062H25.2383V25.1875H26.7617V26.7119L27.9809 25.7963C28.5111 25.398 29.1431 25.1875 29.8086 25.1875H29.8116C31.433 25.1891 32.8555 26.724 32.8555 28.4724V32.9062Z" fill="#AC24FF"/>
<path d="M17.6211 22.1406H22.1914V17.5703H17.6211V22.1406ZM19.1445 19.0938H20.668V20.6172H19.1445V19.0938Z" fill="#AC24FF"/>
</g>
<defs>
<filter id="filter0_dd" x="0" y="0" width="52" height="52" filterUnits="userSpaceOnUse" color-interpolation-filters="sRGB">
<feFlood flood-opacity="0" result="BackgroundImageFix"/>
<feColorMatrix in="SourceAlpha" type="matrix" values="0 0 0 0 0 0 0 0 0 0 0 0 0 0 0 0 0 0 127 0"/>
<feOffset dx="-3" dy="-3"/>
<feGaussianBlur stdDeviation="5"/>
<feColorMatrix type="matrix" values="0 0 0 0 1 0 0 0 0 1 0 0 0 0 1 0 0 0 0.29 0"/>
<feBlend mode="normal" in2="BackgroundImageFix" result="effect1_dropShadow"/>
<feColorMatrix in="SourceAlpha" type="matrix" values="0 0 0 0 0 0 0 0 0 0 0 0 0 0 0 0 0 0 127 0"/>
<feOffset dx="3" dy="3"/>
<feGaussianBlur stdDeviation="5"/>
<feColorMatrix type="matrix" values="0 0 0 0 0 0 0 0 0 0 0 0 0 0 0 0 0 0 1 0"/>
<feBlend mode="normal" in2="effect1_dropShadow" result="effect2_dropShadow"/>
<feBlend mode="normal" in="SourceGraphic" in2="effect2_dropShadow" result="shape"/>
</filter>
</defs>
</svg>
