<?xml version="1.0" encoding="utf-8"?>
<!-- Generator: Adobe Illustrator 21.0.0, SVG Export Plug-In . SVG Version: 6.00 Build 0)  -->
<svg version="1.1" id="Слой_1" xmlns="http://www.w3.org/2000/svg" xmlns:xlink="http://www.w3.org/1999/xlink" x="0px" y="0px"
	 viewBox="0 0 143 42" style="enable-background:new 0 0 143 42;" xml:space="preserve">
<style type="text/css">
	.st0{fill:#A6A6A6;}
	.st1{display:none;fill:#FFFFFF;}
	.st2{fill:#FEFEFE;}
	.st3{fill:#FEFEFE;fill-opacity:0.2;}
</style>
<g id="Layer_2">
	<g id="Layer_1-2">
		<path d="M137.2,41.5H5.8c-2.8,0.1-5.2-2.2-5.3-5c0,0,0-0.1,0-0.1l0,0V5.6c0.1-2.9,2.4-5.1,5.3-5.1h131.5c2.9,0,5.2,2.2,5.3,5.1
			v30.8C142.5,39.3,140.1,41.5,137.2,41.5L137.2,41.5z"/>
		<path class="st0" d="M137.6,1c2.4,0,4.4,2,4.4,4.4v31.3c0,2.4-2,4.4-4.4,4.4H5.4C3,41,1.1,39,1,36.6V5.4C1,3,3,1,5.4,1H137.6z
			 M137.7,0H5.3C2.4,0,0.1,2.3,0,5.2v31.5C0,39.6,2.4,42,5.3,42h132.4c2.9,0,5.2-2.3,5.3-5.2V5.2C142.9,2.3,140.6,0,137.7,0L137.7,0
			z"/>
		<path class="st1" d="M41.6,31.9l5.2-13.4l5.3,13.4h-2l-0.7-1.8h-5l-0.7,1.8H41.6z M46.9,23.6l-1.7,4.6h3.5L46.9,23.6z"/>
		<path class="st1" d="M60.3,27.1v4.8h-1.9v-4.6c0-0.4-0.1-0.8-0.3-1.1c-0.2-0.3-0.6-0.5-1-0.5c-0.5,0-0.9,0.2-1.2,0.5
			c-0.3,0.5-0.5,1-0.5,1.6v4h-1.9V24h1.9v0.6c1.2-1,2.9-1.1,4.1-0.1C60.1,25.2,60.4,26.2,60.3,27.1z"/>
		<path class="st1" d="M68.6,31.9v-0.6c-0.1,0.1-0.2,0.2-0.3,0.2c-0.3,0.1-0.5,0.2-0.8,0.3c-0.4,0.1-0.9,0.2-1.3,0.2
			c-1,0-2-0.4-2.8-1.1c-0.8-0.8-1.2-1.8-1.1-2.9c0-1.1,0.4-2.1,1.1-2.9c0.7-0.8,1.7-1.2,2.8-1.1c0.4,0,0.9,0.1,1.3,0.2
			c0.3,0.1,0.6,0.2,0.8,0.4l0.3,0.2V19h1.9v12.9H68.6z M68,29.7c0.8-1,0.8-2.4,0-3.4c-0.9-0.8-2.3-0.8-3.2,0c-0.8,1-0.8,2.4,0,3.4
			C65.7,30.5,67.1,30.5,68,29.7z"/>
		<path class="st1" d="M77.1,25.7c-0.6-0.1-1.2,0.1-1.7,0.5c-0.5,0.4-0.7,1.1-0.6,1.7v4H73v-7.8h1.9v0.6c0.6-0.6,1.5-0.8,2.3-0.8
			v1.8H77.1z"/>
		<path class="st1" d="M84.9,25.1c0.8,0.8,1.2,1.8,1.2,2.9c0,1.1-0.4,2.1-1.2,2.9c-1.6,1.6-4.2,1.6-5.8,0c-0.8-0.8-1.2-1.8-1.2-2.9
			c0-1.1,0.4-2.1,1.2-2.9C80.7,23.5,83.3,23.5,84.9,25.1C84.9,25.1,84.9,25.1,84.9,25.1z M80.4,26.3c-0.4,0.5-0.6,1.1-0.6,1.7
			c0,0.6,0.2,1.2,0.6,1.7c0.4,0.5,1,0.7,1.6,0.6c0.6,0,1.2-0.2,1.6-0.6c0.4-0.5,0.6-1.1,0.6-1.7c0-0.6-0.2-1.2-0.6-1.7
			c-0.4-0.5-1-0.7-1.6-0.6C81.4,25.7,80.8,25.9,80.4,26.3z"/>
		<path class="st1" d="M88.1,22.4v-2.3H90v2.3H88.1z M88.1,31.9v-7.8H90v7.8L88.1,31.9z"/>
		<path class="st1" d="M98.3,31.9v-0.6c-0.1,0.1-0.2,0.2-0.3,0.2c-0.3,0.1-0.5,0.2-0.8,0.3c-0.4,0.1-0.9,0.2-1.3,0.2
			c-1,0-2-0.4-2.8-1.1c-0.8-0.8-1.2-1.8-1.1-2.9c0-1.1,0.4-2.1,1.1-2.9c0.7-0.8,1.7-1.2,2.8-1.1c0.4,0,0.9,0.1,1.3,0.2
			c0.3,0.1,0.6,0.2,0.8,0.4l0.3,0.2V19h1.9v12.9H98.3z M97.7,29.7c0.8-1,0.8-2.4,0-3.4c-0.9-0.8-2.3-0.8-3.2,0c-0.8,1-0.8,2.4,0,3.4
			C95.4,30.5,96.8,30.5,97.7,29.7z"/>
		<path class="st1" d="M107,31.9l5.2-13.4l5.3,13.4h-2l-0.7-1.8h-5l-0.7,1.8H107z M112.3,23.6l-1.7,4.6h3.5L112.3,23.6z"/>
		<path class="st1" d="M120.9,31.3v4H119V24.1h1.9v0.6c0.1-0.1,0.2-0.2,0.3-0.2c0.2-0.2,0.5-0.3,0.8-0.3c0.4-0.1,0.9-0.2,1.3-0.2
			c1,0,2,0.4,2.8,1.1c0.7,0.8,1.1,1.8,1.1,2.9c0,1.1-0.4,2.1-1.1,2.9c-0.8,0.7-1.8,1.1-2.8,1.1c-0.4,0-0.9-0.1-1.3-0.2
			c-0.3-0.1-0.6-0.2-0.8-0.4L120.9,31.3z M121.5,26.3c-0.8,1-0.8,2.4,0,3.4c0.9,0.8,2.3,0.8,3.2,0c0.8-1,0.8-2.4,0-3.4
			C123.8,25.5,122.4,25.5,121.5,26.3z"/>
		<path class="st1" d="M131.1,31.3v4h-1.9V24.1h1.9v0.6c0.1-0.1,0.2-0.2,0.3-0.2c0.2-0.2,0.5-0.3,0.8-0.3c0.4-0.1,0.9-0.2,1.3-0.2
			c1,0,2,0.4,2.8,1.1c0.7,0.8,1.1,1.8,1.1,2.9c0,1.1-0.4,2.1-1.1,2.9c-0.8,0.7-1.8,1.1-2.8,1.1c-0.4,0-0.9-0.1-1.3-0.2
			c-0.3-0.1-0.6-0.2-0.8-0.4L131.1,31.3z M131.6,26.3c-0.8,1-0.8,2.4,0,3.4c0.9,0.8,2.3,0.8,3.2,0c0.8-1,0.8-2.4,0-3.4
			C133.9,25.5,132.5,25.5,131.6,26.3z"/>
		<path class="st1" d="M25.6,9.8l1.3-2c0.1-0.1,0.1-0.3,0-0.3c-0.1-0.1-0.2,0-0.3,0c0,0,0,0,0,0.1l-1.4,2c-1.9-0.8-4.1-0.8-6,0
			l-1.4-2c-0.1-0.1-0.2-0.2-0.3-0.1c-0.1,0.1-0.1,0.2,0,0.3c0,0,0,0,0,0l1.3,2c-2.1,0.9-3.5,2.8-3.8,5.1h14.6
			C29.2,12.7,27.7,10.8,25.6,9.8z M19,12.9c-0.4,0-0.8-0.4-0.8-0.8s0.4-0.8,0.8-0.8c0.4,0,0.8,0.4,0.8,0.8c0,0,0,0,0,0
			C19.9,12.6,19.5,12.9,19,12.9z M25.2,12.9c-0.4,0-0.8-0.4-0.8-0.8s0.4-0.8,0.8-0.8c0.4,0,0.8,0.4,0.8,0.8c0,0,0,0,0,0
			C26,12.5,25.7,12.9,25.2,12.9C25.2,12.9,25.2,12.9,25.2,12.9z"/>
		<path class="st1" d="M12.2,16c-0.9,0-1.6,0.7-1.6,1.6c0,0,0,0,0,0v6.6c0,0.9,0.7,1.6,1.6,1.6c0.9,0,1.6-0.7,1.6-1.6v-6.6
			c0-0.8-0.6-1.6-1.4-1.6C12.3,16,12.3,16,12.2,16z"/>
		<path class="st1" d="M14.8,27.9c0,0.7,0.6,1.3,1.3,1.3h1.5v3.7c0,0.9,0.7,1.6,1.6,1.6s1.6-0.7,1.6-1.6v-3.7h2.5v3.7
			c0,0.9,0.7,1.6,1.6,1.6s1.6-0.7,1.6-1.6v-3.7H28c0.7,0,1.3-0.6,1.3-1.3V16H14.8V27.9z"/>
		<path class="st1" d="M32,16c-0.9,0-1.6,0.7-1.6,1.6c0,0,0,0,0,0v6.6c0,0.9,0.7,1.6,1.6,1.6s1.6-0.7,1.6-1.6c0,0,0,0,0,0v-6.6
			C33.6,16.7,32.9,16,32,16C32,16,32,16,32,16z"/>
		<path class="st1" d="M42.3,12.9V5.8h2.1c0.6,0,1.2,0.1,1.7,0.4c0.5,0.3,0.9,0.7,1.1,1.2c0.3,0.6,0.4,1.2,0.4,1.8v0.4
			c0,0.6-0.1,1.2-0.4,1.8c-0.3,0.5-0.7,0.9-1.2,1.2c-0.5,0.3-1.1,0.4-1.7,0.4H42.3z M43.6,6.8v5.1h0.8c0.6,0,1.1-0.2,1.5-0.6
			c0.4-0.5,0.6-1.1,0.5-1.8V9.2c0-0.6-0.1-1.3-0.5-1.8C45.5,7,45,6.8,44.4,6.8H43.6z"/>
		<path class="st1" d="M48.5,10.2c0-0.5,0.1-1,0.3-1.4c0.2-0.4,0.5-0.8,0.9-1c0.4-0.2,0.9-0.3,1.3-0.3c0.7,0,1.3,0.2,1.7,0.7
			c0.4,0.5,0.7,1.1,0.7,1.8v0.3c0,0.5-0.1,1-0.3,1.4c-0.2,0.4-0.5,0.7-0.9,0.9C51.9,12.9,51.4,13,51,13c-0.7,0-1.3-0.2-1.8-0.8
			C48.7,11.7,48.5,11,48.5,10.2L48.5,10.2z M49.7,10.3c0,0.4,0.1,0.9,0.3,1.3c0.2,0.3,0.6,0.5,0.9,0.5c0.4,0,0.7-0.2,0.9-0.5
			c0.3-0.4,0.4-0.9,0.3-1.4c0-0.5-0.1-0.9-0.3-1.3c-0.2-0.3-0.5-0.5-0.9-0.5c-0.4,0-0.7,0.2-0.9,0.5C49.8,9.3,49.7,9.8,49.7,10.3z"
			/>
		<path class="st1" d="M59.1,11.3l0.8-3.6h1.2l-1.4,5.3h-1l-1.1-3.6l-1.1,3.6h-1L54,7.6h1.2l0.8,3.6l1.1-3.6H58L59.1,11.3z"/>
		<path class="st1" d="M63,7.6v0.6c0.4-0.5,0.9-0.7,1.5-0.7c1.1,0,1.7,0.6,1.7,1.9v3.5H65V9.5c0-0.3-0.1-0.5-0.2-0.8
			c-0.2-0.2-0.4-0.3-0.7-0.2c-0.5,0-0.9,0.2-1.1,0.7v3.8h-1.2V7.6H63z"/>
		<path class="st1" d="M68.7,12.9h-1.2V5.4h1.2V12.9z"/>
		<path class="st1" d="M69.8,10.2c0-0.5,0.1-1,0.3-1.4c0.2-0.4,0.5-0.8,0.9-1c0.4-0.2,0.8-0.3,1.3-0.3c0.7,0,1.3,0.2,1.8,0.7
			c0.4,0.5,0.7,1.1,0.7,1.8v0.3c0,0.5-0.1,1-0.3,1.4c-0.2,0.4-0.5,0.7-0.9,0.9c-0.4,0.2-0.8,0.4-1.3,0.3c-0.7,0-1.3-0.2-1.8-0.8
			C70,11.7,69.7,10.9,69.8,10.2L69.8,10.2z M71,10.3c0,0.5,0.1,0.9,0.3,1.3c0.2,0.3,0.6,0.5,0.9,0.5c0.4,0,0.7-0.2,0.9-0.5
			c0.3-0.4,0.4-0.9,0.3-1.4c0-0.5-0.1-0.9-0.3-1.3c-0.2-0.3-0.6-0.5-0.9-0.5c-0.4,0-0.7,0.2-0.9,0.5C71.1,9.3,70.9,9.8,71,10.3
			L71,10.3z"/>
		<path class="st1" d="M78.8,12.9c-0.1-0.2-0.1-0.3-0.1-0.5c-0.7,0.7-1.9,0.8-2.7,0.1c-0.3-0.3-0.5-0.7-0.5-1.1c0-0.5,0.2-1,0.6-1.3
			c0.5-0.3,1.2-0.5,1.8-0.4h0.7V9.3c0-0.2-0.1-0.5-0.2-0.7c-0.2-0.2-0.4-0.3-0.7-0.2c-0.2,0-0.5,0.1-0.7,0.2
			c-0.2,0.1-0.3,0.3-0.3,0.5h-1.2c0-0.3,0.1-0.6,0.3-0.8c0.2-0.3,0.5-0.5,0.8-0.6c0.4-0.1,0.7-0.2,1.1-0.2c0.5,0,1.1,0.1,1.5,0.5
			c0.4,0.3,0.6,0.8,0.6,1.3v2.4c0,0.4,0.1,0.8,0.2,1.1v0.1L78.8,12.9z M77.5,12c0.2,0,0.5-0.1,0.7-0.2c0.2-0.1,0.4-0.3,0.5-0.4v-1
			H78c-0.3,0-0.7,0.1-1,0.2c-0.2,0.1-0.3,0.4-0.3,0.6c0,0.2,0.1,0.4,0.2,0.5C77.1,12,77.3,12.1,77.5,12z"/>
		<path class="st1" d="M80.9,10.2c0-0.7,0.2-1.4,0.6-2c0.4-0.5,1-0.7,1.6-0.7c0.5,0,1,0.2,1.3,0.6V5.4h1.2v7.5h-1.1l-0.1-0.6
			C84,12.8,83.5,13,82.9,13c-0.6,0-1.2-0.3-1.5-0.8C81,11.7,80.8,10.9,80.9,10.2z M82.1,10.3c0,0.4,0.1,0.9,0.3,1.3
			c0.2,0.3,0.5,0.5,0.9,0.4c0.5,0,0.9-0.2,1.1-0.6V9.1c-0.2-0.4-0.6-0.6-1-0.6c-0.4,0-0.7,0.2-0.9,0.5C82.2,9.4,82,9.8,82.1,10.3z"
			/>
	</g>
</g>
<g id="Слой_x0020_1">
	<path class="st2" d="M51.4,12c0,0.8-0.2,1.5-0.7,2c-0.6,0.6-1.3,0.9-2.2,0.9c-0.9,0-1.6-0.3-2.2-0.9c-0.6-0.6-0.9-1.3-0.9-2.2
		c0-0.9,0.3-1.6,0.9-2.2c0.6-0.6,1.3-0.9,2.2-0.9c0.4,0,0.8,0.1,1.2,0.3c0.4,0.2,0.7,0.4,0.9,0.7l-0.5,0.5c-0.4-0.5-0.9-0.7-1.6-0.7
		c-0.6,0-1.2,0.2-1.6,0.7c-0.5,0.4-0.7,1-0.7,1.7c0,0.7,0.2,1.3,0.7,1.7s1,0.7,1.6,0.7c0.7,0,1.2-0.2,1.7-0.7
		c0.3-0.3,0.5-0.7,0.5-1.2h-2.2l0-0.8l2.9,0V12z M55.9,9.5h-2.7v1.9h2.5v0.7h-2.5v1.9h2.7v0.8h-3.4V8.8h3.5L55.9,9.5z M59.1,14.7
		h-0.8V9.5h-1.7V8.8h4.1v0.7h-1.7V14.7z M63.7,14.7l0-5.9h0.8v5.9H63.7z M67.8,14.7H67V9.5h-1.7V8.8h4v0.7h-1.7L67.8,14.7L67.8,14.7
		z M77.2,13.9c-0.6,0.6-1.3,0.9-2.2,0.9c-0.9,0-1.6-0.3-2.2-0.9c-0.6-0.6-0.9-1.3-0.9-2.2c0-0.9,0.3-1.6,0.9-2.2s1.3-0.9,2.2-0.9
		c0.9,0,1.6,0.3,2.2,0.9c0.6,0.6,0.9,1.3,0.9,2.2S77.8,13.4,77.2,13.9z M73.4,13.5c0.4,0.4,1,0.7,1.6,0.7s1.2-0.2,1.6-0.7
		c0.4-0.4,0.7-1,0.7-1.7s-0.2-1.3-0.7-1.7c-0.4-0.4-1-0.7-1.6-0.7s-1.2,0.2-1.6,0.7c-0.4,0.4-0.7,1-0.7,1.7
		C72.7,12.5,72.9,13.1,73.4,13.5z M79.1,14.7l0-5.9H80l2.9,4.6V8.8h0.8v5.9h-0.8l-3.1-4.8v4.8H79.1z"/>
	<path class="st2" d="M51.5,12c0,0.4-0.1,0.8-0.2,1.1c-0.1,0.3-0.3,0.7-0.6,0.9c-0.3,0.3-0.6,0.5-1,0.7c-0.4,0.2-0.8,0.2-1.2,0.2
		s-0.9-0.1-1.2-0.2c-0.4-0.2-0.7-0.4-1-0.7c-0.3-0.3-0.5-0.6-0.7-1c-0.2-0.4-0.2-0.8-0.2-1.2s0.1-0.9,0.2-1.2s0.4-0.7,0.7-1
		c0.3-0.3,0.6-0.5,1-0.7c0.4-0.2,0.8-0.2,1.2-0.2c0.2,0,0.4,0,0.6,0.1c0.2,0,0.4,0.1,0.6,0.2c0.2,0.1,0.4,0.2,0.5,0.3
		c0.2,0.1,0.3,0.2,0.4,0.4l0,0.1l-0.6,0.6L50,10.3c-0.2-0.2-0.4-0.4-0.6-0.5c-0.2-0.1-0.5-0.2-0.9-0.2c-0.3,0-0.6,0.1-0.9,0.2
		c-0.2,0.1-0.5,0.3-0.6,0.5l0,0l0,0c-0.2,0.2-0.4,0.4-0.5,0.7c-0.1,0.3-0.2,0.6-0.2,0.9c0,0.3,0,0.7,0.2,0.9
		c0.1,0.3,0.3,0.5,0.5,0.7c0.2,0.2,0.5,0.4,0.7,0.5c0.2,0.1,0.5,0.2,0.8,0.2c0.3,0,0.6-0.1,0.9-0.2c0.3-0.1,0.5-0.3,0.7-0.5
		c0.1-0.1,0.3-0.3,0.3-0.5c0.1-0.2,0.1-0.3,0.1-0.5h-2.2l0-1l3.1,0V12z M51.1,13c0.1-0.3,0.2-0.7,0.2-1.1v-0.3l-2.7,0v0.6h2.2v0.1
		c0,0.2,0,0.5-0.1,0.7c-0.1,0.2-0.2,0.4-0.4,0.6c-0.3,0.3-0.5,0.4-0.8,0.6c-0.3,0.1-0.6,0.2-0.9,0.2c-0.3,0-0.6-0.1-0.9-0.2
		c-0.3-0.1-0.5-0.3-0.8-0.5c-0.2-0.2-0.4-0.4-0.5-0.7c-0.1-0.3-0.2-0.6-0.2-1c0-0.4,0.1-0.7,0.2-1c0.1-0.3,0.3-0.5,0.5-0.7
		c0.2-0.2,0.4-0.4,0.7-0.5c0.3-0.1,0.6-0.2,0.9-0.2c0.4,0,0.7,0.1,0.9,0.2c0.2,0.1,0.5,0.3,0.6,0.5l0.4-0.4
		c-0.1-0.1-0.2-0.2-0.3-0.3c-0.1-0.1-0.3-0.2-0.5-0.3c-0.2-0.1-0.4-0.2-0.6-0.2c-0.2-0.1-0.4-0.1-0.6-0.1c-0.4,0-0.8,0.1-1.2,0.2
		c-0.3,0.1-0.7,0.4-0.9,0.6c-0.3,0.3-0.5,0.6-0.6,0.9c-0.1,0.3-0.2,0.7-0.2,1.2c0,0.4,0.1,0.8,0.2,1.2c0.1,0.3,0.4,0.7,0.6,0.9
		c0.3,0.3,0.6,0.5,0.9,0.6c0.3,0.1,0.7,0.2,1.2,0.2c0.4,0,0.8-0.1,1.2-0.2c0.3-0.1,0.7-0.4,0.9-0.6C50.8,13.6,51,13.4,51.1,13z
		 M55.9,9.6h-2.6v1.7h2.5v0.9h-2.5v1.7H56v1h-3.6c0-2,0-4.1,0-6.1H56L55.9,9.6L55.9,9.6z M53.2,9.4h2.6V8.9h-3.3v5.7h3.2V14h-2.7V12
		h2.5v-0.5h-2.5L53.2,9.4L53.2,9.4z M59.1,14.8h-0.9V9.6h-1.7V8.7h4.3v0.9h-1.7L59.1,14.8L59.1,14.8z M58.4,14.6H59V9.4h1.7V8.9
		h-3.9v0.5h1.7V14.6z M63.6,14.7l0-6h1c0,2,0,4.1,0,6.1L63.6,14.7L63.6,14.7z M63.8,8.9l0,5.7h0.6V8.9H63.8z M67.8,14.8h-0.9V9.6
		h-1.7V8.7h4.2v0.9h-1.7v5l0,0V14.8z M67.1,14.6h0.5V9.4h1.7V8.9h-3.8v0.5l1.7,0V14.6z M77.2,14c-0.3,0.3-0.6,0.5-1,0.7
		c-0.4,0.2-0.8,0.2-1.2,0.2s-0.9-0.1-1.2-0.2c-0.4-0.2-0.7-0.4-1-0.7c-0.3-0.3-0.5-0.6-0.7-1c-0.2-0.4-0.2-0.8-0.2-1.2
		s0.1-0.9,0.2-1.2c0.2-0.4,0.4-0.7,0.7-1c0.3-0.3,0.6-0.5,1-0.7c0.4-0.2,0.8-0.2,1.2-0.2s0.9,0.1,1.2,0.2c0.4,0.2,0.7,0.4,1,0.7
		s0.5,0.6,0.7,1c0.2,0.4,0.2,0.8,0.2,1.2s-0.1,0.9-0.2,1.2C77.8,13.4,77.5,13.7,77.2,14z M76.2,14.5c0.3-0.1,0.7-0.4,0.9-0.6
		c0.3-0.3,0.5-0.6,0.6-0.9c0.1-0.3,0.2-0.7,0.2-1.2s-0.1-0.8-0.2-1.2c-0.1-0.3-0.4-0.7-0.6-0.9c-0.3-0.3-0.6-0.5-0.9-0.6
		c-0.3-0.1-0.7-0.2-1.2-0.2c-0.4,0-0.8,0.1-1.2,0.2c-0.3,0.1-0.7,0.4-0.9,0.6c-0.3,0.3-0.5,0.6-0.6,0.9C72.1,11,72,11.3,72,11.8
		c0,0.4,0.1,0.8,0.2,1.2c0.1,0.3,0.4,0.7,0.6,0.9c0.3,0.3,0.6,0.5,0.9,0.6c0.3,0.1,0.7,0.2,1.2,0.2C75.4,14.7,75.8,14.7,76.2,14.5z
		 M73.5,13.4c0.2,0.2,0.4,0.4,0.7,0.5C74.5,14,74.7,14,75,14c0.3,0,0.6-0.1,0.9-0.2c0.2-0.1,0.5-0.3,0.6-0.5l0,0v0
		c0.2-0.2,0.4-0.4,0.5-0.7c0.1-0.3,0.2-0.6,0.2-0.9c0-0.3-0.1-0.7-0.2-0.9c-0.1-0.3-0.3-0.5-0.5-0.7h0v0c-0.2-0.2-0.4-0.4-0.7-0.5
		c-0.2-0.1-0.5-0.2-0.8-0.2c-0.3,0-0.6,0.1-0.9,0.2c-0.2,0.1-0.5,0.3-0.6,0.5l0,0h0c-0.2,0.2-0.4,0.5-0.5,0.7
		c-0.1,0.3-0.2,0.5-0.2,0.9c0,0.3,0.1,0.7,0.2,0.9C73.1,13,73.3,13.2,73.5,13.4L73.5,13.4L73.5,13.4z M74.1,14.1
		c-0.3-0.1-0.6-0.3-0.8-0.5c-0.2-0.2-0.4-0.5-0.5-0.7c-0.1-0.3-0.2-0.6-0.2-1c0-0.3,0.1-0.7,0.2-0.9c0.1-0.3,0.3-0.6,0.5-0.8
		c0.2-0.2,0.4-0.4,0.7-0.5c0.3-0.1,0.6-0.2,0.9-0.2c0.3,0,0.6,0.1,0.9,0.2c0.3,0.1,0.6,0.3,0.8,0.5c0.2,0.2,0.4,0.4,0.5,0.7
		c0.1,0.3,0.2,0.6,0.2,1c0,0.3-0.1,0.7-0.2,0.9c-0.1,0.3-0.3,0.6-0.5,0.8c-0.2,0.2-0.4,0.4-0.7,0.5c-0.3,0.1-0.6,0.2-0.9,0.2
		C74.7,14.2,74.4,14.2,74.1,14.1z M79,14.7l0-6h1l2.7,4.4V8.7h1c0,2,0,4.1,0,6.1h-0.9l-2.9-4.6v4.6L79,14.7L79,14.7z M79.2,8.9
		l0,5.7h0.5V9.6l3.2,5.1h0.6V8.9H83v4.9l-3-4.9H79.2z"/>
	<path class="st2" d="M71.7,23.4c-2.4,0-4.2,1.8-4.2,4.2c0,2.4,1.9,4.2,4.2,4.2c2.4,0,4.2-1.8,4.2-4.2C76,25.1,74.1,23.4,71.7,23.4z
		 M71.7,30.1c-1.3,0-2.4-1.1-2.4-2.6c0-1.5,1.1-2.6,2.4-2.6c1.3,0,2.4,1,2.4,2.6C74.1,29,73,30.1,71.7,30.1z M62.6,23.4
		c-2.4,0-4.2,1.8-4.2,4.2c0,2.4,1.9,4.2,4.2,4.2c2.4,0,4.2-1.8,4.2-4.2C66.8,25.1,64.9,23.4,62.6,23.4z M62.6,30.1
		c-1.3,0-2.4-1.1-2.4-2.6c0-1.5,1.1-2.6,2.4-2.6c1.3,0,2.4,1,2.4,2.6C64.9,29,63.9,30.1,62.6,30.1z M51.6,24.7v1.8l4.2,0
		c-0.1,1-0.5,1.8-1,2.3c-0.6,0.6-1.6,1.3-3.2,1.3C49,30,47,27.9,47,25.3s2.1-4.7,4.6-4.7c1.4,0,2.5,0.6,3.3,1.3l1.3-1.3
		c-1.1-1-2.5-1.8-4.4-1.8c-3.5,0-6.6,3-6.6,6.5c0,3.5,3,6.5,6.6,6.5c2,0,3.3-0.6,4.5-1.9c1.2-1.2,1.6-2.9,1.6-4.1
		c0-0.4,0-0.8-0.1-1.1H51.6z M96.4,26.1c-0.4-1-1.4-2.7-3.6-2.7s-3.9,1.7-3.9,4.2c0,2.4,1.8,4.2,4.1,4.2c1.9,0,3.1-1.2,3.4-1.9
		l-1.4-1c-0.5,0.7-1.1,1.2-2.1,1.2s-1.6-0.4-2.1-1.3l5.6-2.4L96.4,26.1L96.4,26.1z M90.7,27.5c0-1.6,1.3-2.5,2.2-2.5
		c0.7,0,1.4,0.4,1.6,0.9L90.7,27.5z M86,31.5h1.9l0-12.3H86L86,31.5z M83.1,24.3c-0.5-0.5-1.3-1-2.3-1c-2.1,0-4,1.9-4,4.2
		s1.9,4.1,4,4.1c1,0,1.8-0.5,2.2-1h0.1v0.6c0,1.6-0.9,2.5-2.3,2.5c-1.1,0-1.9-0.8-2.1-1.5L77.2,33c0.5,1.1,1.7,2.5,3.7,2.5
		c2.2,0,3.9-1.3,3.9-4.3v-7.5h-1.8V24.3z M80.9,30.1c-1.3,0-2.4-1.1-2.4-2.6c0-1.5,1.1-2.6,2.4-2.6c1.3,0,2.3,1.1,2.3,2.6
		C83.2,29,82.2,30.1,80.9,30.1z M105,19.2h-4.4l0,12.3h1.9v-4.6h2.6c2.1,0,4-1.5,4-3.8S107,19.2,105,19.2z M105.1,25.1h-2.7v-4.2
		h2.7c1.4,0,2.2,1.2,2.2,2.1C107.1,24,106.3,25.1,105.1,25.1z M116.4,23.3c-1.4,0-2.8,0.6-3.3,1.9l1.7,0.7c0.4-0.7,1-0.9,1.7-0.9
		c1,0,1.9,0.6,2,1.6v0.1c-0.3-0.2-1.1-0.5-1.9-0.5c-1.8,0-3.5,1-3.5,2.8c0,1.7,1.5,2.8,3.1,2.8c1.3,0,1.9-0.6,2.4-1.2h0.1v1l1.8,0
		v-4.7C120.1,24.6,118.4,23.3,116.4,23.3z M116.2,30.1c-0.6,0-1.5-0.3-1.5-1.1c0-1,1.1-1.3,2-1.3c0.8,0,1.2,0.2,1.7,0.4
		C118.2,29.3,117.2,30.1,116.2,30.1L116.2,30.1z M126.5,23.6l-2.1,5.3h-0.1l-2.2-5.3l-2,0l3.2,7.5l-1.9,4.1h1.9l5-11.6H126.5z
		 M110,31.5h1.9l0-12.3H110V31.5z"/>
	<path class="st2" d="M14.9,9.3c-0.3,0.3-0.4,0.8-0.4,1.4l0,21.8c0,0.6,0.2,1.1,0.5,1.4l0.1,0.1l12.2-12.2v-0.2L14.9,9.3z"/>
	<path class="st2" d="M31.9,25.9l-4-4v-0.3l4-4l0.1,0.1l4.8,2.8c1.4,0.8,1.4,2.1,0,2.9L31.9,25.9z"/>
	<path class="st2" d="M31.7,26.1L27.5,22L15.2,34.3c0.5,0.5,1.2,0.5,2.1,0.1L31.7,26.1z"/>
	<path class="st2" d="M31.7,17.3L17.3,9.1c-0.9-0.5-1.6-0.4-2.1,0.1l12.3,12.2L31.7,17.3z"/>
	<path class="st3" d="M31.3,25.7L17,33.7c-0.8,0.5-1.5,0.4-2,0l-0.1,0.1l0.1,0.1c0.5,0.4,1.2,0.5,2,0L31.3,25.7z"/>
	<path class="st3" d="M14.9,33.7c-0.3-0.3-0.4-0.8-0.4-1.4v0.1C14.5,33,14.7,33.5,14.9,33.7L14.9,33.7L14.9,33.7z M36.2,22.9
		l-4.9,2.8l0.1,0.1L36.2,22.9c0.7-0.3,1-0.8,1-1.3C37.2,22.1,36.8,22.5,36.2,22.9z"/>
</g>
</svg>
