<?xml version="1.0" encoding="utf-8"?>
<!-- Generator: Adobe Illustrator 21.0.0, SVG Export Plug-In . SVG Version: 6.00 Build 0)  -->
<svg version="1.1" id="AppStoreHover" xmlns="http://www.w3.org/2000/svg" xmlns:xlink="http://www.w3.org/1999/xlink" x="0px"
	 y="0px" viewBox="0 0 143 42" style="enable-background:new 0 0 143 42;" xml:space="preserve">
<style type="text/css">
	.st0{fill:#A6A6A6;}
	.st1{display:none;fill-opacity:0.3;}
	.st2{fill:#FFFFFF;}
</style>
<path id="line" class="st0" d="M137.9,42H5c-2.8,0-5-2.2-5-5V5c0-2.8,2.2-5,5-5h132.9c2.8-0.1,5,2.1,5.1,4.9c0,0,0,0.1,0,0.1v32
	c0,2.8-2.2,5-5,5C138,42,137.9,42,137.9,42z"/>
<path id="path-1" d="M137.9,41H5.1c-2.2,0.1-4-1.7-4.1-3.9c0,0,0-0.1,0-0.1V5c0-2.2,1.8-4,4-4c0,0,0.1,0,0.1,0H138
	c2.2,0,4.1,1.8,4.1,4v32C142,39.2,140.2,41,137.9,41L137.9,41z"/>
<path id="hover" class="st1" d="M137.9,41H5.1c-2.2,0.1-4-1.7-4.1-3.9c0,0,0-0.1,0-0.1V5c0-2.2,1.8-4,4-4c0,0,0.1,0,0.1,0H138
	c2.2,0,4.1,1.8,4.1,4v32C142,39.2,140.2,41,137.9,41L137.9,41z"/>
<path id="logo" class="st2" d="M31.9,20.8c0-3.4,2.8-5,2.9-5.1c-1.1-1.7-3-2.7-5-2.7c-2-0.2-4.1,1.2-5.1,1.2c-1.1,0-2.7-1.2-4.5-1.2
	c-2.3,0-4.4,1.3-5.5,3.4c-2.4,4.1-0.6,10.2,1.7,13.5c1.1,1.6,2.5,3.4,4.2,3.4c1.7-0.1,2.4-1.1,4.4-1.1c2.1,0,2.7,1.1,4.4,1
	c1.8,0,3-1.6,4.1-3.3c1.3-1.9,1.9-3.7,1.9-3.8C35.4,26.1,31.9,24.8,31.9,20.8z M28.5,10.8c1-1.2,1.5-2.7,1.4-4.3c-1.3,0.1-3,0.9-4,2
	c-0.9,1-1.6,2.6-1.4,4.1C26,12.8,27.5,11.9,28.5,10.8z"/>
<path id="text" class="st2" d="M56.7,33.1h-2.4L53,29h-4.6l-1.3,4.1h-2.3l4.6-14h2.8L56.7,33.1z M52.6,27.2l-1.2-3.6L50.7,21
	L50,23.6l-1.2,3.6C48.8,27.2,52.6,27.2,52.6,27.2z M68.4,27.9c0.1,1.5-0.4,3-1.4,4.1c-0.8,0.9-1.9,1.3-3.1,1.3
	c-1.3,0-2.3-0.5-2.9-1.4v5.3h-2.3V26.3L58.6,23h2l0.1,1.6c0.7-1.2,2-1.9,3.4-1.8c1.2,0,2.2,0.5,3,1.4C68,25.2,68.5,26.5,68.4,27.9z
	 M66.1,28c0-1-0.2-1.8-0.7-2.4c-0.5-0.7-1.1-1-2-1c-0.6,0-1.1,0.2-1.5,0.5c-0.5,0.4-0.7,0.8-0.9,1.4l-0.1,0.7v1.7
	c0,0.7,0.2,1.3,0.7,1.9c0.5,0.5,1,0.8,1.8,0.8c0.8,0,1.5-0.3,2-1C65.9,29.8,66.1,28.9,66.1,28z M80,27.9c0.1,1.5-0.4,3-1.4,4.1
	c-0.8,0.9-1.9,1.3-3.1,1.3c-1.3,0-2.3-0.5-2.9-1.4v5.3h-2.3V26.3L70.2,23h2l0.2,1.6c0.7-1.2,2-1.9,3.4-1.8c1.2,0,2.2,0.5,3,1.4
	C79.6,25.1,80,26.4,80,27.9z M77.7,28c0-1-0.2-1.8-0.7-2.4c-0.5-0.7-1.1-1-2-1c-0.6,0-1.1,0.2-1.5,0.5c-0.5,0.4-0.7,0.8-0.9,1.4
	l-0.1,0.7v1.7c0,0.7,0.2,1.3,0.7,1.9c0.5,0.5,1,0.8,1.8,0.8s1.5-0.3,2-1C77.5,29.9,77.7,29.1,77.7,28z M93.1,29.1
	c0,1.2-0.4,2.2-1.2,2.9c-0.9,0.8-2.2,1.2-3.8,1.2c-1.5,0-2.7-0.3-3.6-0.9l0.5-1.9c1,0.6,2.1,0.9,3.3,0.9c0.8,0,1.5-0.2,2-0.6
	c0.5-0.4,0.7-0.9,0.7-1.5c0-0.6-0.2-1-0.6-1.4c-0.4-0.4-1-0.7-1.9-1.1c-2.5-0.9-3.7-2.2-3.7-4c0-1.1,0.4-2.1,1.3-2.8
	c0.9-0.7,2-1.1,3.4-1.1c1.3,0,2.3,0.2,3.2,0.7l-0.6,1.8c-0.8-0.4-1.8-0.6-2.7-0.6c-0.8,0-1.4,0.2-1.9,0.6c-0.4,0.3-0.6,0.8-0.6,1.3
	c0,0.6,0.2,1,0.6,1.4l2,1.1c1,0.4,1.9,0.9,2.7,1.7C92.8,27.4,93.1,28.2,93.1,29.1z M100.5,24.7H98v4.9c0,1.2,0.4,1.9,1.3,1.9l1-0.1
	l0.1,1.7c-0.4,0.2-1,0.2-1.8,0.2c-0.9,0-1.6-0.3-2.1-0.8s-0.8-1.4-0.8-2.7v-5.1h-1.3V23h1.5v-1.8l2.2-0.7V23h2.5v1.7H100.5z
	 M111.7,27.9c0,1.5-0.4,2.8-1.3,3.8s-2.2,1.5-3.7,1.5s-2.7-0.5-3.6-1.5c-0.9-1-1.3-2.2-1.3-3.7c0-1.6,0.5-2.8,1.4-3.8
	s2.1-1.5,3.7-1.5c1.5,0,2.7,0.5,3.6,1.5C111.3,25.2,111.7,26.4,111.7,27.9z M109.4,28c0-0.9-0.2-1.7-0.6-2.4c-0.5-0.8-1.1-1.2-2-1.2
	s-1.6,0.4-2.1,1.2c-0.4,0.7-0.6,1.5-0.6,2.4c0,0.9,0.2,1.7,0.6,2.4c0.5,0.8,1.2,1.2,2,1.2c0.9,0,1.5-0.4,2-1.2
	C109.2,29.8,109.4,28.9,109.4,28z M119.1,25l-0.7-0.1c-0.7,0-1.4,0.3-1.8,0.9c-0.4,0.5-0.6,1.2-0.6,2v5.3h-2.3v-6.9l-0.1-3.2h2
	l0.1,1.9h0.1c0.2-0.6,0.6-1.2,1.1-1.6c0.5-0.4,1-0.5,1.6-0.5h0.6C119.1,22.8,119.1,25,119.1,25z M129.2,27.6l-0.1,1h-6.8
	c0,0.9,0.3,1.7,1,2.3c0.6,0.5,1.3,0.7,2.2,0.7c1,0,1.9-0.2,2.7-0.5l0.4,1.6c-1.1,0.4-2.2,0.6-3.4,0.6c-1.4,0.1-2.7-0.4-3.7-1.4
	c-0.9-1-1.4-2.3-1.3-3.7c0-1.5,0.4-2.8,1.3-3.8c0.8-1.1,2.1-1.6,3.5-1.6c1.5,0,2.6,0.5,3.3,1.6C128.9,25.2,129.2,26.3,129.2,27.6z
	 M127,27c0-0.6-0.1-1.2-0.4-1.7c-0.4-0.6-1.1-0.9-1.8-0.9c-0.7,0-1.3,0.3-1.8,0.9c-0.4,0.5-0.6,1.1-0.7,1.7C122.3,27,127,27,127,27z
	"/>
<path id="top" class="st2" d="M51.9,10.5c0,1.2-0.4,2.2-1.1,2.8s-1.7,0.9-3,0.9l-1.6-0.1V7.3l1.9-0.1c1.2,0,2.1,0.3,2.7,0.8
	C51.6,8.6,51.9,9.4,51.9,10.5z M50.7,10.5c0-0.8-0.2-1.4-0.6-1.8c-0.4-0.4-1.1-0.6-1.9-0.6l-0.9,0.1v5.1h0.8c0.8,0,1.5-0.2,2-0.7
	C50.5,12.1,50.7,11.4,50.7,10.5z M58.1,11.6c0,0.8-0.2,1.4-0.7,1.9s-1.1,0.8-1.8,0.8c-0.7,0-1.3-0.2-1.7-0.7
	c-0.5-0.6-0.7-1.2-0.7-1.9c0-0.8,0.2-1.4,0.7-1.9c0.4-0.5,1-0.7,1.8-0.7c0.7,0,1.3,0.2,1.8,0.7C57.9,10.2,58.1,10.8,58.1,11.6z
	 M56.9,11.6c0-0.5-0.1-0.8-0.3-1.2c-0.2-0.4-0.6-0.6-1-0.6c-0.4,0-0.8,0.2-1,0.6l-0.3,1.2c0,0.5,0.1,0.8,0.3,1.2
	c0.2,0.4,0.6,0.6,1,0.6c0.4,0,0.8-0.2,1-0.6C56.8,12.5,56.9,12.1,56.9,11.6z M66.4,9.2l-1.6,4.9h-1L63.2,12l-0.4-1.6L62.4,12
	l-0.7,2.1h-1l-1.5-4.9h1.1l0.6,2.4l0.3,1.6l0.4-1.6l0.7-2.4h0.9l0.7,2.3l0.4,1.6l0.3-1.6l0.6-2.3C65.2,9.2,66.4,9.2,66.4,9.2z
	 M72.1,14.1H71v-2.8c0-0.9-0.3-1.3-1-1.3c-0.3,0-0.6,0.1-0.8,0.4c-0.2,0.2-0.3,0.5-0.3,0.8v2.9h-1.1v-3.5V9.2h1l0.1,0.8l0.6-0.6
	c0.3-0.2,0.6-0.3,1-0.3c0.5,0,0.9,0.1,1.2,0.4c0.4,0.4,0.6,0.9,0.6,1.6v3H72.1z M75.2,14.1h-1.1V6.9h1.1V14.1z M81.7,11.6
	c0,0.8-0.2,1.4-0.7,1.9s-1.1,0.8-1.8,0.8s-1.3-0.2-1.7-0.7c-0.4-0.5-0.7-1.1-0.7-1.8c0-0.8,0.2-1.4,0.7-1.9c0.4-0.5,1.1-0.7,1.8-0.7
	s1.3,0.2,1.8,0.7C81.5,10.2,81.7,10.8,81.7,11.6z M80.6,11.6c0-0.5-0.1-0.8-0.3-1.2c-0.2-0.4-0.6-0.6-1-0.6c-0.4,0-0.8,0.2-1,0.6
	c-0.2,0.3-0.3,0.7-0.3,1.2s0.1,0.8,0.3,1.2c0.2,0.4,0.6,0.6,1,0.6c0.4,0,0.8-0.2,1-0.6C80.5,12.5,80.6,12.1,80.6,11.6z M87.1,14.1
	h-1L86,13.5c-0.3,0.5-0.8,0.7-1.5,0.7c-0.5,0-0.9-0.1-1.1-0.4c-0.3-0.3-0.4-0.6-0.4-1c0-0.6,0.3-1.1,0.8-1.4
	c0.6-0.4,1.4-0.5,2.1-0.5v-0.1c0-0.7-0.3-1-1-1c-0.5,0-0.9,0.1-1.3,0.4l-0.2-0.7c0.5-0.3,1.1-0.4,1.7-0.4c1.3,0,2,0.7,2,2v1.8
	C87.1,12.9,87.1,14.1,87.1,14.1z M85.9,12.4v-0.8c-1.2,0-1.8,0.3-1.8,1l0.2,0.6l0.6,0.2l0.7-0.2l0.4-0.6
	C86,12.6,85.9,12.4,85.9,12.4z M93.4,14.1h-1l-0.1-0.8c-0.3,0.6-0.8,0.9-1.6,0.9c-0.6,0-1.1-0.2-1.5-0.7c-0.4-0.5-0.6-1.1-0.6-1.8
	c0-0.8,0.2-1.4,0.6-1.9c0.4-0.5,0.9-0.7,1.5-0.7c0.7,0,1.1,0.2,1.4,0.7V6.9h1.1v5.9C93.2,12.8,93.4,14.1,93.4,14.1z M92.2,12v-0.8
	v-0.3l-0.4-0.7c-0.2-0.2-0.4-0.3-0.7-0.3c-0.4,0-0.7,0.2-1,0.5c-0.2,0.3-0.4,0.7-0.4,1.3c0,0.5,0.1,0.9,0.3,1.2s0.6,0.5,1,0.5
	s0.7-0.1,0.9-0.4C92.1,12.7,92.2,12.4,92.2,12z M102.9,11.6c0,0.8-0.2,1.4-0.7,1.9s-1.1,0.8-1.8,0.8c-0.7,0-1.3-0.2-1.7-0.7
	S98,12.5,98,11.8c0-0.8,0.2-1.4,0.7-1.9c0.4-0.6,1-0.8,1.8-0.8c0.7,0,1.3,0.2,1.8,0.7C102.6,10.2,102.9,10.8,102.9,11.6z
	 M101.7,11.6c0-0.5-0.1-0.8-0.3-1.2c-0.2-0.4-0.6-0.6-1-0.6c-0.4,0-0.8,0.2-1,0.6c-0.2,0.3-0.3,0.7-0.3,1.2s0.1,0.8,0.3,1.2
	c0.2,0.4,0.6,0.6,1,0.6c0.4,0,0.8-0.2,1-0.6C101.6,12.5,101.7,12.1,101.7,11.6z M108.8,14.1h-1.1v-2.8c0-0.9-0.3-1.3-1-1.3
	c-0.3,0-0.6,0.1-0.8,0.4c-0.2,0.2-0.3,0.5-0.3,0.8v2.9h-1.1v-3.5V9.2h1v0.7l0.6-0.6c0.3-0.2,0.6-0.3,1-0.3c0.5,0,0.9,0.1,1.2,0.4
	c0.4,0.4,0.6,0.9,0.6,1.6L108.8,14.1L108.8,14.1z M116.3,10h-1.2v2.4c0,0.6,0.2,0.9,0.6,0.9l0.5-0.1V14l-0.9,0.1
	c-0.4,0-0.8-0.1-1-0.4s-0.4-0.7-0.4-1.3V10h-0.7V9.2h0.7v-1l1.1-0.3v1.2h1.2C116.2,9.1,116.3,10,116.3,10z M122.1,14.1H121v-2.8
	c0-0.9-0.3-1.3-1-1.3c-0.5,0-0.9,0.3-1.1,0.8l-0.1,0.4v3h-1.1V6.9h1.1v3c0.3-0.5,0.8-0.8,1.5-0.8c0.5,0,0.8,0.1,1.1,0.4
	c0.4,0.4,0.6,0.9,0.6,1.7L122.1,14.1L122.1,14.1z M128.2,11.4v0.5h-3.3c0,0.5,0.2,0.9,0.5,1.1c0.3,0.2,0.6,0.3,1.1,0.3l1.3-0.2
	l0.2,0.8c-0.5,0.2-1,0.3-1.7,0.3c-0.8,0-1.4-0.2-1.8-0.7s-0.7-1.1-0.7-1.8s0.2-1.4,0.6-1.9s1-0.8,1.7-0.8s1.3,0.3,1.6,0.8
	C128,10.3,128.2,10.8,128.2,11.4z M127.1,11.1l-0.2-0.8c-0.2-0.3-0.5-0.5-0.9-0.5c-0.4,0-0.7,0.1-0.9,0.4c-0.2,0.2-0.3,0.5-0.3,0.9
	H127.1z"/>
</svg>
