<svg id="Layer_1" data-name="Layer 1" xmlns="http://www.w3.org/2000/svg" viewBox="0 0 304.2 93.3"><defs><style>.cls-1{fill:#a6a6a6;}.cls-2{fill:#fff;}</style></defs><title>casino</title><path d="M14.2,92.2A13.19,13.19,0,0,1,1,79V14.1A13.19,13.19,0,0,1,14.2.9H290a13.19,13.19,0,0,1,13.2,13.2V79A13.19,13.19,0,0,1,290,92.2Z" transform="translate(0 0)"/><path class="cls-1" d="M290,2a12.25,12.25,0,0,1,12.2,12.2V79.1A12.25,12.25,0,0,1,290,91.3H14.2A12.25,12.25,0,0,1,2,79.1v-65A12.25,12.25,0,0,1,14.2,1.9H290M290,0H14.2A14.25,14.25,0,0,0,0,14.2V79.1A14.25,14.25,0,0,0,14.2,93.3H290a14.25,14.25,0,0,0,14.2-14.2v-65A14.17,14.17,0,0,0,290,0Z" transform="translate(0 0)"/><path class="cls-2" d="M136.9,30.3a4,4,0,0,1-2.3,1.7,9,9,0,0,1-3.4.6,6.32,6.32,0,0,1-5.9-3.5,9.34,9.34,0,0,1-.9-3.9V23.8a8.51,8.51,0,0,1,1.7-5.6,6,6,0,0,1,4.8-2,5.68,5.68,0,0,1,4,1.3,6.3,6.3,0,0,1,1.9,3.6h-2.1a3.55,3.55,0,0,0-3.8-3.2,3.68,3.68,0,0,0-3.2,1.5,7.36,7.36,0,0,0-1.1,4.3V25a7.07,7.07,0,0,0,1.2,4.3,3.82,3.82,0,0,0,3.3,1.6,6.65,6.65,0,0,0,2.1-.3,3.77,3.77,0,0,0,1.5-.9V26.2H131V24.5h5.8v5.8Z" transform="translate(0 0)"/><path class="cls-2" d="M145,32.7a5,5,0,0,1-3.9-1.6,6.09,6.09,0,0,1-1.5-4.3v-.4a6.83,6.83,0,0,1,.7-3.2,5.85,5.85,0,0,1,1.9-2.2,5,5,0,0,1,2.6-.8,4.47,4.47,0,0,1,3.6,1.5,7,7,0,0,1,1.3,4.4v.8h-8.1a4.14,4.14,0,0,0,1,2.8,3.68,3.68,0,0,0,4.3.7,4.89,4.89,0,0,0,1.3-1.2l1.2,1A4.6,4.6,0,0,1,145,32.7ZM144.7,22a2.88,2.88,0,0,0-2.1.9,3.82,3.82,0,0,0-1,2.5h6v-.2a4.29,4.29,0,0,0-.8-2.4A2.86,2.86,0,0,0,144.7,22Z" transform="translate(0 0)"/><path class="cls-2" d="M154.8,17.6v2.9H157v1.6h-2.2v7.4a1.8,1.8,0,0,0,.3,1.1,1.05,1.05,0,0,0,1,.4,4.14,4.14,0,0,0,1-.1v1.6a8.75,8.75,0,0,1-1.6.2,2.86,2.86,0,0,1-2.1-.8,3.17,3.17,0,0,1-.7-2.3V22.2h-2.2V20.6h2.2V17.7h2.1Z" transform="translate(0 0)"/><path class="cls-2" d="M165.3,32.4v-16h5.2a6.24,6.24,0,0,1,3.9,1.1,3.82,3.82,0,0,1,1.3,3.2,3.61,3.61,0,0,1-.6,2,3.71,3.71,0,0,1-1.7,1.3,3.45,3.45,0,0,1,2.1,1.4,4.07,4.07,0,0,1,.8,2.4,4.44,4.44,0,0,1-1.4,3.4,6,6,0,0,1-4,1.2Zm2.1-9.2h3.2a3.07,3.07,0,0,0,2.2-.7,2.24,2.24,0,0,0,.8-1.9,2.27,2.27,0,0,0-.8-1.9,3.71,3.71,0,0,0-2.3-.6h-3.1Zm0,1.7v5.8h3.5a3.2,3.2,0,0,0,2.3-.8,2.58,2.58,0,0,0,.9-2.1c0-1.9-1-2.9-3.1-2.9Z" transform="translate(0 0)"/><path class="cls-2" d="M178.5,26.4a6.83,6.83,0,0,1,.7-3.2,5.18,5.18,0,0,1,1.9-2.2,5.38,5.38,0,0,1,2.8-.8,5.07,5.07,0,0,1,3.9,1.7,6.44,6.44,0,0,1,1.5,4.5v.1a6.17,6.17,0,0,1-.7,3.1,5.74,5.74,0,0,1-1.9,2.2,4.59,4.59,0,0,1-2.8.8,5.07,5.07,0,0,1-3.9-1.7,6.44,6.44,0,0,1-1.5-4.5Zm2,.2a5.27,5.27,0,0,0,.9,3.2,2.91,2.91,0,0,0,2.5,1.2,3,3,0,0,0,2.5-1.2,5.51,5.51,0,0,0,.9-3.4,5.27,5.27,0,0,0-.9-3.2,2.91,2.91,0,0,0-2.5-1.2,2.85,2.85,0,0,0-2.4,1.2A4.94,4.94,0,0,0,180.5,26.6Z" transform="translate(0 0)"/><path class="cls-2" d="M193.8,20.5l.1,1.5a4.46,4.46,0,0,1,3.6-1.7c2.5,0,3.8,1.4,3.8,4.3v7.9h-2V24.6a2.55,2.55,0,0,0-.6-1.9,2.44,2.44,0,0,0-1.8-.6,3.1,3.1,0,0,0-1.7.5A3.33,3.33,0,0,0,194,24v8.5h-2v-12Z" transform="translate(0 0)"/><path class="cls-2" d="M211.7,31.3a4.51,4.51,0,0,1-3.5,1.4,3.84,3.84,0,0,1-2.9-1.1,4.5,4.5,0,0,1-1-3.3V20.5h2v7.7c0,1.8.7,2.7,2.2,2.7a3.05,3.05,0,0,0,3.1-1.7V20.5h2V32.4h-1.9Z" transform="translate(0 0)"/><path class="cls-2" d="M223.7,29.3a1.49,1.49,0,0,0-.6-1.3,5.33,5.33,0,0,0-2.2-.8,12.27,12.27,0,0,1-2.5-.8,2.92,2.92,0,0,1-1.3-1.1,3.31,3.31,0,0,1-.4-1.5,3.17,3.17,0,0,1,1.2-2.5,4.72,4.72,0,0,1,3.2-1,5,5,0,0,1,3.3,1,3.51,3.51,0,0,1,1.3,2.7h-2a1.62,1.62,0,0,0-.7-1.4,2.79,2.79,0,0,0-1.8-.6,2.86,2.86,0,0,0-1.7.5,1.49,1.49,0,0,0-.6,1.3,1.15,1.15,0,0,0,.6,1.1,8.33,8.33,0,0,0,2.1.7,12.27,12.27,0,0,1,2.5.8,4,4,0,0,1,1.4,1.1,2.77,2.77,0,0,1,.5,1.6,3,3,0,0,1-1.3,2.6,5.86,5.86,0,0,1-3.3,1,6.18,6.18,0,0,1-2.5-.5,3.91,3.91,0,0,1-1.7-1.4,3.61,3.61,0,0,1-.6-2h2a1.94,1.94,0,0,0,.8,1.6,3.17,3.17,0,0,0,2,.6,3.56,3.56,0,0,0,1.9-.5A2.14,2.14,0,0,0,223.7,29.3Z" transform="translate(0 0)"/><path class="cls-2" d="M233.4,26.4a6.83,6.83,0,0,1,.7-3.2A5.18,5.18,0,0,1,236,21a5.38,5.38,0,0,1,2.8-.8,5.07,5.07,0,0,1,3.9,1.7,6.44,6.44,0,0,1,1.5,4.5v.1a6.17,6.17,0,0,1-.7,3.1,5.74,5.74,0,0,1-1.9,2.2,4.59,4.59,0,0,1-2.8.8,5.07,5.07,0,0,1-3.9-1.7,6.44,6.44,0,0,1-1.5-4.5Zm2.1.2a5.27,5.27,0,0,0,.9,3.2,2.91,2.91,0,0,0,2.5,1.2,3,3,0,0,0,2.5-1.2,5.51,5.51,0,0,0,.9-3.4,5.27,5.27,0,0,0-.9-3.2,2.91,2.91,0,0,0-2.5-1.2,2.85,2.85,0,0,0-2.4,1.2A4.94,4.94,0,0,0,235.5,26.6Z" transform="translate(0 0)"/><path class="cls-2" d="M248.8,20.5l.1,1.5a4.46,4.46,0,0,1,3.6-1.7c2.5,0,3.8,1.4,3.8,4.3v7.9h-2V24.6a2.55,2.55,0,0,0-.6-1.9,2.44,2.44,0,0,0-1.8-.6,3.1,3.1,0,0,0-1.7.5A3.33,3.33,0,0,0,249,24v8.5h-2v-12Z" transform="translate(0 0)"/><path class="cls-2" d="M148.6,63.8c-.4,3.2-1.5,5.6-3.5,7.3a11.65,11.65,0,0,1-7.8,2.6,10.66,10.66,0,0,1-8.5-3.8c-2.1-2.5-3.2-5.9-3.2-10.2V56.8a16.7,16.7,0,0,1,1.5-7.3,11,11,0,0,1,10.5-6.6,10.54,10.54,0,0,1,7.6,2.7,11.12,11.12,0,0,1,3.3,7.4h-4a8.67,8.67,0,0,0-2.2-5.2,6.48,6.48,0,0,0-4.8-1.6,6.91,6.91,0,0,0-5.9,2.8c-1.4,1.9-2.1,4.5-2.1,7.9v2.9a13.51,13.51,0,0,0,2,7.7,6.63,6.63,0,0,0,5.7,2.9,7.29,7.29,0,0,0,5-1.5c1.2-1,1.9-2.7,2.3-5.2h4.1Z" transform="translate(0 0)"/><path class="cls-2" d="M167.1,73.2a7.21,7.21,0,0,1-.5-2.3,8.63,8.63,0,0,1-6.3,2.7,7.59,7.59,0,0,1-5.4-1.9,5.94,5.94,0,0,1-2.1-4.7,6.46,6.46,0,0,1,2.6-5.4c1.8-1.3,4.2-1.9,7.4-1.9h3.7V58a4.38,4.38,0,0,0-1.2-3.2,4.79,4.79,0,0,0-3.5-1.2,5.29,5.29,0,0,0-3.4,1,3.11,3.11,0,0,0-1.4,2.5h-3.8a5.1,5.1,0,0,1,1.2-3.2,10.19,10.19,0,0,1,3.2-2.5,9.15,9.15,0,0,1,4.4-.9c2.6,0,4.6.6,6,1.9a7.28,7.28,0,0,1,2.3,5.3V67.9a13.17,13.17,0,0,0,.8,4.9v.3h-4Zm-6.3-2.9a6.92,6.92,0,0,0,3.4-.9,5.32,5.32,0,0,0,2.3-2.4V62.4h-3c-4.6,0-7,1.4-7,4.1a3.49,3.49,0,0,0,1.2,2.8A4.45,4.45,0,0,0,160.8,70.3Z" transform="translate(0 0)"/><path class="cls-2" d="M189.1,67.3a2.85,2.85,0,0,0-1.2-2.4,10.42,10.42,0,0,0-4-1.5,19.08,19.08,0,0,1-4.6-1.5,6.66,6.66,0,0,1-2.5-2.1A5.12,5.12,0,0,1,176,57a5.78,5.78,0,0,1,2.3-4.6,8.72,8.72,0,0,1,5.9-1.9,9.1,9.1,0,0,1,6.1,1.9,6.41,6.41,0,0,1,2.3,5h-3.8a3.49,3.49,0,0,0-1.3-2.7,4.72,4.72,0,0,0-3.3-1.1,4.89,4.89,0,0,0-3.2.9,3.13,3.13,0,0,0-1.2,2.4,2.48,2.48,0,0,0,1.1,2.1,11.49,11.49,0,0,0,3.9,1.3,19.08,19.08,0,0,1,4.6,1.5,7.05,7.05,0,0,1,2.6,2.1,4.86,4.86,0,0,1,.9,3,5.7,5.7,0,0,1-2.4,4.8,9.93,9.93,0,0,1-6.2,1.8,11.59,11.59,0,0,1-4.7-.9,7.53,7.53,0,0,1-3.2-2.6,6.07,6.07,0,0,1-1.2-3.7H179a4,4,0,0,0,1.5,3,6.34,6.34,0,0,0,3.8,1.1,6.27,6.27,0,0,0,3.5-.9A2.22,2.22,0,0,0,189.1,67.3Z" transform="translate(0 0)"/><path class="cls-2" d="M197.9,45.2a2.45,2.45,0,0,1,.6-1.6,1.89,1.89,0,0,1,1.7-.6,2.2,2.2,0,0,1,1.7.6,2.11,2.11,0,0,1,.6,1.6,1.89,1.89,0,0,1-.6,1.5,2.71,2.71,0,0,1-3.4,0A2,2,0,0,1,197.9,45.2Zm4.1,28h-3.8V51H202Z" transform="translate(0 0)"/><path class="cls-2" d="M211.6,51l.1,2.8a8.15,8.15,0,0,1,6.6-3.2c4.7,0,7.1,2.6,7.1,7.9V73.2h-3.8V58.5a4.88,4.88,0,0,0-1.1-3.5c-.7-.8-1.8-1.1-3.4-1.1a5.09,5.09,0,0,0-3.2,1,7,7,0,0,0-2.2,2.6V73.2h-3.8V51Z" transform="translate(0 0)"/><path class="cls-2" d="M230.2,61.9a12.78,12.78,0,0,1,1.3-5.9,9.34,9.34,0,0,1,3.6-4,10.11,10.11,0,0,1,5.2-1.4,9.17,9.17,0,0,1,7.3,3.1,11.93,11.93,0,0,1,2.8,8.3v.3a13.36,13.36,0,0,1-1.2,5.8,9.13,9.13,0,0,1-3.5,4,10.37,10.37,0,0,1-12.6-1.7,11.93,11.93,0,0,1-2.8-8.3v-.2Zm3.8.5a9.61,9.61,0,0,0,1.7,5.9,5.42,5.42,0,0,0,4.6,2.2,5.51,5.51,0,0,0,4.6-2.3,10.48,10.48,0,0,0,1.7-6.3,9.82,9.82,0,0,0-1.7-5.9,5.64,5.64,0,0,0-4.6-2.3,5.24,5.24,0,0,0-4.5,2.2A10.92,10.92,0,0,0,234,62.4Z" transform="translate(0 0)"/><path class="cls-2" d="M86.4,26.5a3,3,0,1,0-3.6,0V45.6H80.1V22.4H73.4V20.2H58.6a5.51,5.51,0,0,0-10.8,0H33v2.2H26.2V72.8H80.1V55.5h3.8V55a4.29,4.29,0,0,0,3.2-4.1,4.81,4.81,0,0,0-.7-2.4Zm-40.6.6H60.6V44.5H45.8Zm-17.2,0H43.4V44.5H28.6ZM73,66.6H32.2V57.9H73Zm4.9-22.1H63.1V27.1H77.9Z" transform="translate(0 0)"/><path class="cls-2" d="M38.3,30.4c-1.1,0-1.3-.5-3-.5A13.51,13.51,0,0,0,31.1,31V29.9H30v7.2h1.2a2.38,2.38,0,0,1,1.5-2.2,9.75,9.75,0,0,1,2.5-.2c.9,0,2-.1,2-.1A15.56,15.56,0,0,0,33,39.3a5.44,5.44,0,0,0-.7,2.8h6.1s.3-3.3.8-5.7,2.9-5.5,2.9-5.5l-1.2-1A16.13,16.13,0,0,1,38.3,30.4Z" transform="translate(0 0)"/><path class="cls-2" d="M55.4,30.4c-1.1,0-1.3-.5-3-.5A13.51,13.51,0,0,0,48.2,31V29.9H47.1v7.2h1.2a2.38,2.38,0,0,1,1.5-2.2,9.75,9.75,0,0,1,2.5-.2c.9,0,2-.1,2-.1a15.56,15.56,0,0,0-4.2,4.7,5.44,5.44,0,0,0-.7,2.8h6.1s.3-3.3.8-5.7,2.9-5.5,2.9-5.5l-1.2-1A16.13,16.13,0,0,1,55.4,30.4Z" transform="translate(0 0)"/><path class="cls-2" d="M65.6,37a2.38,2.38,0,0,1,1.5-2.2,9.75,9.75,0,0,1,2.5-.2c.9,0,2-.1,2-.1a15.56,15.56,0,0,0-4.2,4.7,5.44,5.44,0,0,0-.7,2.8h6.1s.3-3.3.8-5.7,2.9-5.5,2.9-5.5l-1.2-1a11.5,11.5,0,0,1-2.7.5c-1.1,0-1.3-.5-3-.5a13.51,13.51,0,0,0-4.2,1.1V29.8h-1V37Z" transform="translate(0 0)"/></svg>