<?xml version="1.0" encoding="utf-8"?>
<!-- Generator: Adobe Illustrator 21.0.0, SVG Export Plug-In . SVG Version: 6.00 Build 0)  -->
<svg version="1.1" id="Слой_1" xmlns="http://www.w3.org/2000/svg" xmlns:xlink="http://www.w3.org/1999/xlink" x="0px" y="0px"
	 viewBox="0 0 168.4 40" style="enable-background:new 0 0 168.4 40;" xml:space="preserve">
<style type="text/css">
	.st0{fill:#FFFFFF;}
	.st1{enable-background:new    ;}
</style>
<path class="st0" d="M39.8,33h-5.2V15h18.6v18H48V18.5h-8.3L39.8,33L39.8,33z M55.7,19.6v17.9h4.8v-6.1c1.6,1.7,4.2,1.8,4.8,1.8
	c4.5,0,7.3-2.9,7.3-7c0-4.3-2.8-7.1-7.2-7.1c-1.1,0-3.3,0.2-5.1,2.1h-0.1v-1.6C60.2,19.6,55.7,19.6,55.7,19.6z M60.3,26.1
	c0-3.7,2.3-4.4,3.7-4.4s3.7,0.7,3.7,4.4c0,2.3-1,4.4-3.7,4.4C61.2,30.5,60.3,28.4,60.3,26.1L60.3,26.1z M84.5,31.1
	c-1.8,1.6-3.5,2.1-5.3,2.1c-5.1,0-5.3-3.8-5.3-5.4v-8.2h4.8v7.6c0,2.6,0.9,3.4,2.7,3.4c3,0,3.2-2.7,3.2-3.6v-7.4h4.8v13.1h-4.8
	L84.5,31.1L84.5,31.1z M96.1,27.2H99c2.3,0,2.7,0.7,2.7,1.5c0,0.6-0.3,1.3-2.7,1.3h-3L96.1,27.2L96.1,27.2z M91.3,19.6v13.1h9.5
	c3.5,0,5.8-0.7,5.8-3.3c0-2.1-1.2-3-3.8-3.4v-0.1c1.7-0.2,3.2-1.3,3.2-3.1c0-3.2-3.8-3.2-5.2-3.2H91.3L91.3,19.6z M96.1,22.2h2.6
	c1.4,0,2.5,0.2,2.5,1.3c0,1.2-1.8,1.2-2.6,1.2h-2.5V22.2L96.1,22.2z M112.6,23.8c0-1.9,2.1-2.1,2.9-2.1c0.5,0,2.5,0,2.6,1.7v0.4
	c-0.1,1.3-1.3,1-4.9,1.5c-2.9,0.4-5.9,1.1-5.9,4.1c0,1.1,0.5,3.8,5.5,3.8c1.9,0,4.1-0.5,5.3-1.8h0.1l0.4,1.3h5v-0.2
	c-0.9-0.2-1-1.1-0.9-2.5l0.1-6c0-1.5-0.1-4.9-7.3-4.9c-1.7,0-7.3,0.2-7.5,4.7C108.1,23.8,112.6,23.8,112.6,23.8z M118.2,27.3
	c0,2.6-2.3,3.3-3.5,3.3c-0.9,0-2.4-0.3-2.4-1.5c0-1.5,1.8-1.8,2.8-1.9c1.8-0.3,1.7-0.2,3.1-0.7C118.2,26.4,118.2,27.3,118.2,27.3z
	 M123.4,22.2v-2.6h15.3v2.6h-5.3v10.5h-4.8V22.2H123.4z"/>
<path class="st0" d="M0,32.7h11.9V20.9H0V32.7z"/>
<path class="st0" d="M24.2,8.8v17.7h-2.4c-1.1-8.7-6.6-14.2-15.5-15.3V8.8H24.2L24.2,8.8z M0,2.6v14.7h3.2c8.3,0,12.5,4.2,12.5,12.4
	v3.1h14.9V2.6H0z"/>
<g class="st1">
	<path class="st0" d="M152.7,29.2v3.4h-13c0.1-1.3,0.6-2.5,1.3-3.7s2.1-2.7,4.2-4.6c1.7-1.6,2.7-2.6,3.1-3.2
		c0.5-0.8,0.8-1.5,0.8-2.3s-0.2-1.5-0.7-1.9c-0.4-0.4-1.1-0.7-1.8-0.7c-0.8,0-1.4,0.2-1.8,0.7s-0.7,1.2-0.8,2.3l-3.7-0.4
		c0.2-2,0.9-3.5,2.1-4.4s2.6-1.3,4.3-1.3c1.9,0,3.4,0.5,4.5,1.5s1.6,2.3,1.6,3.8c0,0.9-0.2,1.7-0.5,2.5s-0.8,1.6-1.5,2.5
		c-0.4,0.6-1.3,1.4-2.4,2.5c-1.2,1.1-1.9,1.8-2.2,2.1s-0.6,0.7-0.8,1h7.3L152.7,29.2L152.7,29.2z"/>
	<path class="st0" d="M162.4,32.6v-3.9h-7.9v-3.2l8.4-12.3h3.1v12.3h2.4v3.3H166v3.8H162.4z M162.4,25.5v-6.6l-4.4,6.6H162.4z"/>
</g>
</svg>
