<svg xmlns="http://www.w3.org/2000/svg" viewBox="0 0 92.28 40"><defs><style>.cls-1{fill:#ff8c00;}.cls-2{fill:#001ea3;}</style></defs><title>qiwi</title><g id="base"><path class="cls-1" d="M46.89,29.22h1.93c.94,0,1.56.41,1.56,1.2a1.08,1.08,0,0,1-.66,1h0a1.1,1.1,0,0,1,.88,1.11c0,.87-.7,1.33-1.71,1.33h-2Zm1.77,2c.53,0,.8-.28.8-.71s-.27-.65-.83-.65h-.85v1.35Zm.08,2.06c.65,0,.95-.29.95-.73s-.34-.74-1-.74h-.95v1.47Z"/><path class="cls-1" d="M53.87,29.11a2.44,2.44,0,0,1,1.75.68l-.42.63a1.89,1.89,0,0,0-1.29-.53,1.59,1.59,0,0,0-1.62,1.66,1.62,1.62,0,0,0,1.65,1.68,2.08,2.08,0,0,0,1.44-.63l.36.65a2.62,2.62,0,0,1-1.86.75,2.44,2.44,0,1,1,0-4.89"/><path class="cls-1" d="M58.63,29.11a2,2,0,0,1,2,2.18,2.75,2.75,0,0,1,0,.38H57.22a1.54,1.54,0,0,0,1.6,1.55,2.11,2.11,0,0,0,1.37-.54l.38.65a2.79,2.79,0,0,1-1.81.66,2.38,2.38,0,0,1-2.48-2.44,2.29,2.29,0,0,1,2.34-2.44M59.75,31a1.13,1.13,0,0,0-1.13-1.23A1.36,1.36,0,0,0,57.25,31Zm-2.3-3.66h.74v.93h-.74Zm1.55,0h.73v.93H59Z"/><polygon class="cls-1" points="64.03 29.22 68.11 29.22 68.11 33.88 67.21 33.88 67.21 29.98 64.93 29.98 64.93 33.88 64.03 33.88 64.03 29.22"/><path class="cls-1" d="M69.49,29.22h.83v.41a2.24,2.24,0,0,1,0,.35h0a1.71,1.71,0,0,1,1.57-.88c1.26,0,2,1,2,2.44A2.18,2.18,0,0,1,71.81,34a1.71,1.71,0,0,1-1.45-.79h0a2.06,2.06,0,0,1,0,.41v2.12h-.89Zm2.18,4c.74,0,1.35-.6,1.35-1.66s-.54-1.67-1.32-1.67-1.35.5-1.35,1.68c0,.83.46,1.65,1.32,1.65"/><path class="cls-1" d="M77.23,29.11a2.44,2.44,0,1,1-2.51,2.43,2.43,2.43,0,0,1,2.51-2.43m0,4.11a1.67,1.67,0,1,0-1.6-1.68,1.62,1.62,0,0,0,1.6,1.68"/><polygon class="cls-1" points="80.64 29.22 81.5 29.22 81.5 33.11 83.22 33.11 83.22 29.22 84.09 29.22 84.09 33.11 85.81 33.11 85.81 29.22 86.67 29.22 86.67 33.11 87.33 33.11 87.33 34.99 86.51 34.99 86.51 33.88 80.64 33.88 80.64 29.22"/><path class="cls-1" d="M90.26,29.11a2,2,0,0,1,2,2.18,2.78,2.78,0,0,1,0,.38H88.85a1.54,1.54,0,0,0,1.6,1.55,2.11,2.11,0,0,0,1.37-.54l.38.65A2.79,2.79,0,0,1,90.4,34a2.38,2.38,0,0,1-2.48-2.44,2.29,2.29,0,0,1,2.34-2.44M91.38,31a1.13,1.13,0,0,0-1.13-1.23A1.36,1.36,0,0,0,88.88,31Z"/><path class="cls-2" d="M51.3,18.39c2.09,0,3.34-1.81,3.34-4.76S53.39,8.87,51.3,8.87s-3.36,1.74-3.36,4.76,1.31,4.76,3.36,4.76M57.12,25a.26.26,0,0,1-.39,0l-1-1.38a4.9,4.9,0,0,0-4.39-2.07c-4.22,0-6.87-3-6.87-7.86s2.65-7.88,6.87-7.88,6.85,3,6.85,7.88c0,2.45-.86,5-2.3,5.81-.26.15-.26.22,0,.3a4.89,4.89,0,0,1,2.5,1.85l1,1.31a.26.26,0,0,1,0,.39Z"/><rect class="cls-2" x="60.54" y="5.98" width="3.49" height="15.27" rx="0.28" ry="0.28"/><path class="cls-2" d="M84,16.62c-.39,1.49-.71,2.91-1,4.37a.27.27,0,0,1-.3.26H78.74a.27.27,0,0,1-.3-.26c-.24-1.25-.47-2.39-.78-3.58L77,14.62c-.13-.56-.3-1.46-.43-2.22,0-.3-.3-.3-.34,0-.13.75-.3,1.64-.43,2.22l-.67,2.8c-.28,1.18-.52,2.33-.78,3.58a.27.27,0,0,1-.3.26H70.11a.27.27,0,0,1-.3-.26c-.28-1.46-.6-2.89-1-4.37L66.16,6.28c-.06-.17,0-.3.24-.3h3a.31.31,0,0,1,.32.24L71.16,12a34.54,34.54,0,0,1,.8,4.74c0,.28.34.3.39,0A40.07,40.07,0,0,1,73.29,12l1.57-5.81a.3.3,0,0,1,.3-.24h2.46a.3.3,0,0,1,.3.24L79.52,12a40.15,40.15,0,0,1,.95,4.74c0,.3.34.28.37,0a31.58,31.58,0,0,1,.8-4.74l1.46-5.81A.31.31,0,0,1,83.41,6h3c.19,0,.3.13.24.3Z"/><rect class="cls-2" x="88.76" y="5.98" width="3.49" height="15.27" rx="0.28" ry="0.28"/><path class="cls-1" d="M38.58,39.33c.36.45-.19.9-.6.54-4.09-3.63-7.54-4.65-10.94-4.8a42.27,42.27,0,0,0-5.48.26l-1.14.1-.5,0a18.78,18.78,0,0,1-2,.11,18.14,18.14,0,0,1-9-2.34,17.1,17.1,0,0,1-6.54-6.45A17.66,17.66,0,0,1,0,17.85a17.91,17.91,0,0,1,2.36-9A17.58,17.58,0,0,1,17.66,0a18.36,18.36,0,0,1,9.1,2.34,17.22,17.22,0,0,1,6.56,6.47,17.67,17.67,0,0,1,2.39,9,18.41,18.41,0,0,1-.36,3.62c0,.17-.07.38-.14.62s-.1.39-.15.58h0a20.45,20.45,0,0,1-2,4.3c-.12.19-.18,0-.2-.06a8.17,8.17,0,0,0-3.67-6.11l-.1-.06a9.18,9.18,0,0,0-1.1-.58,11.36,11.36,0,0,0-1.62-.57c-.36-.1-1.15-.05-.86-.34a16.71,16.71,0,0,1,3.81,0h.12q.05-.62.06-1.27A11.34,11.34,0,0,0,26,9.43,11.19,11.19,0,0,0,17.79,6,10.88,10.88,0,0,0,9.55,9.44a11.5,11.5,0,0,0-3.32,8.37,11.24,11.24,0,0,0,3.41,8.34,11,11,0,0,0,8.14,3.41h.45v-.12c-.18-2.34-.22-4.28.26-3.5.17.28.34.54.51.79a16.87,16.87,0,0,0,1.87,2.35l.09.09c2.26,2.3,4.49,2.86,6.86,3.45l.15,0,1.18.3c2.82.75,5.87,2,9.42,6.37M30.76,25.19c-.35-.1-.61,0-.74.21a1.91,1.91,0,0,0,.34,1.68c.4.62.74.94,1,.94a.31.31,0,0,0,.24-.11,1.33,1.33,0,0,0,.14-1,2.37,2.37,0,0,0-1-1.73M26.82,28.1a1,1,0,0,0-.84.35,1.7,1.7,0,0,0,.46,2.23,1.89,1.89,0,0,0,1.21.44,1.29,1.29,0,0,0,1.06-.48c.42-.56.18-1.36-.61-2a2,2,0,0,0-1.28-.51"/></g></svg>