<?xml version="1.0" encoding="utf-8"?>
<!-- Generator: Adobe Illustrator 21.0.0, SVG Export Plug-In . SVG Version: 6.00 Build 0)  -->
<svg version="1.1" id="Слой_1" xmlns="http://www.w3.org/2000/svg" xmlns:xlink="http://www.w3.org/1999/xlink" x="0px" y="0px"
	 viewBox="0 0 92.3 40" style="enable-background:new 0 0 92.3 40;" xml:space="preserve">
<style type="text/css">
	.st0{fill:#FFFFFF;}
</style>
<title>qiwi</title>
<g id="base">
	<path class="st0" d="M46.9,29.2h1.9c0.9,0,1.6,0.4,1.6,1.2c0,0.4-0.3,0.8-0.7,1l0,0c0.5,0.1,0.9,0.6,0.9,1.1c0,0.9-0.7,1.3-1.7,1.3
		h-2V29.2z M48.7,31.2c0.5,0,0.8-0.3,0.8-0.7s-0.3-0.6-0.8-0.6h-0.8v1.4L48.7,31.2z M48.7,33.3c0.7,0,1-0.3,1-0.7s-0.3-0.7-1-0.7h-1
		v1.5L48.7,33.3L48.7,33.3z"/>
	<path class="st0" d="M53.9,29.1c0.7,0,1.3,0.2,1.8,0.7l-0.4,0.6c-0.3-0.3-0.8-0.5-1.3-0.5c-0.9,0-1.6,0.7-1.6,1.6v0.1
		c0,0.9,0.7,1.6,1.6,1.7h0.1c0.5,0,1.1-0.2,1.4-0.6l0.4,0.7c-0.5,0.5-1.2,0.8-1.9,0.8c-1.4,0-2.4-1.1-2.4-2.4
		C51.4,30.2,52.5,29.1,53.9,29.1"/>
	<path class="st0" d="M58.6,29.1c1.1,0,2,0.9,2,2c0,0.1,0,0.1,0,0.2s0,0.3,0,0.4h-3.4c0,0.9,0.7,1.5,1.5,1.6c0,0,0,0,0.1,0
		c0.5,0,1-0.2,1.4-0.5l0.4,0.7c-0.5,0.4-1.1,0.7-1.8,0.7c-1.3,0.1-2.4-1-2.5-2.3c0-0.1,0-0.1,0-0.2c-0.1-1.3,0.9-2.4,2.1-2.4
		C58.5,29.1,58.6,29.1,58.6,29.1 M59.8,31c0.1-0.6-0.4-1.2-1-1.2h-0.1c-0.7,0-1.3,0.5-1.4,1.2H59.8z M57.5,27.3h0.7v0.9h-0.7V27.3z
		 M59,27.3h0.7v0.9H59V27.3z"/>
	<polygon class="st0" points="64,29.2 68.1,29.2 68.1,33.9 67.2,33.9 67.2,30 64.9,30 64.9,33.9 64,33.9 	"/>
	<path class="st0" d="M69.5,29.2h0.8v0.4c0,0.1,0,0.2,0,0.4l0,0c0.3-0.6,0.9-0.9,1.6-0.9c1.3,0,2,1,2,2.4c0.2,1.2-0.7,2.3-1.9,2.4
		c-0.1,0-0.1,0-0.2,0c-0.6,0-1.1-0.3-1.4-0.8l0,0c0,0.1,0,0.3,0,0.4v2.1h-0.9V29.2z M71.7,33.2c0.7,0,1.3-0.6,1.3-1.7
		s-0.5-1.7-1.3-1.7s-1.3,0.5-1.3,1.7C70.3,32.4,70.8,33.2,71.7,33.2"/>
	<path class="st0" d="M77.2,29.1c1.3,0,2.4,1.2,2.4,2.5c0,1.3-1.2,2.4-2.5,2.4s-2.4-1.1-2.4-2.4C74.7,30.2,75.8,29.1,77.2,29.1
		L77.2,29.1 M77.2,33.2c0.9,0,1.7-0.7,1.7-1.6s-0.7-1.7-1.6-1.7s-1.7,0.7-1.7,1.6c0,0,0,0,0,0.1C75.6,32.4,76.3,33.2,77.2,33.2
		L77.2,33.2"/>
	<polygon class="st0" points="80.6,29.2 81.5,29.2 81.5,33.1 83.2,33.1 83.2,29.2 84.1,29.2 84.1,33.1 85.8,33.1 85.8,29.2 
		86.7,29.2 86.7,33.1 87.3,33.1 87.3,35 86.5,35 86.5,33.9 80.6,33.9 	"/>
	<path class="st0" d="M90.3,29.1c1.1,0,2,0.9,2,2c0,0.1,0,0.1,0,0.2s0,0.3,0,0.4h-3.4c0,0.9,0.7,1.5,1.5,1.6c0,0,0,0,0.1,0
		c0.5,0,1-0.2,1.4-0.5l0.4,0.7c-0.5,0.4-1.1,0.7-1.8,0.7c-1.3,0.1-2.4-1-2.5-2.3c0-0.1,0-0.1,0-0.2c-0.1-1.3,0.9-2.4,2.1-2.4
		C90.1,29.1,90.2,29.1,90.3,29.1 M91.4,31c0.1-0.6-0.4-1.2-1-1.2h-0.1c-0.7,0-1.3,0.5-1.4,1.2H91.4z"/>
	<path class="st0" d="M51.3,18.4c2.1,0,3.3-1.8,3.3-4.8s-1.2-4.8-3.3-4.8s-3.4,1.7-3.4,4.8S49.2,18.4,51.3,18.4 M57.1,25
		c-0.1,0.1-0.3,0.1-0.4,0l0,0l-1-1.4c-1-1.4-2.7-2.2-4.4-2.1c-4.2,0-6.9-3-6.9-7.9s2.7-7.9,6.9-7.9s6.8,3,6.8,7.9
		c0,2.5-0.9,5-2.3,5.8c-0.3,0.1-0.3,0.2,0,0.3c1,0.3,1.9,1,2.5,1.9l1,1.3c0.1,0.1,0.1,0.3,0,0.4l0,0L57.1,25z"/>
	<path class="st0" d="M60.8,6h2.9C63.9,6,64,6.1,64,6.3V21c0,0.2-0.1,0.3-0.3,0.3h-2.9c-0.2,0-0.3-0.1-0.3-0.3V6.3
		C60.5,6.1,60.7,6,60.8,6z"/>
	<path class="st0" d="M84,16.6c-0.4,1.5-0.7,2.9-1,4.4c0,0.1-0.1,0.3-0.3,0.3l0,0h-4c-0.1,0-0.3-0.1-0.3-0.2l0,0
		c-0.2-1.2-0.5-2.4-0.8-3.6L77,14.6c-0.1-0.6-0.3-1.5-0.4-2.2c0-0.3-0.3-0.3-0.3,0c-0.1,0.8-0.3,1.6-0.4,2.2l-0.7,2.8
		c-0.3,1.2-0.5,2.3-0.8,3.6c0,0.1-0.1,0.3-0.3,0.3l0,0h-3.9c-0.1,0-0.3-0.1-0.3-0.2l0,0c-0.3-1.5-0.6-2.9-1-4.4L66.2,6.3
		c-0.1-0.2,0-0.3,0.2-0.3h3c0.2,0,0.3,0.1,0.3,0.2l1.4,5.8c0.4,1.6,0.6,3.1,0.8,4.7c0,0.3,0.3,0.3,0.4,0c0.2-1.6,0.5-3.2,0.9-4.7
		l1.6-5.8C74.9,6,75,5.9,75.2,6h2.5C77.8,6,78,6.1,78,6.2l1.6,5.8c0.4,1.6,0.7,3.1,0.9,4.7c0,0.3,0.3,0.3,0.4,0
		c0.1-1.6,0.4-3.2,0.8-4.7l1.5-5.8c0-0.1,0.1-0.2,0.2-0.2h3c0.2,0,0.3,0.1,0.2,0.3L84,16.6z"/>
	<path class="st0" d="M89,6h3c0.2,0,0.3,0.1,0.3,0.3V21c0,0.2-0.1,0.3-0.3,0.3h-3c-0.2,0-0.3-0.1-0.3-0.3V6.3C88.8,6.1,88.9,6,89,6z
		"/>
	<path class="st0" d="M38.6,39.3c0.4,0.5-0.2,0.9-0.6,0.5c-4.1-3.6-7.5-4.7-10.9-4.8c-1.8,0-3.7,0.1-5.5,0.3l-1.1,0.1H20
		c-0.7,0.1-1.3,0.1-2,0.1c-3.2,0-6.3-0.8-9-2.3s-5-3.7-6.5-6.5C0.8,24,0,21,0,17.9c0-3.2,0.8-6.3,2.4-9C5.5,3.4,11.3,0,17.7,0
		c3.2,0,6.3,0.8,9.1,2.3c2.7,1.5,5,3.8,6.6,6.5c1.6,2.7,2.4,5.8,2.4,9c0,1.2-0.1,2.4-0.4,3.6c0,0.2-0.1,0.4-0.1,0.6
		s-0.1,0.4-0.2,0.6l0,0c-0.5,1.5-1.2,2.9-2,4.3c-0.1,0.2-0.2,0-0.2-0.1c-0.2-2.5-1.6-4.7-3.7-6.1l-0.1-0.1c-0.4-0.2-0.7-0.4-1.1-0.6
		c-0.5-0.2-1.1-0.4-1.6-0.6c-0.4-0.1-1.1,0-0.9-0.3c1.3-0.1,2.5-0.1,3.8,0h0.1c0-0.4,0.1-0.8,0.1-1.3c0.1-3.2-1.2-6.3-3.5-8.5
		C23.9,7.2,20.9,6,17.8,6c-3.1-0.1-6.1,1.2-8.2,3.4c-2.2,2.2-3.4,5.2-3.3,8.4c-0.1,3.1,1.2,6.2,3.4,8.3c2.1,2.2,5.1,3.5,8.1,3.4h0.5
		v-0.1c-0.2-2.3-0.2-4.3,0.3-3.5c0.2,0.3,0.3,0.5,0.5,0.8c0.6,0.8,1.2,1.6,1.9,2.4l0.1,0.1c2.3,2.3,4.5,2.9,6.9,3.4h0l1.2,0.3
		C32,33.7,35,34.9,38.6,39.3 M30.8,25.2c-0.4-0.1-0.6,0-0.7,0.2c-0.2,0.6,0,1.2,0.3,1.7c0.4,0.6,0.7,0.9,1,0.9c0.1,0,0.2,0,0.2-0.1
		c0.2-0.3,0.2-0.7,0.1-1C31.7,26.2,31.3,25.6,30.8,25.2 M26.8,28.1c-0.3,0-0.6,0.1-0.8,0.4c-0.4,0.8-0.2,1.7,0.5,2.2
		c0.3,0.3,0.8,0.4,1.2,0.4c0.4,0,0.8-0.2,1.1-0.5c0.4-0.6,0.2-1.4-0.6-2C27.7,28.3,27.3,28.1,26.8,28.1"/>
</g>
</svg>
