<svg width="49" height="20" viewBox="0 0 49 20" fill="none" xmlns="http://www.w3.org/2000/svg">
<path d="M10.7796 6.80315C10.2732 6.80315 9.87928 6.96173 9.59794 7.27888C9.32171 7.59603 9.14779 8.02572 9.07617 8.56794H12.4753C12.4395 7.98991 12.263 7.55255 11.9459 7.25586C11.6338 6.95406 11.2451 6.80315 10.7796 6.80315ZM10.7796 5C11.4753 5 12.1019 5.13044 12.6595 5.39132C13.217 5.6522 13.6774 6.06399 14.0406 6.62667C14.368 7.12286 14.5803 7.69833 14.6775 8.3531C14.7337 8.73675 14.7567 9.2892 14.7465 10.0105H9.02246C9.05315 10.8494 9.31659 11.4376 9.81278 11.7753C10.1146 11.985 10.4778 12.0898 10.9023 12.0898C11.3525 12.0898 11.7182 11.962 11.9996 11.7062C12.153 11.5681 12.2886 11.3763 12.4062 11.1307H14.6391C14.5828 11.6269 14.3245 12.1308 13.8641 12.6423C13.148 13.4556 12.1454 13.8623 10.8563 13.8623C9.79232 13.8623 8.85366 13.5196 8.04032 12.8341C7.22698 12.1487 6.82031 11.0335 6.82031 9.4887C6.82031 8.04106 7.18606 6.93104 7.91755 6.15862C8.65416 5.38621 9.60817 5 10.7796 5Z" fill="white"/>
<path d="M19.0021 7.7441C19.5068 7.7441 19.9012 7.92603 20.1852 8.28989C20.4716 8.65374 20.6148 9.12323 20.6148 9.69835C20.6148 10.2946 20.474 10.7887 20.1923 11.1808C19.9106 11.5728 19.5174 11.7688 19.0127 11.7688C18.6958 11.7688 18.4411 11.7054 18.2486 11.5787C18.1336 11.5035 18.0092 11.3721 17.8754 11.1843V11.6667H16.8929V6.48353H17.893V8.32862C18.0197 8.15021 18.1594 8.01406 18.312 7.92016C18.4927 7.80279 18.7228 7.7441 19.0021 7.7441ZM18.7451 10.9413C19.0033 10.9413 19.204 10.8369 19.3472 10.6279C19.4904 10.419 19.562 10.1444 19.562 9.80399C19.562 9.53168 19.5268 9.30633 19.4564 9.12792C19.3225 8.78989 19.0761 8.62087 18.7169 8.62087C18.3531 8.62087 18.1031 8.78637 17.9669 9.11736C17.8965 9.29342 17.8613 9.52112 17.8613 9.80047C17.8613 10.1291 17.934 10.4014 18.0796 10.6174C18.2251 10.8333 18.447 10.9413 18.7451 10.9413Z" fill="white"/>
<path d="M23.4529 9.80047C23.3895 9.84037 23.3249 9.87324 23.2592 9.89906C23.1958 9.92253 23.1078 9.94483 22.9951 9.96596L22.7698 10.0082C22.5585 10.0458 22.4071 10.0915 22.3155 10.1455C22.1606 10.2371 22.0831 10.3791 22.0831 10.5716C22.0831 10.743 22.1301 10.8674 22.224 10.9448C22.3202 11.02 22.4364 11.0575 22.5726 11.0575C22.7886 11.0575 22.9869 10.9941 23.1677 10.8674C23.3508 10.7406 23.4458 10.5094 23.4529 10.1737V9.80047ZM22.8437 9.33215C23.0292 9.30868 23.1618 9.27933 23.2416 9.24412C23.3848 9.18309 23.4564 9.08802 23.4564 8.95891C23.4564 8.80163 23.4012 8.69365 23.2909 8.63496C23.1829 8.57393 23.0233 8.54341 22.812 8.54341C22.5749 8.54341 22.4071 8.6021 22.3085 8.71947C22.2381 8.80632 22.1911 8.9237 22.1677 9.07158H21.1993C21.2205 8.7359 21.3144 8.46007 21.481 8.24411C21.7463 7.90608 22.2017 7.73706 22.8472 7.73706C23.2674 7.73706 23.6407 7.8204 23.967 7.98706C24.2933 8.15373 24.4564 8.46829 24.4564 8.93074V10.6913C24.4564 10.8134 24.4588 10.9613 24.4635 11.135C24.4705 11.2664 24.4904 11.3556 24.5233 11.4026C24.5562 11.4495 24.6055 11.4883 24.6712 11.5188V11.6667H23.5796C23.5491 11.5892 23.528 11.5164 23.5163 11.4484C23.5045 11.3803 23.4951 11.3028 23.4881 11.216C23.3496 11.3662 23.19 11.4941 23.0092 11.5998C22.7932 11.7242 22.5491 11.7864 22.2768 11.7864C21.9294 11.7864 21.6418 11.6878 21.4141 11.4906C21.1888 11.2911 21.0761 11.0094 21.0761 10.6455C21.0761 10.1737 21.258 9.83216 21.6219 9.62089C21.8214 9.50586 22.1148 9.4237 22.5022 9.3744L22.8437 9.33215Z" fill="white"/>
<path d="M27.4776 7.73706C27.8743 7.73706 28.1982 7.84152 28.4494 8.05045C28.7029 8.25702 28.8297 8.60092 28.8297 9.08215V11.6667H27.8015V9.33215C27.8015 9.13027 27.7745 8.97534 27.7205 8.86736C27.6219 8.67017 27.4341 8.57158 27.1571 8.57158C26.8168 8.57158 26.5832 8.71595 26.4564 9.00468C26.3907 9.15727 26.3578 9.3521 26.3578 9.5892V11.6667H25.3578V7.83565H26.3262V8.39552C26.4553 8.19833 26.5773 8.05631 26.6924 7.96946C26.8989 7.81453 27.1607 7.73706 27.4776 7.73706Z" fill="white"/>
<path d="M29.7487 6.49409H30.7347V9.2899L31.9847 7.84622H33.2276L31.8861 9.31455L33.2805 11.6667H32.0692L31.1502 10.0258L30.7347 10.4589V11.6667H29.7487V6.49409Z" fill="white"/>
<path d="M34.8051 7.37086H33.7875V6.44479H34.8051V7.37086ZM33.7875 7.82861H34.8051V11.6667H33.7875V7.82861Z" fill="white"/>
<path d="M37.9073 7.73706C38.304 7.73706 38.6279 7.84152 38.8791 8.05045C39.1326 8.25702 39.2594 8.60092 39.2594 9.08215V11.6667H38.2312V9.33215C38.2312 9.13027 38.2042 8.97534 38.1502 8.86736C38.0516 8.67017 37.8638 8.57158 37.5868 8.57158C37.2465 8.57158 37.0129 8.71595 36.8861 9.00468C36.8204 9.15727 36.7875 9.3521 36.7875 9.5892V11.6667H35.7875V7.83565H36.7558V8.39552C36.885 8.19833 37.007 8.05631 37.122 7.96946C37.3286 7.81453 37.5904 7.73706 37.9073 7.73706Z" fill="white"/>
<path d="M41.8369 10.8427C42.0716 10.8427 42.27 10.7547 42.432 10.5786C42.5939 10.4002 42.6749 10.1174 42.6749 9.73004C42.6749 9.36619 42.5975 9.08919 42.4425 8.89905C42.29 8.7089 42.0845 8.61383 41.8263 8.61383C41.4742 8.61383 41.2313 8.77933 41.0974 9.11032C41.027 9.28638 40.9918 9.50351 40.9918 9.76173C40.9918 9.98474 41.0294 10.1831 41.1045 10.3568C41.2406 10.6808 41.4848 10.8427 41.8369 10.8427ZM41.5869 7.73706C41.7794 7.73706 41.9472 7.76641 42.0904 7.82509C42.3346 7.92603 42.5317 8.11148 42.682 8.38144V7.82861H43.6573V11.4695C43.6573 11.9648 43.574 12.3381 43.4073 12.5892C43.1209 13.0212 42.5716 13.2371 41.7594 13.2371C41.2688 13.2371 40.8686 13.1409 40.5587 12.9484C40.2488 12.7559 40.0775 12.4683 40.0446 12.0857H41.1362C41.1644 12.2031 41.2101 12.2876 41.2735 12.3392C41.3815 12.4308 41.5634 12.4766 41.8193 12.4766C42.1808 12.4766 42.4226 12.3557 42.5446 12.1139C42.6245 11.9589 42.6644 11.6984 42.6644 11.3322V11.0857C42.5681 11.25 42.4648 11.3733 42.3545 11.4554C42.155 11.608 41.8956 11.6843 41.5763 11.6843C41.0834 11.6843 40.689 11.5118 40.3932 11.1667C40.0998 10.8193 39.9531 10.3498 39.9531 9.75821C39.9531 9.18778 40.0951 8.7089 40.3791 8.32158C40.6632 7.9319 41.0658 7.73706 41.5869 7.73706Z" fill="white"/>
<path fill-rule="evenodd" clip-rule="evenodd" d="M45.6266 0.833333H3.95992C2.57921 0.833333 1.45992 1.95262 1.45992 3.33333V15.8333C1.45992 17.214 2.57921 18.3333 3.95992 18.3333H45.6266C47.0073 18.3333 48.1266 17.214 48.1266 15.8333V3.33333C48.1266 1.95262 47.0073 0.833333 45.6266 0.833333ZM3.95992 0C2.11897 0 0.626587 1.49238 0.626587 3.33333V15.8333C0.626587 17.6743 2.11897 19.1667 3.95992 19.1667H45.6266C47.4675 19.1667 48.9599 17.6743 48.9599 15.8333V3.33333C48.9599 1.49238 47.4675 0 45.6266 0H3.95992Z" fill="white"/>
</svg>
