<?xml version="1.0" encoding="utf-8"?>
<!-- Generator: Adobe Illustrator 21.0.0, SVG Export Plug-In . SVG Version: 6.00 Build 0)  -->
<svg version="1.1" id="Слой_1" xmlns="http://www.w3.org/2000/svg" xmlns:xlink="http://www.w3.org/1999/xlink" x="0px" y="0px"
	 viewBox="0 0 144 40" style="enable-background:new 0 0 144 40;" xml:space="preserve">
<style type="text/css">
	.st0{fill:#FFFFFF;}
</style>
<title>yandex-money</title>
<g id="base">
	<path class="st0" d="M6.9,20.8l-4,9H0l4.4-9.6c-2.1-1.1-3.4-3-3.4-6.5c0-4.9,3.1-7.4,6.8-7.4h3.8v23.5H9v-9H6.9z M9,8.4H7.7
		c-2,0-4,1.3-4,5.3s1.8,5,4,5H9V8.4z"/>
	<path class="st0" d="M23.8,13.2v16.6h-2.5v-7.4h-3.8v7.4h-2.6V13.2h2.6v7h3.8v-7C21.3,13.2,23.8,13.2,23.8,13.2z M37,33.1h-2.3
		v-3.3h-7.1V33h-2.3v-5.3h1c1.5-3.5,1.7-8.6,1.7-13v-1.5h7.7v14.5H37V33.1z M33.1,15.3h-2.9v0.3c0,3.5-0.2,8.6-1.5,12.1h4.4V15.3z
		 M44,30c-3.4,0-5.5-2.7-5.5-7.8c0-5.3,1.5-9.2,5-9.2c2.8,0,4.6,2.1,4.6,7.7v1.4h-6.9c0,3.8,1,5.7,3.1,5.7c1.2,0,2.3-0.4,3.2-1.1
		l0.6,2C46.9,29.6,45.5,30.1,44,30z M41.2,20h4.2c0-2.8-0.5-4.9-1.9-4.9S41.3,17,41.2,20L41.2,20z M53.2,21.6v8.2h-2.5V13.2h2.6v7.7
		l4-7.7h2.6L55.7,21l4.7,8.8h-2.8L53.2,21.6z M60.7,21.6c0-5.2,2-8.5,5.9-8.5c1.1,0,2.2,0.3,3.1,0.8l-0.3,2.4
		c-0.7-0.7-1.7-1.1-2.7-1.2c-1.8,0-3.2,2.1-3.2,6.2s1,6.5,3.1,6.5c1,0,2-0.3,2.8-1l0.6,1.9c-1,0.8-2.2,1.3-3.4,1.2
		C62.9,30,60.8,27.2,60.7,21.6L60.7,21.6z"/>
	<path class="st0" d="M87.3,29.8h-10L77,33.7h-1.2v-5.3h0.7c1.2-1,1.7-3.6,2-6.9s0.5-8.7,0.6-15.2h8.2v22.1h1.6v5.3h-1.3L87.3,29.8z
		 M85.6,7.6h-5.1c-0.1,5.9-0.3,10.5-0.5,13.9s-0.8,5.9-1.7,6.9h7.3L85.6,7.6z"/>
	<path class="st0" d="M95.6,28.8c1.3,0,2.6-0.7,3.4-1.8l0.5,1.3c-0.9,1.2-2.4,1.9-3.9,1.9c-3.5,0-5.1-3.2-5.1-8.6s2-8.6,4.8-8.6
		s4.7,3,4.2,8.9H92C92.1,26.3,93.2,28.8,95.6,28.8z M92,20.6h6c0.3-4.4-1.1-6.4-2.7-6.4S92.2,16.4,92,20.6z"/>
	<path class="st0" d="M109.6,21.8H104v8h-1.5V13.2h1.5v7.3h5.7v-7.3h1.5v16.6h-1.5L109.6,21.8z"/>
	<path class="st0" d="M114.8,13.2h1.5v6.1h1.2c3.2,0,5.2,1.7,5.2,5.2s-2.2,5.3-5.3,5.3h-2.7V13.2H114.8z M116.3,20.6v8h1
		c2.3,0,3.9-1.1,3.9-4s-1.4-4-3.8-4H116.3z"/>
	<path class="st0" d="M126.9,14.5v15.3h-1.5V13.2h7v1.3H126.9z"/>
	<path class="st0" d="M142.5,18.3c0-0.8,0-1.5,0.1-2.3h-0.1c-0.2,0.7-0.5,1.5-0.9,2.1l-5.4,11.6H135V13.2h1.4v11.5
		c0,0.9-0.1,1.6-0.1,2.3h0.1c0.2-0.8,0.5-1.5,0.9-2.2l5.4-11.6h1.3v16.6h-1.5L142.5,18.3L142.5,18.3z"/>
</g>
</svg>
