<?xml version="1.0" encoding="utf-8"?>
<!-- Generator: Adobe Illustrator 21.0.0, SVG Export Plug-In . SVG Version: 6.00 Build 0)  -->
<svg version="1.1" id="Слой_1" xmlns="http://www.w3.org/2000/svg" xmlns:xlink="http://www.w3.org/1999/xlink" x="0px" y="0px"
	 viewBox="0 0 144 27.4" style="enable-background:new 0 0 144 27.4;" xml:space="preserve">
<style type="text/css">
	.st0{fill:#FF0000;}
	.st1{fill:#FFFFFF;}
</style>
<title>yandex-money</title>
<g id="base">
	<path class="st0" d="M6.9,14.5l-4,9H0l4.4-9.6C2.3,12.8,1,10.9,1,7.4C1,2.5,4.1,0,7.8,0h3.8v23.5H9v-9H6.9z M9,2.1H7.7
		c-2,0-4,1.4-4,5.3s1.8,5,4,5H9V2.1z"/>
	<path class="st1" d="M23.8,6.9v16.6h-2.5v-7.4h-3.8v7.4h-2.6V6.9h2.6v7h3.8v-7L23.8,6.9z M37,26.8h-2.3v-3.3h-7.1v3.2h-2.3v-5.4h1
		c1.5-3.5,1.7-8.6,1.7-13V6.9h7.7v14.5h1.3L37,26.8z M33.1,9h-2.9v0.3c0,3.5-0.2,8.6-1.5,12.1h4.4L33.1,9z M44,23.7
		c-3.4,0-5.5-2.7-5.5-7.8c0-5.3,1.5-9.2,5-9.2c2.8,0,4.6,2.1,4.6,7.7v1.4h-6.9c0,3.8,1,5.7,3.1,5.7c1.2,0,2.3-0.4,3.2-1.1l0.6,2
		C46.9,23.3,45.5,23.8,44,23.7z M41.2,13.7h4.2c0-2.8-0.5-4.9-1.9-4.9S41.3,10.8,41.2,13.7L41.2,13.7z M53.2,15.3v8.2h-2.5V6.9h2.6
		v7.7l4-7.7h2.6l-4.1,7.8l4.7,8.8h-2.8L53.2,15.3z M60.7,15.3c0-5.2,2-8.5,5.9-8.5c1.1,0,2.2,0.3,3.1,0.8L69.3,10
		c-0.7-0.7-1.7-1.1-2.7-1.2c-1.8,0-3.2,2.1-3.2,6.2s1,6.5,3.1,6.5c1,0,2-0.3,2.8-1l0.6,1.9c-1,0.8-2.2,1.3-3.4,1.2
		C62.9,23.7,60.8,20.9,60.7,15.3L60.7,15.3z"/>
	<path class="st1" d="M87.3,23.5H77.3L77,27.4h-1.2v-5.3h0.7c1.2-1,1.7-3.6,2-6.9S78.9,6.5,79,0h8.2v22.1h1.6v5.3h-1.3L87.3,23.5z
		 M85.6,1.4h-5.1c-0.1,5.9-0.3,10.5-0.5,13.9s-0.8,5.8-1.7,6.9h7.3L85.6,1.4z"/>
	<path class="st1" d="M95.6,22.5c1.3,0,2.6-0.7,3.4-1.8l0.5,1.3c-0.9,1.2-2.4,1.9-3.9,1.9c-3.5,0-5.1-3.2-5.1-8.6s2-8.6,4.8-8.6
		s4.7,3,4.2,8.9H92C92.1,20,93.2,22.5,95.6,22.5z M92,14.3h6c0.3-4.4-1.1-6.4-2.7-6.4S92.2,10.1,92,14.3z"/>
	<path class="st1" d="M109.6,15.5H104v8h-1.5V6.9h1.5v7.3h5.7V6.9h1.5v16.6h-1.5L109.6,15.5z"/>
	<path class="st1" d="M114.8,6.9h1.5v6.2h1.2c3.2,0,5.2,1.7,5.2,5.2s-2.2,5.3-5.3,5.3h-2.7V6.9z M116.3,14.3v8h1
		c2.3,0,3.9-1.1,3.9-4s-1.4-4-3.8-4L116.3,14.3z"/>
	<path class="st1" d="M126.9,8.2v15.3h-1.5V6.9h7v1.3H126.9z"/>
	<path class="st1" d="M142.5,12c0-0.8,0-1.5,0.1-2.3h-0.1c-0.2,0.7-0.5,1.5-0.9,2.1l-5.4,11.6H135V6.9h1.4v11.5
		c0,0.9-0.1,1.6-0.1,2.3h0.1c0.2-0.8,0.5-1.5,0.9-2.2l5.4-11.6h1.3v16.6h-1.5V12z"/>
</g>
</svg>
