<?xml version="1.0" standalone="no"?>
<!DOCTYPE svg PUBLIC "-//W3C//DTD SVG 1.1//EN" "http://www.w3.org/Graphics/SVG/1.1/DTD/svg11.dtd" >
<svg xmlns="http://www.w3.org/2000/svg" xmlns:xlink="http://www.w3.org/1999/xlink" version="1.1">
<metadata>
Created by FontForge 20170731 at Tue Sep 25 09:21:45 2018
 By Aleksey,,,
Dmitry Rastvortsev exclusively for Pari-Match N.V. parimatch.com
</metadata>
<defs>
<font id="Pari-Match-Medium" horiz-adv-x="450" >
  <font-face 
    font-family="Pari-Match Medium"
    font-weight="400"
    font-style="italic"
    font-stretch="normal"
    units-per-em="1000"
    panose-1="0 0 5 0 0 0 0 0 0 0"
    ascent="800"
    descent="-200"
    x-height="550"
    cap-height="700"
    bbox="-363 -155 2400 897"
    underline-thickness="50"
    underline-position="-200"
    slope="-16"
    unicode-range="U+0020-2265"
  />
<missing-glyph horiz-adv-x="430" 
d="M353 -155h-273v860h273v-860zM144 647v-28h56v-32h-56v-28h142v28h-56v32h56v28h-142zM144 536v-89h142v29h-56v60h-86zM200 476h-28v31h28v-31zM144 424v-29h56v-31h-56v-29h86v60h56v29h-142zM258 372v-57h-114v-29h142v86h-28zM200 267v-48h30v20h28v-41h-86v69h-28
v-97h142v97h-86zM144 118v-97h142v97h-142zM258 50h-86v40h86v-40zM144 2v-29h60l-60 -40v-29h142v29h-87l60 40h27v29h-142z" />
    <glyph glyph-name="uni04070407.liga" unicode="&#x407;&#x407;" horiz-adv-x="495" 
d="M246 855l-34 -120h-120l35 120h119zM398 855l-34 -120h-120l35 120h119zM550 855l-34 -120h-120l34 120h120zM702 855l-34 -120h-120l34 120h120zM315 700l-200 -700h-138l200 700h138zM562 700l-200 -700h-137l200 700h137z" />
    <glyph glyph-name="uni04570457.liga" unicode="&#x457;&#x457;" horiz-adv-x="440" 
d="M182 705l-34 -120h-120l35 120h119zM334 705l-34 -120h-120l35 120h119zM485 705l-34 -120h-120l34 120h120zM637 705l-34 -120h-120l34 120h120zM262 550l-157 -550h-133l157 550h133zM482 550l-157 -550h-133l157 550h133z" />
    <glyph glyph-name=".notdef" horiz-adv-x="430" 
d="M353 -155h-273v860h273v-860zM144 647v-28h56v-32h-56v-28h142v28h-56v32h56v28h-142zM144 536v-89h142v29h-56v60h-86zM200 476h-28v31h28v-31zM144 424v-29h56v-31h-56v-29h86v60h56v29h-142zM258 372v-57h-114v-29h142v86h-28zM200 267v-48h30v20h28v-41h-86v69h-28
v-97h142v97h-86zM144 118v-97h142v97h-142zM258 50h-86v40h86v-40zM144 2v-29h60l-60 -40v-29h142v29h-87l60 40h27v29h-142z" />
    <glyph glyph-name=".null" horiz-adv-x="0" 
 />
    <glyph glyph-name="nonmarkingreturn" horiz-adv-x="333" 
 />
    <glyph glyph-name="space" unicode=" " horiz-adv-x="140" 
 />
    <glyph glyph-name="exclam" unicode="!" horiz-adv-x="280" 
d="M354 700l-185 -485h-105l138 485h152zM135 0h-143l44 154h143z" />
    <glyph glyph-name="quotedbl" unicode="&#x22;" horiz-adv-x="430" 
d="M233 462h-117l61 243h133zM423 462h-117l61 243h133z" />
    <glyph glyph-name="numbersign" unicode="#" 
d="M413 439l-51 -178h55l-33 -116h-55l-42 -145h-110l42 145h-60l-42 -145h-110l42 145h-56l34 116h55l51 178h-55l33 116h55l41 145h110l-41 -145h60l41 145h110l-41 -145h55l-33 -116h-55zM303 439h-60l-51 -178h60z" />
    <glyph glyph-name="dollar" unicode="$" horiz-adv-x="440" 
d="M376 705q70 -5 95.5 -53.5t5.5 -118.5l-23 -83h-136l30 101q9 32 -23 32h-32q-25 0 -34 -33l-9 -31q-9 -26 -8 -42t17 -36l92 -114q58 -73 33 -151l-7 -26q-24 -83 -66 -119t-111 -36h-13l-19 -65h-74l19 65q-71 5 -97 53.5t-5 118.5l23 84h134l-29 -102q-9 -31 23 -31
h44q25 0 34 33l9 32q8 24 6.5 41.5t-14.5 33.5l-94 114q-56 67 -35 143l10 35q23 83 65 119t112 36h3l18 65h74z" />
    <glyph glyph-name="percent" unicode="%" horiz-adv-x="558" 
d="M128 616q26 89 106 89h46q44 0 63 -27t6 -71l-32 -114q-27 -89 -106 -89h-48q-43 0 -61.5 27t-6.5 71zM630 700l-576 -700h-89l576 700h89zM178 494q-4 -15 12 -15h26q8 0 11 3t5 13l35 119q4 16 -12 16h-25q-12 0 -18 -17zM279 207q25 89 105 89h47q44 0 63 -27t6 -71
l-33 -114q-25 -89 -105 -89h-48q-43 0 -61.5 27t-6.5 71zM328 85q-3 -15 12 -15h27q7 0 10 3t6 13l34 119q4 16 -11 16h-26q-12 0 -18 -17z" />
    <glyph glyph-name="ampersand" unicode="&#x26;" horiz-adv-x="431" 
d="M84 -5q-64 0 -92.5 49t-7.5 120l42 148q37 129 144 138l-22 143l30 107h318l-36 -128h-183l28 -192l38 71h120l-132 -239l32 -212h-124l-8 63q-55 -68 -119 -68h-28zM125 121h8q18 0 36 26l39 62l-19 124h-10q-18 0 -25 -24l-47 -165q-7 -23 18 -23z" />
    <glyph glyph-name="quotesingle" unicode="'" horiz-adv-x="240" 
d="M233 462h-117l61 243h133z" />
    <glyph glyph-name="parenleft" unicode="(" horiz-adv-x="290" 
d="M325 700q-23 0 -31 -30l-199 -696q-9 -29 20 -29h42l-28 -100h-41q-63 0 -90 40t-9 106l194 676q20 69 56.5 101t96.5 32h65l-28 -100h-48z" />
    <glyph glyph-name="parenright" unicode=")" horiz-adv-x="290" 
d="M-12 -55q24 0 32 30l199 696q9 29 -20 29h-42l28 100h41q63 0 90 -40t9 -106l-194 -676q-20 -69 -56.5 -101t-97.5 -32h-65l28 100h48z" />
    <glyph glyph-name="asterisk" unicode="*" horiz-adv-x="296" 
d="M109 564l76 20l-59 36l48 59l48 -47l14 71h71l-30 -73l69 33l19 -61l-78 -21l61 -34l-48 -59l-51 45l-12 -70h-70l28 73l-67 -34z" />
    <glyph glyph-name="plus" unicode="+" 
d="M395 255h-118l-34 -120h-114l34 120h-118l32 110h118l34 120h114l-34 -120h118z" />
    <glyph glyph-name="comma" unicode="," horiz-adv-x="230" 
d="M52 -90h-106l70 244h138z" />
    <glyph glyph-name="hyphen" unicode="-" horiz-adv-x="310" 
d="M264 250h-230l34 120h230z" />
    <glyph glyph-name="period" unicode="." horiz-adv-x="243" 
d="M115 0h-143l44 154h143z" />
    <glyph glyph-name="slash" unicode="/" horiz-adv-x="280" 
d="M-104 -155l412 955h114l-412 -955h-114z" />
    <glyph glyph-name="zero" unicode="0" 
d="M375 150q-24 -83 -66 -119t-111 -36h-62q-79 0 -108 49t-8 123l109 383q24 83 66 119t111 36h62q79 0 108 -49t8 -123zM354 545q10 37 -27 37h-26q-17 0 -25.5 -9.5t-14.5 -29.5l-111 -388q-10 -37 27 -37h26q17 0 25.5 9.5t14.5 29.5z" />
    <glyph glyph-name="one" unicode="1" horiz-adv-x="298" 
d="M161 0h-134l165 576h-84l35 124h218z" />
    <glyph glyph-name="two" unicode="2" horiz-adv-x="411" 
d="M-10 114q24 79 82 134l225 218q22 22 28 43l11 38q10 37 -27 37h-25q-17 0 -25.5 -9.5t-14.5 -29.5l-20 -70h-130l21 75q24 83 66 119t111 36h56q79 0 108 -49t8 -123l-7 -27q-17 -60 -66 -106l-229 -222q-21 -21 -26 -41l-3 -8h216l-37 -129h-354z" />
    <glyph glyph-name="three" unicode="3" horiz-adv-x="430" 
d="M345 705q78 0 107.5 -49t8.5 -123l-21 -80q-12 -43 -31 -67t-50 -38q44 -37 25 -105l-27 -93q-24 -83 -66 -119t-111 -36h-55q-79 0 -108 49t-8 123l22 78h126l-27 -92q-10 -37 27 -37h29q17 0 25.5 9.5t14.5 29.5l27 95q10 37 -27 37h-56l37 127h59q17 0 25.5 9.5
t14.5 29.5l27 94q10 37 -27 37h-24q-17 0 -25.5 -9.5t-14.5 -29.5l-20 -74h-126l22 79q24 83 66 119t111 36h50z" />
    <glyph glyph-name="four" unicode="4" horiz-adv-x="432" 
d="M352 250h66l-34 -120h-66l-38 -130h-125l37 130h-218l32 112l326 458h82l-2 -3l3 3h65zM226 250l34 119l42 121h-5l-158 -240h87z" />
    <glyph glyph-name="five" unicode="5" horiz-adv-x="431" 
d="M259 571l-39 -119q51 42 98 42h13q55 0 80 -40.5t6 -105.5l-56 -198q-24 -83 -66 -119t-111 -36h-58q-79 0 -108 49t-8 123l24 83h130l-28 -97q-10 -37 26 -37h26q17 0 25.5 9.5t14.5 29.5l54 187q10 37 -27 37h-21q-11 0 -19.5 -5.5t-12.5 -11.5t-12 -22h-127l116 360
h318l-36 -129h-202z" />
    <glyph glyph-name="six" unicode="6" horiz-adv-x="438" 
d="M362 705q79 0 108 -49t8 -123l-10 -37h-125l14 48q10 37 -27 37h-31q-17 0 -25.5 -9.5t-14.5 -29.5l-38 -133q43 38 86 38h23q56 0 79.5 -40.5t4.5 -105.5l-43 -151q-24 -83 -66 -119t-111 -36h-55q-79 0 -108 49t-8 123l109 383q24 83 66 119t111 36h53zM229 337
q-17 0 -25.5 -9.5t-14.5 -29.5l-41 -142q-10 -37 28 -37h24q17 0 25.5 9.5t14.5 29.5l40 142q12 37 -27 37h-24z" />
    <glyph glyph-name="seven" unicode="7" horiz-adv-x="391" 
d="M486 700l-27 -100l-343 -600h-143l341 571h-208l37 129h343z" />
    <glyph glyph-name="eight" unicode="8" 
d="M358 705q79 0 108 -49t8 -123l-22 -78q-22 -83 -78 -106q42 -39 23 -104l-27 -95q-24 -83 -66 -119t-111 -36h-62q-79 0 -108 48.5t-8 123.5l22 78q14 49 33 73t52 36q-38 37 -20 101l27 95q24 84 66 119.5t111 35.5h52zM314 472q22 16 7 38l9 61q-11 16 -33 -1l-32 -46
q-23 -19 -7 -38l-10 -61q7 -10 14 -9.5t20 10.5zM267 257q10 37 -27 37h-26q-17 0 -25.5 -9.5t-14.5 -29.5l-29 -102q-10 -37 27 -37h26q17 0 25.5 9.5t14.5 29.5z" />
    <glyph glyph-name="nine" unicode="9" horiz-adv-x="438" 
d="M343 705q79 0 108 -49t8 -123l-109 -383q-24 -83 -66 -119t-111 -36h-53q-79 0 -108 49t-8 123l11 37h125l-14 -48q-10 -37 26 -37h32q17 0 25.5 9.5t14.5 29.5l38 133q-43 -38 -86 -38h-24q-56 0 -79.5 40.5t-4.5 105.5l43 151q24 83 66 119t111 36h55zM334 544
q10 37 -28 37h-23q-17 0 -25.5 -9.5t-14.5 -29.5l-41 -142q-10 -37 27 -37h24q29 0 41 39z" />
    <glyph glyph-name="colon" unicode=":" horiz-adv-x="230" 
d="M228 397h-143l44 153h143zM115 0h-143l44 154h143z" />
    <glyph glyph-name="semicolon" unicode=";" horiz-adv-x="230" 
d="M228 397h-143l44 153h143zM52 -90h-106l70 244h138z" />
    <glyph glyph-name="less" unicode="&#x3c;" 
d="M413 371l-190 -68l152 -67l-32 -112l-292 134l30 107l369 134z" />
    <glyph glyph-name="equal" unicode="=" 
d="M432 350h-350l32 110h350zM378 160h-350l31 110h350z" />
    <glyph glyph-name="greater" unicode="&#x3e;" 
d="M421 365l-30 -107l-369 -134l37 128l190 67l-152 68l33 112z" />
    <glyph glyph-name="question" unicode="?" horiz-adv-x="417" 
d="M124 247q11 41 27.5 69.5t46.5 56.5l82 82q23 23 31 50l13 44q10 37 -27 37h-16q-17 0 -25.5 -9.5t-14.5 -29.5l-20 -72h-128l21 75q24 84 65 119.5t112 35.5h45q79 0 108 -49t8 -123l-7 -27q-16 -56 -64 -104l-93 -91q-32 -27 -48 -74l-8 -22h-118zM190 0h-143l44 154
h143z" />
    <glyph glyph-name="at" unicode="@" horiz-adv-x="660" 
d="M113 -85q-79 0 -108 49t-8 123l109 383q24 83 66 119t111 36h262q79 0 108 -49t8 -123l-77 -269q-24 -83 -65.5 -119t-110.5 -36h-93v45q-44 -49 -87 -49h-8q-51 0 -70 36t-2 94l6 22q16 55 43.5 79t76.5 42l81 30q18 7 22 23l12 41q8 24 -17 24h-22q-19 0 -25 -25
l-13 -45h-103l11 41q19 66 53.5 95.5t90.5 29.5h40q62 0 86.5 -38.5t7.5 -99.5l-80 -280h10q26 1 48 26t33 64l77 269q15 52 0 79.5t-59 27.5h-262q-57 0 -84 -90l-109 -383q-15 -52 0 -79.5t59 -27.5h235l-18 -65h-235zM270 125h26q20 0 26 25l27 94l-55 -24
q-20 -9 -27 -32l-10 -39q-7 -24 13 -24z" />
    <glyph glyph-name="A" unicode="A" horiz-adv-x="441" 
d="M459 700l-121 -700h-138l26 127h-94l-46 -127h-139l276 700h236zM251 253l64 321h-24l-114 -321h74z" />
    <glyph glyph-name="B" unicode="B" horiz-adv-x="463" 
d="M372 700q79 0 108 -48.5t8 -123.5l-16 -55q-24 -89 -81 -123q42 -42 19 -121l-21 -74q-24 -83 -66 -119t-111 -36h-230l200 700h190zM282 577l-48 -167h62q27 0 36 33l30 102q9 32 -23 32h-57zM282 258q9 32 -24 32h-58l-48 -168h67q25 0 34 33z" />
    <glyph glyph-name="C" unicode="C" horiz-adv-x="466" 
d="M136 -5q-79 0 -108 49t-8 123l109 383q24 83 66 119t111 36h73q79 0 108 -49t8 -123l-37 -129h-134l41 143q9 32 -23 32h-42q-26 0 -34 -33l-113 -394q-9 -31 23 -31h42q25 0 34 33l38 132h135l-39 -136q-24 -84 -65 -119.5t-110 -35.5h-75z" />
    <glyph glyph-name="D" unicode="D" horiz-adv-x="485" 
d="M392 700q79 0 108 -49t8 -123l-107 -373q-24 -83 -66 -119t-111 -36h-247l200 700h215zM374 540q9 32 -23 32h-73l-127 -444h80q25 0 34 33z" />
    <glyph glyph-name="E" unicode="E" horiz-adv-x="386" 
d="M276 572l-45 -158h140l-37 -128h-140l-45 -158h150l-36 -128h-286l200 700h286l-37 -128h-150z" />
    <glyph glyph-name="F" unicode="F" horiz-adv-x="371" 
d="M278 572l-45 -158h123l-37 -128h-123l-81 -286h-138l200 700h291l-37 -128h-153z" />
    <glyph glyph-name="G" unicode="G" horiz-adv-x="482" 
d="M379 705q79 0 108 -49t8 -123l-26 -90h-133l30 104q9 32 -22 32h-44q-26 0 -34 -33l-114 -399q-9 -31 23 -31h49q29 0 38 33l27 92h-59l35 125h189l-105 -366h-90v56q-50 -61 -113 -61h-10q-79 0 -108 49t-8 123l109 383q24 83 66 119t111 36h73z" />
    <glyph glyph-name="H" unicode="H" horiz-adv-x="488" 
d="M555 700l-200 -700h-137l81 286h-103l-81 -286h-138l200 700h138l-82 -286h103l82 286h137z" />
    <glyph glyph-name="I" unicode="I" horiz-adv-x="248" 
d="M315 700l-200 -700h-138l200 700h138z" />
    <glyph glyph-name="J" unicode="J" horiz-adv-x="423" 
d="M104 -5q-75 0 -105 49.5t-9 122.5l40 138h129l-42 -145q-10 -37 29 -37h13q17 0 25.5 9.5t14.5 29.5l153 538h138l-157 -550q-24 -83 -66 -119t-111 -36h-52z" />
    <glyph glyph-name="K" unicode="K" horiz-adv-x="464" 
d="M358 355l7 -355h-136v286h-33l-81 -286h-138l200 700h138l-82 -286h21l163 286h139z" />
    <glyph glyph-name="L" unicode="L" horiz-adv-x="371" 
d="M-23 0l200 700h138l-164 -572h158l-36 -128h-296z" />
    <glyph glyph-name="M" unicode="M" horiz-adv-x="621" 
d="M683 700l-200 -700h-132l57 199l57 177h-5l-158 -260h-70l-13 260h-5l-43 -177l-57 -199h-132l200 700h128l22 -339l206 339h145z" />
    <glyph glyph-name="N" unicode="N" horiz-adv-x="503" 
d="M182 700h128l21 -368h5l42 173l56 195h131l-200 -700h-128l-21 369h-5l-42 -174l-56 -195h-131z" />
    <glyph glyph-name="O" unicode="O" horiz-adv-x="481" 
d="M396 150q-24 -83 -66 -119t-111 -36h-83q-79 0 -108 49t-8 123l109 383q24 83 66 119t111 36h83q79 0 108 -49t8 -123zM372 547q9 32 -22 32h-50q-26 0 -34 -33l-113 -394q-9 -31 23 -31h50q25 0 34 33z" />
    <glyph glyph-name="P" unicode="P" horiz-adv-x="463" 
d="M380 700q79 0 108 -49t8 -123l-31 -107q-24 -83 -66 -119t-111 -36h-97l-76 -266h-138l200 700h203zM362 542q9 32 -22 32h-61l-53 -183h68q25 0 34 33z" />
    <glyph glyph-name="Q" unicode="Q" horiz-adv-x="481" 
d="M389 705q79 0 108 -49t8 -123l-109 -383q-21 -75 -57 -111t-92 -43v-96h-126v96q-70 5 -95.5 53t-5.5 118l109 383q24 83 66 119t111 36h83zM372 547q9 32 -22 32h-50q-26 0 -34 -33l-113 -394q-9 -31 23 -31h50q25 0 34 33z" />
    <glyph glyph-name="R" unicode="R" horiz-adv-x="462" 
d="M-23 0l200 700h198q79 0 108 -49t8 -123l-28 -99q-33 -113 -106 -142l5 -287h-135l-1 274h-33l-78 -274h-138zM227 394h64q25 0 34 33l33 117q9 32 -22 32h-57z" />
    <glyph glyph-name="S" unicode="S" horiz-adv-x="423" 
d="M113 -5q-79 0 -108.5 49t-8.5 123l24 84h134l-29 -102q-9 -31 23 -31h44q25 0 34 33l9 32q8 24 6.5 41.5t-14.5 33.5l-94 114q-56 67 -35 143l10 35q23 83 65 119t112 36h62q79 0 108 -49t8 -123l-23 -83h-136l30 101q9 32 -23 32h-32q-25 0 -34 -33l-9 -31
q-9 -26 -8 -42t17 -36l92 -114q58 -73 33 -151l-7 -26q-24 -83 -66 -119t-111 -36h-73z" />
    <glyph glyph-name="T" unicode="T" horiz-adv-x="413" 
d="M478 572h-117l-164 -572h-137l163 572h-117l36 128h373z" />
    <glyph glyph-name="U" unicode="U" horiz-adv-x="489" 
d="M399 150q-24 -84 -65.5 -119.5t-110.5 -35.5h-81q-79 0 -108.5 49t-7.5 123l151 533h138l-155 -542q-10 -37 27 -37h38q17 0 25 9t15 30l154 540h137z" />
    <glyph glyph-name="V" unicode="V" horiz-adv-x="442" 
d="M246 0h-207l100 700h138l-56 -353l-42 -203h6l218 556h145z" />
    <glyph glyph-name="W" unicode="W" horiz-adv-x="650" 
d="M276 700l-41 -271l-34 -176h4l164 362h93l-34 -362h4l71 183l109 264h140l-303 -700h-141l27 310h-4l-141 -310h-145l97 700h134z" />
    <glyph glyph-name="X" unicode="X" horiz-adv-x="464" 
d="M334 350l37 -350h-134l-15 211h-4l-127 -211h-154l244 374l-39 326h133l15 -210h4l120 210h147z" />
    <glyph glyph-name="Y" unicode="Y" horiz-adv-x="442" 
d="M282 242l-69 -242h-138l68 239l-11 461h139l-7 -156l-13 -149h5l149 305h149z" />
    <glyph glyph-name="Z" unicode="Z" horiz-adv-x="423" 
d="M469 594l-324 -466h201l-36 -128h-358l30 106l325 466h-183l36 128h339z" />
    <glyph glyph-name="bracketleft" unicode="[" horiz-adv-x="290" 
d="M302 700l-215 -755h64l-28 -100h-175l272 955h175l-28 -100h-65z" />
    <glyph glyph-name="backslash" unicode="\" horiz-adv-x="280" 
d="M172 800h108l-132 -955h-108z" />
    <glyph glyph-name="bracketright" unicode="]" horiz-adv-x="290" 
d="M93 -155h-175l28 100h66l215 755h-65l28 100h175z" />
    <glyph glyph-name="asciicircum" unicode="^" 
d="M325 373l-18 171l-115 -171h-126l228 330h107l40 -330h-116z" />
    <glyph glyph-name="underscore" unicode="_" horiz-adv-x="330" 
d="M208 -155h-330l34 120h330z" />
    <glyph glyph-name="grave" unicode="`" horiz-adv-x="420" 
d="M-37 705l58 -120h-109l-78 120h129z" />
    <glyph glyph-name="a" unicode="a" horiz-adv-x="410" 
d="M76 -5q-59 0 -80.5 42t-3.5 107l8 26q19 63 50 91t88 48l93 35q19 7 25 26l14 47q7 27 -19 27h-25q-22 0 -30 -28l-15 -52h-118l13 47q22 76 62 110t104 34h46q71 0 99 -44.5t8 -114.5l-113 -396h-97v52q-52 -57 -100 -57h-9zM133 110h31q21 0 29 29l30 107l-63 -27
q-22 -9 -29 -36l-14 -45q-7 -28 16 -28z" />
    <glyph glyph-name="b" unicode="b" horiz-adv-x="443" 
d="M352 555q58 0 79.5 -44.5t1.5 -114.5l-73 -257q-40 -144 -156 -144h-3q-65 0 -97 60l-33 -55h-99l202 705h132l-58 -204q51 54 95 54h9zM303 406q9 28 -19 28h-34q-22 0 -30 -28l-75 -263q-7 -27 21 -27h34q21 0 29 29z" />
    <glyph glyph-name="c" unicode="c" horiz-adv-x="433" 
d="M350 139q-22 -76 -61.5 -110t-104.5 -34h-65q-71 0 -99.5 45t-8.5 114l74 257q22 76 61.5 110t104.5 34h65q71 0 99 -44.5t8 -114.5l-24 -83h-131l27 95q7 28 -19 28h-30q-22 0 -30 -28l-76 -267q-8 -27 20 -27h30q21 0 29 29l24 85h132z" />
    <glyph glyph-name="d" unicode="d" horiz-adv-x="444" 
d="M516 705l-201 -705h-99v54q-56 -59 -110 -59h-10q-59 0 -82 45t-3 114l74 257q42 144 157 144h3q54 0 82 -49l57 199h132zM299 407q9 27 -20 27h-34q-21 0 -29 -28l-75 -262q-7 -28 19 -28h34q22 0 30 29z" />
    <glyph glyph-name="e" unicode="e" horiz-adv-x="425" 
d="M308 555q71 0 99 -44.5t8 -114.5l-46 -160h-205l-27 -96q-9 -27 20 -27h27q12 0 18 7t10 22l13 44h128l-13 -47q-22 -76 -61.5 -110t-103.5 -34h-56q-71 0 -99.5 45t-8.5 114l74 257q22 76 61.5 110t104.5 34h57zM193 335h77l21 74q7 28 -20 28h-28q-22 0 -29 -28z" />
    <glyph glyph-name="f" unicode="f" horiz-adv-x="323" 
d="M2 0l122 429h-69l34 121h70l4 13q22 75 61.5 108.5t103.5 33.5h108l-31 -110h-79q-21 0 -30 -29l-4 -16h100l-34 -121h-101l-122 -429h-133z" />
    <glyph glyph-name="g" unicode="g" horiz-adv-x="444" 
d="M472 550l-160 -561q-22 -76 -61 -110t-104 -34h-68q-71 0 -99 44.5t-9 114.5l4 12h130l-7 -25q-7 -27 20 -27h33q21 0 30 28l30 108q-49 -55 -95 -55h-9q-57 0 -78.5 44.5t-2.5 114.5l59 207q39 144 156 144h3q64 0 97 -60l33 55h98zM299 407q9 27 -20 27h-34
q-21 0 -29 -28l-61 -212q-7 -28 19 -28h35q21 0 29 29z" />
    <glyph glyph-name="h" unicode="h" horiz-adv-x="443" 
d="M352 555q58 0 79.5 -45t0.5 -114l-112 -396h-133l116 406q7 28 -19 28h-35q-21 0 -29 -28l-115 -406h-133l201 705h133l-59 -204q51 54 95 54h10z" />
    <glyph glyph-name="i" unicode="i" horiz-adv-x="228" 
d="M306 705l-34 -120h-133l34 120h133zM262 550l-157 -550h-133l157 550h133z" />
    <glyph glyph-name="j" unicode="j" horiz-adv-x="237" 
d="M311 705l-34 -120h-133l34 120h133zM268 550l-160 -561q-22 -76 -61.5 -110t-104.5 -34h-73l33 118h45q21 0 29 29l160 558h132z" />
    <glyph glyph-name="k" unicode="k" horiz-adv-x="420" 
d="M316 274l7 -274h-132l1 214h-26l-61 -214h-133l202 705h132l-105 -369h20l127 214h133z" />
    <glyph glyph-name="l" unicode="l" horiz-adv-x="233" 
d="M306 705l-201 -705h-133l201 705h133z" />
    <glyph glyph-name="m" unicode="m" horiz-adv-x="641" 
d="M549 555q58 0 80 -44.5t2 -114.5l-113 -396h-132l115 406q9 28 -19 28h-26q-21 0 -29 -28l-115 -406h-133l116 406q7 28 -19 28h-26q-22 0 -30 -28l-115 -406h-133l157 550h99v-53q56 58 109 58h5q63 0 77 -62q62 62 125 62h5z" />
    <glyph glyph-name="n" unicode="n" horiz-adv-x="443" 
d="M348 555q59 0 82 -45t3 -114l-113 -396h-133l116 406q9 28 -19 28h-34q-21 0 -29 -28l-116 -406h-133l157 550h98v-53q58 58 111 58h10z" />
    <glyph glyph-name="o" unicode="o" horiz-adv-x="435" 
d="M119 -5q-71 0 -99.5 45t-8.5 114l74 257q22 76 61.5 110t104.5 34h70q71 0 99 -44.5t8 -114.5l-73 -257q-22 -76 -61.5 -110t-104.5 -34h-70zM194 114q21 0 29 29l76 265q7 28 -19 28h-34q-22 0 -30 -28l-76 -267q-8 -27 20 -27h34z" />
    <glyph glyph-name="p" unicode="p" horiz-adv-x="443" 
d="M349 555q59 0 82 -45t2 -114l-73 -257q-42 -144 -156 -144h-4q-55 0 -82 51l-57 -201h-133l201 705h99v-53q58 58 111 58h10zM303 406q9 28 -19 28h-34q-21 0 -29 -28l-76 -263q-6 -27 21 -27h33q21 0 30 29z" />
    <glyph glyph-name="q" unicode="q" horiz-adv-x="440" 
d="M472 550l-201 -705h-133l58 204q-49 -54 -94 -54h-9q-58 0 -79.5 44.5t-1.5 114.5l73 257q40 144 156 144h4q65 0 96 -60l33 55h98zM299 407q9 27 -20 27h-34q-23 0 -29 -28l-75 -262q-7 -28 19 -28h35q20 0 30 29z" />
    <glyph glyph-name="r" unicode="r" horiz-adv-x="395" 
d="M341 555q54 0 73 -40.5t-1 -108.5l-31 -109h-124l31 109q9 28 -19 28h-20q-21 0 -29 -28l-116 -406h-133l157 550h99v-52q52 57 107 57h6z" />
    <glyph glyph-name="s" unicode="s" horiz-adv-x="379" 
d="M102 -5q-70 0 -98.5 45t-8.5 114l15 50h120l-20 -69q-7 -28 19 -28h24q23 0 29 29l5 14q6 16 5 29.5t-13 26.5l-78 84q-52 57 -31 126l3 13q18 62 59 94t98 32h45q70 0 96 -44t6 -115l-13 -46h-119l18 66q9 28 -18 28h-21q-22 0 -31 -29l-5 -18q-5 -16 -1.5 -26t17.5 -26
l75 -81q52 -57 28 -136l-3 -15q-35 -118 -154 -118h-48z" />
    <glyph glyph-name="t" unicode="t" horiz-adv-x="317" 
d="M179 148q-9 -27 20 -27h60l-35 -121h-67q-71 0 -99.5 45t-8.5 114l77 270h-71l34 121h75l59 96h98l-27 -96h87l-34 -121h-88z" />
    <glyph glyph-name="u" unicode="u" horiz-adv-x="443" 
d="M472 550l-157 -550h-98v54q-56 -59 -110 -59h-10q-59 0 -82.5 45t-3.5 114l113 396h133l-116 -406q-7 -28 19 -28h34q20 0 30 29l115 405h133z" />
    <glyph glyph-name="v" unicode="v" horiz-adv-x="399" 
d="M217 0h-193l70 550h127l-35 -229l-34 -194h4l175 423h132z" />
    <glyph glyph-name="w" unicode="w" horiz-adv-x="586" 
d="M224 550l-37 -229l-24 -121h5l140 283h87l-19 -283h5l42 114l96 236h129l-239 -550h-133l7 224h-5l-112 -224h-137l68 550h127z" />
    <glyph glyph-name="x" unicode="x" horiz-adv-x="410" 
d="M280 275l37 -275h-123l-16 159h-5l-95 -159h-141l203 297l-40 253h124l15 -153h4l93 153h133z" />
    <glyph glyph-name="y" unicode="y" horiz-adv-x="400" 
d="M466 550l-257 -567q-30 -65 -75.5 -101.5t-100.5 -36.5h-93l33 119h46q25 0 35 16l42 570h130l-31 -237l-30 -178h4l161 415h136z" />
    <glyph glyph-name="z" unicode="z" horiz-adv-x="363" 
d="M384 447l-257 -326h173l-35 -121h-322l28 102l259 327h-157l34 121h306z" />
    <glyph glyph-name="braceleft" unicode="{" horiz-adv-x="290" 
d="M408 800l-28 -100h-36q-23 0 -31 -30l-67 -234q-21 -75 -74 -110q31 -39 14 -97l-72 -255q-9 -29 20 -29h30l-28 -100h-29q-63 0 -90 40t-9 106l75 260q9 29 -22 29h-18l29 100h26q22 0 31 30l73 257q20 69 56.5 101t96.5 32h53z" />
    <glyph glyph-name="bar" unicode="|" horiz-adv-x="290" 
d="M207 800v-955h-95v955h95z" />
    <glyph glyph-name="braceright" unicode="}" horiz-adv-x="290" 
d="M240 409q-7 -29 22 -29h18l-29 -100h-26q-22 0 -30 -30l-78 -272q-20 -69 -57 -101t-97 -32h-53l28 100h36q24 0 32 30l71 249q22 77 74 110q-31 39 -15 97l69 240q9 29 -21 29h-30l28 100h29q64 0 91 -40.5t8 -105.5z" />
    <glyph glyph-name="asciitilde" unicode="~" 
d="M66 330q16 56 40 81t65 25q25 0 40 -7.5t35 -27.5l35 -36q3 -3 9 -8.5t10 -9t6 -3.5q4 0 8 9l24 83h109l-31 -106q-16 -55 -39.5 -80.5t-64.5 -25.5q-25 0 -40 7.5t-35 27.5l-36 36q-19 22 -24 22q-4 0 -8 -8l-24 -85h-109z" />
    <glyph glyph-name="exclamdown" unicode="&#xa1;" horiz-adv-x="280" 
d="M147 550h142l-44 -153h-142zM-73 -150l186 485h105l-139 -485h-152z" />
    <glyph glyph-name="cent" unicode="&#xa2;" horiz-adv-x="440" 
d="M129 -5l18 65q-65 4 -90 48t-6 111l73 257q22 76 61.5 110t104.5 34h7l24 85h74l-24 -85q62 -6 86 -49.5t5 -109.5l-23 -83h-132l28 95q7 28 -20 28h-30q-21 0 -29 -28l-76 -267q-9 -27 20 -27h29q21 0 30 29l24 85h131l-25 -89q-21 -76 -60.5 -109.5t-103.5 -34.5h-4
l-18 -65h-74z" />
    <glyph glyph-name="sterling" unicode="&#xa3;" horiz-adv-x="440" 
d="M375 705q74 0 103 -46.5t6 -125.5l-21 -73h-121l27 92q10 37 -27 37h-14q-17 0 -25.5 -9.5t-14.5 -29.5l-45 -160h137l-23 -80h-137l-31 -106q-19 -63 -53 -94h116l61 90h81l-25 -90l-31 -110h-370l31 110q29 4 40.5 23t26.5 71l31 106h-64l23 80h64l45 160q24 83 66 119
t111 36h33z" />
    <glyph glyph-name="yen" unicode="&#xa5;" horiz-adv-x="440" 
d="M321 302h81l-22 -80h-100l-14 -50h99l-22 -80h-100l-26 -92h-138l27 92h-98l22 80h98l14 50h-97l22 80h79l-10 398h139l-7 -156l-13 -149h5l149 305h149z" />
    <glyph glyph-name="brokenbar" unicode="&#xa6;" horiz-adv-x="290" 
d="M112 800h95v-432h-95v432zM207 -155h-95v407h95v-407z" />
    <glyph glyph-name="section" unicode="&#xa7;" horiz-adv-x="457" 
d="M371 705q65 0 94 -41t10 -108l-9 -30h-125l13 46q7 22 -18 22h-42q-21 0 -27 -23l-5 -19q-4 -9 2.5 -18.5t16.5 -14.5l121 -55q21 -10 32 -23.5t11.5 -33t-2 -36t-10.5 -43.5l-6 -19q-18 -65 -78 -84q33 -33 17 -86l-4 -15q-17 -60 -58 -94.5t-98 -34.5h-84
q-65 0 -94 41.5t-10 108.5l9 29h126l-13 -45q-7 -23 17 -23h54q21 0 28 24l5 19q6 19 -20 33l-125 55q-39 17 -43 54.5t13 81.5l5 19q18 62 89 78q-40 30 -24 92l5 14q17 61 58 95t98 34h71zM229 408q-19 0 -24 -23l-9 -30q-9 -29 -8 -41t14 -17l8 -4h64q10 0 14.5 5t8.5 19
l9 28q9 30 8.5 41t-15.5 18l-9 4h-61z" />
    <glyph glyph-name="dieresis" unicode="&#xa8;" horiz-adv-x="420" 
d="M317 705l-34 -120h-120l35 120h119zM469 705l-34 -120h-120l35 120h119z" />
    <glyph glyph-name="copyright" unicode="&#xa9;" horiz-adv-x="660" 
d="M136 -5q-79 0 -108 49t-8 123l109 383q24 83 66 119t111 36h262q79 0 108 -49t8 -123l-109 -383q-24 -83 -66 -119t-111 -36h-262zM416 60q27 0 49.5 25t34.5 65l109 383q15 52 0 79.5t-59 27.5h-262q-57 0 -84 -90l-109 -383q-15 -52 0 -79.5t59 -27.5h262zM472 230
q-19 -66 -53.5 -95.5t-90.5 -29.5h-57q-62 0 -86.5 39t-6.5 99l64 224q19 66 53.5 95.5t90.5 29.5h56q62 0 87 -38.5t7 -99.5l-21 -73h-114l24 84q6 24 -17 24h-26q-18 0 -26 -25l-66 -232q-7 -23 18 -23h25q18 0 26 24l21 74h114z" />
    <glyph glyph-name="guillemotleft" unicode="&#xab;" horiz-adv-x="433" 
d="M156 305l33 -154h-101l-35 131l18 62l96 125h112zM321 305l33 -154h-101l-35 131l18 62l96 125h112z" />
    <glyph glyph-name="logicalnot" unicode="&#xac;" 
d="M354 111h-121l41 144h-229l32 110h350z" />
    <glyph glyph-name="registered" unicode="&#xae;" horiz-adv-x="386" 
d="M149 321q-44 0 -61.5 27.5t-5.5 71.5l56 196q13 47 37.5 68t64.5 21h117q44 0 62 -27.5t5 -71.5l-56 -196q-13 -47 -37.5 -68t-64.5 -21h-117zM161 363h117q29 0 42 47l56 196q17 57 -30 57h-117q-28 0 -43 -47l-56 -196q-15 -57 31 -57zM158 392l70 244h70q27 0 38 -17
t3 -44l-10 -38q-12 -38 -36 -49l2 -96h-51l-1 89h-8l-26 -89h-51zM249 530h19q9 0 10 10l11 38q3 9 -7 9h-17z" />
    <glyph glyph-name="macron" unicode="&#xaf;" horiz-adv-x="420" 
d="M441 693l-27 -95h-222l27 95h222z" />
    <glyph glyph-name="degree" unicode="&#xb0;" horiz-adv-x="310" 
d="M248 445q-56 0 -93.5 37.5t-37.5 93.5q0 55 37.5 92t93.5 37q55 0 92 -37t37 -92q0 -56 -37 -93.5t-92 -37.5zM248 520q23 0 38.5 15.5t15.5 40.5q0 24 -15 39t-39 15q-25 0 -40.5 -15.5t-15.5 -38.5q0 -25 15.5 -40.5t40.5 -15.5z" />
    <glyph glyph-name="plusminus" unicode="&#xb1;" 
d="M452 455l-31 -110h-119l-26 -90h-112l26 90h-119l31 110h119l26 90h112l-26 -90h119zM29 200h350l-31 -110h-350z" />
    <glyph glyph-name="acute" unicode="&#xb4;" horiz-adv-x="420" 
d="M320 705h130l-105 -120h-101z" />
    <glyph glyph-name="paragraph" unicode="&#xb6;" horiz-adv-x="470" 
d="M377 0h-125l167 584h-60l-167 -584h-125l84 293q-53 7 -74.5 46t-4.5 99l37 129q19 69 56.5 101t97.5 32h314z" />
    <glyph glyph-name="periodcentered" unicode="&#xb7;" horiz-adv-x="243" 
d="M182 233h-143l44 154h142z" />
    <glyph glyph-name="cedilla" unicode="&#xb8;" horiz-adv-x="420" 
d="M83 -35h78v-120h-114z" />
    <glyph glyph-name="guillemotright" unicode="&#xbb;" horiz-adv-x="438" 
d="M224 276l-96 -125h-112l123 164l-33 154h101l35 -130zM407 339l-18 -63l-96 -125h-112l123 164l-33 154h101z" />
    <glyph glyph-name="questiondown" unicode="&#xbf;" horiz-adv-x="417" 
d="M225 550h142l-44 -153h-142zM291 303q-20 -75 -74 -126l-83 -82q-23 -21 -31 -49l-13 -44q-10 -38 27 -38h16q17 0 25.5 9.5t14.5 30.5l21 71h128l-22 -75q-24 -84 -65 -119.5t-112 -35.5h-45q-79 0 -108 49t-8 123l7 28q16 57 65 103l93 91q33 29 48 74l7 22h118z" />
    <glyph glyph-name="Agrave" unicode="&#xc0;" horiz-adv-x="441" 
d="M280 735l-78 120h129l58 -120h-109zM459 700l-121 -700h-138l26 127h-94l-46 -127h-139l276 700h236zM251 253l64 321h-24l-114 -321h74z" />
    <glyph glyph-name="Aacute" unicode="&#xc1;" horiz-adv-x="441" 
d="M399 735h-102l76 120h131zM223 700h236l-121 -700h-138l26 127h-94l-46 -127h-139zM291 574l-114 -321h74l64 321h-24z" />
    <glyph glyph-name="Acircumflex" unicode="&#xc2;" horiz-adv-x="441" 
d="M322 735h-115l133 120h94l65 -120h-103l-22 54zM223 700h236l-121 -700h-138l26 127h-94l-46 -127h-139zM291 574l-114 -321h74l64 321h-24z" />
    <glyph glyph-name="Atilde" unicode="&#xc3;" horiz-adv-x="441" 
d="M503 870l-17 -60q-18 -60 -60 -60q-16 0 -56 18l-24 12q-15 7 -18 7q-6 0 -8 -7l-9 -30h-83l18 60q9 31 22.5 45.5t37.5 14.5q15 0 55 -18l29 -12q10 -5 15 -5q6 0 6 6l9 29h83zM223 700h236l-121 -700h-138l26 127h-94l-46 -127h-139zM291 574l-114 -321h74l64 321h-24z
" />
    <glyph glyph-name="Adieresis" unicode="&#xc4;" horiz-adv-x="441" 
d="M337 735h-120l34 120h120zM523 855l-34 -120h-120l34 120h120zM223 700h236l-121 -700h-138l26 127h-94l-46 -127h-139zM291 574l-114 -321h74l64 321h-24z" />
    <glyph glyph-name="Aring" unicode="&#xc5;" horiz-adv-x="441" 
d="M350 726q-37 0 -61.5 24.5t-24.5 61.5q0 36 24.5 60.5t61.5 24.5q35 0 59.5 -24.5t24.5 -60.5q0 -37 -24.5 -61.5t-59.5 -24.5zM350 842q-13 0 -22 -8.5t-9 -21.5q0 -12 9 -20.5t22 -8.5q12 0 20 8.5t8 20.5q0 13 -8 21.5t-20 8.5zM459 700l-121 -700h-138l26 127h-94
l-46 -127h-139l276 700h236zM251 253l64 321h-24l-114 -321h74z" />
    <glyph glyph-name="AE" unicode="&#xc6;" horiz-adv-x="566" 
d="M467 572l-45 -158h129l-37 -128h-129l-45 -158h140l-37 -128h-275l36 127h-72l-46 -127h-139l276 700h420l-36 -128h-140zM240 253l92 321h-41l-114 -321h63z" />
    <glyph glyph-name="Ccedilla" unicode="&#xc7;" horiz-adv-x="466" 
d="M136 -5q-79 0 -108 49t-8 123l109 383q24 83 66 119t111 36h73q79 0 108 -49t8 -123l-37 -129h-134l41 143q9 32 -23 32h-42q-26 0 -34 -33l-113 -394q-9 -31 23 -31h42q25 0 34 33l38 132h135l-39 -136q-24 -84 -65 -119.5t-110 -35.5h-75zM115 -35h78v-120h-114z" />
    <glyph glyph-name="Egrave" unicode="&#xc8;" horiz-adv-x="386" 
d="M252 735l-79 120h129l58 -120h-108zM276 572l-45 -158h140l-37 -128h-140l-45 -158h150l-36 -128h-286l200 700h286l-37 -128h-150z" />
    <glyph glyph-name="Eacute" unicode="&#xc9;" horiz-adv-x="386" 
d="M370 735h-101l76 120h130zM426 572h-150l-45 -158h140l-37 -128h-140l-45 -158h150l-36 -128h-286l200 700h286z" />
    <glyph glyph-name="Ecircumflex" unicode="&#xca;" horiz-adv-x="386" 
d="M293 735h-114l133 120h94l65 -120h-104l-22 54zM426 572h-150l-45 -158h140l-37 -128h-140l-45 -158h150l-36 -128h-286l200 700h286z" />
    <glyph glyph-name="Edieresis" unicode="&#xcb;" horiz-adv-x="386" 
d="M308 735h-120l35 120h119zM340 735l35 120h119l-34 -120h-120zM426 572h-150l-45 -158h140l-37 -128h-140l-45 -158h150l-36 -128h-286l200 700h286z" />
    <glyph glyph-name="Igrave" unicode="&#xcc;" horiz-adv-x="248" 
d="M234 855l58 -120h-108l-79 120h129zM315 700l-200 -700h-138l200 700h138z" />
    <glyph glyph-name="Iacute" unicode="&#xcd;" horiz-adv-x="248" 
d="M277 855h130l-105 -120h-101zM315 700l-200 -700h-138l200 700h138z" />
    <glyph glyph-name="Icircumflex" unicode="&#xce;" horiz-adv-x="248" 
d="M225 735h-114l133 120h94l65 -120h-104l-22 54zM177 700h138l-200 -700h-138z" />
    <glyph glyph-name="Idieresis" unicode="&#xcf;" horiz-adv-x="248" 
d="M274 855l-34 -120h-120l35 120h119zM426 855l-34 -120h-120l35 120h119zM315 700l-200 -700h-138l200 700h138z" />
    <glyph glyph-name="Eth" unicode="&#xd0;" horiz-adv-x="479" 
d="M402 700q79 0 108 -49t8 -123l-107 -373q-24 -83 -66 -119t-111 -36h-247l87 303h-55l27 94h55l86 303h215zM384 540q9 32 -23 32h-73l-50 -175h54l-27 -94h-54l-50 -175h80q25 0 34 33z" />
    <glyph glyph-name="Ntilde" unicode="&#xd1;" horiz-adv-x="503" 
d="M333 870q15 0 55 -18l29 -12q10 -5 15 -5q6 0 6 6l9 29h83l-17 -60q-18 -60 -60 -60q-15 0 -56 18l-24 12q-15 7 -18 7q-6 0 -8 -7l-9 -30h-83l18 60q9 31 22.5 45.5t37.5 14.5zM182 700h128l21 -368h5l42 173l56 195h131l-200 -700h-128l-21 369h-5l-42 -174l-56 -195
h-131z" />
    <glyph glyph-name="Ograve" unicode="&#xd2;" horiz-adv-x="481" 
d="M351 855l58 -120h-109l-78 120h129zM396 150q-24 -83 -66 -119t-111 -36h-83q-79 0 -108 49t-8 123l109 383q24 83 66 119t111 36h83q79 0 108 -49t8 -123zM372 547q9 32 -22 32h-50q-26 0 -34 -33l-113 -394q-9 -31 23 -31h50q25 0 34 33z" />
    <glyph glyph-name="Oacute" unicode="&#xd3;" horiz-adv-x="481" 
d="M393 855h131l-105 -120h-102zM396 150q-24 -83 -66 -119t-111 -36h-83q-79 0 -108 49t-8 123l109 383q24 83 66 119t111 36h83q79 0 108 -49t8 -123zM372 547q9 32 -22 32h-50q-26 0 -34 -33l-113 -394q-9 -31 23 -31h50q25 0 34 33z" />
    <glyph glyph-name="Ocircumflex" unicode="&#xd4;" horiz-adv-x="481" 
d="M342 735h-115l133 120h94l65 -120h-103l-22 54zM389 705q79 0 108 -49t8 -123l-109 -383q-24 -83 -66 -119t-111 -36h-83q-79 0 -108 49t-8 123l109 383q24 83 66 119t111 36h83zM372 547q9 32 -22 32h-50q-26 0 -34 -33l-113 -394q-9 -31 23 -31h50q25 0 34 33z" />
    <glyph glyph-name="Otilde" unicode="&#xd5;" horiz-adv-x="481" 
d="M326 870q15 0 55 -18l29 -12q10 -5 15 -5q6 0 6 6l9 29h83l-17 -60q-18 -60 -60 -60q-16 0 -56 18l-24 12q-15 7 -18 7q-6 0 -8 -7l-9 -30h-83l18 60q9 31 22.5 45.5t37.5 14.5zM396 150q-24 -83 -66 -119t-111 -36h-83q-79 0 -108 49t-8 123l109 383q24 83 66 119
t111 36h83q79 0 108 -49t8 -123zM372 547q9 32 -22 32h-50q-26 0 -34 -33l-113 -394q-9 -31 23 -31h50q25 0 34 33z" />
    <glyph glyph-name="Odieresis" unicode="&#xd6;" horiz-adv-x="481" 
d="M391 855l-34 -120h-120l34 120h120zM543 855l-34 -120h-120l34 120h120zM396 150q-24 -83 -66 -119t-111 -36h-83q-79 0 -108 49t-8 123l109 383q24 83 66 119t111 36h83q79 0 108 -49t8 -123zM372 547q9 32 -22 32h-50q-26 0 -34 -33l-113 -394q-9 -31 23 -31h50
q25 0 34 33z" />
    <glyph glyph-name="multiply" unicode="&#xd7;" 
d="M310 304l69 -97l-90 -70l-69 97l-123 -96l-59 83l123 95l-69 97l90 70l69 -97l123 96l59 -83z" />
    <glyph glyph-name="Oslash" unicode="&#xd8;" horiz-adv-x="481" 
d="M136 -5q-56 0 -89 28l-19 -23h-106l90 112q0 25 8 55l109 383q24 83 66 119t111 36h83q49 0 80 -20l13 17h106l-75 -94q4 -33 -8 -75l-109 -383q-24 -83 -66 -119t-111 -36h-83zM214 365l160 201q-4 13 -24 13h-50q-26 0 -34 -33zM176 121h50q25 0 34 33l61 212
l-163 -205q-1 -3 -2.5 -10t-2.5 -10q-2 -20 23 -20z" />
    <glyph glyph-name="Ugrave" unicode="&#xd9;" horiz-adv-x="489" 
d="M355 855l58 -120h-109l-78 120h129zM399 150q-24 -84 -65.5 -119.5t-110.5 -35.5h-81q-79 0 -108.5 49t-7.5 123l151 533h138l-155 -542q-10 -37 27 -37h38q17 0 25 9t15 30l154 540h137z" />
    <glyph glyph-name="Uacute" unicode="&#xda;" horiz-adv-x="489" 
d="M397 855h131l-105 -120h-102zM399 150q-24 -84 -65.5 -119.5t-110.5 -35.5h-81q-79 0 -108.5 49t-7.5 123l151 533h138l-155 -542q-10 -37 27 -37h38q17 0 25 9t15 30l154 540h137z" />
    <glyph glyph-name="Ucircumflex" unicode="&#xdb;" horiz-adv-x="489" 
d="M346 735h-115l133 120h94l65 -120h-103l-22 54zM556 700l-157 -550q-24 -84 -65.5 -119.5t-110.5 -35.5h-81q-79 0 -108.5 49t-7.5 123l151 533h138l-155 -542q-10 -37 27 -37h38q17 0 25 9t15 30l154 540h137z" />
    <glyph glyph-name="Udieresis" unicode="&#xdc;" horiz-adv-x="489" 
d="M395 855l-34 -120h-120l34 120h120zM547 855l-34 -120h-120l34 120h120zM399 150q-24 -84 -65.5 -119.5t-110.5 -35.5h-81q-79 0 -108.5 49t-7.5 123l151 533h138l-155 -542q-10 -37 27 -37h38q17 0 25 9t15 30l154 540h137z" />
    <glyph glyph-name="Yacute" unicode="&#xdd;" horiz-adv-x="442" 
d="M399 735h-101l76 120h130zM282 242l-69 -242h-138l68 239l-11 461h139l-7 -156l-13 -149h5l149 305h149z" />
    <glyph glyph-name="Thorn" unicode="&#xde;" horiz-adv-x="445" 
d="M342 567q79 0 108 -49t8 -123l-31 -107q-24 -83 -66 -119t-111 -36h-97l-38 -133h-138l200 700h138l-38 -133h65zM325 410q9 32 -23 32h-61l-52 -183h68q14 0 21 7.5t12 25.5z" />
    <glyph glyph-name="germandbls" unicode="&#xdf;" horiz-adv-x="516" 
d="M283 -5q-69 0 -96.5 42t-8.5 108l11 39h101l-14 -49q-8 -28 20 -28h11q23 0 29 29l5 14q5 16 4 26.5t-14 23.5l-53 58q-52 55 -34 121l4 14q17 60 54 93t85 33h9q15 0 18 14l9 32q4 13 1 17t-15 4h-122q-21 0 -29 -28l-160 -558h-126l160 561q22 77 61.5 110.5
t104.5 33.5h162q67 0 87.5 -32.5t-1.5 -103.5l-14 -49q-31 -108 -119 -108h-9q-30 0 -39 -29l-4 -12q-8 -25 17 -51l55 -59q48 -53 27 -126l-6 -22q-35 -118 -153 -118h-18z" />
    <glyph glyph-name="agrave" unicode="&#xe0;" horiz-adv-x="410" 
d="M211 585l-79 120h129l58 -120h-108zM76 -5q-59 0 -80.5 42t-3.5 107l8 26q19 63 50 91t88 48l93 35q19 7 25 26l14 47q7 27 -19 27h-25q-22 0 -30 -28l-15 -52h-118l13 47q22 76 62 110t104 34h46q71 0 99 -44.5t8 -114.5l-113 -396h-97v52q-52 -57 -100 -57h-9zM133 110
h31q21 0 29 29l30 107l-63 -27q-22 -9 -29 -36l-14 -45q-7 -28 16 -28z" />
    <glyph glyph-name="aacute" unicode="&#xe1;" horiz-adv-x="410" 
d="M228 585l76 120h130l-105 -120h-101zM76 -5q-59 0 -80.5 42t-3.5 107l8 26q19 63 50 91t88 48l93 35q19 7 25 26l14 47q7 27 -19 27h-25q-22 0 -30 -28l-15 -52h-118l13 47q22 76 62 110t104 34h46q71 0 99 -44.5t8 -114.5l-113 -396h-97v52q-52 -57 -100 -57h-9z
M133 110h31q21 0 29 29l30 107l-63 -27q-22 -9 -29 -36l-14 -45q-7 -28 16 -28z" />
    <glyph glyph-name="acircumflex" unicode="&#xe2;" horiz-adv-x="410" 
d="M138 585l133 120h94l65 -120h-104l-22 54l-52 -54h-114zM76 -5q-59 0 -80.5 42t-3.5 107l8 26q19 63 50 91t88 48l93 35q19 7 25 26l14 47q7 27 -19 27h-25q-22 0 -30 -28l-15 -52h-118l13 47q22 76 62 110t104 34h46q71 0 99 -44.5t8 -114.5l-113 -396h-97v52
q-52 -57 -100 -57h-9zM133 110h31q21 0 29 29l30 107l-63 -27q-22 -9 -29 -36l-14 -45q-7 -28 16 -28z" />
    <glyph glyph-name="atilde" unicode="&#xe3;" horiz-adv-x="410" 
d="M159 600l18 60q17 60 59 60q16 0 56 -18l29 -12q10 -5 14 -5q5 0 7 6l9 29h83l-17 -60q-18 -60 -61 -60q-16 0 -55 18l-25 12q-14 7 -17 7q-8 0 -8 -7l-9 -30h-83zM76 -5q-59 0 -80.5 42t-3.5 107l8 26q19 63 50 91t88 48l93 35q19 7 25 26l14 47q7 27 -19 27h-25
q-22 0 -30 -28l-15 -52h-118l13 47q22 76 62 110t104 34h46q71 0 99 -44.5t8 -114.5l-113 -396h-97v52q-52 -57 -100 -57h-9zM133 110h31q21 0 29 29l30 107l-63 -27q-22 -9 -29 -36l-14 -45q-7 -28 16 -28z" />
    <glyph glyph-name="adieresis" unicode="&#xe4;" horiz-adv-x="410" 
d="M147 585l35 120h119l-34 -120h-120zM299 585l35 120h119l-34 -120h-120zM76 -5q-59 0 -80.5 42t-3.5 107l8 26q19 63 50 91t88 48l93 35q19 7 25 26l14 47q7 27 -19 27h-25q-22 0 -30 -28l-15 -52h-118l13 47q22 76 62 110t104 34h46q71 0 99 -44.5t8 -114.5l-113 -396
h-97v52q-52 -57 -100 -57h-9zM133 110h31q21 0 29 29l30 107l-63 -27q-22 -9 -29 -36l-14 -45q-7 -28 16 -28z" />
    <glyph glyph-name="aring" unicode="&#xe5;" horiz-adv-x="410" 
d="M280 576q-37 0 -61.5 24.5t-24.5 61.5q0 36 24.5 60.5t61.5 24.5q35 0 59.5 -24.5t24.5 -60.5q0 -37 -24.5 -61.5t-59.5 -24.5zM280 633q12 0 20.5 8.5t8.5 20.5q0 13 -8.5 21.5t-20.5 8.5q-13 0 -21.5 -8.5t-8.5 -21.5q0 -12 8.5 -20.5t21.5 -8.5zM76 -5q-59 0 -80.5 42
t-3.5 107l8 26q19 63 50 91t88 48l93 35q19 7 25 26l14 47q7 27 -19 27h-25q-22 0 -30 -28l-15 -52h-118l13 47q22 76 62 110t104 34h46q71 0 99 -44.5t8 -114.5l-113 -396h-97v52q-52 -57 -100 -57h-9zM133 110h31q21 0 29 29l30 107l-63 -27q-22 -9 -29 -36l-14 -45
q-7 -28 16 -28z" />
    <glyph glyph-name="ae" unicode="&#xe6;" horiz-adv-x="594" 
d="M76 -5q-59 0 -80.5 42t-3.5 107l8 26q19 63 50 91t88 48l93 35q19 7 25 26l14 47q7 27 -19 27h-25q-22 0 -30 -28l-15 -52h-118l13 47q22 76 62 110t104 34h37q61 0 72 -56q43 56 100 56h41q71 0 99 -44.5t8 -114.5l-46 -160h-205l-27 -96q-9 -27 20 -27h27q12 0 18 7
t10 22l13 44h128l-13 -47q-22 -76 -61.5 -110t-103.5 -34h-30q-92 0 -107 76q-61 -76 -121 -76h-25zM376 335h77l22 74q7 28 -20 28h-28q-22 0 -29 -28zM133 110h31q21 0 29 29l30 107l-63 -27q-22 -9 -29 -36l-14 -45q-7 -28 16 -28z" />
    <glyph glyph-name="ccedilla" unicode="&#xe7;" horiz-adv-x="433" 
d="M350 139q-22 -76 -61.5 -110t-104.5 -34h-65q-71 0 -99.5 45t-8.5 114l74 257q22 76 61.5 110t104.5 34h65q71 0 99 -44.5t8 -114.5l-24 -83h-131l27 95q7 28 -19 28h-30q-22 0 -30 -28l-76 -267q-8 -27 20 -27h30q21 0 29 29l24 85h132zM105 -35h78v-120h-114z" />
    <glyph glyph-name="egrave" unicode="&#xe8;" horiz-adv-x="425" 
d="M222 585l-79 120h129l58 -120h-108zM308 555q71 0 99 -44.5t8 -114.5l-46 -160h-205l-27 -96q-9 -27 20 -27h27q12 0 18 7t10 22l13 44h128l-13 -47q-22 -76 -61.5 -110t-103.5 -34h-56q-71 0 -99.5 45t-8.5 114l74 257q22 76 61.5 110t104.5 34h57zM193 335h77l21 74
q7 28 -20 28h-28q-22 0 -29 -28z" />
    <glyph glyph-name="eacute" unicode="&#xe9;" horiz-adv-x="425" 
d="M340 585h-101l76 120h130zM308 555q71 0 99 -44.5t8 -114.5l-46 -160h-205l-27 -96q-9 -27 20 -27h27q12 0 18 7t10 22l13 44h128l-13 -47q-22 -76 -61.5 -110t-103.5 -34h-56q-71 0 -99.5 45t-8.5 114l74 257q22 76 61.5 110t104.5 34h57zM193 335h77l21 74q7 28 -20 28
h-28q-22 0 -29 -28z" />
    <glyph glyph-name="ecircumflex" unicode="&#xea;" horiz-adv-x="425" 
d="M263 585h-114l133 120h94l65 -120h-104l-22 54zM308 555q71 0 99 -44.5t8 -114.5l-46 -160h-205l-27 -96q-9 -27 20 -27h27q12 0 18 7t10 22l13 44h128l-13 -47q-22 -76 -61.5 -110t-103.5 -34h-56q-71 0 -99.5 45t-8.5 114l74 257q22 76 61.5 110t104.5 34h57zM193 335
h77l21 74q7 28 -20 28h-28q-22 0 -29 -28z" />
    <glyph glyph-name="edieresis" unicode="&#xeb;" horiz-adv-x="425" 
d="M312 705l-34 -120h-120l35 120h119zM308 555q71 0 99 -44.5t8 -114.5l-46 -160h-205l-27 -96q-9 -27 20 -27h27q12 0 18 7t10 22l13 44h128l-13 -47q-22 -76 -61.5 -110t-103.5 -34h-56q-71 0 -99.5 45t-8.5 114l74 257q22 76 61.5 110t104.5 34h57zM291 409q7 28 -20 28
h-28q-22 0 -29 -28l-21 -74h77z" />
    <glyph glyph-name="igrave" unicode="&#xec;" horiz-adv-x="220" 
d="M184 705l58 -120h-109l-78 120h129zM262 550l-157 -550h-133l157 550h133z" />
    <glyph glyph-name="iacute" unicode="&#xed;" horiz-adv-x="220" 
d="M226 705h131l-105 -120h-102zM262 550l-157 -550h-133l157 550h133z" />
    <glyph glyph-name="icircumflex" unicode="&#xee;" horiz-adv-x="220" 
d="M175 585h-115l133 120h94l65 -120h-103l-22 54zM129 550h133l-157 -550h-133z" />
    <glyph glyph-name="idieresis" unicode="&#xef;" horiz-adv-x="220" 
d="M224 705l-34 -120h-120l34 120h120zM376 705l-34 -120h-120l34 120h120zM262 550l-157 -550h-133l157 550h133z" />
    <glyph glyph-name="eth" unicode="&#xf0;" horiz-adv-x="420" 
d="M451 624l-55 -18l26 -78q24 -72 -3 -165l-64 -224q-22 -76 -61.5 -110t-104.5 -34h-70q-71 0 -99.5 45t-8.5 114l63 218q40 144 156 144h3q55 0 86 -51l4 3l-36 101l-112 -38l27 96l57 19l-21 59h125l7 -21l109 36zM287 367q9 28 -18 28h-35q-22 0 -29 -28l-65 -226
q-8 -27 20 -27h34q21 0 29 29z" />
    <glyph glyph-name="ntilde" unicode="&#xf1;" horiz-adv-x="443" 
d="M264 600h-83l18 60q17 60 59 60q16 0 56 -18l29 -12q10 -5 14 -5q5 0 7 6l9 29h83l-17 -60q-18 -60 -61 -60q-16 0 -55 18l-25 12q-14 7 -17 7q-8 0 -8 -7zM348 555q59 0 82 -45t3 -114l-113 -396h-133l116 406q9 28 -19 28h-34q-21 0 -29 -28l-116 -406h-133l157 550h98
v-53q58 58 111 58h10z" />
    <glyph glyph-name="ograve" unicode="&#xf2;" horiz-adv-x="435" 
d="M286 705l58 -120h-108l-79 120h129zM119 -5q-71 0 -99.5 45t-8.5 114l74 257q22 76 61.5 110t104.5 34h70q71 0 99 -44.5t8 -114.5l-73 -257q-22 -76 -61.5 -110t-104.5 -34h-70zM194 114q21 0 29 29l76 265q7 28 -19 28h-34q-22 0 -30 -28l-76 -267q-8 -27 20 -27h34z
" />
    <glyph glyph-name="oacute" unicode="&#xf3;" horiz-adv-x="435" 
d="M329 705h130l-105 -120h-101zM119 -5q-71 0 -99.5 45t-8.5 114l74 257q22 76 61.5 110t104.5 34h70q71 0 99 -44.5t8 -114.5l-73 -257q-22 -76 -61.5 -110t-104.5 -34h-70zM194 114q21 0 29 29l76 265q7 28 -19 28h-34q-22 0 -30 -28l-76 -267q-8 -27 20 -27h34z" />
    <glyph glyph-name="ocircumflex" unicode="&#xf4;" horiz-adv-x="435" 
d="M277 585h-114l133 120h94l65 -120h-104l-22 54zM321 555q71 0 99 -44.5t8 -114.5l-73 -257q-22 -76 -61.5 -110t-104.5 -34h-70q-71 0 -99.5 45t-8.5 114l74 257q22 76 61.5 110t104.5 34h70zM299 408q7 28 -19 28h-34q-22 0 -30 -28l-76 -267q-8 -27 20 -27h34
q21 0 29 29z" />
    <glyph glyph-name="otilde" unicode="&#xf5;" horiz-adv-x="435" 
d="M261 720q16 0 56 -18l29 -12q10 -5 14 -5q5 0 7 6l9 29h83l-17 -60q-18 -60 -61 -60q-16 0 -55 18l-25 12q-14 7 -17 7q-8 0 -8 -7l-9 -30h-83l18 60q17 60 59 60zM119 -5q-71 0 -99.5 45t-8.5 114l74 257q22 76 61.5 110t104.5 34h70q71 0 99 -44.5t8 -114.5l-73 -257
q-22 -76 -61.5 -110t-104.5 -34h-70zM194 114q21 0 29 29l76 265q7 28 -19 28h-34q-22 0 -30 -28l-76 -267q-8 -27 20 -27h34z" />
    <glyph glyph-name="odieresis" unicode="&#xf6;" horiz-adv-x="435" 
d="M326 705l-34 -120h-120l35 120h119zM478 705l-34 -120h-120l35 120h119zM119 -5q-71 0 -99.5 45t-8.5 114l74 257q22 76 61.5 110t104.5 34h70q71 0 99 -44.5t8 -114.5l-73 -257q-22 -76 -61.5 -110t-104.5 -34h-70zM194 114q21 0 29 29l76 265q7 28 -19 28h-34
q-22 0 -30 -28l-76 -267q-8 -27 20 -27h34z" />
    <glyph glyph-name="divide" unicode="&#xf7;" 
d="M328 409h-128l39 136h128zM400 255h-360l32 110h360zM233 75h-128l39 136h128z" />
    <glyph glyph-name="oslash" unicode="&#xf8;" horiz-adv-x="420" 
d="M435 460q3 -26 -7 -64l-73 -257q-22 -76 -61.5 -110t-104.5 -34h-70q-49 0 -79 23l-17 -18h-101l82 91q-3 27 7 63l74 257q22 76 61.5 110t104.5 34h70q50 0 78 -23l17 18h101zM182 290l119 132q-3 14 -21 14h-34q-22 0 -30 -28zM257 260l-119 -132q1 -14 22 -14h34
q21 0 29 29z" />
    <glyph glyph-name="ugrave" unicode="&#xf9;" horiz-adv-x="443" 
d="M234 585l-79 120h129l58 -120h-108zM472 550l-157 -550h-98v54q-56 -59 -110 -59h-10q-59 0 -82.5 45t-3.5 114l113 396h133l-116 -406q-7 -28 19 -28h34q20 0 30 29l115 405h133z" />
    <glyph glyph-name="uacute" unicode="&#xfa;" horiz-adv-x="443" 
d="M352 585h-101l76 120h130zM472 550l-157 -550h-98v54q-56 -59 -110 -59h-10q-59 0 -82.5 45t-3.5 114l113 396h133l-116 -406q-7 -28 19 -28h34q20 0 30 29l115 405h133z" />
    <glyph glyph-name="ucircumflex" unicode="&#xfb;" horiz-adv-x="443" 
d="M275 585h-114l133 120h94l65 -120h-104l-22 54zM472 550l-157 -550h-98v54q-56 -59 -110 -59h-10q-59 0 -82.5 45t-3.5 114l113 396h133l-116 -406q-7 -28 19 -28h34q20 0 30 29l115 405h133z" />
    <glyph glyph-name="udieresis" unicode="&#xfc;" horiz-adv-x="443" 
d="M290 585h-120l35 120h119zM322 585l35 120h119l-34 -120h-120zM339 550h133l-157 -550h-98v54q-56 -59 -110 -59h-10q-59 0 -82.5 45t-3.5 114l113 396h133l-116 -406q-7 -28 19 -28h34q20 0 30 29z" />
    <glyph glyph-name="yacute" unicode="&#xfd;" horiz-adv-x="400" 
d="M337 585h-101l76 120h130zM466 550l-257 -567q-30 -65 -75.5 -101.5t-100.5 -36.5h-93l33 119h46q25 0 35 16l42 570h130l-31 -237l-30 -178h4l161 415h136z" />
    <glyph glyph-name="thorn" unicode="&#xfe;" horiz-adv-x="444" 
d="M352 555q58 0 79.5 -44.5t1.5 -114.5l-72 -257q-42 -144 -156 -144h-4q-56 0 -83 51l-57 -201h-133l246 860h133l-59 -204q51 54 95 54h9zM304 406q7 28 -19 28h-35q-21 0 -29 -28l-75 -263q-8 -27 20 -27h34q22 0 30 29z" />
    <glyph glyph-name="ydieresis" unicode="&#xff;" horiz-adv-x="400" 
d="M275 585h-120l35 120h119zM307 585l35 120h119l-34 -120h-120zM466 550l-257 -567q-30 -65 -75.5 -101.5t-100.5 -36.5h-93l33 119h46q25 0 35 16l42 570h130l-31 -237l-30 -178h4l161 415h136z" />
    <glyph glyph-name="Amacron" unicode="&#x100;" horiz-adv-x="441" 
d="M494 843l-27 -95h-222l27 95h222zM223 700h236l-121 -700h-138l26 127h-94l-46 -127h-139zM291 574l-114 -321h74l64 321h-24z" />
    <glyph glyph-name="amacron" unicode="&#x101;" horiz-adv-x="410" 
d="M176 598l27 95h222l-27 -95h-222zM76 -5q-59 0 -80.5 42t-3.5 107l8 26q19 63 50 91t88 48l93 35q19 7 25 26l14 47q7 27 -19 27h-25q-22 0 -30 -28l-15 -52h-118l13 47q22 76 62 110t104 34h46q71 0 99 -44.5t8 -114.5l-113 -396h-97v52q-52 -57 -100 -57h-9zM133 110
h31q21 0 29 29l30 107l-63 -27q-22 -9 -29 -36l-14 -45q-7 -28 16 -28z" />
    <glyph glyph-name="Abreve" unicode="&#x102;" horiz-adv-x="441" 
d="M503 855l-7 -24q-13 -49 -38 -70t-66 -21h-72q-46 0 -63 28.5t-4 72.5l4 14h91l-4 -15q-3 -12 0.5 -17t15.5 -5h25q17 0 23 23l3 14h92zM223 700h236l-121 -700h-138l26 127h-94l-46 -127h-139zM291 574l-114 -321h74l64 321h-24z" />
    <glyph glyph-name="abreve" unicode="&#x103;" horiz-adv-x="410" 
d="M251 590q-46 0 -63 28.5t-4 72.5l3 14h92l-4 -15q-4 -12 -0.5 -17t15.5 -5h25q17 0 23 23l4 14h91l-6 -24q-13 -49 -38 -70t-66 -21h-72zM76 -5q-59 0 -80.5 42t-3.5 107l8 26q19 63 50 91t88 48l93 35q19 7 25 26l14 47q7 27 -19 27h-25q-22 0 -30 -28l-15 -52h-118
l13 47q22 76 62 110t104 34h46q71 0 99 -44.5t8 -114.5l-113 -396h-97v52q-52 -57 -100 -57h-9zM133 110h31q21 0 29 29l30 107l-63 -27q-22 -9 -29 -36l-14 -45q-7 -28 16 -28z" />
    <glyph glyph-name="Aogonek" unicode="&#x104;" horiz-adv-x="441" 
d="M459 700l-121 -700h-138l26 127h-94l-46 -127h-139l276 700h236zM251 253l64 321h-24l-114 -321h74zM283 -35l36 -120h-114v120h78z" />
    <glyph glyph-name="aogonek" unicode="&#x105;" horiz-adv-x="410" 
d="M76 -5q-59 0 -80.5 42t-3.5 107l8 26q19 63 50 91t88 48l93 35q19 7 25 26l14 47q7 27 -19 27h-25q-22 0 -30 -28l-15 -52h-118l13 47q22 76 62 110t104 34h46q71 0 99 -44.5t8 -114.5l-113 -396h-97v52q-52 -57 -100 -57h-9zM133 110h31q21 0 29 29l30 107l-63 -27
q-22 -9 -29 -36l-14 -45q-7 -28 16 -28zM187 -155v120h78l36 -120h-114z" />
    <glyph glyph-name="Cacute" unicode="&#x106;" horiz-adv-x="466" 
d="M380 855h131l-105 -120h-102zM136 -5q-79 0 -108 49t-8 123l109 383q24 83 66 119t111 36h73q79 0 108 -49t8 -123l-37 -129h-134l41 143q9 32 -23 32h-42q-26 0 -34 -33l-113 -394q-9 -31 23 -31h42q25 0 34 33l38 132h135l-39 -136q-24 -84 -65 -119.5t-110 -35.5h-75z
" />
    <glyph glyph-name="cacute" unicode="&#x107;" horiz-adv-x="433" 
d="M319 705h131l-105 -120h-102zM350 139q-22 -76 -61.5 -110t-104.5 -34h-65q-71 0 -99.5 45t-8.5 114l74 257q22 76 61.5 110t104.5 34h65q71 0 99 -44.5t8 -114.5l-24 -83h-131l27 95q7 28 -19 28h-30q-22 0 -30 -28l-76 -267q-8 -27 20 -27h30q21 0 29 29l24 85h132z
" />
    <glyph glyph-name="Cdotaccent" unicode="&#x10a;" horiz-adv-x="466" 
d="M460 855l-34 -120h-133l34 120h133zM136 -5q-79 0 -108 49t-8 123l109 383q24 83 66 119t111 36h73q79 0 108 -49t8 -123l-37 -129h-134l41 143q9 32 -23 32h-42q-26 0 -34 -33l-113 -394q-9 -31 23 -31h42q25 0 34 33l38 132h135l-39 -136q-24 -84 -65 -119.5
t-110 -35.5h-75z" />
    <glyph glyph-name="cdotaccent" unicode="&#x10b;" horiz-adv-x="433" 
d="M399 705l-34 -120h-133l34 120h133zM350 139q-22 -76 -61.5 -110t-104.5 -34h-65q-71 0 -99.5 45t-8.5 114l74 257q22 76 61.5 110t104.5 34h65q71 0 99 -44.5t8 -114.5l-24 -83h-131l27 95q7 28 -19 28h-30q-22 0 -30 -28l-76 -267q-8 -27 20 -27h30q21 0 29 29l24 85
h132z" />
    <glyph glyph-name="Ccaron" unicode="&#x10c;" horiz-adv-x="466" 
d="M313 735l-65 120h104l22 -54l52 54h114l-133 -120h-94zM379 705q79 0 108 -49t8 -123l-37 -129h-134l41 143q9 32 -23 32h-42q-26 0 -34 -33l-113 -394q-9 -31 23 -31h42q25 0 34 33l38 132h135l-39 -136q-24 -84 -65 -119.5t-110 -35.5h-75q-79 0 -108 49t-8 123
l109 383q24 83 66 119t111 36h73z" />
    <glyph glyph-name="ccaron" unicode="&#x10d;" horiz-adv-x="433" 
d="M252 585l-65 120h104l22 -54l52 54h114l-133 -120h-94zM316 555q71 0 99 -44.5t8 -114.5l-24 -83h-131l27 95q7 28 -19 28h-30q-22 0 -30 -28l-76 -267q-8 -27 20 -27h30q21 0 29 29l24 85h132l-25 -89q-22 -76 -61.5 -110t-104.5 -34h-65q-71 0 -99.5 45t-8.5 114
l74 257q22 76 61.5 110t104.5 34h65z" />
    <glyph glyph-name="Dcaron" unicode="&#x10e;" horiz-adv-x="485" 
d="M288 735l-65 120h103l22 -54l52 54h115l-133 -120h-94zM392 700q79 0 108 -49t8 -123l-107 -373q-24 -83 -66 -119t-111 -36h-247l200 700h215zM374 540q9 32 -23 32h-73l-127 -444h80q25 0 34 33z" />
    <glyph glyph-name="dcaron" unicode="&#x10f;" horiz-adv-x="556" 
d="M384 705h132l-201 -705h-99v54q-56 -59 -110 -59h-10q-59 0 -82 45t-3 114l74 257q42 144 157 144h3q54 0 82 -49zM689 705l-84 -160h-84l45 160h123zM299 407q9 27 -20 27h-34q-21 0 -29 -28l-75 -262q-7 -28 19 -28h34q22 0 30 29z" />
    <glyph glyph-name="Dcroat" unicode="&#x110;" horiz-adv-x="479" 
d="M402 700q79 0 108 -49t8 -123l-107 -373q-24 -83 -66 -119t-111 -36h-247l87 303h-55l27 94h55l86 303h215zM384 540q9 32 -23 32h-73l-50 -175h54l-27 -94h-54l-50 -175h80q25 0 34 33z" />
    <glyph glyph-name="dcroat" unicode="&#x111;" horiz-adv-x="426" 
d="M524 563h-48l-161 -563h-99v54q-56 -59 -110 -59h-10q-59 0 -82 45t-3 114l69 237q40 144 156 144h3q54 0 82 -49l22 77h-93l27 94h93l14 48h132l-13 -48h48zM293 387q9 27 -20 27h-34q-20 0 -29 -28l-69 -242q-7 -28 19 -28h34q22 0 30 29z" />
    <glyph glyph-name="Emacron" unicode="&#x112;" horiz-adv-x="386" 
d="M439 748h-222l27 95h222zM426 572h-150l-45 -158h140l-37 -128h-140l-45 -158h150l-36 -128h-286l200 700h286z" />
    <glyph glyph-name="emacron" unicode="&#x113;" horiz-adv-x="425" 
d="M409 598h-222l27 95h222zM308 555q71 0 99 -44.5t8 -114.5l-46 -160h-205l-27 -96q-9 -27 20 -27h27q12 0 18 7t10 22l13 44h128l-13 -47q-22 -76 -61.5 -110t-103.5 -34h-56q-71 0 -99.5 45t-8.5 114l74 257q22 76 61.5 110t104.5 34h57zM193 335h77l21 74q7 28 -20 28
h-28q-22 0 -29 -28z" />
    <glyph glyph-name="Edotaccent" unicode="&#x116;" horiz-adv-x="386" 
d="M391 735h-133l34 120h133zM276 572l-45 -158h140l-37 -128h-140l-45 -158h150l-36 -128h-286l200 700h286l-37 -128h-150z" />
    <glyph glyph-name="edotaccent" unicode="&#x117;" horiz-adv-x="425" 
d="M361 585h-133l34 120h133zM308 555q71 0 99 -44.5t8 -114.5l-46 -160h-205l-27 -96q-9 -27 20 -27h27q12 0 18 7t10 22l13 44h128l-13 -47q-22 -76 -61.5 -110t-103.5 -34h-56q-71 0 -99.5 45t-8.5 114l74 257q22 76 61.5 110t104.5 34h57zM193 335h77l21 74q7 28 -20 28
h-28q-22 0 -29 -28z" />
    <glyph glyph-name="Eogonek" unicode="&#x118;" horiz-adv-x="386" 
d="M276 572l-45 -158h140l-37 -128h-140l-45 -158h150l-36 -128h-286l200 700h286l-37 -128h-150zM210 -35l36 -120h-114v120h78z" />
    <glyph glyph-name="eogonek" unicode="&#x119;" horiz-adv-x="425" 
d="M308 555q71 0 99 -44.5t8 -114.5l-46 -160h-205l-27 -96q-9 -27 20 -27h27q12 0 18 7t10 22l13 44h128l-13 -47q-22 -76 -61.5 -110t-103.5 -34h-56q-71 0 -99.5 45t-8.5 114l74 257q22 76 61.5 110t104.5 34h57zM193 335h77l21 74q7 28 -20 28h-28q-22 0 -29 -28z
M221 -35l36 -120h-114v120h78z" />
    <glyph glyph-name="Ecaron" unicode="&#x11a;" horiz-adv-x="386" 
d="M278 735l-65 120h103l22 -54l52 54h115l-133 -120h-94zM426 572h-150l-45 -158h140l-37 -128h-140l-45 -158h150l-36 -128h-286l200 700h286z" />
    <glyph glyph-name="ecaron" unicode="&#x11b;" horiz-adv-x="425" 
d="M248 585l-65 120h103l22 -54l52 54h115l-133 -120h-94zM308 555q71 0 99 -44.5t8 -114.5l-46 -160h-205l-27 -96q-9 -27 20 -27h27q12 0 18 7t10 22l13 44h128l-13 -47q-22 -76 -61.5 -110t-103.5 -34h-56q-71 0 -99.5 45t-8.5 114l74 257q22 76 61.5 110t104.5 34h57z
M193 335h77l21 74q7 28 -20 28h-28q-22 0 -29 -28z" />
    <glyph glyph-name="Gbreve" unicode="&#x11e;" horiz-adv-x="482" 
d="M326 740q-46 0 -63 28.5t-4 72.5l4 14h91l-4 -15q-3 -12 0.5 -17t15.5 -5h25q17 0 23 23l3 14h92l-7 -24q-13 -49 -38 -70t-66 -21h-72zM136 -5q-79 0 -108 49t-8 123l109 383q24 83 66 119t111 36h73q79 0 108 -49t8 -123l-26 -90h-133l30 104q9 32 -22 32h-44
q-26 0 -34 -33l-114 -399q-9 -31 23 -31h49q29 0 38 33l27 92h-59l35 125h189l-105 -366h-90v56q-50 -61 -113 -61h-10z" />
    <glyph glyph-name="gbreve" unicode="&#x11f;" horiz-adv-x="444" 
d="M269 590q-46 0 -63 28.5t-4 72.5l4 14h91l-4 -15q-3 -12 0.5 -17t15.5 -5h25q17 0 23 23l3 14h92l-7 -24q-13 -49 -38 -70t-66 -21h-72zM472 550l-160 -561q-22 -76 -61 -110t-104 -34h-68q-71 0 -99 44.5t-9 114.5l4 12h130l-7 -25q-7 -27 20 -27h33q21 0 30 28l30 108
q-49 -55 -95 -55h-9q-57 0 -78.5 44.5t-2.5 114.5l59 207q39 144 156 144h3q64 0 97 -60l33 55h98zM299 407q9 27 -20 27h-34q-21 0 -29 -28l-61 -212q-7 -28 19 -28h35q21 0 29 29z" />
    <glyph glyph-name="Gdotaccent" unicode="&#x120;" horiz-adv-x="482" 
d="M425 735h-133l34 120h133zM379 705q79 0 108 -49t8 -123l-26 -90h-133l30 104q9 32 -22 32h-44q-26 0 -34 -33l-114 -399q-9 -31 23 -31h49q29 0 38 33l27 92h-59l35 125h189l-105 -366h-90v56q-50 -61 -113 -61h-10q-79 0 -108 49t-8 123l109 383q24 83 66 119t111 36
h73z" />
    <glyph glyph-name="gdotaccent" unicode="&#x121;" horiz-adv-x="444" 
d="M368 585h-133l34 120h133zM472 550l-160 -561q-22 -76 -61 -110t-104 -34h-68q-71 0 -99 44.5t-9 114.5l4 12h130l-7 -25q-7 -27 20 -27h33q21 0 30 28l30 108q-49 -55 -95 -55h-9q-57 0 -78.5 44.5t-2.5 114.5l59 207q39 144 156 144h3q64 0 97 -60l33 55h98zM299 407
q9 27 -20 27h-34q-21 0 -29 -28l-61 -212q-7 -28 19 -28h35q21 0 29 29z" />
    <glyph glyph-name="uni0122" unicode="&#x122;" horiz-adv-x="482" 
d="M379 705q79 0 108 -49t8 -123l-26 -90h-133l30 104q9 32 -22 32h-44q-26 0 -34 -33l-114 -399q-9 -31 23 -31h49q29 0 38 33l27 92h-59l35 125h189l-105 -366h-90v56q-50 -61 -113 -61h-10q-79 0 -108 49t-8 123l109 383q24 83 66 119t111 36h73zM93 -35h114l-36 -120
h-78v120z" />
    <glyph glyph-name="uni0123" unicode="&#x123;" horiz-adv-x="427" 
d="M372 586h-114l70 120h78zM472 550l-160 -561q-22 -76 -61 -110t-104 -34h-68q-71 0 -99 44.5t-9 114.5l4 12h130l-7 -25q-7 -27 20 -27h33q21 0 30 28l30 108q-49 -55 -95 -55h-9q-57 0 -78.5 44.5t-2.5 114.5l59 207q39 144 156 144h3q64 0 97 -60l33 55h98zM299 407
q9 27 -20 27h-34q-21 0 -29 -28l-61 -212q-7 -28 19 -28h35q21 0 29 29z" />
    <glyph glyph-name="Hbar" unicode="&#x126;" horiz-adv-x="505" 
d="M564 513h-52l-147 -513h-137l81 286h-103l-81 -286h-138l147 513h-55l27 94h55l26 93h138l-27 -93h103l27 93h137l-26 -93h52zM374 513h-103l-28 -99h103z" />
    <glyph glyph-name="hbar" unicode="&#x127;" horiz-adv-x="425" 
d="M346 535q58 0 79.5 -44.5t1.5 -114.5l-107 -376h-133l110 386q9 28 -19 28h-35q-21 0 -29 -28l-109 -386h-133l161 563h-50l27 94h50l13 48h133l-14 -48h92l-27 -94h-92l-24 -82q49 54 95 54h10z" />
    <glyph glyph-name="Imacron" unicode="&#x12a;" horiz-adv-x="248" 
d="M398 843l-27 -95h-222l27 95h222zM315 700l-200 -700h-138l200 700h138z" />
    <glyph glyph-name="imacron" unicode="&#x12b;" horiz-adv-x="220" 
d="M347 693l-27 -95h-222l27 95h222zM262 550l-157 -550h-133l157 550h133z" />
    <glyph glyph-name="Iogonek" unicode="&#x12e;" horiz-adv-x="248" 
d="M315 700l-200 -700h-138l200 700h138zM-23 -155v120h78l36 -120h-114z" />
    <glyph glyph-name="iogonek" unicode="&#x12f;" horiz-adv-x="228" 
d="M306 705l-34 -120h-133l34 120h133zM262 550l-157 -550h-133l157 550h133zM-26 -155v120h78l36 -120h-114z" />
    <glyph glyph-name="Idotaccent" unicode="&#x130;" horiz-adv-x="248" 
d="M357 855l-34 -120h-133l34 120h133zM315 700l-200 -700h-138l200 700h138z" />
    <glyph glyph-name="dotlessi" unicode="&#x131;" horiz-adv-x="220" 
d="M262 550l-157 -550h-133l157 550h133z" />
    <glyph glyph-name="uni0136" unicode="&#x136;" horiz-adv-x="464" 
d="M358 355l7 -355h-136v286h-33l-81 -286h-138l200 700h138l-82 -286h21l163 286h139zM99 -35h114l-36 -120h-78v120z" />
    <glyph glyph-name="uni0137" unicode="&#x137;" horiz-adv-x="420" 
d="M316 274l7 -274h-132l1 214h-26l-61 -214h-133l202 705h132l-105 -369h20l127 214h133zM81 -35h114l-36 -120h-78v120z" />
    <glyph glyph-name="Lacute" unicode="&#x139;" horiz-adv-x="371" 
d="M309 735h-102l76 120h131zM235 420l-3 -292l57 -70l-172 -58l-40 350l175 350z" />
    <glyph glyph-name="lacute" unicode="&#x13a;" horiz-adv-x="233" 
d="M270 860h130l-105 -120h-101zM306 705l-201 -705h-133l201 705h133z" />
    <glyph glyph-name="uni013B" unicode="&#x13b;" horiz-adv-x="371" 
d="M232 128l57 -70l-172 -58l-40 350l175 350l-17 -280zM62 -35h114l-36 -120h-78v120z" />
    <glyph glyph-name="uni013C" unicode="&#x13c;" horiz-adv-x="233" 
d="M306 705l-201 -705h-133l201 705h133zM46 -155h-79v120h115z" />
    <glyph glyph-name="Lcaron" unicode="&#x13d;" horiz-adv-x="371" 
d="M235 420l-3 -292l57 -70l-172 -58l-40 350l175 350zM488 700l-84 -160h-84l45 160h123z" />
    <glyph glyph-name="lcaron" unicode="&#x13e;" horiz-adv-x="346" 
d="M306 705l-201 -705h-133l202 705h132zM395 545h-84l45 160h123z" />
    <glyph glyph-name="Lslash" unicode="&#x141;" horiz-adv-x="371" 
d="M203 309l-52 -181h158l-36 -128h-296l65 228l-64 -32l31 110l65 32l103 362h138l-81 -282l127 64l-31 -110z" />
    <glyph glyph-name="lslash" unicode="&#x142;" horiz-adv-x="260" 
d="M312 436l-84 -37l-113 -399h-133l94 329l-69 -31l27 94l69 31l80 282h133l-61 -213l84 38z" />
    <glyph glyph-name="Nacute" unicode="&#x143;" horiz-adv-x="503" 
d="M400 855h131l-105 -120h-102zM182 700h128l21 -368h5l42 173l56 195h131l-200 -700h-128l-21 369h-5l-42 -174l-56 -195h-131z" />
    <glyph glyph-name="nacute" unicode="&#x144;" horiz-adv-x="443" 
d="M351 585h-101l76 120h130zM348 555q59 0 82 -45t3 -114l-113 -396h-133l116 406q9 28 -19 28h-34q-21 0 -29 -28l-116 -406h-133l157 550h98v-53q58 58 111 58h10z" />
    <glyph glyph-name="uni0145" unicode="&#x145;" horiz-adv-x="503" 
d="M182 700h128l21 -368h5l42 173l56 195h131l-200 -700h-128l-21 369h-5l-42 -174l-56 -195h-131zM188 -155h-78v120h114z" />
    <glyph glyph-name="uni0146" unicode="&#x146;" horiz-adv-x="443" 
d="M348 555q59 0 82 -45t3 -114l-113 -396h-133l116 406q9 28 -19 28h-34q-21 0 -29 -28l-116 -406h-133l157 550h98v-53q58 58 111 58h10zM74 -35h114l-36 -120h-78v120z" />
    <glyph glyph-name="Ncaron" unicode="&#x147;" horiz-adv-x="503" 
d="M333 735l-65 120h104l22 -54l52 54h114l-133 -120h-94zM565 700l-200 -700h-128l-21 369h-5l-42 -174l-56 -195h-131l200 700h128l21 -368h5l42 173l56 195h131z" />
    <glyph glyph-name="ncaron" unicode="&#x148;" horiz-adv-x="443" 
d="M259 585l-65 120h103l22 -54l52 54h115l-133 -120h-94zM348 555q59 0 82 -45t3 -114l-113 -396h-133l116 406q9 28 -19 28h-34q-21 0 -29 -28l-116 -406h-133l157 550h98v-53q58 58 111 58h10z" />
    <glyph glyph-name="Eng" unicode="&#x14a;" horiz-adv-x="485" 
d="M182 700h128l21 -368h5l42 173l56 195h131l-203 -711q-22 -77 -61.5 -110.5t-104.5 -33.5h-73l33 118h47q21 0 29 29l5 17l-21 360h-5l-42 -174l-56 -195h-131z" />
    <glyph glyph-name="eng" unicode="&#x14b;" horiz-adv-x="425" 
d="M129 550h98v-53q56 58 111 58h10q59 0 82 -45t3 -114l-116 -407q-22 -77 -61.5 -110.5t-104.5 -33.5h-65l33 118h37q21 0 29 29l118 414q9 28 -19 28h-34q-21 0 -29 -28l-116 -406h-133z" />
    <glyph glyph-name="Omacron" unicode="&#x14c;" horiz-adv-x="481" 
d="M514 843l-27 -95h-222l27 95h222zM396 150q-24 -83 -66 -119t-111 -36h-83q-79 0 -108 49t-8 123l109 383q24 83 66 119t111 36h83q79 0 108 -49t8 -123zM372 547q9 32 -22 32h-50q-26 0 -34 -33l-113 -394q-9 -31 23 -31h50q25 0 34 33z" />
    <glyph glyph-name="omacron" unicode="&#x14d;" horiz-adv-x="435" 
d="M450 693l-27 -95h-222l27 95h222zM119 -5q-71 0 -99.5 45t-8.5 114l74 257q22 76 61.5 110t104.5 34h70q71 0 99 -44.5t8 -114.5l-73 -257q-22 -76 -61.5 -110t-104.5 -34h-70zM194 114q21 0 29 29l76 265q7 28 -19 28h-34q-22 0 -30 -28l-76 -267q-8 -27 20 -27h34z" />
    <glyph glyph-name="Ohungarumlaut" unicode="&#x150;" horiz-adv-x="481" 
d="M307 855h131l-105 -120h-102zM457 855h131l-105 -120h-102zM396 150q-24 -83 -66 -119t-111 -36h-83q-79 0 -108 49t-8 123l109 383q24 83 66 119t111 36h83q79 0 108 -49t8 -123zM372 547q9 32 -22 32h-50q-26 0 -34 -33l-113 -394q-9 -31 23 -31h50q25 0 34 33z" />
    <glyph glyph-name="ohungarumlaut" unicode="&#x151;" horiz-adv-x="435" 
d="M243 705h130l-105 -120h-101zM393 705h130l-105 -120h-101zM119 -5q-71 0 -99.5 45t-8.5 114l74 257q22 76 61.5 110t104.5 34h70q71 0 99 -44.5t8 -114.5l-73 -257q-22 -76 -61.5 -110t-104.5 -34h-70zM194 114q21 0 29 29l76 265q7 28 -19 28h-34q-22 0 -30 -28
l-76 -267q-8 -27 20 -27h34z" />
    <glyph glyph-name="OE" unicode="&#x152;" horiz-adv-x="604" 
d="M504 572l-45 -158h130l-37 -128h-130l-45 -158h140l-36 -128h-344q-79 0 -108 49t-8 123l107 373q24 83 66 119t111 36h376l-37 -128h-140zM242 128l127 444h-71q-25 0 -34 -33l-109 -379q-9 -32 23 -32h64z" />
    <glyph glyph-name="oe" unicode="&#x153;" horiz-adv-x="637" 
d="M119 -5q-71 0 -99.5 45t-8.5 114l74 257q22 76 61.5 110t104.5 34h55q52 0 65 -52q39 52 106 52h43q71 0 99 -44.5t8 -114.5l-46 -160h-205l-27 -96q-9 -27 20 -27h27q12 0 18 7t10 22l13 44h128l-13 -47q-22 -76 -61.5 -110t-103.5 -34h-46q-67 0 -86 54
q-34 -54 -90 -54h-46zM405 335h77l21 74q7 28 -20 28h-28q-22 0 -29 -28zM160 114h34q21 0 29 29l76 265q7 28 -19 28h-34q-22 0 -30 -28l-76 -267q-8 -27 20 -27z" />
    <glyph glyph-name="Racute" unicode="&#x154;" horiz-adv-x="462" 
d="M266 735l76 120h131l-105 -120h-102zM-23 0l200 700h198q79 0 108 -49t8 -123l-28 -99q-33 -113 -106 -142l5 -287h-135l-1 274h-33l-78 -274h-138zM227 394h64q25 0 34 33l33 117q9 32 -22 32h-57z" />
    <glyph glyph-name="racute" unicode="&#x155;" horiz-adv-x="395" 
d="M327 585h-101l76 120h130zM341 555q54 0 73 -40.5t-1 -108.5l-31 -109h-124l31 109q9 28 -19 28h-20q-21 0 -29 -28l-116 -406h-133l157 550h99v-52q52 57 107 57h6z" />
    <glyph glyph-name="uni0156" unicode="&#x156;" horiz-adv-x="462" 
d="M-23 0l200 700h198q79 0 108 -49t8 -123l-28 -99q-33 -113 -106 -142l5 -287h-135l-1 274h-33l-78 -274h-138zM227 394h64q25 0 34 33l33 117q9 32 -22 32h-57zM99 -155v120h114l-36 -120h-78z" />
    <glyph glyph-name="uni0157" unicode="&#x157;" horiz-adv-x="395" 
d="M341 555q54 0 73 -40.5t-1 -108.5l-31 -109h-124l31 109q9 28 -19 28h-20q-21 0 -29 -28l-116 -406h-133l157 550h99v-52q52 57 107 57h6zM-34 -35h114l-36 -120h-78v120z" />
    <glyph glyph-name="Rcaron" unicode="&#x158;" horiz-adv-x="462" 
d="M275 735l-65 120h104l22 -54l52 54h114l-133 -120h-94zM-23 0l200 700h198q79 0 108 -49t8 -123l-28 -99q-33 -113 -106 -142l5 -287h-135l-1 274h-33l-78 -274h-138zM227 394h64q25 0 34 33l33 117q9 32 -22 32h-57z" />
    <glyph glyph-name="rcaron" unicode="&#x159;" horiz-adv-x="395" 
d="M235 585l-65 120h103l22 -54l52 54h115l-133 -120h-94zM341 555q54 0 73 -40.5t-1 -108.5l-31 -109h-124l31 109q9 28 -19 28h-20q-21 0 -29 -28l-116 -406h-133l157 550h99v-52q52 57 107 57h6z" />
    <glyph glyph-name="Sacute" unicode="&#x15a;" horiz-adv-x="423" 
d="M351 855h130l-105 -120h-101zM113 -5q-79 0 -108.5 49t-8.5 123l24 84h134l-29 -102q-9 -31 23 -31h44q25 0 34 33l9 32q8 24 6.5 41.5t-14.5 33.5l-94 114q-56 67 -35 143l10 35q23 83 65 119t112 36h62q79 0 108 -49t8 -123l-23 -83h-136l30 101q9 32 -23 32h-32
q-25 0 -34 -33l-9 -31q-9 -26 -8 -42t17 -36l92 -114q58 -73 33 -151l-7 -26q-24 -83 -66 -119t-111 -36h-73z" />
    <glyph glyph-name="sacute" unicode="&#x15b;" horiz-adv-x="379" 
d="M300 705h131l-105 -120h-102zM102 -5q-70 0 -98.5 45t-8.5 114l15 50h120l-20 -69q-7 -28 19 -28h24q23 0 29 29l5 14q6 16 5 29.5t-13 26.5l-78 84q-52 57 -31 126l3 13q18 62 59 94t98 32h45q70 0 96 -44t6 -115l-13 -46h-119l18 66q9 28 -18 28h-21q-22 0 -31 -29
l-5 -18q-5 -16 -1.5 -26t17.5 -26l75 -81q52 -57 28 -136l-3 -15q-35 -118 -154 -118h-48z" />
    <glyph glyph-name="Scedilla" unicode="&#x15e;" horiz-adv-x="423" 
d="M113 -5q-79 0 -108.5 49t-8.5 123l24 84h134l-29 -102q-9 -31 23 -31h44q25 0 34 33l9 32q8 24 6.5 41.5t-14.5 33.5l-94 114q-56 67 -35 143l10 35q23 83 65 119t112 36h62q79 0 108 -49t8 -123l-23 -83h-136l30 101q9 32 -23 32h-32q-25 0 -34 -33l-9 -31
q-9 -26 -8 -42t17 -36l92 -114q58 -73 33 -151l-7 -26q-24 -83 -66 -119t-111 -36h-73zM97 -35h78v-120h-114z" />
    <glyph glyph-name="scedilla" unicode="&#x15f;" horiz-adv-x="379" 
d="M102 -5q-70 0 -98.5 45t-8.5 114l15 50h120l-20 -69q-7 -28 19 -28h24q23 0 29 29l5 14q6 16 5 29.5t-13 26.5l-78 84q-52 57 -31 126l3 13q18 62 59 94t98 32h45q70 0 96 -44t6 -115l-13 -46h-119l18 66q9 28 -18 28h-21q-22 0 -31 -29l-5 -18q-5 -16 -1.5 -26t17.5 -26
l75 -81q52 -57 28 -136l-3 -15q-35 -118 -154 -118h-48zM74 -35h78v-120h-114z" />
    <glyph glyph-name="Scaron" unicode="&#x160;" horiz-adv-x="423" 
d="M284 735l-65 120h103l22 -54l52 54h115l-133 -120h-94zM347 705q79 0 108 -49t8 -123l-23 -83h-136l30 101q9 32 -23 32h-32q-25 0 -34 -33l-9 -31q-9 -26 -8 -42t17 -36l92 -114q58 -73 33 -151l-7 -26q-24 -83 -66 -119t-111 -36h-73q-79 0 -108.5 49t-8.5 123l24 84
h134l-29 -102q-9 -31 23 -31h44q25 0 34 33l9 32q8 24 6.5 41.5t-14.5 33.5l-94 114q-56 67 -35 143l10 35q23 83 65 119t112 36h62z" />
    <glyph glyph-name="scaron" unicode="&#x161;" horiz-adv-x="379" 
d="M233 585l-65 120h104l22 -54l52 54h114l-133 -120h-94zM275 555q70 0 96 -44t6 -115l-13 -46h-119l18 66q9 28 -18 28h-21q-22 0 -31 -29l-5 -18q-5 -16 -1.5 -26t17.5 -26l75 -81q52 -57 28 -136l-3 -15q-35 -118 -154 -118h-48q-70 0 -98.5 45t-8.5 114l15 50h120
l-20 -69q-7 -28 19 -28h24q23 0 29 29l5 14q6 16 5 29.5t-13 26.5l-78 84q-52 57 -31 126l3 13q18 62 59 94t98 32h45z" />
    <glyph glyph-name="uni0162" unicode="&#x162;" horiz-adv-x="413" 
d="M478 572h-117l-164 -572h-137l163 572h-117l36 128h373zM50 -35h78v-120h-114z" />
    <glyph glyph-name="uni0163" unicode="&#x163;" horiz-adv-x="317" 
d="M179 148q-9 -27 20 -27h60l-35 -121h-67q-71 0 -99.5 45t-8.5 114l77 270h-71l34 121h75l59 96h98l-27 -96h87l-34 -121h-88zM84 -35h78v-120h-114z" />
    <glyph glyph-name="Tcaron" unicode="&#x164;" horiz-adv-x="413" 
d="M292 735l-65 120h104l22 -54l52 54h114l-133 -120h-94zM478 572h-117l-164 -572h-137l163 572h-117l36 128h373z" />
    <glyph glyph-name="tcaron" unicode="&#x165;" horiz-adv-x="387" 
d="M436 545h-56l-33 -116h-88l-80 -281q-9 -27 20 -27h60l-35 -121h-67q-71 0 -99.5 45t-8.5 114l77 270h-71l34 121h75l59 96h98l-27 -96h59l44 155h123z" />
    <glyph glyph-name="Tbar" unicode="&#x166;" horiz-adv-x="395" 
d="M361 572l-50 -175h89l-27 -94h-89l-87 -303h-137l86 303h-87l27 94h87l50 175h-117l36 128h373l-37 -128h-117z" />
    <glyph glyph-name="tbar" unicode="&#x167;" horiz-adv-x="306" 
d="M259 429l-31 -107h77l-27 -94h-76l-23 -80q-9 -27 20 -27h60l-35 -121h-67q-71 0 -99.5 45t-8.5 114l20 69h-72l28 94h71l30 107h-71l34 121h75l59 96h98l-27 -96h87l-34 -121h-88z" />
    <glyph glyph-name="Umacron" unicode="&#x16a;" horiz-adv-x="489" 
d="M518 843l-27 -95h-222l27 95h222zM399 150q-24 -84 -65.5 -119.5t-110.5 -35.5h-81q-79 0 -108.5 49t-7.5 123l151 533h138l-155 -542q-10 -37 27 -37h38q17 0 25 9t15 30l154 540h137z" />
    <glyph glyph-name="umacron" unicode="&#x16b;" horiz-adv-x="443" 
d="M421 598h-222l27 95h222zM472 550l-157 -550h-98v54q-56 -59 -110 -59h-10q-59 0 -82.5 45t-3.5 114l113 396h133l-116 -406q-7 -28 19 -28h34q20 0 30 29l115 405h133z" />
    <glyph glyph-name="Uring" unicode="&#x16e;" horiz-adv-x="489" 
d="M374 726q-37 0 -61.5 24.5t-24.5 61.5q0 36 24.5 60.5t61.5 24.5q35 0 59.5 -24.5t24.5 -60.5q0 -37 -24.5 -61.5t-59.5 -24.5zM374 783q12 0 20 8.5t8 20.5q0 13 -8 21.5t-20 8.5q-13 0 -22 -8.5t-9 -21.5q0 -12 9 -20.5t22 -8.5zM399 150q-24 -84 -65.5 -119.5
t-110.5 -35.5h-81q-79 0 -108.5 49t-7.5 123l151 533h138l-155 -542q-10 -37 27 -37h38q17 0 25 9t15 30l154 540h137z" />
    <glyph glyph-name="uring" unicode="&#x16f;" horiz-adv-x="443" 
d="M303 576q-37 0 -61.5 24.5t-24.5 61.5q0 36 24.5 60.5t61.5 24.5q35 0 59.5 -24.5t24.5 -60.5q0 -37 -24.5 -61.5t-59.5 -24.5zM303 692q-13 0 -21.5 -8.5t-8.5 -21.5q0 -12 8.5 -20.5t21.5 -8.5q12 0 20.5 8.5t8.5 20.5q0 13 -8.5 21.5t-20.5 8.5zM472 550l-157 -550
h-98v54q-56 -59 -110 -59h-10q-59 0 -82.5 45t-3.5 114l113 396h133l-116 -406q-7 -28 19 -28h34q20 0 30 29l115 405h133z" />
    <glyph glyph-name="Uhungarumlaut" unicode="&#x170;" horiz-adv-x="489" 
d="M311 855h131l-105 -120h-102zM461 855h131l-105 -120h-102zM399 150q-24 -84 -65.5 -119.5t-110.5 -35.5h-81q-79 0 -108.5 49t-7.5 123l151 533h138l-155 -542q-10 -37 27 -37h38q17 0 25 9t15 30l154 540h137z" />
    <glyph glyph-name="uhungarumlaut" unicode="&#x171;" horiz-adv-x="443" 
d="M266 585h-101l76 120h130zM315 585l76 120h130l-105 -120h-101zM339 550h133l-157 -550h-98v54q-56 -59 -110 -59h-10q-59 0 -82.5 45t-3.5 114l113 396h133l-116 -406q-7 -28 19 -28h34q20 0 30 29z" />
    <glyph glyph-name="Uogonek" unicode="&#x172;" horiz-adv-x="489" 
d="M399 150q-24 -84 -65.5 -119.5t-110.5 -35.5h-81q-79 0 -108.5 49t-7.5 123l151 533h138l-155 -542q-10 -37 27 -37h38q17 0 25 9t15 30l154 540h137zM152 -155v120h78l36 -120h-114z" />
    <glyph glyph-name="uogonek" unicode="&#x173;" horiz-adv-x="443" 
d="M217 0v54q-56 -59 -110 -59h-10q-59 0 -82.5 45t-3.5 114l113 396h133l-116 -406q-7 -28 19 -28h34q20 0 30 29l115 405h133l-157 -550h-98zM297 -35l36 -120h-114v120h78z" />
    <glyph glyph-name="Wcircumflex" unicode="&#x174;" horiz-adv-x="650" 
d="M426 735h-114l133 120h94l65 -120h-104l-22 54zM752 700l-303 -700h-141l27 310h-4l-141 -310h-145l97 700h134l-41 -271l-34 -176h4l164 362h93l-34 -362h4l71 183l109 264h140z" />
    <glyph glyph-name="wcircumflex" unicode="&#x175;" horiz-adv-x="586" 
d="M352 585h-115l133 120h94l65 -120h-103l-22 54zM648 550l-239 -550h-133l7 224h-5l-112 -224h-137l68 550h127l-37 -229l-24 -121h5l140 283h87l-19 -283h5l42 114l96 236h129z" />
    <glyph glyph-name="Ycircumflex" unicode="&#x176;" horiz-adv-x="442" 
d="M322 735h-114l133 120h94l65 -120h-104l-22 54zM282 242l-69 -242h-138l68 239l-11 461h139l-7 -156l-13 -149h5l149 305h149z" />
    <glyph glyph-name="ycircumflex" unicode="&#x177;" horiz-adv-x="400" 
d="M260 585h-114l133 120h94l65 -120h-104l-22 54zM466 550l-257 -567q-30 -65 -75.5 -101.5t-100.5 -36.5h-93l33 119h46q25 0 35 16l42 570h130l-31 -237l-30 -178h4l161 415h136z" />
    <glyph glyph-name="Ydieresis" unicode="&#x178;" horiz-adv-x="442" 
d="M337 735h-120l35 120h119zM369 735l35 120h119l-34 -120h-120zM282 242l-69 -242h-138l68 239l-11 461h139l-7 -156l-13 -149h5l149 305h149z" />
    <glyph glyph-name="Zacute" unicode="&#x179;" horiz-adv-x="423" 
d="M278 735l76 120h131l-105 -120h-102zM-48 0l30 106l325 466h-183l36 128h339l-30 -106l-324 -466h201l-36 -128h-358z" />
    <glyph glyph-name="zacute" unicode="&#x17a;" horiz-adv-x="363" 
d="M313 585h-102l76 120h131zM252 493l21 -152l72 -46l-152 -240h-81v2l-28 152l-65 46l152 240h82z" />
    <glyph glyph-name="Zdotaccent" unicode="&#x17b;" horiz-adv-x="423" 
d="M400 735h-133l34 120h133zM469 594l-324 -466h201l-36 -128h-358l30 106l325 466h-183l36 128h339z" />
    <glyph glyph-name="zdotaccent" unicode="&#x17c;" horiz-adv-x="363" 
d="M333 585h-133l34 120h133zM384 447l-257 -326h173l-35 -121h-322l28 102l259 327h-157l34 121h306z" />
    <glyph glyph-name="Zcaron" unicode="&#x17d;" horiz-adv-x="423" 
d="M287 735l-65 120h104l22 -54l52 54h114l-133 -120h-94zM160 700h339l-30 -106l-324 -466h201l-36 -128h-358l30 106l325 466h-183z" />
    <glyph glyph-name="zcaron" unicode="&#x17e;" horiz-adv-x="363" 
d="M220 585l-65 120h104l22 -54l52 54h114l-133 -120h-94zM107 550h306l-29 -103l-257 -326h173l-35 -121h-322l28 102l259 327h-157z" />
    <glyph glyph-name="uni0218" unicode="&#x218;" horiz-adv-x="423" 
d="M113 -5q-79 0 -108.5 49t-8.5 123l24 84h134l-29 -102q-9 -31 23 -31h44q25 0 34 33l9 32q8 24 6.5 41.5t-14.5 33.5l-94 114q-56 67 -35 143l10 35q23 83 65 119t112 36h62q79 0 108 -49t8 -123l-23 -83h-136l30 101q9 32 -23 32h-32q-25 0 -34 -33l-9 -31
q-9 -26 -8 -42t17 -36l92 -114q58 -73 33 -151l-7 -26q-24 -83 -66 -119t-111 -36h-73zM149 -155h-78v120h114z" />
    <glyph glyph-name="uni0219" unicode="&#x219;" horiz-adv-x="379" 
d="M102 -5q-70 0 -98.5 45t-8.5 114l15 50h120l-20 -69q-7 -28 19 -28h24q23 0 29 29l5 14q6 16 5 29.5t-13 26.5l-78 84q-52 57 -31 126l3 13q18 62 59 94t98 32h45q70 0 96 -44t6 -115l-13 -46h-119l18 66q9 28 -18 28h-21q-22 0 -31 -29l-5 -18q-5 -16 -1.5 -26t17.5 -26
l75 -81q52 -57 28 -136l-3 -15q-35 -118 -154 -118h-48zM127 -155h-78v120h114z" />
    <glyph glyph-name="uni021A" unicode="&#x21a;" horiz-adv-x="413" 
d="M478 572h-117l-164 -572h-137l163 572h-117l36 128h373zM54 -35h114l-36 -120h-78v120z" />
    <glyph glyph-name="uni021B" unicode="&#x21b;" horiz-adv-x="317" 
d="M179 148q-9 -27 20 -27h60l-35 -121h-67q-71 0 -99.5 45t-8.5 114l77 270h-71l34 121h75l59 96h98l-27 -96h87l-34 -121h-88zM59 -35h114l-36 -120h-78v120z" />
    <glyph glyph-name="uni02BC" unicode="&#x2bc;" horiz-adv-x="230" 
d="M205 462h-106l70 243h138z" />
    <glyph glyph-name="circumflex" unicode="&#x2c6;" horiz-adv-x="420" 
d="M342 585l-22 54l-52 -54h-114l133 120h94l65 -120h-104z" />
    <glyph glyph-name="caron" unicode="&#x2c7;" horiz-adv-x="420" 
d="M480 705l-133 -120h-94l-65 120h103l22 -54l52 54h115z" />
    <glyph glyph-name="breve" unicode="&#x2d8;" horiz-adv-x="420" 
d="M450 681q-13 -49 -38 -70t-66 -21h-72q-46 0 -63 28.5t-4 72.5l4 14h91l-4 -15q-3 -12 0.5 -17t15.5 -5h25q17 0 23 23l3 14h92z" />
    <glyph glyph-name="dotaccent" unicode="&#x2d9;" horiz-adv-x="420" 
d="M400 705l-34 -120h-133l34 120h133z" />
    <glyph glyph-name="ring" unicode="&#x2da;" horiz-adv-x="420" 
d="M296 576q-37 0 -61.5 24.5t-24.5 61.5q0 36 24.5 60.5t61.5 24.5q35 0 59.5 -24.5t24.5 -60.5q0 -37 -24.5 -61.5t-59.5 -24.5zM296 633q12 0 20.5 8.5t8.5 20.5q0 13 -8.5 21.5t-20.5 8.5q-13 0 -21.5 -8.5t-8.5 -21.5q0 -12 8.5 -20.5t21.5 -8.5z" />
    <glyph glyph-name="ogonek" unicode="&#x2db;" horiz-adv-x="420" 
d="M132 -155v120h78l36 -120h-114z" />
    <glyph glyph-name="tilde" unicode="&#x2dc;" horiz-adv-x="420" 
d="M258 720q16 0 56 -18l29 -12q10 -5 14 -5q5 0 7 6l9 29h83l-17 -60q-18 -60 -61 -60q-16 0 -55 18l-25 12q-14 7 -17 7q-8 0 -8 -7l-9 -30h-83l18 60q17 60 59 60z" />
    <glyph glyph-name="hungarumlaut" unicode="&#x2dd;" horiz-adv-x="420" 
d="M234 705h130l-105 -120h-101zM384 705h130l-105 -120h-101z" />
    <glyph glyph-name="uni0326" unicode="&#x326;" horiz-adv-x="0" 
d="M-285 -155h-78v120h114z" />
    <glyph glyph-name="uni0401" unicode="&#x401;" horiz-adv-x="386" 
d="M308 735h-120l35 120h119zM340 735l35 120h119l-34 -120h-120zM426 572h-150l-45 -158h140l-37 -128h-140l-45 -158h150l-36 -128h-286l200 700h286z" />
    <glyph glyph-name="uni0404" unicode="&#x404;" horiz-adv-x="451" 
d="M373 705q79 0 108 -49t8 -123l-23 -83h-131l28 97q9 32 -23 32h-42q-26 0 -34 -33l-38 -132h103l-37 -128h-103l-38 -134q-9 -31 23 -31h42q25 0 34 33l27 96h131l-27 -100q-24 -84 -65.5 -119.5t-110.5 -35.5h-69q-79 0 -108 49t-8 123l109 383q24 83 66 119t111 36h67z
" />
    <glyph glyph-name="uni0406" unicode="&#x406;" horiz-adv-x="248" 
d="M315 700l-200 -700h-138l200 700h138z" />
    <glyph glyph-name="uni0407" unicode="&#x407;" horiz-adv-x="248" 
d="M274 855l-34 -120h-120l35 120h119zM426 855l-34 -120h-120l35 120h119zM315 700l-200 -700h-138l200 700h138z" />
    <glyph glyph-name="uni040E" unicode="&#x40e;" horiz-adv-x="426" 
d="M313 740q-46 0 -63 28.5t-4 72.5l3 14h92l-4 -15q-4 -12 -0.5 -17t15.5 -5h25q17 0 23 23l4 14h91l-6 -24q-13 -49 -38 -70t-66 -21h-72zM541 700l-252 -508q-56 -113 -92.5 -152.5t-99.5 -39.5h-93l37 129h49q19 0 34 30l6 541h134l-17 -256l-17 -144h5l55 149l107 251
h144z" />
    <glyph glyph-name="uni0410" unicode="&#x410;" horiz-adv-x="441" 
d="M459 700l-121 -700h-138l26 127h-94l-46 -127h-139l276 700h236zM251 253l64 321h-24l-114 -321h74z" />
    <glyph glyph-name="uni0411" unicode="&#x411;" horiz-adv-x="452" 
d="M278 572l-39 -138h59q79 0 108 -49t8 -123l-31 -107q-24 -83 -66 -119t-111 -36h-229l200 700h331l-36 -128h-194zM203 309l-52 -183h62q25 0 34 33l34 118q9 32 -23 32h-55z" />
    <glyph glyph-name="uni0412" unicode="&#x412;" horiz-adv-x="463" 
d="M372 700q79 0 108 -48.5t8 -123.5l-16 -55q-24 -89 -81 -123q42 -42 19 -121l-21 -74q-24 -83 -66 -119t-111 -36h-230l200 700h190zM282 577l-48 -167h62q27 0 36 33l30 102q9 32 -23 32h-57zM282 258q9 32 -24 32h-58l-48 -168h67q25 0 34 33z" />
    <glyph glyph-name="uni0413" unicode="&#x413;" horiz-adv-x="373" 
d="M441 572h-163l-163 -572h-138l200 700h301z" />
    <glyph glyph-name="uni0414" unicode="&#x414;" horiz-adv-x="514" 
d="M394 128h64l-66 -228h-92v100h-236l-68 -100h-93l65 228h52q31 67 91 261l96 311h351zM384 573h-80l-56 -184q-53 -168 -101 -261h110z" />
    <glyph glyph-name="uni0415" unicode="&#x415;" horiz-adv-x="386" 
d="M276 572l-45 -158h140l-37 -128h-140l-45 -158h150l-36 -128h-286l200 700h286l-37 -128h-150z" />
    <glyph glyph-name="uni0416" unicode="&#x416;" horiz-adv-x="714" 
d="M781 700l-200 -700h-138l82 286h-96l-81 -286h-138l82 286h-96l-81 -286h-138l200 700h138l-82 -286h96l81 286h138l-82 -286h96l81 286h138z" />
    <glyph glyph-name="uni0417" unicode="&#x417;" horiz-adv-x="443" 
d="M356 705q79 0 108 -49t8 -123l-19 -69q-14 -49 -33 -76t-48 -40q41 -41 18 -118l-22 -80q-24 -83 -66 -119t-111 -36h-70q-79 0 -108 49t-8 123l24 84h131l-28 -98q-9 -32 23 -32h42q26 0 34 33l29 102q9 31 -23 31h-71l37 127h78q24 0 34 33l28 101q9 31 -23 31h-41
q-25 0 -34 -33l-27 -96h-129l27 100q24 84 65.5 119.5t110.5 35.5h64z" />
    <glyph glyph-name="uni0418" unicode="&#x418;" horiz-adv-x="503" 
d="M182 700h132l-56 -196l-58 -181h5l232 377h128l-200 -700h-132l56 197l58 180h-5l-232 -377h-128z" />
    <glyph glyph-name="uni0419" unicode="&#x419;" horiz-adv-x="503" 
d="M529 831q-13 -49 -38 -70t-66 -21h-72q-46 0 -63 28.5t-4 72.5l4 14h91l-4 -15q-3 -12 0.5 -17t15.5 -5h25q17 0 23 23l3 14h92zM182 700h132l-56 -196l-58 -181h5l232 377h128l-200 -700h-132l56 197l58 180h-5l-232 -377h-128z" />
    <glyph glyph-name="uni041A" unicode="&#x41a;" horiz-adv-x="464" 
d="M358 355l7 -355h-136v286h-33l-81 -286h-138l200 700h138l-82 -286h21l163 286h139z" />
    <glyph glyph-name="uni041B" unicode="&#x41b;" horiz-adv-x="496" 
d="M363 0h-137l163 572h-82l-76 -250q-57 -182 -70 -211q-27 -62 -70 -89.5t-116 -23.5l-38 3l36 127h30q28 0 44 35.5t66 202.5l101 334h349z" />
    <glyph glyph-name="uni041C" unicode="&#x41c;" horiz-adv-x="621" 
d="M683 700l-200 -700h-132l57 199l57 177h-5l-158 -260h-70l-13 260h-5l-43 -177l-57 -199h-132l200 700h128l22 -339l206 339h145z" />
    <glyph glyph-name="uni041D" unicode="&#x41d;" horiz-adv-x="488" 
d="M555 700l-200 -700h-137l81 286h-103l-81 -286h-138l200 700h138l-82 -286h103l82 286h137z" />
    <glyph glyph-name="uni041E" unicode="&#x41e;" horiz-adv-x="481" 
d="M396 150q-24 -83 -66 -119t-111 -36h-83q-79 0 -108 49t-8 123l109 383q24 83 66 119t111 36h83q79 0 108 -49t8 -123zM372 547q9 32 -22 32h-50q-26 0 -34 -33l-113 -394q-9 -31 23 -31h50q25 0 34 33z" />
    <glyph glyph-name="uni041F" unicode="&#x41f;" horiz-adv-x="488" 
d="M355 0h-137l163 572h-103l-163 -572h-138l200 700h378z" />
    <glyph glyph-name="uni0420" unicode="&#x420;" horiz-adv-x="463" 
d="M380 700q79 0 108 -49t8 -123l-31 -107q-24 -83 -66 -119t-111 -36h-97l-76 -266h-138l200 700h203zM362 542q9 32 -22 32h-61l-53 -183h68q25 0 34 33z" />
    <glyph glyph-name="uni0421" unicode="&#x421;" horiz-adv-x="466" 
d="M136 -5q-79 0 -108 49t-8 123l109 383q24 83 66 119t111 36h73q79 0 108 -49t8 -123l-37 -129h-134l41 143q9 32 -23 32h-42q-26 0 -34 -33l-113 -394q-9 -31 23 -31h42q25 0 34 33l38 132h135l-39 -136q-24 -84 -65 -119.5t-110 -35.5h-75z" />
    <glyph glyph-name="uni0422" unicode="&#x422;" horiz-adv-x="413" 
d="M478 572h-117l-164 -572h-137l163 572h-117l36 128h373z" />
    <glyph glyph-name="uni0423" unicode="&#x423;" horiz-adv-x="426" 
d="M541 700l-252 -508q-56 -113 -92.5 -152.5t-99.5 -39.5h-93l37 129h49q19 0 34 30l6 541h134l-17 -256l-17 -144h5l55 149l107 251h144z" />
    <glyph glyph-name="uni0424" unicode="&#x424;" horiz-adv-x="680" 
d="M578 654q79 0 108 -48.5t9 -123.5l-73 -253q-24 -83 -66 -119t-111 -36h-94l-24 -84h-136l24 84h-61q-79 0 -108 48.5t-8 123.5l72 253q24 84 65.5 119.5t111.5 35.5h93l22 76h136l-22 -76h62zM251 202l93 324h-65q-14 0 -21 -7.5t-13 -25.5l-73 -259q-11 -32 22 -32h57z
M560 494q9 32 -22 32h-58l-92 -324h64q25 0 34 33z" />
    <glyph glyph-name="uni0425" unicode="&#x425;" horiz-adv-x="464" 
d="M334 350l37 -350h-134l-15 211h-4l-127 -211h-154l244 374l-39 326h133l15 -210h4l120 210h147z" />
    <glyph glyph-name="uni0426" unicode="&#x426;" horiz-adv-x="510" 
d="M392 128h62l-66 -228h-92v100h-319l200 700h138l-164 -572h103l164 572h137z" />
    <glyph glyph-name="uni0427" unicode="&#x427;" horiz-adv-x="467" 
d="M534 700l-200 -700h-137l75 265h-72q-78 0 -105.5 42.5t-5.5 118.5l78 274h138l-80 -279q-8 -28 20 -28h64l88 307h137z" />
    <glyph glyph-name="uni0428" unicode="&#x428;" horiz-adv-x="708" 
d="M775 700l-200 -700h-598l200 700h138l-164 -572h93l163 572h138l-164 -572h93l163 572h138z" />
    <glyph glyph-name="uni0429" unicode="&#x429;" horiz-adv-x="730" 
d="M611 128h62l-65 -228h-93v100h-538l200 700h138l-164 -572h93l163 572h138l-164 -572h93l163 572h138z" />
    <glyph glyph-name="uni042A" unicode="&#x42a;" horiz-adv-x="520" 
d="M361 434q79 0 108 -49t8 -123l-31 -107q-24 -83 -66 -119t-111 -36h-229l164 572h-103l36 128h241l-76 -266h59zM344 277q9 32 -23 32h-55l-52 -183h62q25 0 34 33z" />
    <glyph glyph-name="uni042B" unicode="&#x42b;" horiz-adv-x="674" 
d="M298 434q79 0 108 -49t8 -123l-31 -107q-24 -83 -66 -119t-111 -36h-229l200 700h138l-76 -266h59zM741 700l-200 -700h-138l200 700h138zM281 277q9 32 -23 32h-55l-52 -183h62q25 0 34 33z" />
    <glyph glyph-name="uni042C" unicode="&#x42c;" horiz-adv-x="457" 
d="M298 434q79 0 108 -49t8 -123l-31 -107q-24 -83 -66 -119t-111 -36h-229l200 700h138l-76 -266h59zM281 277q9 32 -23 32h-55l-52 -183h62q25 0 34 33z" />
    <glyph glyph-name="uni042D" unicode="&#x42d;" horiz-adv-x="451" 
d="M359 705q79 0 108 -49t8 -123l-109 -383q-24 -83 -66 -119t-111 -36h-68q-79 0 -108 49t-8 123l24 84h131l-28 -98q-9 -32 23 -32h42q26 0 34 33l38 133h-103l37 127h103l38 134q9 31 -23 31h-42q-25 0 -34 -33l-27 -96h-127l27 100q24 84 65.5 119.5t110.5 35.5h65z" />
    <glyph glyph-name="uni042E" unicode="&#x42e;" horiz-adv-x="686" 
d="M594 705q79 0 108 -49t8 -123l-109 -383q-24 -83 -66 -119t-111 -36h-70q-79 0 -108 49t-8 123l34 119h-76l-81 -286h-138l200 700h138l-82 -286h75l39 136q24 83 66 119t111 36h70zM577 547q9 32 -22 32h-39q-26 0 -34 -33l-113 -394q-9 -31 23 -31h39q25 0 34 33z" />
    <glyph glyph-name="uni042F" unicode="&#x42f;" horiz-adv-x="467" 
d="M334 0h-138l76 266h-23l-168 -266h-146l194 302q-61 42 -32 143l29 100q23 82 66.5 118.5t110.5 36.5h231zM307 387l54 190h-65q-24 0 -33 -33l-36 -125q-9 -32 22 -32h58z" />
    <glyph glyph-name="uni0430" unicode="&#x430;" horiz-adv-x="410" 
d="M76 -5q-59 0 -80.5 42t-3.5 107l8 26q19 63 50 91t88 48l93 35q19 7 25 26l14 47q7 27 -19 27h-25q-22 0 -30 -28l-15 -52h-118l13 47q22 76 62 110t104 34h46q71 0 99 -44.5t8 -114.5l-113 -396h-97v52q-52 -57 -100 -57h-9zM133 110h31q21 0 29 29l30 107l-63 -27
q-22 -9 -29 -36l-14 -45q-7 -28 16 -28z" />
    <glyph glyph-name="uni0431" unicode="&#x431;" horiz-adv-x="436" 
d="M514 705l-4 -14q-19 -68 -58 -98.5t-104 -30.5h-72q-21 0 -29 -30l-22 -76q51 49 96 49h10q58 0 79.5 -44.5t1.5 -114.5l-59 -207q-22 -76 -61.5 -110t-103.5 -34h-69q-71 0 -99.5 45t-7.5 114l108 380q22 76 61.5 110t104.5 34h67q21 0 27 22l1 5h133zM231 384
q-22 0 -30 -29l-60 -212q-7 -27 20 -27h32q21 0 29 29l60 211q9 28 -19 28h-32z" />
    <glyph glyph-name="uni0432" unicode="&#x432;" horiz-adv-x="411" 
d="M298 550q71 0 100 -41t11 -105l-7 -27q-21 -72 -73 -106q37 -42 18 -108l-8 -26q-38 -137 -163 -137h-204l157 550h169zM219 435l-32 -112h52q21 0 29 28l16 56q7 28 -19 28h-46zM226 198q9 28 -19 28h-47l-32 -111h54q21 0 29 29z" />
    <glyph glyph-name="uni0433" unicode="&#x433;" horiz-adv-x="335" 
d="M365 428h-138l-122 -428h-133l157 550h270z" />
    <glyph glyph-name="uni0434" unicode="&#x434;" horiz-adv-x="464" 
d="M355 121h50l-60 -211h-96v90h-192l-58 -84h-94l59 205h45q37 75 75 198l70 231h323zM222 117l94 328h-66l-44 -141q-32 -104 -79 -187h95z" />
    <glyph glyph-name="uni0435" unicode="&#x435;" horiz-adv-x="425" 
d="M308 555q71 0 99 -44.5t8 -114.5l-46 -160h-205l-27 -96q-9 -27 20 -27h27q12 0 18 7t10 22l13 44h128l-13 -47q-22 -76 -61.5 -110t-103.5 -34h-56q-71 0 -99.5 45t-8.5 114l74 257q22 76 61.5 110t104.5 34h57zM193 335h77l21 74q7 28 -20 28h-28q-22 0 -29 -28z" />
    <glyph glyph-name="uni0436" unicode="&#x436;" horiz-adv-x="640" 
d="M669 550l-157 -550h-132l61 215h-71l-62 -215h-132l62 215h-72l-61 -215h-133l157 550h133l-62 -214h72l61 214h132l-61 -214h71l62 214h132z" />
    <glyph glyph-name="uni0437" unicode="&#x437;" horiz-adv-x="385" 
d="M281 555q71 0 100.5 -43t10.5 -111l-7 -24q-22 -75 -75 -107q37 -37 18 -102l-8 -29q-22 -76 -61.5 -110t-103.5 -34h-56q-71 0 -99.5 45t-8.5 114l14 48h122l-18 -60q-7 -28 19 -28h36q21 0 29 29l14 48q9 28 -19 28h-58l33 112h63q21 0 29 29l15 49q7 27 -21 27h-35
q-21 0 -29 -28l-16 -59h-122l18 62q22 76 61.5 110t104.5 34h50z" />
    <glyph glyph-name="uni0438" unicode="&#x438;" horiz-adv-x="453" 
d="M129 550h128l-41 -146l-45 -134h5l181 280h125l-157 -550h-128l42 146l44 134h-5l-181 -280h-125z" />
    <glyph glyph-name="uni0439" unicode="&#x439;" horiz-adv-x="453" 
d="M459 681q-13 -49 -38 -70t-66 -21h-72q-46 0 -63 28.5t-4 72.5l4 14h91l-4 -15q-3 -12 0.5 -17t15.5 -5h25q17 0 23 23l3 14h92zM129 550h128l-41 -146l-45 -134h5l181 280h125l-157 -550h-128l42 146l44 134h-5l-181 -280h-125z" />
    <glyph glyph-name="uni043A" unicode="&#x43a;" horiz-adv-x="420" 
d="M316 274l7 -274h-132l1 214h-26l-61 -214h-133l158 550h132l-61 -214h20l127 214h133z" />
    <glyph glyph-name="uni043B" unicode="&#x43b;" horiz-adv-x="453" 
d="M325 0h-133l123 429h-68l-36 -118q-50 -160 -66 -198q-29 -64 -70 -91.5t-110 -23.5l-31 2l34 121h24q27 0 42.5 34t64.5 199l60 196h323z" />
    <glyph glyph-name="uni043C" unicode="&#x43c;" horiz-adv-x="560" 
d="M584 550l-157 -550h-126l47 164l51 158h-4l-131 -236h-74v236h-4l-35 -158l-47 -164h-127l157 550h136l9 -261l152 261h153z" />
    <glyph glyph-name="uni043D" unicode="&#x43d;" horiz-adv-x="446" 
d="M475 550l-157 -550h-132l61 214h-81l-61 -214h-133l157 550h133l-61 -214h81l61 214h132z" />
    <glyph glyph-name="uni043E" unicode="&#x43e;" horiz-adv-x="435" 
d="M119 -5q-71 0 -99.5 45t-8.5 114l74 257q22 76 61.5 110t104.5 34h70q71 0 99 -44.5t8 -114.5l-73 -257q-22 -76 -61.5 -110t-104.5 -34h-70zM194 114q21 0 29 29l76 265q7 28 -19 28h-34q-22 0 -30 -28l-76 -267q-8 -27 20 -27h34z" />
    <glyph glyph-name="uni043F" unicode="&#x43f;" horiz-adv-x="445" 
d="M317 0h-133l123 429h-80l-122 -429h-133l157 550h345z" />
    <glyph glyph-name="uni0440" unicode="&#x440;" horiz-adv-x="443" 
d="M349 555q59 0 82 -45t2 -114l-73 -257q-42 -144 -156 -144h-4q-55 0 -82 51l-57 -201h-133l201 705h99v-53q58 58 111 58h10zM303 406q9 28 -19 28h-34q-21 0 -29 -28l-76 -263q-6 -27 21 -27h33q21 0 30 29z" />
    <glyph glyph-name="uni0441" unicode="&#x441;" horiz-adv-x="433" 
d="M350 139q-22 -76 -61.5 -110t-104.5 -34h-65q-71 0 -99.5 45t-8.5 114l74 257q22 76 61.5 110t104.5 34h65q71 0 99 -44.5t8 -114.5l-24 -83h-131l27 95q7 28 -19 28h-30q-22 0 -30 -28l-76 -267q-8 -27 20 -27h30q21 0 29 29l24 85h132z" />
    <glyph glyph-name="uni0442" unicode="&#x442;" horiz-adv-x="366" 
d="M396 428h-102l-123 -428h-132l123 428h-102l34 122h336z" />
    <glyph glyph-name="uni0443" unicode="&#x443;" horiz-adv-x="400" 
d="M466 550l-257 -567q-30 -65 -75.5 -101.5t-100.5 -36.5h-93l33 119h46q25 0 35 16l42 570h130l-31 -237l-30 -178h4l161 415h136z" />
    <glyph glyph-name="uni0444" unicode="&#x444;" horiz-adv-x="639" 
d="M552 555q56 0 76.5 -44.5t0.5 -114.5l-73 -257q-40 -144 -152 -144h-3q-53 0 -81 50l-56 -200h-132l57 203q-47 -53 -91 -53h-9q-56 0 -77 45t-1 114l74 257q40 144 152 144h4q54 0 79 -49l57 199h132l-58 -203q50 53 92 53h9zM292 407q9 27 -20 27h-27q-21 0 -29 -28
l-75 -262q-7 -28 19 -28h27q22 0 30 29zM500 406q7 28 -19 28h-28q-21 0 -29 -28l-76 -263q-6 -27 21 -27h27q21 0 29 29z" />
    <glyph glyph-name="uni0445" unicode="&#x445;" horiz-adv-x="410" 
d="M280 275l37 -275h-123l-16 159h-5l-95 -159h-141l203 297l-40 253h124l15 -153h4l93 153h133z" />
    <glyph glyph-name="uni0446" unicode="&#x446;" horiz-adv-x="456" 
d="M347 121h51l-61 -211h-95v90h-269l157 550h133l-123 -429h75l122 429h133z" />
    <glyph glyph-name="uni0447" unicode="&#x447;" horiz-adv-x="427" 
d="M455 550l-156 -550h-133l56 196h-51q-71 0 -99 44.5t-9 114.5l56 195h132l-59 -204q-7 -28 20 -28h44l67 232h132z" />
    <glyph glyph-name="uni0448" unicode="&#x448;" horiz-adv-x="639" 
d="M668 550l-157 -550h-539l157 550h133l-123 -429h71l123 429h131l-122 -429h71l122 429h133z" />
    <glyph glyph-name="uni0449" unicode="&#x449;" horiz-adv-x="655" 
d="M545 121h51l-60 -211h-96v90h-468l157 550h133l-123 -429h71l123 429h131l-122 -429h71l122 429h133z" />
    <glyph glyph-name="uni044A" unicode="&#x44a;" horiz-adv-x="465" 
d="M302 345q71 0 99 -44.5t8 -114.5l-12 -42q-22 -76 -61.5 -110t-103.5 -34h-206l123 428h-92l35 122h223l-59 -205h46zM284 209q9 28 -19 28h-40l-35 -122h46q22 0 30 28z" />
    <glyph glyph-name="uni044B" unicode="&#x44b;" horiz-adv-x="607" 
d="M-28 0l157 550h132l-59 -205h46q71 0 99 -44.5t8 -114.5l-12 -42q-22 -76 -61.5 -110t-103.5 -34h-206zM346 0l157 550h133l-157 -550h-133zM136 115h46q22 0 30 28l18 66q9 28 -19 28h-40z" />
    <glyph glyph-name="uni044C" unicode="&#x44c;" horiz-adv-x="411" 
d="M248 345q71 0 99 -44.5t8 -114.5l-12 -42q-22 -76 -61.5 -110t-103.5 -34h-206l157 550h132l-59 -205h46zM230 209q9 28 -19 28h-40l-35 -122h46q22 0 30 28z" />
    <glyph glyph-name="uni044D" unicode="&#x44d;" horiz-adv-x="412" 
d="M291 555q71 0 99 -44.5t8 -114.5l-73 -257q-22 -76 -61.5 -110t-104.5 -34h-60q-71 0 -99.5 45t-8.5 114l14 48h126l-17 -60q-9 -28 19 -28h37q22 0 30 29l22 76h-87l32 112h87l22 78q9 27 -20 27h-37q-21 0 -29 -28l-17 -59h-122l17 62q22 76 62 110t104 34h57z" />
    <glyph glyph-name="uni044E" unicode="&#x44e;" horiz-adv-x="631" 
d="M514 555q71 0 99 -44.5t8 -114.5l-73 -257q-22 -76 -61.5 -110t-103.5 -34h-59q-71 0 -99 45t-8 114l17 60h-68l-61 -214h-133l157 550h133l-61 -214h68l21 75q22 76 61.5 110t104.5 34h58zM492 406q7 28 -19 28h-28q-21 0 -29 -28l-75 -263q-7 -27 20 -27h27q21 0 29 29
z" />
    <glyph glyph-name="uni044F" unicode="&#x44f;" horiz-adv-x="424" 
d="M-67 0l157 237q-47 41 -24 122l14 47q22 76 61 110t104 34h208l-157 -550h-130l56 197h-26l-124 -197h-139zM208 300h43l39 134h-50q-21 0 -29 -28l-22 -78q-9 -28 19 -28z" />
    <glyph glyph-name="uni0451" unicode="&#x451;" horiz-adv-x="425" 
d="M312 705l-34 -120h-120l35 120h119zM308 555q71 0 99 -44.5t8 -114.5l-46 -160h-205l-27 -96q-9 -27 20 -27h27q12 0 18 7t10 22l13 44h128l-13 -47q-22 -76 -61.5 -110t-103.5 -34h-56q-71 0 -99.5 45t-8.5 114l74 257q22 76 61.5 110t104.5 34h57zM291 409q7 28 -20 28
h-28q-22 0 -29 -28l-21 -74h77z" />
    <glyph glyph-name="uni0454" unicode="&#x454;" horiz-adv-x="409" 
d="M311 555q71 0 99 -44.5t8 -114.5l-13 -47h-126l16 59q9 28 -19 28h-37q-22 0 -30 -28l-21 -77h86l-32 -112h-87l-22 -78q-7 -27 20 -27h37q21 0 29 29l17 58h126l-17 -62q-22 -76 -61.5 -110t-104.5 -34h-60q-71 0 -99.5 45t-8.5 114l74 257q22 76 61.5 110t104.5 34h60z
" />
    <glyph glyph-name="uni0456" unicode="&#x456;" horiz-adv-x="228" 
d="M306 705l-34 -120h-133l34 120h133zM262 550l-157 -550h-133l157 550h133z" />
    <glyph glyph-name="uni0457" unicode="&#x457;" horiz-adv-x="220" 
d="M224 705l-34 -120h-120l34 120h120zM376 705l-34 -120h-120l34 120h120zM262 550l-157 -550h-133l157 550h133z" />
    <glyph glyph-name="uni045E" unicode="&#x45e;" horiz-adv-x="400" 
d="M259 590q-46 0 -63 28.5t-4 72.5l3 14h92l-4 -15q-4 -12 -0.5 -17t15.5 -5h25q17 0 23 23l4 14h91l-6 -24q-13 -49 -38 -70t-66 -21h-72zM466 550l-257 -567q-30 -65 -75.5 -101.5t-100.5 -36.5h-93l33 119h46q25 0 35 16l42 570h130l-31 -237l-30 -178h4l161 415h136z
" />
    <glyph glyph-name="uni0490" unicode="&#x490;" horiz-adv-x="361" 
d="M-23 0l200 700h180l56 100h93l-65 -228h-163l-163 -572h-138z" />
    <glyph glyph-name="uni0491" unicode="&#x491;" horiz-adv-x="335" 
d="M399 550l-34 -122h-138l-122 -428h-133l157 550h141l62 90h92z" />
    <glyph glyph-name="Wgrave" unicode="&#x1e80;" horiz-adv-x="650" 
d="M435 855l58 -120h-108l-79 120h129zM276 700l-41 -271l-34 -176h4l164 362h93l-34 -362h4l71 183l109 264h140l-303 -700h-141l27 310h-4l-141 -310h-145l97 700h134z" />
    <glyph glyph-name="wgrave" unicode="&#x1e81;" horiz-adv-x="586" 
d="M361 705l58 -120h-109l-78 120h129zM224 550l-37 -229l-24 -121h5l140 283h87l-19 -283h5l42 114l96 236h129l-239 -550h-133l7 224h-5l-112 -224h-137l68 550h127z" />
    <glyph glyph-name="Wacute" unicode="&#x1e82;" horiz-adv-x="650" 
d="M478 855h130l-105 -120h-101zM276 700l-41 -271l-34 -176h4l164 362h93l-34 -362h4l71 183l109 264h140l-303 -700h-141l27 310h-4l-141 -310h-145l97 700h134z" />
    <glyph glyph-name="wacute" unicode="&#x1e83;" horiz-adv-x="586" 
d="M403 705h131l-105 -120h-102zM224 550l-37 -229l-24 -121h5l140 283h87l-19 -283h5l42 114l96 236h129l-239 -550h-133l7 224h-5l-112 -224h-137l68 550h127z" />
    <glyph glyph-name="Wdieresis" unicode="&#x1e84;" horiz-adv-x="650" 
d="M475 855l-34 -120h-120l35 120h119zM627 855l-34 -120h-120l35 120h119zM276 700l-41 -271l-34 -176h4l164 362h93l-34 -362h4l71 183l109 264h140l-303 -700h-141l27 310h-4l-141 -310h-145l97 700h134z" />
    <glyph glyph-name="wdieresis" unicode="&#x1e85;" horiz-adv-x="586" 
d="M401 705l-34 -120h-120l34 120h120zM553 705l-34 -120h-120l34 120h120zM224 550l-37 -229l-24 -121h5l140 283h87l-19 -283h5l42 114l96 236h129l-239 -550h-133l7 224h-5l-112 -224h-137l68 550h127z" />
    <glyph glyph-name="uni1E9E" unicode="&#x1e9e;" horiz-adv-x="579" 
d="M608 590l-158 -163q66 -6 88.5 -50.5t3.5 -109.5l-33 -117q-24 -83 -65.5 -119t-109.5 -36h-24q-76 0 -103.5 49t-6.5 123l17 61h115l-23 -78q-9 -32 23 -32h10q24 0 34 33l38 134q9 31 -23 31h-127l27 94l162 166h-149q-17 0 -25.5 -9.5t-14.5 -29.5l-154 -537h-133
l157 548q24 83 66 119t111 36h329z" />
    <glyph glyph-name="Ygrave" unicode="&#x1ef2;" horiz-adv-x="442" 
d="M281 735l-79 120h129l58 -120h-108zM282 242l-69 -242h-138l68 239l-11 461h139l-7 -156l-13 -149h5l149 305h149z" />
    <glyph glyph-name="ygrave" unicode="&#x1ef3;" horiz-adv-x="400" 
d="M219 585l-79 120h129l58 -120h-108zM466 550l-257 -567q-30 -65 -75.5 -101.5t-100.5 -36.5h-93l33 119h46q25 0 35 16l42 570h130l-31 -237l-30 -178h4l161 415h136z" />
    <glyph glyph-name="endash" unicode="&#x2013;" horiz-adv-x="440" 
d="M394 250h-360l34 120h360z" />
    <glyph glyph-name="emdash" unicode="&#x2014;" horiz-adv-x="630" 
d="M584 250h-550l34 120h550z" />
    <glyph glyph-name="quoteleft" unicode="&#x2018;" horiz-adv-x="230" 
d="M186 705h106l-70 -243h-137z" />
    <glyph glyph-name="quoteright" unicode="&#x2019;" horiz-adv-x="230" 
d="M205 462h-106l70 243h138z" />
    <glyph glyph-name="quotesinglbase" unicode="&#x201a;" horiz-adv-x="230" 
d="M52 -90h-106l70 244h138z" />
    <glyph glyph-name="quotedblleft" unicode="&#x201c;" horiz-adv-x="420" 
d="M190 705h106l-70 -243h-138zM380 705h106l-70 -243h-138z" />
    <glyph glyph-name="quotedblright" unicode="&#x201d;" horiz-adv-x="420" 
d="M209 462h-106l70 243h137zM399 462h-106l70 243h137z" />
    <glyph glyph-name="quotedblbase" unicode="&#x201e;" horiz-adv-x="420" 
d="M52 -90h-106l70 244h138zM242 -90h-106l70 244h138z" />
    <glyph glyph-name="dagger" unicode="&#x2020;" 
d="M466 438h-138l-125 -438h-112l125 438h-137l34 118h137l41 144h112l-41 -144h138z" />
    <glyph glyph-name="daggerdbl" unicode="&#x2021;" 
d="M328 438l-50 -176h138l-34 -118h-138l-41 -144h-112l41 144h-138l35 118h137l50 176h-137l34 118h137l41 144h112l-41 -144h138l-34 -118h-138z" />
    <glyph glyph-name="bullet" unicode="&#x2022;" 
d="M230 188q-53 0 -88 35t-35 87t35.5 87.5t87.5 35.5t87 -35t35 -88q0 -52 -35 -87t-87 -35z" />
    <glyph glyph-name="ellipsis" unicode="&#x2026;" horiz-adv-x="650" 
d="M115 0h-143l44 154h143zM335 0h-143l44 154h143zM555 0h-143l44 154h143z" />
    <glyph glyph-name="perthousand" unicode="&#x2030;" horiz-adv-x="826" 
d="M128 616q26 89 106 89h46q44 0 63 -27t6 -71l-32 -114q-27 -89 -106 -89h-48q-43 0 -61.5 27t-6.5 71zM630 700l-576 -700h-89l576 700h89zM178 494q-4 -15 12 -15h26q8 0 11 3t5 13l35 119q4 16 -12 16h-25q-12 0 -18 -17zM279 207q25 89 105 89h47q44 0 63 -27t6 -71
l-33 -114q-25 -89 -105 -89h-48q-43 0 -61.5 27t-6.5 71zM554 207q25 89 105 89h47q44 0 63 -27t6 -71l-33 -114q-25 -89 -105 -89h-48q-43 0 -61.5 27t-6.5 71zM328 85q-3 -15 12 -15h27q7 0 10 3t6 13l34 119q4 16 -11 16h-26q-12 0 -18 -17zM603 85q-3 -15 12 -15h27
q7 0 10 3t6 13l34 119q4 16 -11 16h-26q-12 0 -18 -17z" />
    <glyph glyph-name="guilsinglleft" unicode="&#x2039;" horiz-adv-x="268" 
d="M156 305l33 -154h-101l-35 131l18 62l96 125h112z" />
    <glyph glyph-name="guilsinglright" unicode="&#x203a;" horiz-adv-x="268" 
d="M242 339l-18 -63l-96 -125h-112l123 164l-33 154h101z" />
    <glyph glyph-name="Euro" unicode="&#x20ac;" horiz-adv-x="440" 
d="M382 705q79 0 108 -49t8 -123l-11 -41h-127l17 57q9 32 -22 32h-35q-25 0 -34 -33l-26 -93h139l-23 -80h-139l-14 -50h139l-23 -80h-139l-27 -93q-9 -31 23 -31h34q25 0 34 33l16 55h125l-16 -59q-24 -84 -65 -119.5t-110 -35.5h-47q-79 0 -108 49t-8 123l22 78h-64
l23 80h64l14 50h-64l23 80h64l27 95q24 83 66 119t111 36h45z" />
    <glyph glyph-name="uni20B4" unicode="&#x20b4;" 
d="M354 705q82 0 115 -39t17 -93l-3 -14q-8 -28 -77 -104h69l-23 -80h-119l-45 -50h150l-23 -80h-200l-28 -31q-28 -31 -36 -58l-6 -18q-3 -11 2.5 -16.5t21.5 -5.5h41q27 0 36 36l14 48h124l-14 -50q-24 -83 -66 -119t-111 -36h-57q-78 0 -111.5 37.5t-16.5 92.5l4 16
q8 30 74 104h-61l23 80h110l45 50h-141l23 80h191l36 41q31 33 38 56l4 12q3 11 -2.5 16t-21.5 5h-37q-26 0 -35 -34l-14 -51h-129l14 50q24 83 66 119t111 36h48z" />
    <glyph glyph-name="uni20BD" unicode="&#x20bd;" horiz-adv-x="481" 
d="M391 700q79 0 108 -49t8 -123l-28 -99q-24 -83 -66 -119t-111 -36h-87l-15 -49h157l-22 -80h-157l-42 -145h-126l41 144h-77l23 81h77l14 49h-76l23 80h76l99 346h181zM384 542q9 32 -23 32h-61l-52 -183h68q25 0 34 33z" />
    <glyph glyph-name="uni2116" unicode="&#x2116;" horiz-adv-x="737" 
d="M590 623q23 82 94 82h53q39 0 56 -24.5t6 -64.5l-42 -147q-23 -82 -95 -82h-53q-39 0 -55.5 24.5t-5.5 64.5zM179 700h121l15 -368h5l43 173l55 195h125l-200 -700h-122l-14 369h-5l-43 -174l-55 -195h-125zM630 476q-3 -11 7 -11h29q8 0 12 11l40 140q3 11 -9 11h-28
q-8 0 -11 -11zM710 341l-24 -86h-191l25 86h190z" />
    <glyph glyph-name="trademark" unicode="&#x2122;" horiz-adv-x="475" 
d="M240 640l-60 -210h-65l60 210h-50l17 60h165l-17 -60h-50zM560 700l-77 -270h-62l22 80l26 78h-2l-64 -115h-37l1 115h-2l-18 -78l-23 -80h-62l77 270h67l4 -128l75 128h75z" />
    <glyph glyph-name="minus" unicode="&#x2212;" 
d="M395 255h-350l32 110h350z" />
    <glyph glyph-name="approxequal" unicode="&#x2248;" 
d="M87 410q16 56 39.5 81t64.5 25q26 0 41 -8t34 -27l36 -36l8 -8t10.5 -9.5t6.5 -3.5q5 0 7 9l24 83h109l-30 -106q-16 -55 -39.5 -80.5t-64.5 -25.5q-26 0 -41 8t-34 27l-36 36q-22 22 -24 22q-6 0 -8 -8l-24 -85h-109zM18 170q16 56 39.5 81t64.5 25q26 0 41 -8t34 -27
l36 -36l8 -8t10.5 -9.5t6.5 -3.5q5 0 7 9l24 83h109l-30 -106q-16 -55 -39.5 -80.5t-64.5 -25.5q-26 0 -41 8t-34 27l-36 36q-22 22 -24 22q-6 0 -8 -8l-24 -85h-110z" />
    <glyph glyph-name="notequal" unicode="&#x2260;" 
d="M13 70l59 90h-54l31 110h95l53 80h-125l32 110h165l53 80h123l-53 -80h62l-32 -110h-102l-53 -80h132l-31 -110h-173l-59 -90h-123z" />
    <glyph glyph-name="lessequal" unicode="&#x2264;" 
d="M439 428l-190 -68l152 -67l-32 -112l-292 134l30 107l369 134zM18 140h340l-32 -110h-340z" />
    <glyph glyph-name="greaterequal" unicode="&#x2265;" 
d="M437 421l-30 -107l-369 -134l37 128l190 68l-152 67l33 112zM28 140h340l-32 -110h-341z" />
    <glyph glyph-name="i.loclTRK" horiz-adv-x="220" 
d="M306 705l-34 -120h-133l34 120h133zM262 550l-157 -550h-133l157 550h133z" />
    <glyph glyph-name="a.ss01" horiz-adv-x="440" 
d="M472 550l-157 -550h-99v54q-56 -59 -111 -59h-9q-59 0 -82 45t-3 114l74 257q40 144 156 144h4q64 0 95 -59l33 54h99zM299 407q7 27 -21 27h-33q-21 0 -29 -28l-75 -262q-7 -28 19 -28h34q20 0 30 29z" />
    <glyph glyph-name="zero.osf" 
d="M370 150q-24 -83 -66 -119t-111 -36h-62q-79 0 -108 49t-8 123l66 233q24 83 66.5 119t111.5 36h62q78 0 107 -49t8 -123zM306 395q10 37 -27 37h-26q-17 0 -25.5 -9.5t-14.5 -29.5l-68 -238q-10 -37 27 -37h26q17 0 25.5 9.5t14.5 29.5z" />
    <glyph glyph-name="one.osf" horiz-adv-x="298" 
d="M161 0h-134l122 426h-84l35 124h218z" />
    <glyph glyph-name="two.osf" 
d="M-27 0l17 61q28 98 82 134l208 143q21 15 29 42l5 17q10 37 -27 37h-29q-17 0 -25.5 -9.5t-14.5 -29.5l-16 -56h-132l17 61q24 83 66.5 119t111.5 36h58q79 0 108.5 -46t9.5 -116l-4 -15q-22 -78 -91 -124l-187 -125h206l-37 -129h-355z" />
    <glyph glyph-name="three.osf" horiz-adv-x="430" 
d="M302 555q78 0 107.5 -49t8.5 -123l-21 -80q-12 -43 -31 -67t-50 -38q44 -37 25 -105l-27 -93q-24 -83 -66 -119t-111 -36h-55q-79 0 -108 49t-8 123l22 78h126l-27 -92q-10 -37 27 -37h29q17 0 25.5 9.5t14.5 29.5l27 95q10 37 -27 37h-56l37 127h59q17 0 25.5 9.5
t14.5 29.5l27 94q10 37 -27 37h-24q-17 0 -25.5 -9.5t-14.5 -29.5l-20 -74h-126l22 79q24 83 66 119t111 36h50z" />
    <glyph glyph-name="four.osf" horiz-adv-x="432" 
d="M309 100h66l-34 -120h-66l-38 -130h-125l37 130h-218l32 112l326 458h82l-2 -3l3 3h65zM183 100l34 119l42 121h-5l-158 -240h87z" />
    <glyph glyph-name="five.osf" horiz-adv-x="431" 
d="M216 421l-39 -119q51 42 98 42h13q55 0 80 -40.5t6 -105.5l-56 -198q-24 -83 -66 -119t-111 -36h-58q-79 0 -108 49t-8 123l23 83h131l-28 -97q-10 -38 26 -38h26q17 0 25.5 9.5t14.5 30.5l54 187q10 37 -27 37h-21q-11 0 -19.5 -5.5t-12.5 -11.5t-12 -22h-127l116 360
h318l-36 -129h-202z" />
    <glyph glyph-name="six.osf" horiz-adv-x="438" 
d="M362 705q79 0 108 -49t8 -123l-10 -37h-125l14 48q10 37 -27 37h-31q-17 0 -25.5 -9.5t-14.5 -29.5l-38 -133q43 38 86 38h23q56 0 79.5 -40.5t4.5 -105.5l-43 -151q-24 -83 -66 -119t-111 -36h-55q-79 0 -108 49t-8 123l109 383q24 83 66 119t111 36h53zM229 337
q-17 0 -25.5 -9.5t-14.5 -29.5l-41 -142q-10 -37 28 -37h24q17 0 25.5 9.5t14.5 29.5l40 142q12 37 -27 37h-24z" />
    <glyph glyph-name="seven.osf" horiz-adv-x="391" 
d="M443 550l-27 -100l-343 -600h-143l341 571h-208l37 129h343z" />
    <glyph glyph-name="eight.osf" 
d="M358 705q79 0 108 -49t8 -123l-22 -78q-22 -83 -78 -106q42 -39 23 -104l-27 -95q-24 -83 -66 -119t-111 -36h-62q-79 0 -108 48.5t-8 123.5l22 78q14 49 33 73t52 36q-38 37 -20 101l27 95q24 84 66 119.5t111 35.5h52zM314 472q22 16 7 38l9 61q-11 16 -33 -1l-32 -46
q-23 -19 -7 -38l-10 -61q7 -10 14 -9.5t20 10.5zM267 257q10 37 -27 37h-26q-17 0 -25.5 -9.5t-14.5 -29.5l-29 -102q-10 -37 27 -37h26q17 0 25.5 9.5t14.5 29.5z" />
    <glyph glyph-name="nine.osf" horiz-adv-x="438" 
d="M300 555q79 0 108 -49t8 -123l-109 -383q-24 -83 -66 -119t-111 -36h-53q-79 0 -108 49t-8 123l10 37h126l-14 -48q-10 -37 26 -37h32q17 0 25.5 9.5t14.5 29.5l38 133q-43 -38 -86 -38h-24q-56 0 -79.5 40.5t-4.5 105.5l43 151q24 83 66 119t111 36h55zM291 394
q10 37 -28 37h-23q-17 0 -25.5 -9.5t-14.5 -29.5l-41 -142q-10 -37 27 -37h24q29 0 41 39z" />
    <glyph glyph-name="zero.tf" 
d="M370 150q-24 -83 -66 -119t-111 -36h-62q-79 0 -108 49t-8 123l109 383q24 83 66 119t111 36h62q79 0 108 -49t8 -123zM349 545q10 37 -27 37h-26q-17 0 -25.5 -9.5t-14.5 -29.5l-111 -388q-10 -37 27 -37h26q17 0 25.5 9.5t14.5 29.5z" />
    <glyph glyph-name="one.tf" 
d="M252 124h110l-35 -124h-350l35 124h106l130 452h-106l35 124h240z" />
    <glyph glyph-name="two.tf" 
d="M7 114q23 78 81 134l225 218q22 22 28 43l11 38q10 37 -27 37h-25q-17 0 -25.5 -9.5t-14.5 -29.5l-20 -70h-130l21 75q24 83 66 119t111 36h56q79 0 108 -49t8 -123l-7 -27q-17 -60 -66 -106l-229 -222q-21 -21 -26 -41l-3 -8h216l-37 -129h-354z" />
    <glyph glyph-name="three.tf" 
d="M345 705q78 0 107.5 -49t8.5 -123l-21 -80q-12 -43 -31 -67t-50 -38q44 -37 25 -105l-27 -93q-24 -83 -66 -119t-111 -36h-55q-79 0 -108 49t-8 123l22 78h126l-27 -92q-10 -37 27 -37h29q17 0 25.5 9.5t14.5 29.5l27 95q10 37 -27 37h-56l37 127h59q17 0 25.5 9.5
t14.5 29.5l27 94q10 37 -27 37h-24q-17 0 -25.5 -9.5t-14.5 -29.5l-20 -74h-126l22 79q24 83 66 119t111 36h50z" />
    <glyph glyph-name="four.tf" 
d="M362 250h66l-34 -120h-66l-38 -130h-125l37 130h-228l32 112l336 458h82l-2 -3l3 3h65zM236 250l34 119l42 121h-5l-168 -240h97z" />
    <glyph glyph-name="five.tf" 
d="M268 571l-39 -119q51 42 98 42h13q55 0 80 -40.5t6 -105.5l-56 -198q-24 -83 -66 -119t-111 -36h-58q-79 0 -108 49t-8 123l24 83h130l-28 -97q-10 -37 26 -37h26q17 0 25.5 9.5t14.5 29.5l54 187q10 37 -27 37h-21q-11 0 -19.5 -5.5t-12.5 -11.5t-12 -22h-127l116 360
h318l-36 -129h-202z" />
    <glyph glyph-name="six.tf" 
d="M360 705q79 0 108 -49t8 -123l-10 -37h-125l14 48q10 37 -27 37h-31q-17 0 -25.5 -9.5t-14.5 -29.5l-38 -133q43 38 86 38h23q56 0 79.5 -40.5t4.5 -105.5l-43 -151q-24 -83 -66 -119t-111 -36h-55q-79 0 -108 49t-8 123l109 383q24 83 66 119t111 36h53zM227 337
q-17 0 -25.5 -9.5t-14.5 -29.5l-41 -142q-10 -37 28 -37h24q17 0 25.5 9.5t14.5 29.5l40 142q12 37 -27 37h-24z" />
    <glyph glyph-name="seven.tf" 
d="M539 700l-28 -100l-366 -600h-147l362 571h-235l36 129h378z" />
    <glyph glyph-name="eight.tf" 
d="M358 705q79 0 108 -49t8 -123l-22 -78q-22 -83 -78 -106q42 -39 23 -104l-27 -95q-24 -83 -66 -119t-111 -36h-62q-79 0 -108 48.5t-8 123.5l22 78q14 49 33 73t52 36q-38 37 -20 101l27 95q24 84 66 119.5t111 35.5h52zM314 472q22 16 7 38l9 61q-11 16 -33 -1l-32 -46
q-23 -19 -7 -38l-10 -61q7 -10 14 -9.5t20 10.5zM267 257q10 37 -27 37h-26q-17 0 -25.5 -9.5t-14.5 -29.5l-29 -102q-10 -37 27 -37h26q17 0 25.5 9.5t14.5 29.5z" />
    <glyph glyph-name="nine.tf" 
d="M357 705q79 0 108 -49t8 -123l-109 -383q-24 -83 -66 -119t-111 -36h-53q-79 0 -108 49t-8 123l11 37h125l-14 -48q-10 -37 26 -37h32q17 0 25.5 9.5t14.5 29.5l38 133q-43 -38 -86 -38h-24q-56 0 -79.5 40.5t-4.5 105.5l43 151q24 83 66 119t111 36h55zM348 544
q10 37 -28 37h-23q-17 0 -25.5 -9.5t-14.5 -29.5l-41 -142q-10 -37 27 -37h24q29 0 41 39z" />
    <glyph glyph-name="zero.tosf" 
d="M370 150q-24 -83 -66 -119t-111 -36h-62q-79 0 -108 49t-8 123l66 233q24 83 66.5 119t111.5 36h62q78 0 107 -49t8 -123zM306 395q10 37 -27 37h-26q-17 0 -25.5 -9.5t-14.5 -29.5l-68 -238q-10 -37 27 -37h26q17 0 25.5 9.5t14.5 29.5z" />
    <glyph glyph-name="one.tosf" 
d="M252 124h110l-35 -124h-350l35 124h106l87 302h-106l35 124h240z" />
    <glyph glyph-name="two.tosf" 
d="M-27 0l17 61q28 98 82 134l208 143q21 15 29 42l5 17q10 37 -27 37h-29q-17 0 -25.5 -9.5t-14.5 -29.5l-16 -56h-132l17 61q24 83 66.5 119t111.5 36h58q79 0 108.5 -46t9.5 -116l-4 -15q-22 -78 -91 -124l-187 -125h206l-37 -129h-355z" />
    <glyph glyph-name="three.tosf" 
d="M302 555q78 0 107.5 -49t8.5 -123l-21 -80q-12 -43 -31 -67t-50 -38q44 -37 25 -105l-27 -93q-24 -83 -66 -119t-111 -36h-55q-79 0 -108 49t-8 123l22 78h126l-27 -92q-10 -37 27 -37h29q17 0 25.5 9.5t14.5 29.5l27 95q10 37 -27 37h-56l37 127h59q17 0 25.5 9.5
t14.5 29.5l27 94q10 37 -27 37h-24q-17 0 -25.5 -9.5t-14.5 -29.5l-20 -74h-126l22 79q24 83 66 119t111 36h50z" />
    <glyph glyph-name="four.tosf" 
d="M319 100h66l-34 -120h-66l-38 -130h-125l37 130h-228l32 112l336 458h82l-2 -3l3 3h65zM193 100l34 119l42 121h-5l-168 -240h97z" />
    <glyph glyph-name="five.tosf" 
d="M225 421l-39 -119q51 42 98 42h13q55 0 80 -40.5t6 -105.5l-56 -198q-24 -83 -66 -119t-111 -36h-58q-79 0 -108 49t-8 123l23 83h131l-28 -97q-10 -38 26 -38h26q17 0 25.5 9.5t14.5 30.5l54 187q10 37 -27 37h-21q-11 0 -19.5 -5.5t-12.5 -11.5t-12 -22h-127l116 360
h318l-36 -129h-202z" />
    <glyph glyph-name="six.tosf" 
d="M339 630q79 0 108 -49t8 -123l-11 -37h-125l14 48q10 37 -26 37h-32q-17 0 -25.5 -9.5t-14.5 -29.5l-38 -133q43 38 86 38h24q56 0 79.5 -40.5t4.5 -105.5l-43 -151q-24 -83 -66 -119t-111 -36h-55q-79 0 -108.5 49t-8.5 123l110 383q24 83 66 119t111 36h53zM206 262
q-29 0 -41 -39l-40 -142q-10 -37 28 -37h23q17 0 25.5 9.5t14.5 29.5l41 142q10 37 -27 37h-24z" />
    <glyph glyph-name="seven.tosf" 
d="M496 550l-28 -100l-366 -600h-147l362 571h-235l36 129h378z" />
    <glyph glyph-name="eight.tosf" 
d="M337 630q79 0 108 -49t8 -123l-22 -78q-13 -46 -31 -70t-47 -36q42 -39 23 -104l-27 -95q-24 -83 -66 -119t-111 -36h-62q-79 0 -108.5 48.5t-8.5 123.5l23 78q13 49 32.5 72.5t52.5 36.5q-38 37 -20 101l27 95q24 84 66 119.5t111 35.5h52zM293 397q22 17 6 38l10 61
q-11 15 -34 -1l-32 -46q-22 -19 -7 -38l-9 -61q10 -17 34 1zM245 182q10 37 -26 37h-26q-29 0 -41 -39l-29 -102q-10 -37 27 -37h26q17 0 25.5 9.5t14.5 29.5z" />
    <glyph glyph-name="nine.tosf" 
d="M317 555q79 0 108 -49t8 -123l-109 -383q-24 -83 -66 -119t-111 -36h-53q-79 0 -108.5 49t-8.5 123l11 37h125l-14 -48q-10 -37 27 -37h31q17 0 25.5 9.5t14.5 29.5l38 133q-43 -38 -86 -38h-23q-56 0 -79.5 40.5t-4.5 105.5l43 151q24 83 66 119t111 36h55zM308 394
q10 37 -28 37h-24q-17 0 -25.5 -9.5t-14.5 -29.5l-40 -142q-12 -37 27 -37h24q17 0 25.5 9.5t14.5 29.5z" />
    <glyph glyph-name="at.case" horiz-adv-x="660" 
d="M136 -5q-79 0 -108 49t-8 123l109 383q24 83 66 119t111 36h262q79 0 108 -49t8 -123l-77 -269q-24 -83 -65.5 -119t-110.5 -36h-93v45q-44 -49 -87 -49h-8q-51 0 -70 36t-2 94l6 22q16 55 43.5 79t76.5 42l81 30q18 7 22 23l12 41q8 24 -17 24h-22q-19 0 -25 -25
l-13 -45h-103l11 41q19 66 53.5 95.5t90.5 29.5h40q62 0 86.5 -38.5t7.5 -99.5l-80 -280h9q27 1 49 25.5t33 64.5l77 269q15 52 0 79.5t-59 27.5h-262q-57 0 -84 -90l-109 -383q-15 -52 0 -79.5t59 -27.5h235l-18 -65h-235zM293 205h26q20 0 26 25l27 94l-55 -24
q-20 -9 -27 -32l-10 -39q-8 -24 13 -24z" />
    <glyph glyph-name="brevecombcy.n" horiz-adv-x="0" 
d="M30 681q-13 -49 -38 -70t-66 -21h-72q-46 0 -63 28.5t-4 72.5l3 14h92l-4 -15q-4 -12 -0.5 -17t15.5 -5h25q17 0 23 23l4 14h92z" />
    <glyph glyph-name="PariMatch" horiz-adv-x="2506" 
d="M255 700h497q58 0 82 -32.5t8 -88.5l-9 -32q-25 -86 -115 -86h-115l-25 -88h-416zM959 700h164v-327h-94v55h-123l-31 -55h-109zM1231 700h178q58 0 82.5 -32t8.5 -89l-9 -29q-18 -65 -70 -81l29 -96h-101l-27 90h-61l-26 -90h-98zM1570 700h98l-93 -327h-98zM732 541
l19 71h-105l-20 -71h106zM1389 541l20 71h-105l-21 -71h106zM1029 507v104h-19l-59 -104h78zM468 327h417l45 -131l111 131h127l-93 -327h-98l54 187l-92 -107h-63l-34 100l-51 -180h-416zM1289 327h164v-327h-94v55h-123l-31 -55h-109zM1500 327h297l-27 -94h-92l-66 -233
h-98l66 233h-107zM1792 240q25 87 115 87h158l-27 -94h-148l-41 -140h149l-27 -93h-123q-58 0 -82.5 32t-8.5 89zM2092 327h98l-33 -117h112l33 117h98l-93 -327h-98l33 117h-112l-33 -117h-98zM1359 134v104h-19l-59 -104h78z" />
    <glyph glyph-name="NULL" horiz-adv-x="0" 
 />
    </font>
</defs>
</svg>
