<?xml version="1.0" standalone="no"?>
<!DOCTYPE svg PUBLIC "-//W3C//DTD SVG 1.1//EN" "http://www.w3.org/Graphics/SVG/1.1/DTD/svg11.dtd" >
<svg xmlns="http://www.w3.org/2000/svg" xmlns:xlink="http://www.w3.org/1999/xlink" version="1.1">
<metadata>
Created by FontForge 20170731 at Tue Sep 25 09:21:45 2018
 By Aleksey,,,
Dmitry Rastvortsev exclusively for Pari-Match N.V. parimatch.com
</metadata>
<defs>
<font id="Pari-Match-Bold" horiz-adv-x="460" >
  <font-face 
    font-family="Pari-Match Bold"
    font-weight="700"
    font-style="italic"
    font-stretch="normal"
    units-per-em="1000"
    panose-1="0 0 5 0 0 0 0 0 0 0"
    ascent="800"
    descent="-200"
    x-height="550"
    cap-height="700"
    bbox="-368 -155 2400 897"
    underline-thickness="50"
    underline-position="-200"
    slope="-16"
    unicode-range="U+0020-2265"
  />
<missing-glyph horiz-adv-x="430" 
d="M353 -155h-273v860h273v-860zM144 647v-28h56v-32h-56v-28h142v28h-56v32h56v28h-142zM144 536v-89h142v29h-56v60h-86zM200 476h-28v31h28v-31zM144 424v-29h56v-31h-56v-29h86v60h56v29h-142zM258 372v-57h-114v-29h142v86h-28zM200 267v-48h30v20h28v-41h-86v69h-28
v-97h142v97h-86zM144 118v-97h142v97h-142zM258 50h-86v40h86v-40zM144 2v-29h60l-60 -40v-29h142v29h-87l60 40h27v29h-142z" />
    <glyph glyph-name="uni04070407.liga" unicode="&#x407;&#x407;" horiz-adv-x="520" 
d="M249 855l-34 -120h-132l35 120h131zM411 855l-34 -120h-132l35 120h131zM573 855l-34 -120h-132l35 120h131zM735 855l-34 -120h-132l35 120h131zM327 700l-200 -700h-150l200 700h150zM587 700l-200 -700h-150l200 700h150z" />
    <glyph glyph-name="uni04570457.liga" unicode="&#x457;&#x457;" horiz-adv-x="440" 
d="M180 705l-34 -120h-132l35 120h131zM342 705l-34 -120h-132l35 120h131zM501 705l-34 -120h-132l35 120h131zM663 705l-34 -120h-132l35 120h131zM274 550l-157 -550h-145l157 550h145zM494 550l-157 -550h-145l157 550h145z" />
    <glyph glyph-name=".notdef" horiz-adv-x="430" 
d="M353 -155h-273v860h273v-860zM144 647v-28h56v-32h-56v-28h142v28h-56v32h56v28h-142zM144 536v-89h142v29h-56v60h-86zM200 476h-28v31h28v-31zM144 424v-29h56v-31h-56v-29h86v60h56v29h-142zM258 372v-57h-114v-29h142v86h-28zM200 267v-48h30v20h28v-41h-86v69h-28
v-97h142v97h-86zM144 118v-97h142v97h-142zM258 50h-86v40h86v-40zM144 2v-29h60l-60 -40v-29h142v29h-87l60 40h27v29h-142z" />
    <glyph glyph-name=".null" horiz-adv-x="0" 
 />
    <glyph glyph-name="nonmarkingreturn" horiz-adv-x="333" 
 />
    <glyph glyph-name="space" unicode=" " horiz-adv-x="140" 
 />
    <glyph glyph-name="exclam" unicode="!" horiz-adv-x="290" 
d="M364 700l-184 -480h-115l137 480h162zM147 0h-155l48 167h155z" />
    <glyph glyph-name="quotedbl" unicode="&#x22;" horiz-adv-x="440" 
d="M243 448h-135l73 257h135zM433 448h-135l73 257h135z" />
    <glyph glyph-name="numbersign" unicode="#" 
d="M426 434l-48 -168h55l-36 -126h-55l-40 -140h-120l40 140h-60l-40 -140h-120l40 140h-55l36 126h55l48 168h-55l36 126h55l40 140h120l-40 -140h60l40 140h120l-40 -140h55l-36 -126h-55zM306 434h-60l-48 -168h60z" />
    <glyph glyph-name="dollar" unicode="$" horiz-adv-x="440" 
d="M386 705q74 -3 100.5 -51.5t6.5 -120.5l-25 -89h-147l30 106q8 27 -18 27h-37q-20 0 -28 -27l-9 -33q-9 -26 -7.5 -39t17.5 -33l94 -117q58 -74 35 -154l-7 -24q-24 -83 -66 -119t-111 -36h-17l-19 -65h-84l19 65q-73 4 -99.5 52t-6.5 120l25 90h143l-30 -108
q-7 -25 19 -25h51q21 0 28 27l10 34q13 44 -9 70l-96 116q-59 74 -38 146l9 33q24 85 65.5 120t111.5 35h6l18 65h84z" />
    <glyph glyph-name="percent" unicode="%" horiz-adv-x="566" 
d="M127 613q27 92 111 92h47q45 0 65.5 -28t7.5 -73l-32 -111q-27 -92 -110 -92h-49q-44 0 -64.5 28t-7.5 73zM641 700l-576 -700h-96l576 700h96zM185 494q-4 -12 10 -12h27q7 0 9 2t4 11l34 116q3 13 -11 13h-26q-10 0 -14 -14zM284 207q27 92 110 92h48q45 0 65.5 -28
t7.5 -73l-32 -111q-27 -92 -111 -92h-48q-45 0 -65 28t-7 73zM341 88q-2 -7 0 -9.5t11 -2.5h27q6 0 8 2t4 11l34 116q3 13 -10 13h-26q-11 0 -15 -14z" />
    <glyph glyph-name="ampersand" unicode="&#x26;" horiz-adv-x="447" 
d="M92 -5q-67 0 -97.5 50.5t-8.5 124.5l40 142q37 128 142 143l-23 127l34 118h334l-40 -140h-183l28 -165l34 62h132l-136 -242l36 -215h-137l-8 56q-54 -61 -119 -61h-28zM136 133h8q15 0 31 22l37 59l-20 113h-7q-8 0 -11.5 -3.5t-7.5 -14.5l-45 -159q-3 -10 0 -13.5
t15 -3.5z" />
    <glyph glyph-name="quotesingle" unicode="'" horiz-adv-x="250" 
d="M243 448h-135l73 257h135z" />
    <glyph glyph-name="parenleft" unicode="(" horiz-adv-x="300" 
d="M332 690q-23 0 -31 -30l-194 -676q-7 -29 21 -29h42l-31 -110h-51q-63 0 -90 40t-9 106l194 676q20 69 56.5 101t96.5 32h75l-31 -110h-48z" />
    <glyph glyph-name="parenright" unicode=")" horiz-adv-x="300" 
d="M-4 -45q23 0 31 30l194 676q7 29 -21 29h-42l31 110h51q63 0 90 -40t9 -106l-194 -676q-20 -69 -56.5 -101t-96.5 -32h-75l31 110h48z" />
    <glyph glyph-name="asterisk" unicode="*" horiz-adv-x="303" 
d="M101 555l76 20l-58 35l53 67l49 -47l13 70h80l-30 -74l69 34l21 -69l-77 -20l59 -34l-53 -66l-51 45l-12 -71h-79l29 75l-68 -34z" />
    <glyph glyph-name="plus" unicode="+" 
d="M403 250h-118l-34 -120h-124l34 120h-118l35 120h118l34 120h124l-34 -120h118z" />
    <glyph glyph-name="comma" unicode="," horiz-adv-x="230" 
d="M58 -90h-112l74 257h145z" />
    <glyph glyph-name="hyphen" unicode="-" horiz-adv-x="320" 
d="M272 245h-240l37 130h240z" />
    <glyph glyph-name="period" unicode="." horiz-adv-x="255" 
d="M127 0h-155l48 167h155z" />
    <glyph glyph-name="slash" unicode="/" horiz-adv-x="280" 
d="M-109 -155l412 955h134l-412 -955h-134z" />
    <glyph glyph-name="zero" unicode="0" 
d="M390 150q-24 -83 -66 -119t-111 -36h-72q-79 0 -108 49t-8 123l109 383q24 83 66 119t111 36h72q79 0 108 -49t8 -123zM356 538q10 37 -27 37h-14q-17 0 -25.5 -9.5t-14.5 -29.5l-107 -374q-10 -37 27 -37h14q17 0 25.5 9.5t14.5 29.5z" />
    <glyph glyph-name="one" unicode="1" horiz-adv-x="308" 
d="M177 0h-145l161 562h-84l39 138h229z" />
    <glyph glyph-name="two" unicode="2" horiz-adv-x="421" 
d="M-4 116q22 76 81 134l226 218q20 20 27 43l9 31q10 37 -27 37h-17q-17 0 -25.5 -9.5t-14.5 -29.5l-23 -80h-138l26 90q24 83 66 119t111 36h66q79 0 108 -49t8 -123l-8 -30q-17 -58 -66 -106l-223 -217q-20 -20 -25 -38l-2 -4h211l-39 -138h-364z" />
    <glyph glyph-name="three" unicode="3" horiz-adv-x="440" 
d="M360 705q78 0 107.5 -49t8.5 -123l-21 -79q-20 -74 -83 -104q47 -35 27 -106l-27 -94q-24 -83 -66 -119t-111 -36h-65q-79 0 -108 49t-8 123l22 78h132l-25 -87q-10 -37 27 -37h22q17 0 25.5 9.5t14.5 29.5l24 85q10 37 -26 37h-51l39 138h54q17 0 25.5 9.5t14.5 29.5
l24 83q10 37 -27 37h-17q-17 0 -25.5 -9.5t-14.5 -29.5l-19 -69h-132l22 79q24 83 66 119t111 36h60z" />
    <glyph glyph-name="four" unicode="4" horiz-adv-x="442" 
d="M370 252h66l-36 -127h-66l-36 -125h-134l36 125h-219l34 121l325 454h87l-2 -3l3 3h70zM236 252l33 117l41 119h-5l-149 -236h80z" />
    <glyph glyph-name="five" unicode="5" horiz-adv-x="441" 
d="M271 562l-35 -106q52 38 97 38h13q55 0 80 -40.5t6 -105.5l-56 -198q-24 -83 -66 -119t-111 -36h-68q-79 0 -108 49t-8 123l25 88h141l-28 -98q-10 -37 26 -37h14q17 0 25.5 9.5t14.5 29.5l50 173q10 37 -27 37h-9q-11 0 -19.5 -5.5t-12.5 -11.5t-12 -22h-138l119 370
h328l-39 -138h-202z" />
    <glyph glyph-name="six" unicode="6" horiz-adv-x="448" 
d="M377 705q79 0 108 -49t8 -123l-12 -42h-130l13 45q10 37 -26 37h-29q-17 0 -25.5 -9.5t-14.5 -29.5l-36 -125q43 38 86 38h26q56 0 79.5 -40.5t4.5 -105.5l-43 -151q-24 -83 -66 -119t-111 -36h-65q-79 0 -108 49t-8 123l109 383q24 83 66 119t111 36h63zM240 331
q-29 0 -41 -39l-36 -128q-5 -19 1.5 -28t27.5 -9h13q17 0 25.5 9.5t14.5 29.5l37 128q10 37 -27 37h-15z" />
    <glyph glyph-name="seven" unicode="7" horiz-adv-x="401" 
d="M500 700l-30 -110l-338 -590h-157l337 562h-208l39 138h357z" />
    <glyph glyph-name="eight" unicode="8" 
d="M368 705q79 0 108 -49t8 -123l-22 -78q-13 -46 -31 -70t-47 -36q42 -39 23 -104l-27 -95q-24 -83 -66 -119t-111 -36h-72q-79 0 -108 48.5t-8 123.5l22 78q14 49 33 73t52 36q-38 37 -20 101l27 95q24 84 66 119.5t111 35.5h62zM348 542q10 37 -27 37h-16
q-17 0 -25.5 -9.5t-14.5 -29.5l-26 -92q-10 -37 26 -37h16q29 0 41 39zM264 252q10 37 -26 37h-14q-29 0 -41 -39l-26 -92q-10 -37 27 -37h14q17 0 25.5 9.5t14.5 29.5z" />
    <glyph glyph-name="nine" unicode="9" horiz-adv-x="448" 
d="M348 705q79 0 108 -49t8 -123l-109 -383q-24 -83 -66 -119t-111 -36h-63q-79 0 -108 49t-8 123l12 42h130l-13 -45q-10 -37 26 -37h29q17 0 25.5 9.5t14.5 29.5l36 125q-43 -38 -86 -38h-26q-56 0 -79.5 40.5t-4.5 105.5l43 151q24 83 66 119t111 36h65zM329 536
q5 19 -1.5 28t-27.5 9h-13q-17 0 -25.5 -9.5t-14.5 -29.5l-37 -128q-10 -37 27 -37h15q29 0 41 39z" />
    <glyph glyph-name="colon" unicode=":" horiz-adv-x="230" 
d="M236 383h-155l48 167h155zM127 0h-155l48 167h155z" />
    <glyph glyph-name="semicolon" unicode=";" horiz-adv-x="230" 
d="M236 383h-155l48 167h155zM58 -90h-112l74 257h145z" />
    <glyph glyph-name="less" unicode="&#x3c;" 
d="M427 367l-180 -64l144 -64l-36 -123l-300 138l32 114l380 138z" />
    <glyph glyph-name="equal" unicode="=" 
d="M452 350h-360l34 120h360zM395 150h-360l34 120h360z" />
    <glyph glyph-name="greater" unicode="&#x3e;" 
d="M427 368l-32 -114l-380 -138l40 139l180 64l-144 64l36 123z" />
    <glyph glyph-name="question" unicode="?" horiz-adv-x="434" 
d="M134 247q10 38 27 65.5t47 60.5l76 82q26 26 35 56l9 31q10 37 -27 37h-7q-17 0 -25.5 -9.5t-14.5 -29.5l-23 -80h-138l26 90q24 83 66 119t111 36h56q79 0 108 -49t8 -123l-8 -30q-14 -49 -63 -101l-86 -91l-7 -7t-7 -7.5t-7 -8t-7.5 -10t-6.5 -11t-7 -14t-6 -16.5
l-6 -17h-131zM211 0h-155l48 167h155z" />
    <glyph glyph-name="at" unicode="@" horiz-adv-x="670" 
d="M113 -85q-79 0 -108 49t-8 123l109 383q24 83 66 119t111 36h272q79 0 108 -49t8 -123l-77 -269q-24 -83 -65.5 -119t-110.5 -36h-93v41q-48 -45 -88 -45h-8q-53 0 -73.5 37.5t-4.5 94.5l6 22q16 53 45 77t80 44l81 30q17 7 21 22l10 32q6 22 -18 22h-17q-18 0 -24 -24
l-12 -41h-113l10 36q21 73 57.5 104t96.5 31h39q68 0 93.5 -42.5t7.5 -107.5l-77 -268h2q26 1 47.5 26t32.5 64l77 269q15 52 0 79.5t-59 27.5h-272q-57 0 -84 -90l-109 -383q-15 -52 0 -79.5t59 -27.5h235l-18 -65h-235zM281 132h27q18 0 25 23l24 86l-52 -22
q-17 -8 -23 -26l-10 -38q-8 -23 9 -23z" />
    <glyph glyph-name="A" unicode="A" horiz-adv-x="456" 
d="M476 700l-123 -700h-152l26 122h-88l-42 -122h-150l273 700h256zM256 258l64 304h-28l-105 -304h69z" />
    <glyph glyph-name="B" unicode="B" horiz-adv-x="481" 
d="M392 700q79 0 108 -49t8 -123l-12 -41q-26 -96 -81 -135q36 -44 13 -124l-21 -73q-24 -83 -66 -119t-111 -36h-248l200 700h210zM290 563l-42 -146h66q20 0 28 27l26 92q8 27 -18 27h-60zM288 256q8 27 -18 27h-60l-43 -150h66q21 0 28 27z" />
    <glyph glyph-name="C" unicode="C" horiz-adv-x="483" 
d="M136 -5q-79 0 -108 49t-8 123l109 383q24 83 66 119t111 36h90q79 0 108 -49t8 -123l-38 -135h-147l41 144q8 27 -18 27h-45q-21 0 -28 -27l-110 -386q-7 -25 19 -25h44q20 0 28 27l38 133h147l-40 -141q-24 -84 -64.5 -119.5t-109.5 -35.5h-93z" />
    <glyph glyph-name="D" unicode="D" horiz-adv-x="500" 
d="M407 700q79 0 108 -49t8 -123l-107 -373q-24 -83 -66 -119t-111 -36h-262l200 700h230zM374 533q8 27 -18 27h-69l-120 -420h75q20 0 28 27z" />
    <glyph glyph-name="E" unicode="E" horiz-adv-x="401" 
d="M285 560l-40 -140h142l-40 -140h-142l-40 -140h153l-40 -140h-301l200 700h301l-40 -140h-153z" />
    <glyph glyph-name="F" unicode="F" horiz-adv-x="386" 
d="M287 560l-40 -140h125l-40 -140h-125l-80 -280h-150l200 700h306l-40 -140h-156z" />
    <glyph glyph-name="G" unicode="G" horiz-adv-x="499" 
d="M396 705q79 0 108 -49t8 -123l-27 -95h-147l30 104q8 27 -18 27h-45q-21 0 -28 -27l-113 -396q-7 -25 20 -25h55q11 0 17 6.5t10 20.5l25 87h-60l39 137h202l-106 -372h-100l-2 44q-47 -49 -110 -49h-18q-79 0 -108 49t-8 123l109 383q24 83 66 119t111 36h90z" />
    <glyph glyph-name="H" unicode="H" horiz-adv-x="506" 
d="M573 700l-200 -700h-150l80 280h-96l-80 -280h-150l200 700h150l-80 -280h96l80 280h150z" />
    <glyph glyph-name="I" unicode="I" horiz-adv-x="260" 
d="M327 700l-200 -700h-150l200 700h150z" />
    <glyph glyph-name="J" unicode="J" horiz-adv-x="445" 
d="M106 -5q-75 0 -106 49.5t-10 122.5l41 143h141l-40 -138q-10 -37 31 -37h9q17 0 25.5 9.5t14.5 29.5l150 526h150l-157 -550q-24 -83 -66 -119t-111 -36h-72z" />
    <glyph glyph-name="K" unicode="K" horiz-adv-x="480" 
d="M376 349l5 -349h-147v280h-27l-80 -280h-150l200 700h150l-80 -280h19l156 280h150z" />
    <glyph glyph-name="L" unicode="L" horiz-adv-x="386" 
d="M-23 0l200 700h150l-160 -560h161l-40 -140h-311z" />
    <glyph glyph-name="M" unicode="M" horiz-adv-x="642" 
d="M704 700l-200 -700h-145l54 188l54 167h-5l-144 -239h-84l-8 239h-5l-40 -167l-54 -188h-145l200 700h143l21 -324l197 324h161z" />
    <glyph glyph-name="N" unicode="N" horiz-adv-x="520" 
d="M182 700h140l22 -340h5l39 160l51 180h143l-200 -700h-140l-22 340h-5l-39 -160l-51 -180h-143z" />
    <glyph glyph-name="O" unicode="O" horiz-adv-x="496" 
d="M411 150q-24 -83 -66 -119t-111 -36h-98q-79 0 -108 49t-8 123l109 383q24 83 66 119t111 36h98q79 0 108 -49t8 -123zM373 542q7 27 -18 27h-50q-21 0 -28 -27l-110 -386q-7 -25 19 -25h49q21 0 28 27z" />
    <glyph glyph-name="P" unicode="P" horiz-adv-x="480" 
d="M397 700q79 0 108 -49t8 -123l-32 -113q-24 -83 -66.5 -119t-111.5 -36h-102l-74 -260h-150l200 700h220zM365 536q7 27 -18 27h-59l-49 -170h65q20 0 28 27z" />
    <glyph glyph-name="Q" unicode="Q" horiz-adv-x="496" 
d="M404 705q79 0 108 -49t8 -123l-109 -383q-21 -75 -57.5 -111.5t-93.5 -42.5v-96h-139v96q-70 4 -95.5 52t-5.5 119l109 383q24 83 66 119t111 36h98zM373 542q7 27 -18 27h-50q-21 0 -28 -27l-110 -386q-7 -25 19 -25h49q21 0 28 27z" />
    <glyph glyph-name="R" unicode="R" horiz-adv-x="479" 
d="M-23 0l200 700h215q79 0 108 -49t8 -123l-29 -101q-32 -113 -102 -142l4 -285h-147v272h-29l-78 -272h-150zM241 399h60q21 0 28 27l31 110q8 27 -18 27h-54z" />
    <glyph glyph-name="S" unicode="S" horiz-adv-x="423" 
d="M104 -5q-79 0 -108 49t-8 123l25 90h143l-30 -108q-7 -25 19 -25h51q21 0 28 27l10 34q13 44 -9 70l-96 116q-59 74 -38 146l9 33q24 85 65.5 120t111.5 35h81q79 0 108 -49t8 -123l-25 -89h-147l30 106q8 27 -18 27h-37q-20 0 -28 -27l-9 -33q-9 -26 -7.5 -39t17.5 -33
l94 -117q58 -74 35 -154l-7 -24q-24 -83 -66 -119t-111 -36h-91z" />
    <glyph glyph-name="T" unicode="T" horiz-adv-x="430" 
d="M492 560h-120l-160 -560h-150l160 560h-120l40 140h390z" />
    <glyph glyph-name="U" unicode="U" horiz-adv-x="506" 
d="M416 150q-24 -83 -66 -119t-111 -36h-98q-79 0 -108 49t-8 123l152 533h150l-152 -532q-10 -37 26 -37h30q29 0 41 39l151 530h150z" />
    <glyph glyph-name="V" unicode="V" horiz-adv-x="442" 
d="M261 0h-239l108 700h150l-57 -351l-49 -217h8l215 568h159z" />
    <glyph glyph-name="W" unicode="W" horiz-adv-x="650" 
d="M277 700l-36 -251l-35 -179h4l153 351h108l-39 -351h4l72 186l102 244h152l-304 -700h-159l30 290h-4l-132 -290h-159l98 700h145z" />
    <glyph glyph-name="X" unicode="X" horiz-adv-x="482" 
d="M353 353l36 -353h-148l-12 204h-4l-120 -204h-168l243 369l-37 331h144l14 -202h4l115 202h159z" />
    <glyph glyph-name="Y" unicode="Y" horiz-adv-x="462" 
d="M298 242l-69 -242h-150l69 240l-16 460h154l-7 -156l-13 -134h5l139 290h164z" />
    <glyph glyph-name="Z" unicode="Z" horiz-adv-x="440" 
d="M483 584l-320 -444h204l-40 -140h-375l33 116l321 444h-186l40 140h356z" />
    <glyph glyph-name="bracketleft" unicode="[" horiz-adv-x="300" 
d="M309 690l-210 -735h60l-31 -110h-180l272 955h180l-31 -110h-60z" />
    <glyph glyph-name="backslash" unicode="\" horiz-adv-x="280" 
d="M166 800h129l-132 -955h-129z" />
    <glyph glyph-name="bracketright" unicode="]" horiz-adv-x="300" 
d="M108 -155h-180l31 110h60l210 735h-60l31 110h180z" />
    <glyph glyph-name="asciicircum" unicode="^" 
d="M324 365l-17 162l-109 -162h-137l235 340h114l41 -340h-127z" />
    <glyph glyph-name="underscore" unicode="_" horiz-adv-x="340" 
d="M218 -155h-340l37 130h340z" />
    <glyph glyph-name="grave" unicode="`" horiz-adv-x="420" 
d="M-31 705l58 -120h-120l-81 120h143z" />
    <glyph glyph-name="a" unicode="a" horiz-adv-x="421" 
d="M81 -5q-61 0 -85 43.5t-5 108.5l7 25q18 61 51.5 89t92.5 50l93 35q18 7 24 25l11 37q6 25 -20 25h-20q-20 0 -28 -27l-13 -47h-130l11 41q24 83 66.5 119t111.5 36h44q78 0 107 -49t8 -123l-109 -383h-107v47q-55 -52 -101 -52h-9zM140 118h32q20 0 27 27l28 98l-60 -25
q-19 -8 -25 -30l-13 -43q-7 -27 11 -27z" />
    <glyph glyph-name="b" unicode="b" 
d="M361 555q63 0 85.5 -50.5t-0.5 -121.5l-66 -233q-44 -155 -168 -155h-3q-65 0 -98 55l-29 -50h-110l201 705h145l-57 -201q49 51 94 51h6zM305 396q7 27 -17 27h-30q-20 0 -28 -27l-70 -244q-6 -25 20 -25h28q20 0 28 27z" />
    <glyph glyph-name="c" unicode="c" horiz-adv-x="455" 
d="M375 150q-24 -83 -66 -119t-111 -36h-67q-79 0 -108 49t-8 123l66 233q24 83 66.5 119t111.5 36h67q78 0 107 -49t8 -123l-20 -73h-145l24 86q8 27 -17 27h-30q-20 0 -28 -27l-70 -244q-6 -25 20 -25h28q21 0 28 27l22 76h145z" />
    <glyph glyph-name="d" unicode="d" 
d="M533 705l-201 -705h-110v47q-55 -52 -108 -52h-6q-66 0 -90 49t-3 123l66 233q45 155 169 155h3q51 0 80 -45l55 195h145zM301 398q7 25 -20 25h-28q-21 0 -28 -27l-69 -242q-8 -27 17 -27h30q20 0 28 27z" />
    <glyph glyph-name="e" unicode="e" horiz-adv-x="439" 
d="M310 555q78 0 107 -49t8 -123l-42 -150h-207l-24 -83q-7 -25 20 -25h22q20 0 27 27l10 34h138l-10 -36q-24 -83 -66 -119t-111 -36h-51q-79 0 -108 49t-8 123l66 233q24 83 66.5 119t111.5 36h51zM206 337h69l17 61q8 27 -18 27h-24q-20 0 -27 -27z" />
    <glyph glyph-name="f" unicode="f" horiz-adv-x="335" 
d="M2 0l119 418h-70l38 132h70l1 3q24 82 65.5 117t110.5 35h112l-34 -121h-80q-20 0 -28 -27l-2 -7h100l-38 -132h-100l-119 -418h-145z" />
    <glyph glyph-name="g" unicode="g" 
d="M489 550l-157 -550q-24 -83 -66 -119t-111 -36h-67q-79 0 -108 49t-8 123l2 7h145l-6 -22q-7 -25 19 -25h28q21 0 28 27l26 91q-50 -50 -93 -50h-6q-63 0 -85 49t-1 123l52 183q45 155 169 155h3q64 0 97 -55l29 50h110zM301 398q7 25 -20 25h-28q-21 0 -28 -27l-55 -192
q-8 -27 18 -27h30q20 0 27 27z" />
    <glyph glyph-name="h" unicode="h" 
d="M361 555q63 0 85.5 -50.5t-0.5 -121.5l-109 -383h-145l113 396q7 27 -17 27h-30q-20 0 -28 -27l-113 -396h-145l201 705h145l-57 -201q49 51 94 51h6z" />
    <glyph glyph-name="i" unicode="i" horiz-adv-x="245" 
d="M319 705l-34 -120h-146l34 120h146zM274 550l-157 -550h-145l157 550h145z" />
    <glyph glyph-name="j" unicode="j" horiz-adv-x="248" 
d="M319 705l-34 -120h-146l34 120h146zM277 550l-157 -550q-24 -83 -66 -119t-111 -36h-78l36 127h46q21 0 28 27l157 551h145z" />
    <glyph glyph-name="k" unicode="k" horiz-adv-x="432" 
d="M333 271l7 -271h-145l1 208h-20l-59 -208h-145l201 705h145l-103 -363h16l123 208h147z" />
    <glyph glyph-name="l" unicode="l" horiz-adv-x="245" 
d="M318 705l-201 -705h-145l201 705h145z" />
    <glyph glyph-name="m" unicode="m" horiz-adv-x="666" 
d="M564 555q65 0 87.5 -49t0.5 -123l-109 -383h-145l113 396q7 27 -17 27h-23q-20 0 -28 -27l-113 -396h-145l113 396q8 27 -17 27h-23q-20 0 -28 -27l-113 -396h-145l157 550h110v-47q57 52 106 52h6q63 0 81 -59q64 59 126 59h6z" />
    <glyph glyph-name="n" unicode="n" 
d="M354 555q66 0 90 -49t2 -123l-109 -383h-145l113 396q7 27 -17 27h-30q-20 0 -28 -27l-113 -396h-145l157 550h110v-47q59 52 109 52h6z" />
    <glyph glyph-name="o" unicode="o" horiz-adv-x="455" 
d="M131 -5q-79 0 -108 49t-8 123l66 233q24 83 66.5 119t111.5 36h67q78 0 107 -49t8 -123l-66 -233q-24 -83 -66 -119t-111 -36h-67zM203 127q21 0 28 27l69 242q8 27 -17 27h-30q-20 0 -28 -27l-70 -244q-6 -25 20 -25h28z" />
    <glyph glyph-name="p" unicode="p" 
d="M354 555q66 0 90 -49t2 -123l-66 -233q-44 -155 -168 -155h-3q-53 0 -80 46l-56 -196h-145l201 705h110v-47q59 52 109 52h6zM305 396q7 27 -17 27h-30q-20 0 -28 -27l-70 -244q-6 -25 20 -25h28q20 0 28 27z" />
    <glyph glyph-name="q" unicode="q" 
d="M489 550l-201 -705h-145l57 200q-50 -50 -93 -50h-6q-63 0 -85 49t-1 123l66 233q45 155 169 155h3q64 0 97 -55l29 50h110zM301 398q7 25 -20 25h-28q-21 0 -28 -27l-69 -242q-8 -27 17 -27h30q20 0 28 27z" />
    <glyph glyph-name="r" unicode="r" horiz-adv-x="412" 
d="M350 555q57 0 77.5 -43t1.5 -109l-32 -113h-132l30 106q7 27 -17 27h-20q-20 0 -28 -27l-113 -396h-145l157 550h110v-45q52 50 105 50h6z" />
    <glyph glyph-name="s" unicode="s" horiz-adv-x="392" 
d="M117 -5q-79 0 -108 49t-8 123l11 41h127l-18 -64q-7 -27 17 -27h24q21 0 28 27l3 10q5 15 3.5 24.5t-12.5 21.5l-78 86q-57 63 -37 130l3 11q37 128 165 128h41q78 0 104 -48.5t4 -123.5l-9 -33h-126l16 56q7 27 -17 27h-20q-20 0 -28 -27l-3 -12q-7 -20 17 -45l74 -81
q25 -27 33.5 -65.5t-0.5 -64.5l-5 -20q-36 -123 -159 -123h-42z" />
    <glyph glyph-name="t" unicode="t" horiz-adv-x="333" 
d="M195 157q-7 -25 20 -25h63l-38 -132h-70q-79 0 -108 49t-8 123l70 246h-73l38 132h80l56 95h109l-27 -95h90l-38 -132h-90z" />
    <glyph glyph-name="u" unicode="u" 
d="M489 550l-157 -550h-110v47q-55 -52 -108 -52h-6q-66 0 -90 49t-3 123l109 383h145l-113 -396q-8 -27 17 -27h30q20 0 28 27l113 396h145z" />
    <glyph glyph-name="v" unicode="v" horiz-adv-x="418" 
d="M236 0h-212l70 550h138l-35 -229l-34 -189h4l170 418h145z" />
    <glyph glyph-name="w" unicode="w" horiz-adv-x="600" 
d="M234 550l-39 -229l-22 -106h5l131 273h103l-21 -273h5l34 99l92 236h142l-239 -550h-145l8 211h-5l-107 -211h-155l73 550h140z" />
    <glyph glyph-name="x" unicode="x" horiz-adv-x="435" 
d="M299 274l43 -274h-138l-16 146h-5l-89 -146h-157l208 297l-43 253h137l16 -142h4l86 142h146z" />
    <glyph glyph-name="y" unicode="y" horiz-adv-x="419" 
d="M485 550l-250 -562q-28 -63 -75.5 -103t-101.5 -40h-103l36 128h45q22 0 30 16l30 561h144l-31 -243l-22 -147h4l148 390h146z" />
    <glyph glyph-name="z" unicode="z" horiz-adv-x="379" 
d="M397 436l-248 -304h170l-38 -132h-338l31 113l250 305h-155l38 132h322z" />
    <glyph glyph-name="braceleft" unicode="{" horiz-adv-x="300" 
d="M413 800l-31 -110h-31q-23 0 -31 -30l-64 -224q-21 -73 -79 -110q36 -41 19 -97l-70 -245q-7 -29 21 -29h25l-31 -110h-34q-63 0 -90 40t-9 106l73 255q9 29 -21 29h-18l31 110h26q22 0 31 30l72 252q20 69 56.5 101t96.5 32h58z" />
    <glyph glyph-name="bar" unicode="|" horiz-adv-x="300" 
d="M217 800v-955h-105v955h105z" />
    <glyph glyph-name="braceright" unicode="}" horiz-adv-x="300" 
d="M251 414q-7 -29 22 -29h18l-31 -110h-26q-23 0 -31 -30l-76 -267q-20 -69 -57 -101t-97 -32h-58l31 110h31q23 0 32 30l68 239q21 74 78 110q-34 41 -19 97l66 230q9 29 -21 29h-25l31 110h34q64 0 91 -40.5t8 -105.5z" />
    <glyph glyph-name="asciitilde" unicode="~" 
d="M66 330q17 60 42.5 85.5t68.5 25.5q26 0 41.5 -8t36.5 -28l35 -36q2 -1 6.5 -6t9 -9.5t5.5 -4.5t3 6l25 86h119l-32 -111q-17 -59 -42 -85t-68 -26q-26 0 -42.5 8.5t-35.5 27.5l-36 36l-3 3l-6 8t-6.5 7t-4.5 3l-3 -3l-25 -90h-119z" />
    <glyph glyph-name="exclamdown" unicode="&#xa1;" horiz-adv-x="290" 
d="M144 550h155l-48 -167h-155zM-73 -150l184 480h115l-137 -480h-162z" />
    <glyph glyph-name="cent" unicode="&#xa2;" horiz-adv-x="440" 
d="M142 -5l18 65q-70 5 -95.5 53.5t-5.5 118.5l67 233q24 83 66 119t111 36h7l24 85h84l-24 -86q65 -8 88.5 -55.5t3.5 -115.5l-21 -73h-145l25 86q7 27 -18 27h-30q-20 0 -27 -27l-70 -244q-7 -25 20 -25h28q19 0 28 27l21 76h145l-23 -80q-24 -83 -65 -118.5t-109 -36.5
h-1l-18 -65h-84z" />
    <glyph glyph-name="sterling" unicode="&#xa3;" horiz-adv-x="440" 
d="M385 705q73 0 103 -44t6 -128l-21 -73h-131l27 92q10 37 -27 37h-9q-17 0 -25.5 -9.5t-14.5 -29.5l-44 -155h137l-26 -90h-137l-29 -101q-19 -63 -53 -94h110l61 90h87l-25 -90l-31 -110h-375l31 110q29 4 40.5 23t26.5 71l29 101h-59l26 90h59l44 155q24 83 66 119
t111 36h43z" />
    <glyph glyph-name="yen" unicode="&#xa5;" horiz-adv-x="440" 
d="M333 302h75l-25 -90h-95l-14 -50h94l-25 -90h-94l-21 -72h-150l21 72h-91l25 90h91l14 50h-90l25 90h71l-13 398h154l-7 -156l-13 -134h5l139 290h164z" />
    <glyph glyph-name="brokenbar" unicode="&#xa6;" horiz-adv-x="300" 
d="M112 800h105v-432h-105v432zM217 -155h-105v407h105v-407z" />
    <glyph glyph-name="section" unicode="&#xa7;" horiz-adv-x="474" 
d="M380 705q68 0 98.5 -42.5t11.5 -110.5l-9 -30h-137l13 46q3 9 -0.5 12.5t-14.5 3.5h-43q-10 0 -14 -3.5t-7 -13.5l-5 -19q-2 -6 3.5 -14t15.5 -13l124 -54q22 -10 33.5 -24t12.5 -34t-1.5 -37t-10.5 -44l-6 -19q-18 -62 -73 -84q27 -33 13 -83l-4 -14q-18 -63 -61.5 -98
t-103.5 -35h-85q-69 0 -99.5 42.5t-11.5 110.5l9 30h138l-13 -46q-3 -9 0 -12.5t15 -3.5h55q10 0 14 3.5t7 13.5l5 19q2 6 -3.5 14t-15.5 13l-128 54q-22 9 -33.5 23.5t-12.5 34t1.5 37t10.5 44.5l6 19q15 58 80 79q-30 33 -16 88l4 14q18 63 61.5 98t103.5 35h73zM234 401
q-8 0 -11 -3t-6 -14l-9 -29q-6 -21 -7 -30.5t2 -14t11 -7.5l7 -3h64q7 0 10 3t7 14l8 28q11 39 7 44q-4 4 -13 8l-8 4h-62z" />
    <glyph glyph-name="dieresis" unicode="&#xa8;" horiz-adv-x="420" 
d="M318 705l-34 -120h-132l35 120h131zM480 705l-34 -120h-132l35 120h131z" />
    <glyph glyph-name="copyright" unicode="&#xa9;" horiz-adv-x="670" 
d="M136 -5q-79 0 -108 49t-8 123l109 383q24 83 66 119t111 36h272q79 0 108 -49t8 -123l-109 -383q-24 -83 -66 -119t-111 -36h-272zM426 60q27 0 49.5 25t34.5 65l109 383q15 52 0 79.5t-59 27.5h-272q-57 0 -84 -90l-109 -383q-15 -52 0 -79.5t59 -27.5h272zM492 240
q-21 -73 -57.5 -104t-96.5 -31h-58q-68 0 -94 42.5t-7 106.5l58 203q21 73 57.5 104t96.5 31h58q69 0 94.5 -42.5t6.5 -107.5l-18 -63h-126l21 75q8 23 -15 23h-26q-17 0 -24 -23l-61 -213q-6 -21 18 -21h24q18 0 24 23l19 66h126z" />
    <glyph glyph-name="guillemotleft" unicode="&#xab;" horiz-adv-x="466" 
d="M166 305l34 -159h-112l-36 134l19 65l99 129h123zM346 305l34 -159h-112l-36 134l19 65l99 129h123z" />
    <glyph glyph-name="logicalnot" unicode="&#xac;" 
d="M362 106h-131l41 144h-229l35 120h360z" />
    <glyph glyph-name="registered" unicode="&#xae;" horiz-adv-x="386" 
d="M150 315q-44 0 -63 28t-6 74l56 196q14 48 39 70t67 22h117q44 0 63 -28t6 -74l-56 -196q-14 -48 -39 -70t-67 -22h-117zM164 363h117q25 0 38 44l56 196q15 54 -28 54h-117q-26 0 -39 -44l-56 -196q-15 -54 29 -54zM156 386l72 250h73q28 0 39.5 -17.5t3.5 -46.5
l-10 -38q-12 -38 -36 -51l2 -97h-58v89h-3l-26 -89h-57zM254 530h17q5 0 6 7l11 38q2 6 -5 6h-14z" />
    <glyph glyph-name="macron" unicode="&#xaf;" horiz-adv-x="420" 
d="M447 695l-28 -100h-234l28 100h234z" />
    <glyph glyph-name="degree" unicode="&#xb0;" horiz-adv-x="310" 
d="M248 445q-56 0 -93.5 37.5t-37.5 93.5q0 55 37.5 92t93.5 37q55 0 92 -37t37 -92q0 -56 -37 -93.5t-92 -37.5zM248 520q23 0 38.5 15.5t15.5 40.5q0 24 -15 39t-39 15q-25 0 -40.5 -15.5t-15.5 -38.5q0 -25 15.5 -40.5t40.5 -15.5z" />
    <glyph glyph-name="plusminus" unicode="&#xb1;" 
d="M463 460l-34 -120h-119l-26 -90h-122l26 90h-119l34 120h119l26 90h122l-26 -90h119zM29 200h360l-34 -120h-360z" />
    <glyph glyph-name="acute" unicode="&#xb4;" horiz-adv-x="420" 
d="M314 705h141l-105 -120h-112z" />
    <glyph glyph-name="paragraph" unicode="&#xb6;" horiz-adv-x="470" 
d="M417 0h-145l167 584h-60l-167 -584h-145l84 293q-53 7 -74.5 46t-4.5 99l37 129q19 69 56.5 101t97.5 32h354z" />
    <glyph glyph-name="periodcentered" unicode="&#xb7;" horiz-adv-x="255" 
d="M192 226h-155l47 167h155z" />
    <glyph glyph-name="cedilla" unicode="&#xb8;" horiz-adv-x="420" 
d="M79 -35h88v-120h-124z" />
    <glyph glyph-name="guillemotright" unicode="&#xbb;" horiz-adv-x="466" 
d="M237 275l-100 -129h-123l127 169l-34 159h112l36 -134zM435 340l-18 -65l-100 -129h-123l127 169l-34 159h112z" />
    <glyph glyph-name="questiondown" unicode="&#xbf;" horiz-adv-x="434" 
d="M224 550h155l-48 -167h-155zM301 303q-10 -38 -27 -65.5t-47 -60.5l-76 -82q-26 -26 -35 -56l-9 -31q-10 -37 27 -37h7q17 0 25.5 9.5t14.5 29.5l23 80h138l-26 -90q-24 -83 -66 -119t-111 -36h-56q-79 0 -108 49t-8 123l8 30q14 49 63 101l86 91l7 7t7 7.5t7 8t7.5 10
t6.5 11t7 14t6 16.5l6 17h131z" />
    <glyph glyph-name="Agrave" unicode="&#xc0;" horiz-adv-x="456" 
d="M282 735l-81 120h143l58 -120h-120zM476 700l-123 -700h-152l26 122h-88l-42 -122h-150l273 700h256zM256 258l64 304h-28l-105 -304h69z" />
    <glyph glyph-name="Aacute" unicode="&#xc1;" horiz-adv-x="456" 
d="M411 735h-112l76 120h141zM220 700h256l-123 -700h-152l26 122h-88l-42 -122h-150zM292 562l-105 -304h69l64 304h-28z" />
    <glyph glyph-name="Acircumflex" unicode="&#xc2;" horiz-adv-x="456" 
d="M334 735h-124l133 120h103l65 -120h-113l-19 47zM220 700h256l-123 -700h-152l26 122h-88l-42 -122h-150zM292 562l-105 -304h69l64 304h-28z" />
    <glyph glyph-name="Atilde" unicode="&#xc3;" horiz-adv-x="456" 
d="M513 870l-17 -60q-18 -60 -60 -60q-12 0 -61 18l-21 8q-4 1 -9.5 3.5t-8.5 3.5t-4 1q-6 0 -8 -7l-8 -27h-88l18 60q17 60 59 60q9 0 61 -18l30 -10q12 -4 15 -4t6 5l8 27h88zM220 700h256l-123 -700h-152l26 122h-88l-42 -122h-150zM292 562l-105 -304h69l64 304h-28z
" />
    <glyph glyph-name="Adieresis" unicode="&#xc4;" horiz-adv-x="456" 
d="M345 735h-132l35 120h131zM541 855l-34 -120h-132l35 120h131zM220 700h256l-123 -700h-152l26 122h-88l-42 -122h-150zM292 562l-105 -304h69l64 304h-28z" />
    <glyph glyph-name="Aring" unicode="&#xc5;" horiz-adv-x="456" 
d="M357 726q-37 0 -61.5 24.5t-24.5 61.5q0 36 24.5 60.5t61.5 24.5q35 0 59.5 -24.5t24.5 -60.5q0 -37 -24.5 -61.5t-59.5 -24.5zM357 835q-10 0 -17 -6.5t-7 -16.5t7 -16.5t17 -6.5q9 0 15.5 6.5t6.5 16.5t-6.5 16.5t-15.5 6.5zM476 700l-123 -700h-152l26 122h-88
l-42 -122h-150l273 700h256zM256 258l64 304h-28l-105 -304h69z" />
    <glyph glyph-name="AE" unicode="&#xc6;" horiz-adv-x="585" 
d="M479 560l-40 -140h132l-40 -140h-132l-40 -140h143l-40 -140h-291l35 122h-67l-42 -122h-150l273 700h442l-40 -140h-143zM245 258l87 304h-40l-105 -304h58z" />
    <glyph glyph-name="Ccedilla" unicode="&#xc7;" horiz-adv-x="483" 
d="M136 -5q-79 0 -108 49t-8 123l109 383q24 83 66 119t111 36h90q79 0 108 -49t8 -123l-38 -135h-147l41 144q8 27 -18 27h-45q-21 0 -28 -27l-110 -386q-7 -25 19 -25h44q20 0 28 27l38 133h147l-40 -141q-24 -84 -64.5 -119.5t-109.5 -35.5h-93zM118 -35h88v-120h-124z
" />
    <glyph glyph-name="Egrave" unicode="&#xc8;" horiz-adv-x="401" 
d="M252 735l-81 120h143l58 -120h-120zM285 560l-40 -140h142l-40 -140h-142l-40 -140h153l-40 -140h-301l200 700h301l-40 -140h-153z" />
    <glyph glyph-name="Eacute" unicode="&#xc9;" horiz-adv-x="401" 
d="M381 735h-112l76 120h141zM438 560h-153l-40 -140h142l-40 -140h-142l-40 -140h153l-40 -140h-301l200 700h301z" />
    <glyph glyph-name="Ecircumflex" unicode="&#xca;" horiz-adv-x="401" 
d="M304 735h-124l133 120h103l65 -120h-113l-19 47zM438 560h-153l-40 -140h142l-40 -140h-142l-40 -140h153l-40 -140h-301l200 700h301z" />
    <glyph glyph-name="Edieresis" unicode="&#xcb;" horiz-adv-x="401" 
d="M315 735h-132l35 120h131zM345 735l35 120h131l-34 -120h-132zM438 560h-153l-40 -140h142l-40 -140h-142l-40 -140h153l-40 -140h-301l200 700h301z" />
    <glyph glyph-name="Igrave" unicode="&#xcc;" horiz-adv-x="260" 
d="M246 855l58 -120h-120l-81 120h143zM327 700l-200 -700h-150l200 700h150z" />
    <glyph glyph-name="Iacute" unicode="&#xcd;" horiz-adv-x="260" 
d="M277 855h141l-105 -120h-112zM327 700l-200 -700h-150l200 700h150z" />
    <glyph glyph-name="Icircumflex" unicode="&#xce;" horiz-adv-x="260" 
d="M236 735h-124l133 120h103l65 -120h-113l-19 47zM177 700h150l-200 -700h-150z" />
    <glyph glyph-name="Idieresis" unicode="&#xcf;" horiz-adv-x="260" 
d="M281 855l-34 -120h-132l35 120h131zM443 855l-34 -120h-132l35 120h131zM327 700l-200 -700h-150l200 700h150z" />
    <glyph glyph-name="Eth" unicode="&#xd0;" horiz-adv-x="479" 
d="M417 700q79 0 108 -49t8 -123l-107 -373q-24 -83 -66 -119t-111 -36h-262l85 298h-55l30 104h55l85 298h230zM384 533q8 27 -18 27h-69l-45 -158h48l-30 -104h-48l-45 -158h75q20 0 28 27z" />
    <glyph glyph-name="Ntilde" unicode="&#xd1;" horiz-adv-x="520" 
d="M337 870q9 0 61 -18l30 -10q12 -4 15 -4t6 5l8 27h88l-17 -60q-18 -60 -60 -60q-12 0 -61 18l-21 8l-22 8q-6 0 -8 -7l-8 -27h-88l18 60q17 60 59 60zM182 700h140l22 -340h5l39 160l51 180h143l-200 -700h-140l-22 340h-5l-39 -160l-51 -180h-143z" />
    <glyph glyph-name="Ograve" unicode="&#xd2;" horiz-adv-x="496" 
d="M364 855l58 -120h-120l-81 120h143zM411 150q-24 -83 -66 -119t-111 -36h-98q-79 0 -108 49t-8 123l109 383q24 83 66 119t111 36h98q79 0 108 -49t8 -123zM373 542q7 27 -18 27h-50q-21 0 -28 -27l-110 -386q-7 -25 19 -25h49q21 0 28 27z" />
    <glyph glyph-name="Oacute" unicode="&#xd3;" horiz-adv-x="496" 
d="M395 855h141l-105 -120h-112zM411 150q-24 -83 -66 -119t-111 -36h-98q-79 0 -108 49t-8 123l109 383q24 83 66 119t111 36h98q79 0 108 -49t8 -123zM373 542q7 27 -18 27h-50q-21 0 -28 -27l-110 -386q-7 -25 19 -25h49q21 0 28 27z" />
    <glyph glyph-name="Ocircumflex" unicode="&#xd4;" horiz-adv-x="496" 
d="M354 735h-124l133 120h103l65 -120h-113l-19 47zM404 705q79 0 108 -49t8 -123l-109 -383q-24 -83 -66 -119t-111 -36h-98q-79 0 -108 49t-8 123l109 383q24 83 66 119t111 36h98zM373 542q7 27 -18 27h-50q-21 0 -28 -27l-110 -386q-7 -25 19 -25h49q21 0 28 27z" />
    <glyph glyph-name="Otilde" unicode="&#xd5;" horiz-adv-x="496" 
d="M325 870q9 0 61 -18l30 -10q12 -4 15 -4t6 5l8 27h88l-17 -60q-18 -60 -60 -60q-12 0 -61 18l-21 8l-22 8q-6 0 -8 -7l-8 -27h-88l18 60q17 60 59 60zM411 150q-24 -83 -66 -119t-111 -36h-98q-79 0 -108 49t-8 123l109 383q24 83 66 119t111 36h98q79 0 108 -49t8 -123z
M373 542q7 27 -18 27h-50q-21 0 -28 -27l-110 -386q-7 -25 19 -25h49q21 0 28 27z" />
    <glyph glyph-name="Odieresis" unicode="&#xd6;" horiz-adv-x="496" 
d="M399 855l-34 -120h-132l35 120h131zM561 855l-34 -120h-132l35 120h131zM411 150q-24 -83 -66 -119t-111 -36h-98q-79 0 -108 49t-8 123l109 383q24 83 66 119t111 36h98q79 0 108 -49t8 -123zM373 542q7 27 -18 27h-50q-21 0 -28 -27l-110 -386q-7 -25 19 -25h49
q21 0 28 27z" />
    <glyph glyph-name="multiply" unicode="&#xd7;" 
d="M322 304l69 -97l-99 -77l-69 97l-123 -96l-64 90l123 95l-69 97l99 77l69 -97l123 96l64 -90z" />
    <glyph glyph-name="Oslash" unicode="&#xd8;" horiz-adv-x="496" 
d="M136 -5q-64 0 -95 33l-23 -28h-106l100 121q2 26 8 46l109 383q24 83 66 119t111 36h98q46 0 76 -18l12 15h106l-71 -86q6 -39 -7 -83l-109 -383q-24 -83 -66 -119t-111 -36h-98zM233 389l141 170q-3 10 -19 10h-50q-21 0 -28 -27zM186 131h49q21 0 28 27l61 212
l-146 -177q-2 -6 -5.5 -18.5t-5.5 -18.5q-7 -25 19 -25z" />
    <glyph glyph-name="Ugrave" unicode="&#xd9;" horiz-adv-x="506" 
d="M369 855l58 -120h-120l-81 120h143zM416 150q-24 -83 -66 -119t-111 -36h-98q-79 0 -108 49t-8 123l152 533h150l-152 -532q-10 -37 26 -37h30q29 0 41 39l151 530h150z" />
    <glyph glyph-name="Uacute" unicode="&#xda;" horiz-adv-x="506" 
d="M400 855h141l-105 -120h-112zM416 150q-24 -83 -66 -119t-111 -36h-98q-79 0 -108 49t-8 123l152 533h150l-152 -532q-10 -37 26 -37h30q29 0 41 39l151 530h150z" />
    <glyph glyph-name="Ucircumflex" unicode="&#xdb;" horiz-adv-x="506" 
d="M359 735h-124l133 120h103l65 -120h-113l-19 47zM573 700l-157 -550q-24 -83 -66 -119t-111 -36h-98q-79 0 -108 49t-8 123l152 533h150l-152 -532q-10 -37 26 -37h30q29 0 41 39l151 530h150z" />
    <glyph glyph-name="Udieresis" unicode="&#xdc;" horiz-adv-x="506" 
d="M404 855l-34 -120h-132l35 120h131zM566 855l-34 -120h-132l35 120h131zM416 150q-24 -83 -66 -119t-111 -36h-98q-79 0 -108 49t-8 123l152 533h150l-152 -532q-10 -37 26 -37h30q29 0 41 39l151 530h150z" />
    <glyph glyph-name="Yacute" unicode="&#xdd;" horiz-adv-x="462" 
d="M414 735h-112l76 120h141zM298 242l-69 -242h-150l69 240l-16 460h154l-7 -156l-13 -134h5l139 290h164z" />
    <glyph glyph-name="Thorn" unicode="&#xde;" horiz-adv-x="445" 
d="M360 570q79 0 108 -49t8 -123l-33 -113q-24 -83 -66 -119t-111 -36h-102l-37 -130h-150l200 700h150l-37 -130h70zM329 408q7 27 -19 27h-59l-48 -170h65q20 0 27 27z" />
    <glyph glyph-name="germandbls" unicode="&#xdf;" horiz-adv-x="562" 
d="M319 -5q-79 0 -108 49t-8 123l6 21h115l-13 -44q-7 -27 17 -27h19q21 0 28 27l2 6q5 15 3.5 24.5t-12.5 21.5l-64 66q-58 59 -37 130l1 3q18 63 56.5 95.5t90.5 32.5h8q15 0 18 13l4 15q6 22 -13 22h-136q-20 0 -28 -27l-156 -546h-140l157 550q24 83 66 119t111 36h181
q75 0 96.5 -35t-7.5 -120l-10 -37q-16 -53 -48.5 -78.5t-63.5 -25.5h-11q-35 0 -43 -27l-3 -12q-7 -21 17 -45l59 -61q26 -26 35 -65t-1 -65l-4 -16q-36 -123 -159 -123h-25z" />
    <glyph glyph-name="agrave" unicode="&#xe0;" horiz-adv-x="421" 
d="M212 585l-81 120h143l58 -120h-120zM81 -5q-61 0 -85 43.5t-5 108.5l7 25q18 61 51.5 89t92.5 50l93 35q18 7 24 25l11 37q6 25 -20 25h-20q-20 0 -28 -27l-13 -47h-130l11 41q24 83 66.5 119t111.5 36h44q78 0 107 -49t8 -123l-109 -383h-107v47q-55 -52 -101 -52h-9z
M140 118h32q20 0 27 27l28 98l-60 -25q-19 -8 -25 -30l-13 -43q-7 -27 11 -27z" />
    <glyph glyph-name="aacute" unicode="&#xe1;" horiz-adv-x="421" 
d="M229 585l76 120h141l-105 -120h-112zM81 -5q-61 0 -85 43.5t-5 108.5l7 25q18 61 51.5 89t92.5 50l93 35q18 7 24 25l11 37q6 25 -20 25h-20q-20 0 -28 -27l-13 -47h-130l11 41q24 83 66.5 119t111.5 36h44q78 0 107 -49t8 -123l-109 -383h-107v47q-55 -52 -101 -52h-9z
M140 118h32q20 0 27 27l28 98l-60 -25q-19 -8 -25 -30l-13 -43q-7 -27 11 -27z" />
    <glyph glyph-name="acircumflex" unicode="&#xe2;" horiz-adv-x="421" 
d="M140 585l133 120h103l65 -120h-113l-19 47l-45 -47h-124zM81 -5q-61 0 -85 43.5t-5 108.5l7 25q18 61 51.5 89t92.5 50l93 35q18 7 24 25l11 37q6 25 -20 25h-20q-20 0 -28 -27l-13 -47h-130l11 41q24 83 66.5 119t111.5 36h44q78 0 107 -49t8 -123l-109 -383h-107v47
q-55 -52 -101 -52h-9zM140 118h32q20 0 27 27l28 98l-60 -25q-19 -8 -25 -30l-13 -43q-7 -27 11 -27z" />
    <glyph glyph-name="atilde" unicode="&#xe3;" horiz-adv-x="421" 
d="M158 600l18 60q17 60 59 60q9 0 61 -18l30 -10q12 -4 15 -4t6 5l8 27h88l-17 -60q-18 -60 -60 -60q-12 0 -61 18l-21 8q-4 1 -9.5 3.5t-8.5 3.5t-4 1q-6 0 -8 -7l-8 -27h-88zM81 -5q-61 0 -85 43.5t-5 108.5l7 25q18 61 51.5 89t92.5 50l93 35q18 7 24 25l11 37
q6 25 -20 25h-20q-20 0 -28 -27l-13 -47h-130l11 41q24 83 66.5 119t111.5 36h44q78 0 107 -49t8 -123l-109 -383h-107v47q-55 -52 -101 -52h-9zM140 118h32q20 0 27 27l28 98l-60 -25q-19 -8 -25 -30l-13 -43q-7 -27 11 -27z" />
    <glyph glyph-name="adieresis" unicode="&#xe4;" horiz-adv-x="421" 
d="M143 585l35 120h131l-34 -120h-132zM305 585l35 120h131l-34 -120h-132zM81 -5q-61 0 -85 43.5t-5 108.5l7 25q18 61 51.5 89t92.5 50l93 35q18 7 24 25l11 37q6 25 -20 25h-20q-20 0 -28 -27l-13 -47h-130l11 41q24 83 66.5 119t111.5 36h44q78 0 107 -49t8 -123
l-109 -383h-107v47q-55 -52 -101 -52h-9zM140 118h32q20 0 27 27l28 98l-60 -25q-19 -8 -25 -30l-13 -43q-7 -27 11 -27z" />
    <glyph glyph-name="aring" unicode="&#xe5;" horiz-adv-x="421" 
d="M287 576q-37 0 -61.5 24.5t-24.5 61.5q0 36 24.5 60.5t61.5 24.5q35 0 59.5 -24.5t24.5 -60.5q0 -37 -24.5 -61.5t-59.5 -24.5zM287 639q9 0 15.5 6.5t6.5 16.5t-6.5 16.5t-15.5 6.5q-10 0 -17 -6.5t-7 -16.5t7 -16.5t17 -6.5zM81 -5q-61 0 -85 43.5t-5 108.5l7 25
q18 61 51.5 89t92.5 50l93 35q18 7 24 25l11 37q6 25 -20 25h-20q-20 0 -28 -27l-13 -47h-130l11 41q24 83 66.5 119t111.5 36h44q78 0 107 -49t8 -123l-109 -383h-107v47q-55 -52 -101 -52h-9zM140 118h32q20 0 27 27l28 98l-60 -25q-19 -8 -25 -30l-13 -43q-7 -27 11 -27z
" />
    <glyph glyph-name="ae" unicode="&#xe6;" horiz-adv-x="596" 
d="M81 -5q-61 0 -85 43.5t-5 108.5l7 25q18 61 51.5 89t92.5 50l93 35q18 7 24 25l11 37q6 25 -20 25h-20q-20 0 -28 -27l-13 -47h-130l11 41q24 83 66.5 119t111.5 36h36q64 0 74 -63q46 63 110 63h29q78 0 107 -49t8 -123l-42 -150h-207l-24 -83q-7 -25 20 -25h22
q11 0 17 6.5t10 20.5l10 34h138l-10 -36q-24 -83 -66 -119t-111 -36h-29q-52 0 -76 18.5t-32 55.5q-29 -33 -66 -53.5t-64 -20.5h-21zM392 337h69l18 61q7 27 -18 27h-24q-20 0 -27 -27zM140 118h32q20 0 27 27l28 98l-60 -25q-19 -8 -25 -30l-13 -43q-7 -27 11 -27z" />
    <glyph glyph-name="ccedilla" unicode="&#xe7;" horiz-adv-x="455" 
d="M375 150q-24 -83 -66 -119t-111 -36h-67q-79 0 -108 49t-8 123l66 233q24 83 66.5 119t111.5 36h67q78 0 107 -49t8 -123l-20 -73h-145l24 86q8 27 -17 27h-30q-20 0 -28 -27l-70 -244q-6 -25 20 -25h28q21 0 28 27l22 76h145zM107 -35h88v-120h-124z" />
    <glyph glyph-name="egrave" unicode="&#xe8;" horiz-adv-x="439" 
d="M229 585l-81 120h143l58 -120h-120zM310 555q78 0 107 -49t8 -123l-42 -150h-207l-24 -83q-7 -25 20 -25h22q20 0 27 27l10 34h138l-10 -36q-24 -83 -66 -119t-111 -36h-51q-79 0 -108 49t-8 123l66 233q24 83 66.5 119t111.5 36h51zM206 337h69l17 61q8 27 -18 27h-24
q-20 0 -27 -27z" />
    <glyph glyph-name="eacute" unicode="&#xe9;" horiz-adv-x="439" 
d="M358 585h-112l76 120h141zM310 555q78 0 107 -49t8 -123l-42 -150h-207l-24 -83q-7 -25 20 -25h22q20 0 27 27l10 34h138l-10 -36q-24 -83 -66 -119t-111 -36h-51q-79 0 -108 49t-8 123l66 233q24 83 66.5 119t111.5 36h51zM206 337h69l17 61q8 27 -18 27h-24
q-20 0 -27 -27z" />
    <glyph glyph-name="ecircumflex" unicode="&#xea;" horiz-adv-x="439" 
d="M281 585h-124l133 120h103l65 -120h-113l-19 47zM310 555q78 0 107 -49t8 -123l-42 -150h-207l-24 -83q-7 -25 20 -25h22q20 0 27 27l10 34h138l-10 -36q-24 -83 -66 -119t-111 -36h-51q-79 0 -108 49t-8 123l66 233q24 83 66.5 119t111.5 36h51zM206 337h69l17 61
q8 27 -18 27h-24q-20 0 -27 -27z" />
    <glyph glyph-name="edieresis" unicode="&#xeb;" horiz-adv-x="439" 
d="M292 585h-132l35 120h131zM488 705l-34 -120h-132l35 120h131zM310 555q78 0 107 -49t8 -123l-42 -150h-207l-24 -83q-7 -25 20 -25h22q20 0 27 27l10 34h138l-10 -36q-24 -83 -66 -119t-111 -36h-51q-79 0 -108 49t-8 123l66 233q24 83 66.5 119t111.5 36h51zM206 337
h69l17 61q8 27 -18 27h-24q-20 0 -27 -27z" />
    <glyph glyph-name="igrave" unicode="&#xec;" horiz-adv-x="220" 
d="M196 705l58 -120h-120l-81 120h143zM274 550l-157 -550h-145l157 550h145z" />
    <glyph glyph-name="iacute" unicode="&#xed;" horiz-adv-x="220" 
d="M227 705h141l-105 -120h-112zM274 550l-157 -550h-145l157 550h145z" />
    <glyph glyph-name="icircumflex" unicode="&#xee;" horiz-adv-x="220" 
d="M186 585h-124l133 120h103l65 -120h-113l-19 47zM129 550h145l-157 -550h-145z" />
    <glyph glyph-name="idieresis" unicode="&#xef;" horiz-adv-x="220" 
d="M231 705l-34 -120h-132l35 120h131zM393 705l-34 -120h-132l35 120h131zM274 550l-157 -550h-145l157 550h145z" />
    <glyph glyph-name="eth" unicode="&#xf0;" horiz-adv-x="420" 
d="M455 614l-41 -13l24 -70q24 -73 -5 -178l-58 -203q-24 -83 -66 -119t-111 -36h-67q-79 0 -108 49t-8 123l55 193q44 155 168 155h3q55 0 84 -50l3 3l-35 95l-111 -35l30 106l49 15l-20 56h137l6 -17l102 32zM289 356q7 27 -18 27h-30q-20 0 -27 -27l-59 -204
q-6 -25 20 -25h28q21 0 28 27z" />
    <glyph glyph-name="ntilde" unicode="&#xf1;" 
d="M275 600h-88l18 60q17 60 59 60q9 0 61 -18l30 -10q12 -4 15 -4q4 0 6 5l8 27h88l-17 -60q-18 -60 -60 -60q-12 0 -61 18l-21 8l-22 8q-6 0 -8 -7zM354 555q66 0 90 -49t2 -123l-109 -383h-145l113 396q7 27 -17 27h-30q-20 0 -28 -27l-113 -396h-145l157 550h110v-47
q59 52 109 52h6z" />
    <glyph glyph-name="ograve" unicode="&#xf2;" horiz-adv-x="455" 
d="M301 705l58 -120h-120l-81 120h143zM131 -5q-79 0 -108 49t-8 123l66 233q24 83 66.5 119t111.5 36h67q78 0 107 -49t8 -123l-66 -233q-24 -83 -66 -119t-111 -36h-67zM203 127q21 0 28 27l69 242q8 27 -17 27h-30q-20 0 -28 -27l-70 -244q-6 -25 20 -25h28z" />
    <glyph glyph-name="oacute" unicode="&#xf3;" horiz-adv-x="455" 
d="M332 705h141l-105 -120h-112zM131 -5q-79 0 -108 49t-8 123l66 233q24 83 66.5 119t111.5 36h67q78 0 107 -49t8 -123l-66 -233q-24 -83 -66 -119t-111 -36h-67zM203 127q21 0 28 27l69 242q8 27 -17 27h-30q-20 0 -28 -27l-70 -244q-6 -25 20 -25h28z" />
    <glyph glyph-name="ocircumflex" unicode="&#xf4;" horiz-adv-x="455" 
d="M291 585h-124l133 120h103l65 -120h-113l-19 47zM326 555q78 0 107 -49t8 -123l-66 -233q-24 -83 -66 -119t-111 -36h-67q-79 0 -108 49t-8 123l66 233q24 83 66.5 119t111.5 36h67zM300 396q8 27 -17 27h-30q-20 0 -28 -27l-70 -244q-6 -25 20 -25h28q21 0 28 27z" />
    <glyph glyph-name="otilde" unicode="&#xf5;" horiz-adv-x="455" 
d="M262 720q9 0 61 -18l30 -10q12 -4 15 -4q4 0 6 5l8 27h88l-17 -60q-18 -60 -60 -60q-12 0 -61 18l-21 8l-22 8q-6 0 -8 -7l-8 -27h-88l18 60q17 60 59 60zM131 -5q-79 0 -108 49t-8 123l66 233q24 83 66.5 119t111.5 36h67q78 0 107 -49t8 -123l-66 -233
q-24 -83 -66 -119t-111 -36h-67zM203 127q21 0 28 27l69 242q8 27 -17 27h-30q-20 0 -28 -27l-70 -244q-6 -25 20 -25h28z" />
    <glyph glyph-name="odieresis" unicode="&#xf6;" horiz-adv-x="455" 
d="M336 705l-34 -120h-132l35 120h131zM498 705l-34 -120h-132l35 120h131zM131 -5q-79 0 -108 49t-8 123l66 233q24 83 66.5 119t111.5 36h67q78 0 107 -49t8 -123l-66 -233q-24 -83 -66 -119t-111 -36h-67zM203 127q21 0 28 27l69 242q8 27 -17 27h-30q-20 0 -28 -27
l-70 -244q-6 -25 20 -25h28z" />
    <glyph glyph-name="divide" unicode="&#xf7;" 
d="M336 404h-138l42 146h138zM408 250h-370l35 120h370zM241 70h-138l42 146h138z" />
    <glyph glyph-name="oslash" unicode="&#xf8;" horiz-adv-x="420" 
d="M449 459q4 -34 -8 -76l-66 -233q-24 -83 -66 -119t-111 -36h-67q-55 0 -88 26l-20 -21h-101l85 92q-3 37 8 75l66 233q24 83 66.5 119t111.5 36h67q54 0 87 -26l20 21h101zM196 295l106 114q-2 14 -19 14h-30q-20 0 -28 -27zM260 255l-106 -114q0 -14 21 -14h28
q21 0 28 27z" />
    <glyph glyph-name="ugrave" unicode="&#xf9;" 
d="M236 585l-81 120h143l58 -120h-120zM489 550l-157 -550h-110v47q-55 -52 -108 -52h-6q-66 0 -90 49t-3 123l109 383h145l-113 -396q-8 -27 17 -27h30q20 0 28 27l113 396h145z" />
    <glyph glyph-name="uacute" unicode="&#xfa;" 
d="M365 585h-112l76 120h141zM489 550l-157 -550h-110v47q-55 -52 -108 -52h-6q-66 0 -90 49t-3 123l109 383h145l-113 -396q-8 -27 17 -27h30q20 0 28 27l113 396h145z" />
    <glyph glyph-name="ucircumflex" unicode="&#xfb;" 
d="M288 585h-124l133 120h103l65 -120h-113l-19 47zM489 550l-157 -550h-110v47q-55 -52 -108 -52h-6q-66 0 -90 49t-3 123l109 383h145l-113 -396q-8 -27 17 -27h30q20 0 28 27l113 396h145z" />
    <glyph glyph-name="udieresis" unicode="&#xfc;" 
d="M299 585h-132l35 120h131zM329 585l35 120h131l-34 -120h-132zM344 550h145l-157 -550h-110v47q-55 -52 -108 -52h-6q-66 0 -90 49t-3 123l109 383h145l-113 -396q-8 -27 17 -27h30q20 0 28 27z" />
    <glyph glyph-name="yacute" unicode="&#xfd;" horiz-adv-x="419" 
d="M351 585h-112l76 120h141zM485 550l-250 -562q-28 -63 -75.5 -103t-101.5 -40h-103l36 128h45q22 0 30 16l30 561h144l-31 -243l-22 -147h4l148 390h146z" />
    <glyph glyph-name="thorn" unicode="&#xfe;" 
d="M361 555q63 0 85.5 -50.5t-0.5 -121.5l-66 -233q-44 -155 -168 -155h-3q-53 0 -80 46l-56 -196h-145l245 860h145l-57 -201q49 51 94 51h6zM305 396q7 27 -17 27h-30q-20 0 -28 -27l-70 -244q-6 -25 20 -25h28q20 0 28 27z" />
    <glyph glyph-name="ydieresis" unicode="&#xff;" horiz-adv-x="419" 
d="M285 585h-132l35 120h131zM315 585l35 120h131l-34 -120h-132zM485 550l-250 -562q-28 -63 -75.5 -103t-101.5 -40h-103l36 128h45q22 0 30 16l30 561h144l-31 -243l-22 -147h4l148 390h146z" />
    <glyph glyph-name="Amacron" unicode="&#x100;" horiz-adv-x="456" 
d="M508 845l-28 -100h-234l28 100h234zM220 700h256l-123 -700h-152l26 122h-88l-42 -122h-150zM292 562l-105 -304h69l64 304h-28z" />
    <glyph glyph-name="amacron" unicode="&#x101;" horiz-adv-x="421" 
d="M176 595l28 100h234l-28 -100h-234zM81 -5q-61 0 -85 43.5t-5 108.5l7 25q18 61 51.5 89t92.5 50l93 35q18 7 24 25l11 37q6 25 -20 25h-20q-20 0 -28 -27l-13 -47h-130l11 41q24 83 66.5 119t111.5 36h44q78 0 107 -49t8 -123l-109 -383h-107v47q-55 -52 -101 -52h-9z
M140 118h32q20 0 27 27l28 98l-60 -25q-19 -8 -25 -30l-13 -43q-7 -27 11 -27z" />
    <glyph glyph-name="Abreve" unicode="&#x102;" horiz-adv-x="456" 
d="M511 855l-8 -29q-14 -49 -38.5 -70t-65.5 -21h-89q-46 0 -63 28.5t-4 72.5l5 19h100l-3 -10q-3 -12 0.5 -17t15.5 -5h25q17 0 23 23l2 9h100zM220 700h256l-123 -700h-152l26 122h-88l-42 -122h-150zM292 562l-105 -304h69l64 304h-28z" />
    <glyph glyph-name="abreve" unicode="&#x103;" horiz-adv-x="421" 
d="M240 585q-46 0 -63 28.5t-4 72.5l5 19h100l-3 -10q-3 -12 0.5 -17t15.5 -5h25q17 0 23 23l2 9h100l-8 -29q-14 -49 -38.5 -70t-65.5 -21h-89zM81 -5q-61 0 -85 43.5t-5 108.5l7 25q18 61 51.5 89t92.5 50l93 35q18 7 24 25l11 37q6 25 -20 25h-20q-20 0 -28 -27l-13 -47
h-130l11 41q24 83 66.5 119t111.5 36h44q78 0 107 -49t8 -123l-109 -383h-107v47q-55 -52 -101 -52h-9zM140 118h32q20 0 27 27l28 98l-60 -25q-19 -8 -25 -30l-13 -43q-7 -27 11 -27z" />
    <glyph glyph-name="Aogonek" unicode="&#x104;" horiz-adv-x="456" 
d="M476 700l-123 -700h-152l26 122h-88l-42 -122h-150l273 700h256zM256 258l64 304h-28l-105 -304h69zM294 -35l36 -120h-124v120h88z" />
    <glyph glyph-name="aogonek" unicode="&#x105;" horiz-adv-x="421" 
d="M81 -5q-61 0 -85 43.5t-5 108.5l7 25q18 61 51.5 89t92.5 50l93 35q18 7 24 25l11 37q6 25 -20 25h-20q-20 0 -28 -27l-13 -47h-130l11 41q24 83 66.5 119t111.5 36h44q78 0 107 -49t8 -123l-109 -383h-107v47q-55 -52 -101 -52h-9zM140 118h32q20 0 27 27l28 98l-60 -25
q-19 -8 -25 -30l-13 -43q-7 -27 11 -27zM192 -155v120h88l36 -120h-124z" />
    <glyph glyph-name="Cacute" unicode="&#x106;" horiz-adv-x="483" 
d="M378 855h141l-105 -120h-112zM136 -5q-79 0 -108 49t-8 123l109 383q24 83 66 119t111 36h90q79 0 108 -49t8 -123l-38 -135h-147l41 144q8 27 -18 27h-45q-21 0 -28 -27l-110 -386q-7 -25 19 -25h44q20 0 28 27l38 133h147l-40 -141q-24 -84 -64.5 -119.5t-109.5 -35.5
h-93z" />
    <glyph glyph-name="cacute" unicode="&#x107;" horiz-adv-x="455" 
d="M331 705h141l-105 -120h-112zM375 150q-24 -83 -66 -119t-111 -36h-67q-79 0 -108 49t-8 123l66 233q24 83 66.5 119t111.5 36h67q78 0 107 -49t8 -123l-20 -73h-145l24 86q8 27 -17 27h-30q-20 0 -28 -27l-70 -244q-6 -25 20 -25h28q21 0 28 27l22 76h145z" />
    <glyph glyph-name="Cdotaccent" unicode="&#x10a;" horiz-adv-x="483" 
d="M470 855l-34 -120h-146l34 120h146zM136 -5q-79 0 -108 49t-8 123l109 383q24 83 66 119t111 36h90q79 0 108 -49t8 -123l-38 -135h-147l41 144q8 27 -18 27h-45q-21 0 -28 -27l-110 -386q-7 -25 19 -25h44q20 0 28 27l38 133h147l-40 -141q-24 -84 -64.5 -119.5
t-109.5 -35.5h-93z" />
    <glyph glyph-name="cdotaccent" unicode="&#x10b;" horiz-adv-x="455" 
d="M423 705l-34 -120h-146l34 120h146zM375 150q-24 -83 -66 -119t-111 -36h-67q-79 0 -108 49t-8 123l66 233q24 83 66.5 119t111.5 36h67q78 0 107 -49t8 -123l-20 -73h-145l24 86q8 27 -17 27h-30q-20 0 -28 -27l-70 -244q-6 -25 20 -25h28q21 0 28 27l22 76h145z" />
    <glyph glyph-name="Ccaron" unicode="&#x10c;" horiz-adv-x="483" 
d="M312 735l-65 120h113l19 -47l45 47h124l-133 -120h-103zM396 705q79 0 108 -49t8 -123l-38 -135h-147l41 144q8 27 -18 27h-45q-21 0 -28 -27l-110 -386q-7 -25 19 -25h44q20 0 28 27l38 133h147l-40 -141q-24 -84 -64.5 -119.5t-109.5 -35.5h-93q-79 0 -108 49t-8 123
l109 383q24 83 66 119t111 36h90z" />
    <glyph glyph-name="ccaron" unicode="&#x10d;" horiz-adv-x="455" 
d="M265 585l-65 120h113l19 -47l45 47h124l-133 -120h-103zM326 555q78 0 107 -49t8 -123l-20 -73h-145l24 86q8 27 -17 27h-30q-20 0 -28 -27l-70 -244q-6 -25 20 -25h28q21 0 28 27l22 76h145l-23 -80q-24 -83 -66 -119t-111 -36h-67q-79 0 -108 49t-8 123l66 233
q24 83 66.5 119t111.5 36h67z" />
    <glyph glyph-name="Dcaron" unicode="&#x10e;" horiz-adv-x="500" 
d="M288 735l-65 120h113l19 -47l45 47h124l-133 -120h-103zM407 700q79 0 108 -49t8 -123l-107 -373q-24 -83 -66 -119t-111 -36h-262l200 700h230zM374 533q8 27 -18 27h-69l-120 -420h75q20 0 28 27z" />
    <glyph glyph-name="dcaron" unicode="&#x10f;" horiz-adv-x="585" 
d="M388 705h145l-201 -705h-110v47q-55 -52 -108 -52h-6q-66 0 -90 49t-3 123l66 233q45 155 169 155h3q51 0 80 -45zM718 705l-84 -160h-96l45 160h135zM301 398q7 25 -20 25h-28q-21 0 -28 -27l-69 -242q-8 -27 17 -27h30q20 0 28 27z" />
    <glyph glyph-name="Dcroat" unicode="&#x110;" horiz-adv-x="479" 
d="M417 700q79 0 108 -49t8 -123l-107 -373q-24 -83 -66 -119t-111 -36h-262l85 298h-55l30 104h55l85 298h230zM384 533q8 27 -18 27h-69l-45 -158h48l-30 -104h-48l-45 -158h75q20 0 28 27z" />
    <glyph glyph-name="dcroat" unicode="&#x111;" horiz-adv-x="426" 
d="M537 558h-46l-159 -558h-110v47q-55 -52 -108 -52h-6q-66 0 -90 49t-3 123l61 213q44 155 168 155h3q51 0 80 -45l19 68h-83l30 104h83l12 43h145l-12 -43h46zM295 378q7 25 -20 25h-28q-19 0 -28 -27l-63 -222q-8 -27 17 -27h30q20 0 28 27z" />
    <glyph glyph-name="Emacron" unicode="&#x112;" horiz-adv-x="401" 
d="M450 745h-234l28 100h234zM438 560h-153l-40 -140h142l-40 -140h-142l-40 -140h153l-40 -140h-301l200 700h301z" />
    <glyph glyph-name="emacron" unicode="&#x113;" horiz-adv-x="439" 
d="M427 595h-234l28 100h234zM310 555q78 0 107 -49t8 -123l-42 -150h-207l-24 -83q-7 -25 20 -25h22q20 0 27 27l10 34h138l-10 -36q-24 -83 -66 -119t-111 -36h-51q-79 0 -108 49t-8 123l66 233q24 83 66.5 119t111.5 36h51zM206 337h69l17 61q8 27 -18 27h-24
q-20 0 -27 -27z" />
    <glyph glyph-name="Edotaccent" unicode="&#x116;" horiz-adv-x="401" 
d="M403 735h-146l34 120h146zM285 560l-40 -140h142l-40 -140h-142l-40 -140h153l-40 -140h-301l200 700h301l-40 -140h-153z" />
    <glyph glyph-name="edotaccent" unicode="&#x117;" horiz-adv-x="439" 
d="M380 585h-146l34 120h146zM310 555q78 0 107 -49t8 -123l-42 -150h-207l-24 -83q-7 -25 20 -25h22q20 0 27 27l10 34h138l-10 -36q-24 -83 -66 -119t-111 -36h-51q-79 0 -108 49t-8 123l66 233q24 83 66.5 119t111.5 36h51zM206 337h69l17 61q8 27 -18 27h-24
q-20 0 -27 -27z" />
    <glyph glyph-name="Eogonek" unicode="&#x118;" horiz-adv-x="401" 
d="M285 560l-40 -140h142l-40 -140h-142l-40 -140h153l-40 -140h-301l200 700h301l-40 -140h-153zM240 -35l36 -120h-124v120h88z" />
    <glyph glyph-name="eogonek" unicode="&#x119;" horiz-adv-x="439" 
d="M310 555q78 0 107 -49t8 -123l-42 -150h-207l-24 -83q-7 -25 20 -25h22q20 0 27 27l10 34h138l-10 -36q-24 -83 -66 -119t-111 -36h-51q-79 0 -108 49t-8 123l66 233q24 83 66.5 119t111.5 36h51zM206 337h69l17 61q8 27 -18 27h-24q-20 0 -27 -27zM249 -35l36 -120h-124
v120h88z" />
    <glyph glyph-name="Ecaron" unicode="&#x11a;" horiz-adv-x="401" 
d="M279 735l-65 120h113l19 -47l45 47h124l-133 -120h-103zM438 560h-153l-40 -140h142l-40 -140h-142l-40 -140h153l-40 -140h-301l200 700h301z" />
    <glyph glyph-name="ecaron" unicode="&#x11b;" horiz-adv-x="439" 
d="M256 585l-65 120h113l19 -47l45 47h124l-133 -120h-103zM310 555q78 0 107 -49t8 -123l-42 -150h-207l-24 -83q-7 -25 20 -25h22q20 0 27 27l10 34h138l-10 -36q-24 -83 -66 -119t-111 -36h-51q-79 0 -108 49t-8 123l66 233q24 83 66.5 119t111.5 36h51zM206 337h69
l17 61q8 27 -18 27h-24q-20 0 -27 -27z" />
    <glyph glyph-name="Gbreve" unicode="&#x11e;" horiz-adv-x="499" 
d="M325 735q-46 0 -63 28.5t-4 72.5l5 19h100l-3 -10q-3 -12 0.5 -17t15.5 -5h25q17 0 23 23l2 9h100l-8 -29q-14 -49 -38.5 -70t-65.5 -21h-89zM136 -5q-79 0 -108 49t-8 123l109 383q24 83 66 119t111 36h90q79 0 108 -49t8 -123l-27 -95h-147l30 104q8 27 -18 27h-45
q-21 0 -28 -27l-113 -396q-7 -25 20 -25h55q11 0 17 6.5t10 20.5l25 87h-60l39 137h202l-106 -372h-100l-2 44q-47 -49 -110 -49h-18z" />
    <glyph glyph-name="gbreve" unicode="&#x11f;" 
d="M264 585q-46 0 -63 28.5t-4 72.5l5 19h100l-3 -10q-3 -12 0.5 -17t15.5 -5h25q17 0 23 23l2 9h100l-8 -29q-14 -49 -38.5 -70t-65.5 -21h-89zM489 550l-157 -550q-24 -83 -66 -119t-111 -36h-67q-79 0 -108 49t-8 123l2 7h145l-6 -22q-7 -25 19 -25h28q21 0 28 27l26 91
q-50 -50 -93 -50h-6q-63 0 -85 49t-1 123l52 183q45 155 169 155h3q64 0 97 -55l29 50h110zM301 398q7 25 -20 25h-28q-21 0 -28 -27l-55 -192q-8 -27 18 -27h30q20 0 27 27z" />
    <glyph glyph-name="Gdotaccent" unicode="&#x120;" horiz-adv-x="499" 
d="M448 735h-146l34 120h146zM396 705q79 0 108 -49t8 -123l-27 -95h-147l30 104q8 27 -18 27h-45q-21 0 -28 -27l-113 -396q-7 -25 20 -25h55q11 0 17 6.5t10 20.5l25 87h-60l39 137h202l-106 -372h-100l-2 44q-47 -49 -110 -49h-18q-79 0 -108 49t-8 123l109 383
q24 83 66 119t111 36h90z" />
    <glyph glyph-name="gdotaccent" unicode="&#x121;" 
d="M387 585h-146l34 120h146zM489 550l-157 -550q-24 -83 -66 -119t-111 -36h-67q-79 0 -108 49t-8 123l2 7h145l-6 -22q-7 -25 19 -25h28q21 0 28 27l26 91q-50 -50 -93 -50h-6q-63 0 -85 49t-1 123l52 183q45 155 169 155h3q64 0 97 -55l29 50h110zM301 398q7 25 -20 25
h-28q-21 0 -28 -27l-55 -192q-8 -27 18 -27h30q20 0 27 27z" />
    <glyph glyph-name="uni0122" unicode="&#x122;" horiz-adv-x="499" 
d="M396 705q79 0 108 -49t8 -123l-27 -95h-147l30 104q8 27 -18 27h-45q-21 0 -28 -27l-113 -396q-7 -25 20 -25h55q11 0 17 6.5t10 20.5l25 87h-60l39 137h202l-106 -372h-100l-2 44q-47 -49 -110 -49h-18q-79 0 -108 49t-8 123l109 383q24 83 66 119t111 36h90zM94 -35
h124l-36 -120h-88v120z" />
    <glyph glyph-name="uni0123" unicode="&#x123;" horiz-adv-x="427" 
d="M377 586h-124l70 120h88zM489 550l-157 -550q-24 -83 -66 -119t-111 -36h-67q-79 0 -108 49t-8 123l2 7h145l-6 -22q-7 -25 19 -25h28q21 0 28 27l26 91q-50 -50 -93 -50h-6q-63 0 -85 49t-1 123l52 183q45 155 169 155h3q64 0 97 -55l29 50h110zM301 398q7 25 -20 25
h-28q-21 0 -28 -27l-55 -192q-8 -27 18 -27h30q20 0 27 27z" />
    <glyph glyph-name="Hbar" unicode="&#x126;" horiz-adv-x="520" 
d="M577 508h-49l-145 -508h-150l80 280h-96l-80 -280h-150l145 508h-55l30 104h55l25 88h150l-25 -88h96l25 88h150l-25 -88h49zM378 508h-96l-25 -88h96z" />
    <glyph glyph-name="hbar" unicode="&#x127;" horiz-adv-x="425" 
d="M355 535q63 0 85 -49t1 -123l-104 -363h-145l107 376q9 27 -17 27h-30q-20 0 -28 -27l-107 -376h-145l159 558h-50l30 104h50l12 43h145l-12 -43h79l-30 -104h-79l-21 -74q49 51 94 51h6z" />
    <glyph glyph-name="Imacron" unicode="&#x12a;" horiz-adv-x="260" 
d="M410 845l-28 -100h-234l28 100h234zM327 700l-200 -700h-150l200 700h150z" />
    <glyph glyph-name="imacron" unicode="&#x12b;" horiz-adv-x="220" 
d="M360 695l-28 -100h-234l28 100h234zM274 550l-157 -550h-145l157 550h145z" />
    <glyph glyph-name="Iogonek" unicode="&#x12e;" horiz-adv-x="260" 
d="M327 700l-200 -700h-150l200 700h150zM-23 -155v120h88l36 -120h-124z" />
    <glyph glyph-name="iogonek" unicode="&#x12f;" horiz-adv-x="245" 
d="M319 705l-34 -120h-146l34 120h146zM274 550l-157 -550h-145l157 550h145zM-25 -155v120h88l36 -120h-124z" />
    <glyph glyph-name="Idotaccent" unicode="&#x130;" horiz-adv-x="260" 
d="M369 855l-34 -120h-146l34 120h146zM327 700l-200 -700h-150l200 700h150z" />
    <glyph glyph-name="dotlessi" unicode="&#x131;" horiz-adv-x="220" 
d="M274 550l-157 -550h-145l157 550h145z" />
    <glyph glyph-name="uni0136" unicode="&#x136;" horiz-adv-x="480" 
d="M376 349l5 -349h-147v280h-27l-80 -280h-150l200 700h150l-80 -280h19l156 280h150zM105 -35h124l-36 -120h-88v120z" />
    <glyph glyph-name="uni0137" unicode="&#x137;" horiz-adv-x="432" 
d="M333 271l7 -271h-145l1 208h-20l-59 -208h-145l201 705h145l-103 -363h16l123 208h147zM97 -35h124l-36 -120h-88v120z" />
    <glyph glyph-name="Lacute" unicode="&#x139;" horiz-adv-x="386" 
d="M321 735h-112l76 120h141zM167 140h161l-40 -140h-311l200 700h150z" />
    <glyph glyph-name="lacute" unicode="&#x13a;" horiz-adv-x="245" 
d="M270 860h141l-105 -120h-112zM318 705l-201 -705h-145l201 705h145z" />
    <glyph glyph-name="uni013B" unicode="&#x13b;" horiz-adv-x="386" 
d="M328 140l-40 -140h-311l200 700h150l-160 -560h161zM64 -35h124l-36 -120h-88v120z" />
    <glyph glyph-name="uni013C" unicode="&#x13c;" horiz-adv-x="245" 
d="M318 705l-201 -705h-145l201 705h145zM63 -155h-88v120h124z" />
    <glyph glyph-name="Lcaron" unicode="&#x13d;" horiz-adv-x="386" 
d="M167 140h161l-40 -140h-311l200 700h150zM512 700l-84 -160h-96l45 160h135z" />
    <glyph glyph-name="lcaron" unicode="&#x13e;" horiz-adv-x="370" 
d="M318 705l-201 -705h-145l201 705h145zM419 545h-96l45 160h135z" />
    <glyph glyph-name="Lslash" unicode="&#x141;" horiz-adv-x="386" 
d="M216 312l-49 -172h161l-40 -140h-311l64 224l-64 -32l33 117l65 32l102 359h150l-77 -271l123 62l-33 -117z" />
    <glyph glyph-name="lslash" unicode="&#x142;" horiz-adv-x="280" 
d="M326 434l-86 -39l-113 -395h-145l91 319l-69 -31l30 104l69 31l80 282h145l-59 -206l87 39z" />
    <glyph glyph-name="Nacute" unicode="&#x143;" horiz-adv-x="520" 
d="M407 855h141l-105 -120h-112zM182 700h140l22 -340h5l39 160l51 180h143l-200 -700h-140l-22 340h-5l-39 -160l-51 -180h-143z" />
    <glyph glyph-name="nacute" unicode="&#x144;" 
d="M370 585h-112l76 120h141zM354 555q66 0 90 -49t2 -123l-109 -383h-145l113 396q7 27 -17 27h-30q-20 0 -28 -27l-113 -396h-145l157 550h110v-47q59 52 109 52h6z" />
    <glyph glyph-name="uni0145" unicode="&#x145;" horiz-adv-x="520" 
d="M182 700h140l22 -340h5l39 160l51 180h143l-200 -700h-140l-22 340h-5l-39 -160l-51 -180h-143zM201 -155h-88v120h124z" />
    <glyph glyph-name="uni0146" unicode="&#x146;" 
d="M354 555q66 0 90 -49t2 -123l-109 -383h-145l113 396q7 27 -17 27h-30q-20 0 -28 -27l-113 -396h-145l157 550h110v-47q59 52 109 52h6zM83 -35h124l-36 -120h-88v120z" />
    <glyph glyph-name="Ncaron" unicode="&#x147;" horiz-adv-x="520" 
d="M341 735l-65 120h113l19 -47l45 47h124l-133 -120h-103zM582 700l-200 -700h-140l-22 340h-5l-39 -160l-51 -180h-143l200 700h140l22 -340h5l39 160l51 180h143z" />
    <glyph glyph-name="ncaron" unicode="&#x148;" 
d="M268 585l-65 120h113l19 -47l45 47h124l-133 -120h-103zM354 555q66 0 90 -49t2 -123l-109 -383h-145l113 396q7 27 -17 27h-30q-20 0 -28 -27l-113 -396h-145l157 550h110v-47q59 52 109 52h6z" />
    <glyph glyph-name="Eng" unicode="&#x14a;" horiz-adv-x="485" 
d="M182 700h140l22 -340h5l39 160l51 180h143l-200 -700q-24 -83 -66 -119t-111 -36h-78l36 127h50q21 0 28 27l1 4l-22 337h-5l-39 -160l-51 -180h-143z" />
    <glyph glyph-name="eng" unicode="&#x14b;" horiz-adv-x="425" 
d="M129 550h110v-47q57 52 109 52h6q66 0 90 -49t2 -123l-109 -383q-24 -83 -66 -119t-111 -36h-62l36 127h30q20 0 28 27l113 397q7 27 -17 27h-30q-20 0 -28 -27l-113 -396h-145z" />
    <glyph glyph-name="Omacron" unicode="&#x14c;" horiz-adv-x="496" 
d="M528 845l-28 -100h-234l28 100h234zM411 150q-24 -83 -66 -119t-111 -36h-98q-79 0 -108 49t-8 123l109 383q24 83 66 119t111 36h98q79 0 108 -49t8 -123zM373 542q7 27 -18 27h-50q-21 0 -28 -27l-110 -386q-7 -25 19 -25h49q21 0 28 27z" />
    <glyph glyph-name="omacron" unicode="&#x14d;" horiz-adv-x="455" 
d="M465 695l-28 -100h-234l28 100h234zM131 -5q-79 0 -108 49t-8 123l66 233q24 83 66.5 119t111.5 36h67q78 0 107 -49t8 -123l-66 -233q-24 -83 -66 -119t-111 -36h-67zM203 127q21 0 28 27l69 242q8 27 -17 27h-30q-20 0 -28 -27l-70 -244q-6 -25 20 -25h28z" />
    <glyph glyph-name="Ohungarumlaut" unicode="&#x150;" horiz-adv-x="496" 
d="M304 855h141l-105 -120h-112zM464 855h141l-105 -120h-112zM411 150q-24 -83 -66 -119t-111 -36h-98q-79 0 -108 49t-8 123l109 383q24 83 66 119t111 36h98q79 0 108 -49t8 -123zM373 542q7 27 -18 27h-50q-21 0 -28 -27l-110 -386q-7 -25 19 -25h49q21 0 28 27z" />
    <glyph glyph-name="ohungarumlaut" unicode="&#x151;" horiz-adv-x="455" 
d="M241 705h141l-105 -120h-112zM401 705h141l-105 -120h-112zM131 -5q-79 0 -108 49t-8 123l66 233q24 83 66.5 119t111.5 36h67q78 0 107 -49t8 -123l-66 -233q-24 -83 -66 -119t-111 -36h-67zM203 127q21 0 28 27l69 242q8 27 -17 27h-30q-20 0 -28 -27l-70 -244
q-6 -25 20 -25h28z" />
    <glyph glyph-name="OE" unicode="&#x152;" horiz-adv-x="622" 
d="M516 560l-40 -140h132l-40 -140h-132l-40 -140h143l-40 -140h-362q-79 0 -108 49t-8 123l107 373q24 83 66 119t111 36h394l-40 -140h-143zM248 140l120 420h-66q-20 0 -28 -27l-104 -366q-8 -27 18 -27h60z" />
    <glyph glyph-name="oe" unicode="&#x153;" horiz-adv-x="653" 
d="M131 -5q-79 0 -108 49t-8 123l66 233q24 83 66.5 119t111.5 36h57q51 0 67 -46q37 46 97 46h44q78 0 107 -49t8 -123l-42 -150h-207l-24 -83q-7 -25 20 -25h22q20 0 27 27l10 34h138l-10 -36q-24 -83 -66 -119t-111 -36h-51q-58 0 -79 47q-34 -47 -88 -47h-47zM420 337
h69l17 61q8 27 -18 27h-24q-20 0 -27 -27zM175 127h28q21 0 28 27l69 242q8 27 -17 27h-30q-20 0 -28 -27l-70 -244q-6 -25 20 -25z" />
    <glyph glyph-name="Racute" unicode="&#x154;" horiz-adv-x="479" 
d="M267 735l76 120h141l-105 -120h-112zM-23 0l200 700h215q79 0 108 -49t8 -123l-29 -101q-32 -113 -102 -142l4 -285h-147v272h-29l-78 -272h-150zM241 399h60q21 0 28 27l31 110q8 27 -18 27h-54z" />
    <glyph glyph-name="racute" unicode="&#x155;" horiz-adv-x="412" 
d="M332 585h-112l76 120h141zM350 555q57 0 77.5 -43t1.5 -109l-32 -113h-132l30 106q7 27 -17 27h-20q-20 0 -28 -27l-113 -396h-145l157 550h110v-45q52 50 105 50h6z" />
    <glyph glyph-name="uni0156" unicode="&#x156;" horiz-adv-x="479" 
d="M-23 0l200 700h215q79 0 108 -49t8 -123l-29 -101q-32 -113 -102 -142l4 -285h-147v272h-29l-78 -272h-150zM241 399h60q21 0 28 27l31 110q8 27 -18 27h-54zM101 -155v120h124l-36 -120h-88z" />
    <glyph glyph-name="uni0157" unicode="&#x157;" horiz-adv-x="412" 
d="M350 555q57 0 77.5 -43t1.5 -109l-32 -113h-132l30 106q7 27 -17 27h-20q-20 0 -28 -27l-113 -396h-145l157 550h110v-45q52 50 105 50h6zM-28 -35h124l-36 -120h-88v120z" />
    <glyph glyph-name="Rcaron" unicode="&#x158;" horiz-adv-x="479" 
d="M277 735l-65 120h113l19 -47l45 47h124l-133 -120h-103zM-23 0l200 700h215q79 0 108 -49t8 -123l-29 -101q-32 -113 -102 -142l4 -285h-147v272h-29l-78 -272h-150zM241 399h60q21 0 28 27l31 110q8 27 -18 27h-54z" />
    <glyph glyph-name="rcaron" unicode="&#x159;" horiz-adv-x="412" 
d="M230 585l-65 120h113l19 -47l45 47h124l-133 -120h-103zM350 555q57 0 77.5 -43t1.5 -109l-32 -113h-132l30 106q7 27 -17 27h-20q-20 0 -28 -27l-113 -396h-145l157 550h110v-45q52 50 105 50h6z" />
    <glyph glyph-name="Sacute" unicode="&#x15a;" horiz-adv-x="423" 
d="M347 855h141l-105 -120h-112zM104 -5q-79 0 -108 49t-8 123l25 90h143l-30 -108q-7 -25 19 -25h51q21 0 28 27l10 34q13 44 -9 70l-96 116q-59 74 -38 146l9 33q24 85 65.5 120t111.5 35h81q79 0 108 -49t8 -123l-25 -89h-147l30 106q8 27 -18 27h-37q-20 0 -28 -27
l-9 -33q-9 -26 -7.5 -39t17.5 -33l94 -117q58 -74 35 -154l-7 -24q-24 -83 -66 -119t-111 -36h-91z" />
    <glyph glyph-name="sacute" unicode="&#x15b;" horiz-adv-x="392" 
d="M300 705h141l-105 -120h-112zM117 -5q-79 0 -108 49t-8 123l11 41h127l-18 -64q-7 -27 17 -27h24q21 0 28 27l3 10q5 15 3.5 24.5t-12.5 21.5l-78 86q-57 63 -37 130l3 11q37 128 165 128h41q78 0 104 -48.5t4 -123.5l-9 -33h-126l16 56q7 27 -17 27h-20q-20 0 -28 -27
l-3 -12q-7 -20 17 -45l74 -81q25 -27 33.5 -65.5t-0.5 -64.5l-5 -20q-36 -123 -159 -123h-42z" />
    <glyph glyph-name="Scedilla" unicode="&#x15e;" horiz-adv-x="423" 
d="M104 -5q-79 0 -108 49t-8 123l25 90h143l-30 -108q-7 -25 19 -25h51q21 0 28 27l10 34q13 44 -9 70l-96 116q-59 74 -38 146l9 33q24 85 65.5 120t111.5 35h81q79 0 108 -49t8 -123l-25 -89h-147l30 106q8 27 -18 27h-37q-20 0 -28 -27l-9 -33q-9 -26 -7.5 -39t17.5 -33
l94 -117q58 -74 35 -154l-7 -24q-24 -83 -66 -119t-111 -36h-91zM88 -35h88v-120h-124z" />
    <glyph glyph-name="scedilla" unicode="&#x15f;" horiz-adv-x="392" 
d="M117 -5q-79 0 -108 49t-8 123l11 41h127l-18 -64q-7 -27 17 -27h24q21 0 28 27l3 10q5 15 3.5 24.5t-12.5 21.5l-78 86q-57 63 -37 130l3 11q37 128 165 128h41q78 0 104 -48.5t4 -123.5l-9 -33h-126l16 56q7 27 -17 27h-20q-20 0 -28 -27l-3 -12q-7 -20 17 -45l74 -81
q25 -27 33.5 -65.5t-0.5 -64.5l-5 -20q-36 -123 -159 -123h-42zM76 -35h88v-120h-124z" />
    <glyph glyph-name="Scaron" unicode="&#x160;" horiz-adv-x="423" 
d="M281 735l-65 120h113l19 -47l45 47h124l-133 -120h-103zM358 705q79 0 108 -49t8 -123l-25 -89h-147l30 106q8 27 -18 27h-37q-20 0 -28 -27l-9 -33q-9 -26 -7.5 -39t17.5 -33l94 -117q58 -74 35 -154l-7 -24q-24 -83 -66 -119t-111 -36h-91q-79 0 -108 49t-8 123l25 90
h143l-30 -108q-7 -25 19 -25h51q21 0 28 27l10 34q13 44 -9 70l-96 116q-59 74 -38 146l9 33q24 85 65.5 120t111.5 35h81z" />
    <glyph glyph-name="scaron" unicode="&#x161;" horiz-adv-x="392" 
d="M234 585l-65 120h113l19 -47l45 47h124l-133 -120h-103zM278 555q78 0 104 -48.5t4 -123.5l-9 -33h-126l16 56q7 27 -17 27h-20q-20 0 -28 -27l-3 -12q-7 -20 17 -45l74 -81q25 -27 33.5 -65.5t-0.5 -64.5l-5 -20q-36 -123 -159 -123h-42q-79 0 -108 49t-8 123l11 41h127
l-18 -64q-7 -27 17 -27h24q21 0 28 27l3 10q5 15 3.5 24.5t-12.5 21.5l-78 86q-57 63 -37 130l3 11q37 128 165 128h41z" />
    <glyph glyph-name="uni0162" unicode="&#x162;" horiz-adv-x="430" 
d="M492 560h-120l-160 -560h-150l160 560h-120l40 140h390zM52 -35h88v-120h-124z" />
    <glyph glyph-name="uni0163" unicode="&#x163;" horiz-adv-x="333" 
d="M195 157q-7 -25 20 -25h63l-38 -132h-70q-79 0 -108 49t-8 123l70 246h-73l38 132h80l56 95h109l-27 -95h90l-38 -132h-90zM89 -35h88v-120h-124z" />
    <glyph glyph-name="Tcaron" unicode="&#x164;" horiz-adv-x="430" 
d="M296 735l-65 120h113l19 -47l45 47h124l-133 -120h-103zM492 560h-120l-160 -560h-150l160 560h-120l40 140h390z" />
    <glyph glyph-name="tcaron" unicode="&#x165;" horiz-adv-x="404" 
d="M453 545h-57l-37 -127h-90l-74 -261q-7 -25 20 -25h63l-38 -132h-70q-79 0 -108 49t-8 123l70 246h-73l38 132h80l56 95h109l-27 -95h51l44 155h135z" />
    <glyph glyph-name="Tbar" unicode="&#x166;" horiz-adv-x="395" 
d="M372 560l-45 -158h94l-30 -104h-94l-85 -298h-150l85 298h-90l30 104h90l45 158h-120l40 140h390l-40 -140h-120z" />
    <glyph glyph-name="tbar" unicode="&#x167;" horiz-adv-x="306" 
d="M269 418l-26 -91h63l-30 -104h-62l-19 -66q-7 -25 20 -25h63l-38 -132h-70q-79 0 -108 49t-8 123l15 51h-73l30 104h72l26 91h-73l38 132h80l56 95h109l-27 -95h90l-38 -132h-90z" />
    <glyph glyph-name="Umacron" unicode="&#x16a;" horiz-adv-x="506" 
d="M533 845l-28 -100h-234l28 100h234zM416 150q-24 -83 -66 -119t-111 -36h-98q-79 0 -108 49t-8 123l152 533h150l-152 -532q-10 -37 26 -37h30q29 0 41 39l151 530h150z" />
    <glyph glyph-name="umacron" unicode="&#x16b;" 
d="M434 595h-234l28 100h234zM489 550l-157 -550h-110v47q-55 -52 -108 -52h-6q-66 0 -90 49t-3 123l109 383h145l-113 -396q-8 -27 17 -27h30q20 0 28 27l113 396h145z" />
    <glyph glyph-name="Uring" unicode="&#x16e;" horiz-adv-x="506" 
d="M382 726q-37 0 -61.5 24.5t-24.5 61.5q0 36 24.5 60.5t61.5 24.5q35 0 59.5 -24.5t24.5 -60.5q0 -37 -24.5 -61.5t-59.5 -24.5zM382 789q9 0 15.5 6.5t6.5 16.5t-6.5 16.5t-15.5 6.5q-10 0 -17 -6.5t-7 -16.5t7 -16.5t17 -6.5zM416 150q-24 -83 -66 -119t-111 -36h-98
q-79 0 -108 49t-8 123l152 533h150l-152 -532q-10 -37 26 -37h30q29 0 41 39l151 530h150z" />
    <glyph glyph-name="uring" unicode="&#x16f;" 
d="M311 576q-37 0 -61.5 24.5t-24.5 61.5q0 36 24.5 60.5t61.5 24.5q35 0 59.5 -24.5t24.5 -60.5q0 -37 -24.5 -61.5t-59.5 -24.5zM311 685q-10 0 -17 -6.5t-7 -16.5t7 -16.5t17 -6.5q9 0 15.5 6.5t6.5 16.5t-6.5 16.5t-15.5 6.5zM489 550l-157 -550h-110v47
q-55 -52 -108 -52h-6q-66 0 -90 49t-3 123l109 383h145l-113 -396q-8 -27 17 -27h30q20 0 28 27l113 396h145z" />
    <glyph glyph-name="Uhungarumlaut" unicode="&#x170;" horiz-adv-x="506" 
d="M309 855h141l-105 -120h-112zM469 855h141l-105 -120h-112zM416 150q-24 -83 -66 -119t-111 -36h-98q-79 0 -108 49t-8 123l152 533h150l-152 -532q-10 -37 26 -37h30q29 0 41 39l151 530h150z" />
    <glyph glyph-name="uhungarumlaut" unicode="&#x171;" 
d="M274 585h-112l76 120h141zM322 585l76 120h141l-105 -120h-112zM344 550h145l-157 -550h-110v47q-55 -52 -108 -52h-6q-66 0 -90 49t-3 123l109 383h145l-113 -396q-8 -27 17 -27h30q20 0 28 27z" />
    <glyph glyph-name="Uogonek" unicode="&#x172;" horiz-adv-x="506" 
d="M416 150q-24 -83 -66 -119t-111 -36h-98q-79 0 -108 49t-8 123l152 533h150l-152 -532q-10 -37 26 -37h30q29 0 41 39l151 530h150zM156 -155v120h88l36 -120h-124z" />
    <glyph glyph-name="uogonek" unicode="&#x173;" 
d="M222 0v47q-55 -52 -108 -52h-6q-66 0 -90 49t-3 123l109 383h145l-113 -396q-8 -27 17 -27h30q20 0 28 27l113 396h145l-157 -550h-110zM312 -35l36 -120h-124v120h88z" />
    <glyph glyph-name="Wcircumflex" unicode="&#x174;" horiz-adv-x="650" 
d="M431 735h-124l133 120h103l65 -120h-113l-19 47zM762 700l-304 -700h-159l30 290h-4l-132 -290h-159l98 700h145l-36 -251l-35 -179h4l153 351h108l-39 -351h4l72 186l102 244h152z" />
    <glyph glyph-name="wcircumflex" unicode="&#x175;" horiz-adv-x="600" 
d="M363 585h-124l133 120h103l65 -120h-113l-19 47zM664 550l-239 -550h-145l8 211h-5l-107 -211h-155l73 550h140l-39 -229l-22 -106h5l131 273h103l-21 -273h5l34 99l92 236h142z" />
    <glyph glyph-name="Ycircumflex" unicode="&#x176;" horiz-adv-x="462" 
d="M337 735h-124l133 120h103l65 -120h-113l-19 47zM298 242l-69 -242h-150l69 240l-16 460h154l-7 -156l-13 -134h5l139 290h164z" />
    <glyph glyph-name="ycircumflex" unicode="&#x177;" horiz-adv-x="419" 
d="M274 585h-124l133 120h103l65 -120h-113l-19 47zM485 550l-250 -562q-28 -63 -75.5 -103t-101.5 -40h-103l36 128h45q22 0 30 16l30 561h144l-31 -243l-22 -147h4l148 390h146z" />
    <glyph glyph-name="Ydieresis" unicode="&#x178;" horiz-adv-x="462" 
d="M348 735h-132l35 120h131zM378 735l35 120h131l-34 -120h-132zM298 242l-69 -242h-150l69 240l-16 460h154l-7 -156l-13 -134h5l139 290h164z" />
    <glyph glyph-name="Zacute" unicode="&#x179;" horiz-adv-x="440" 
d="M281 735l76 120h141l-105 -120h-112zM-48 0l33 116l321 444h-186l40 140h356l-33 -116l-320 -444h204l-40 -140h-375z" />
    <glyph glyph-name="zacute" unicode="&#x17a;" horiz-adv-x="379" 
d="M323 585h-112l76 120h141zM397 436l-248 -304h170l-38 -132h-338l31 113l250 305h-155l38 132h322z" />
    <glyph glyph-name="Zdotaccent" unicode="&#x17b;" horiz-adv-x="440" 
d="M415 735h-146l34 120h146zM483 584l-320 -444h204l-40 -140h-375l33 116l321 444h-186l40 140h356z" />
    <glyph glyph-name="zdotaccent" unicode="&#x17c;" horiz-adv-x="379" 
d="M345 585h-146l34 120h146zM397 436l-248 -304h170l-38 -132h-338l31 113l250 305h-155l38 132h322z" />
    <glyph glyph-name="Zcaron" unicode="&#x17d;" horiz-adv-x="440" 
d="M291 735l-65 120h113l19 -47l45 47h124l-133 -120h-103zM160 700h356l-33 -116l-320 -444h204l-40 -140h-375l33 116l321 444h-186z" />
    <glyph glyph-name="zcaron" unicode="&#x17e;" horiz-adv-x="379" 
d="M221 585l-65 120h113l19 -47l45 47h124l-133 -120h-103zM107 550h322l-32 -114l-248 -304h170l-38 -132h-338l31 113l250 305h-155z" />
    <glyph glyph-name="uni0218" unicode="&#x218;" horiz-adv-x="423" 
d="M104 -5q-79 0 -108 49t-8 123l25 90h143l-30 -108q-7 -25 19 -25h51q21 0 28 27l10 34q13 44 -9 70l-96 116q-59 74 -38 146l9 33q24 85 65.5 120t111.5 35h81q79 0 108 -49t8 -123l-25 -89h-147l30 106q8 27 -18 27h-37q-20 0 -28 -27l-9 -33q-9 -26 -7.5 -39t17.5 -33
l94 -117q58 -74 35 -154l-7 -24q-24 -83 -66 -119t-111 -36h-91zM149 -155h-88v120h124z" />
    <glyph glyph-name="uni0219" unicode="&#x219;" horiz-adv-x="392" 
d="M117 -5q-79 0 -108 49t-8 123l11 41h127l-18 -64q-7 -27 17 -27h24q21 0 28 27l3 10q5 15 3.5 24.5t-12.5 21.5l-78 86q-57 63 -37 130l3 11q37 128 165 128h41q78 0 104 -48.5t4 -123.5l-9 -33h-126l16 56q7 27 -17 27h-20q-20 0 -28 -27l-3 -12q-7 -20 17 -45l74 -81
q25 -27 33.5 -65.5t-0.5 -64.5l-5 -20q-36 -123 -159 -123h-42zM137 -155h-88v120h124z" />
    <glyph glyph-name="uni021A" unicode="&#x21a;" horiz-adv-x="430" 
d="M492 560h-120l-160 -560h-150l160 560h-120l40 140h390zM68 -35h124l-36 -120h-88v120z" />
    <glyph glyph-name="uni021B" unicode="&#x21b;" horiz-adv-x="333" 
d="M195 157q-7 -25 20 -25h63l-38 -132h-70q-79 0 -108 49t-8 123l70 246h-73l38 132h80l56 95h109l-27 -95h90l-38 -132h-90zM62 -35h124l-36 -120h-88v120z" />
    <glyph glyph-name="uni02BC" unicode="&#x2bc;" horiz-adv-x="230" 
d="M204 448h-112l74 257h145z" />
    <glyph glyph-name="circumflex" unicode="&#x2c6;" horiz-adv-x="420" 
d="M337 585l-19 47l-45 -47h-124l133 120h103l65 -120h-113z" />
    <glyph glyph-name="caron" unicode="&#x2c7;" horiz-adv-x="420" 
d="M484 705l-133 -120h-103l-65 120h113l19 -47l45 47h124z" />
    <glyph glyph-name="breve" unicode="&#x2d8;" horiz-adv-x="420" 
d="M457 676q-14 -49 -38.5 -70t-65.5 -21h-89q-46 0 -63 28.5t-4 72.5l5 19h100l-3 -10q-3 -12 0.5 -17t15.5 -5h25q17 0 23 23l2 9h100z" />
    <glyph glyph-name="dotaccent" unicode="&#x2d9;" horiz-adv-x="420" 
d="M406 705l-34 -120h-146l34 120h146z" />
    <glyph glyph-name="ring" unicode="&#x2da;" horiz-adv-x="420" 
d="M296 576q-37 0 -61.5 24.5t-24.5 61.5q0 36 24.5 60.5t61.5 24.5q35 0 59.5 -24.5t24.5 -60.5q0 -37 -24.5 -61.5t-59.5 -24.5zM296 639q9 0 15.5 6.5t6.5 16.5t-6.5 16.5t-15.5 6.5q-10 0 -17 -6.5t-7 -16.5t7 -16.5t17 -6.5z" />
    <glyph glyph-name="ogonek" unicode="&#x2db;" horiz-adv-x="420" 
d="M132 -155v120h88l36 -120h-124z" />
    <glyph glyph-name="tilde" unicode="&#x2dc;" horiz-adv-x="420" 
d="M250 720q9 0 61 -18l30 -10q12 -4 15 -4q4 0 6 5l8 27h88l-17 -60q-18 -60 -60 -60q-12 0 -61 18l-21 8l-22 8q-6 0 -8 -7l-8 -27h-88l18 60q17 60 59 60z" />
    <glyph glyph-name="hungarumlaut" unicode="&#x2dd;" horiz-adv-x="420" 
d="M223 705h141l-105 -120h-112zM383 705h141l-105 -120h-112z" />
    <glyph glyph-name="uni0326" unicode="&#x326;" horiz-adv-x="0" 
d="M-280 -155h-88v120h124z" />
    <glyph glyph-name="uni0401" unicode="&#x401;" horiz-adv-x="401" 
d="M315 735h-132l35 120h131zM345 735l35 120h131l-34 -120h-132zM438 560h-153l-40 -140h142l-40 -140h-142l-40 -140h153l-40 -140h-301l200 700h301z" />
    <glyph glyph-name="uni0404" unicode="&#x404;" horiz-adv-x="462" 
d="M385 705q79 0 108 -49t8 -123l-24 -84h-140l27 93q8 27 -18 27h-45q-21 0 -28 -27l-35 -123h105l-40 -139h-105l-35 -124q-7 -25 19 -25h44q20 0 28 27l26 92h140l-28 -100q-24 -84 -64.5 -119.5t-109.5 -35.5h-82q-79 0 -108 49t-8 123l109 383q24 83 66 119t111 36h79z
" />
    <glyph glyph-name="uni0406" unicode="&#x406;" horiz-adv-x="260" 
d="M327 700l-200 -700h-150l200 700h150z" />
    <glyph glyph-name="uni0407" unicode="&#x407;" horiz-adv-x="260" 
d="M281 855l-34 -120h-132l35 120h131zM443 855l-34 -120h-132l35 120h131zM327 700l-200 -700h-150l200 700h150z" />
    <glyph glyph-name="uni040E" unicode="&#x40e;" horiz-adv-x="426" 
d="M295 735q-46 0 -63 28.5t-4 72.5l5 19h100l-3 -10q-3 -12 0.5 -17t15.5 -5h25q17 0 23 23l2 9h100l-8 -29q-14 -49 -38.5 -70t-65.5 -21h-89zM548 700l-247 -508q-54 -112 -91.5 -152t-100.5 -40h-112l41 142h59q12 0 18 5l8 553h146l-22 -257l-19 -141h7l55 147l104 251
h154z" />
    <glyph glyph-name="uni0410" unicode="&#x410;" horiz-adv-x="456" 
d="M476 700l-123 -700h-152l26 122h-88l-42 -122h-150l273 700h256zM256 258l64 304h-28l-105 -304h69z" />
    <glyph glyph-name="uni0411" unicode="&#x411;" horiz-adv-x="475" 
d="M287 560l-34 -120h65q78 0 107.5 -49t8.5 -123l-33 -113q-24 -83 -66 -119t-111 -36h-247l200 700h345l-40 -140h-195zM214 305l-48 -170h60q20 0 27 27l33 116q9 27 -18 27h-54z" />
    <glyph glyph-name="uni0412" unicode="&#x412;" horiz-adv-x="481" 
d="M392 700q79 0 108 -49t8 -123l-12 -41q-26 -96 -81 -135q36 -44 13 -124l-21 -73q-24 -83 -66 -119t-111 -36h-248l200 700h210zM290 563l-42 -146h66q20 0 28 27l26 92q8 27 -18 27h-60zM288 256q8 27 -18 27h-60l-43 -150h66q21 0 28 27z" />
    <glyph glyph-name="uni0413" unicode="&#x413;" horiz-adv-x="391" 
d="M453 560h-166l-160 -560h-150l200 700h316z" />
    <glyph glyph-name="uni0414" unicode="&#x414;" horiz-adv-x="534" 
d="M415 140h66l-69 -240h-104v100h-233l-68 -100h-104l69 240h53q31 73 86 249l96 311h368zM385 561h-71l-53 -172q-47 -153 -95 -249h99z" />
    <glyph glyph-name="uni0415" unicode="&#x415;" horiz-adv-x="401" 
d="M285 560l-40 -140h142l-40 -140h-142l-40 -140h153l-40 -140h-301l200 700h301l-40 -140h-153z" />
    <glyph glyph-name="uni0416" unicode="&#x416;" horiz-adv-x="736" 
d="M803 700l-200 -700h-150l80 280h-88l-80 -280h-150l80 280h-88l-80 -280h-150l200 700h150l-80 -280h88l80 280h150l-80 -280h88l80 280h150z" />
    <glyph glyph-name="uni0417" unicode="&#x417;" horiz-adv-x="456" 
d="M368 705q79 0 108 -49t8 -123l-19 -67q-14 -52 -31.5 -79t-45.5 -40q38 -40 15 -119l-22 -78q-24 -83 -66 -119t-111 -36h-83q-79 0 -108 49t-8 123l24 84h140l-27 -93q-8 -27 18 -27h45q21 0 28 27l28 98q7 25 -20 25h-78l40 139h85q20 0 28 27l27 97q7 25 -19 25h-44
q-20 0 -28 -27l-26 -92h-140l28 100q24 84 64.5 119.5t109.5 35.5h80z" />
    <glyph glyph-name="uni0418" unicode="&#x418;" horiz-adv-x="520" 
d="M182 700h143l-56 -196l-57 -174h5l225 370h140l-200 -700h-143l56 196l57 174h-5l-225 -370h-140z" />
    <glyph glyph-name="uni0419" unicode="&#x419;" horiz-adv-x="520" 
d="M539 826q-14 -49 -38.5 -70t-65.5 -21h-89q-46 0 -63 28.5t-4 72.5l5 19h100l-3 -10q-3 -12 0.5 -17t15.5 -5h25q17 0 23 23l2 9h100zM182 700h143l-56 -196l-57 -174h5l225 370h140l-200 -700h-143l56 196l57 174h-5l-225 -370h-140z" />
    <glyph glyph-name="uni041A" unicode="&#x41a;" horiz-adv-x="480" 
d="M376 349l5 -349h-147v280h-27l-80 -280h-150l200 700h150l-80 -280h19l156 280h150z" />
    <glyph glyph-name="uni041B" unicode="&#x41b;" horiz-adv-x="511" 
d="M378 0h-150l160 560h-74l-70 -232q-53 -173 -71 -212q-30 -67 -76 -94.5t-120 -23.5l-40 3l40 139h32q14 0 20.5 4t18.5 30t25 67t40 131l99 328h366z" />
    <glyph glyph-name="uni041C" unicode="&#x41c;" horiz-adv-x="642" 
d="M704 700l-200 -700h-145l54 188l54 167h-5l-144 -239h-84l-8 239h-5l-40 -167l-54 -188h-145l200 700h143l21 -324l197 324h161z" />
    <glyph glyph-name="uni041D" unicode="&#x41d;" horiz-adv-x="506" 
d="M573 700l-200 -700h-150l80 280h-96l-80 -280h-150l200 700h150l-80 -280h96l80 280h150z" />
    <glyph glyph-name="uni041E" unicode="&#x41e;" horiz-adv-x="496" 
d="M411 150q-24 -83 -66 -119t-111 -36h-98q-79 0 -108 49t-8 123l109 383q24 83 66 119t111 36h98q79 0 108 -49t8 -123zM373 542q7 27 -18 27h-50q-21 0 -28 -27l-110 -386q-7 -25 19 -25h49q21 0 28 27z" />
    <glyph glyph-name="uni041F" unicode="&#x41f;" horiz-adv-x="506" 
d="M373 0h-150l160 560h-96l-160 -560h-150l200 700h396z" />
    <glyph glyph-name="uni0420" unicode="&#x420;" horiz-adv-x="480" 
d="M397 700q79 0 108 -49t8 -123l-32 -113q-24 -83 -66.5 -119t-111.5 -36h-102l-74 -260h-150l200 700h220zM365 536q7 27 -18 27h-59l-49 -170h65q20 0 28 27z" />
    <glyph glyph-name="uni0421" unicode="&#x421;" horiz-adv-x="483" 
d="M136 -5q-79 0 -108 49t-8 123l109 383q24 83 66 119t111 36h90q79 0 108 -49t8 -123l-38 -135h-147l41 144q8 27 -18 27h-45q-21 0 -28 -27l-110 -386q-7 -25 19 -25h44q20 0 28 27l38 133h147l-40 -141q-24 -84 -64.5 -119.5t-109.5 -35.5h-93z" />
    <glyph glyph-name="uni0422" unicode="&#x422;" horiz-adv-x="430" 
d="M492 560h-120l-160 -560h-150l160 560h-120l40 140h390z" />
    <glyph glyph-name="uni0423" unicode="&#x423;" horiz-adv-x="426" 
d="M548 700l-247 -508q-54 -112 -91.5 -152t-100.5 -40h-112l41 142h59q12 0 18 5l8 553h146l-22 -257l-19 -141h7l55 147l104 251h154z" />
    <glyph glyph-name="uni0424" unicode="&#x424;" horiz-adv-x="694" 
d="M594 658q79 0 108 -49t8 -123l-75 -263q-24 -83 -66.5 -119t-111.5 -36h-95l-22 -78h-148l22 78h-63q-78 0 -107 49t-8 123l75 263q24 83 66 119t111 36h94l21 72h148l-21 -72h64zM254 208l89 310h-58q-21 0 -28 -27l-73 -256q-8 -27 18 -27h52zM561 491q7 27 -18 27h-52
l-89 -310h58q20 0 28 27z" />
    <glyph glyph-name="uni0425" unicode="&#x425;" horiz-adv-x="482" 
d="M353 353l36 -353h-148l-12 204h-4l-120 -204h-168l243 369l-37 331h144l14 -202h4l115 202h159z" />
    <glyph glyph-name="uni0426" unicode="&#x426;" horiz-adv-x="532" 
d="M413 140h66l-69 -240h-104v100h-329l200 700h150l-160 -560h96l160 560h150z" />
    <glyph glyph-name="uni0427" unicode="&#x427;" horiz-adv-x="484" 
d="M551 700l-200 -700h-150l74 259h-69q-79 0 -108 49t-8 123l77 269h150l-78 -274q-7 -27 18 -27h58l86 301h150z" />
    <glyph glyph-name="uni0428" unicode="&#x428;" horiz-adv-x="730" 
d="M797 700l-200 -700h-620l200 700h150l-160 -560h85l160 560h150l-160 -560h85l160 560h150z" />
    <glyph glyph-name="uni0429" unicode="&#x429;" horiz-adv-x="756" 
d="M637 140h66l-69 -240h-104v100h-553l200 700h150l-160 -560h85l160 560h150l-160 -560h85l160 560h150z" />
    <glyph glyph-name="uni042A" unicode="&#x42a;" horiz-adv-x="543" 
d="M386 440q78 0 107.5 -49t8.5 -123l-33 -113q-24 -83 -66 -119t-111 -36h-247l160 560h-108l40 140h258l-74 -260h65zM354 278q9 27 -18 27h-54l-48 -170h60q20 0 27 27z" />
    <glyph glyph-name="uni042B" unicode="&#x42b;" horiz-adv-x="695" 
d="M318 440q78 0 107.5 -49t8.5 -123l-33 -113q-24 -83 -66 -119t-111 -36h-247l200 700h150l-74 -260h65zM762 700l-200 -700h-150l200 700h150zM286 278q9 27 -18 27h-54l-48 -170h60q20 0 27 27z" />
    <glyph glyph-name="uni042C" unicode="&#x42c;" horiz-adv-x="475" 
d="M318 440q78 0 107.5 -49t8.5 -123l-33 -113q-24 -83 -66 -119t-111 -36h-247l200 700h150l-74 -260h65zM286 278q9 27 -18 27h-54l-48 -170h60q20 0 27 27z" />
    <glyph glyph-name="uni042D" unicode="&#x42d;" horiz-adv-x="462" 
d="M370 705q79 0 108 -49t8 -123l-109 -383q-24 -83 -66 -119t-111 -36h-79q-79 0 -108 49t-8 123l24 84h140l-27 -93q-8 -27 18 -27h45q21 0 28 27l35 123h-105l40 139h105l35 124q7 25 -19 25h-44q-20 0 -28 -27l-26 -92h-136l28 100q24 84 64.5 119.5t109.5 35.5h78z" />
    <glyph glyph-name="uni042E" unicode="&#x42e;" horiz-adv-x="706" 
d="M614 705q79 0 108 -49t8 -123l-109 -383q-24 -83 -66 -119t-111 -36h-83q-79 0 -108 49t-8 123l32 113h-70l-80 -280h-150l200 700h150l-80 -280h70l37 130q24 83 66 119t111 36h83zM583 542q7 27 -18 27h-38q-21 0 -28 -27l-110 -386q-7 -25 19 -25h37q21 0 28 27z" />
    <glyph glyph-name="uni042F" unicode="&#x42f;" horiz-adv-x="484" 
d="M351 0h-150l73 255h-22l-158 -255h-161l192 297q-58 43 -32 135l33 113q24 83 66 119t111 36h248zM311 385l51 180h-61q-11 0 -17 -6.5t-10 -20.5l-36 -126q-8 -27 18 -27h55z" />
    <glyph glyph-name="uni0430" unicode="&#x430;" horiz-adv-x="421" 
d="M81 -5q-61 0 -85 43.5t-5 108.5l7 25q18 61 51.5 89t92.5 50l93 35q18 7 24 25l11 37q6 25 -20 25h-20q-20 0 -28 -27l-13 -47h-130l11 41q24 83 66.5 119t111.5 36h44q78 0 107 -49t8 -123l-109 -383h-107v47q-55 -52 -101 -52h-9zM140 118h32q20 0 27 27l28 98l-60 -25
q-19 -8 -25 -30l-13 -43q-7 -27 11 -27z" />
    <glyph glyph-name="uni0431" unicode="&#x431;" horiz-adv-x="453" 
d="M531 705l-5 -18q-21 -77 -62.5 -110t-111.5 -33h-71q-20 0 -28 -29l-23 -77q54 54 100 54h6q63 0 85.5 -50.5t-0.5 -121.5l-48 -170q-24 -83 -66 -119t-111 -36h-65q-79 0 -108 49t-8 123l101 353q24 83 66 119t111 36l65 -1q20 0 27 27l1 4h145zM235 360q-20 0 -28 -27
l-52 -181q-6 -25 20 -25h26q21 0 28 27l51 179q8 27 -17 27h-28z" />
    <glyph glyph-name="uni0432" unicode="&#x432;" horiz-adv-x="426" 
d="M306 550q78 0 109.5 -42t13.5 -105l-6 -20q-20 -70 -81 -105q41 -47 22 -116l-6 -21q-40 -141 -173 -141h-213l157 550h177zM229 420l-26 -91h46q21 0 28 27l10 37q7 27 -17 27h-41zM230 194q9 27 -17 27h-41l-26 -91h46q20 0 28 27z" />
    <glyph glyph-name="uni0433" unicode="&#x433;" horiz-adv-x="350" 
d="M376 416h-140l-119 -416h-145l157 550h285z" />
    <glyph glyph-name="uni0434" unicode="&#x434;" horiz-adv-x="483" 
d="M373 132h55l-64 -222h-110v90h-182l-61 -90h-110l64 222h50q35 75 69 187l70 231h338zM229 128l90 317h-59l-44 -141q-29 -93 -73 -176h86z" />
    <glyph glyph-name="uni0435" unicode="&#x435;" horiz-adv-x="439" 
d="M310 555q78 0 107 -49t8 -123l-42 -150h-207l-24 -83q-7 -25 20 -25h22q20 0 27 27l10 34h138l-10 -36q-24 -83 -66 -119t-111 -36h-51q-79 0 -108 49t-8 123l66 233q24 83 66.5 119t111.5 36h51zM206 337h69l17 61q8 27 -18 27h-24q-20 0 -27 -27z" />
    <glyph glyph-name="uni0436" unicode="&#x436;" horiz-adv-x="668" 
d="M697 550l-157 -550h-145l60 209h-67l-60 -209h-144l60 209h-67l-60 -209h-145l157 550h145l-60 -209h67l60 209h144l-60 -209h67l60 209h145z" />
    <glyph glyph-name="uni0437" unicode="&#x437;" horiz-adv-x="400" 
d="M282 555q79 0 108.5 -46t9.5 -116l-5 -19q-20 -69 -72 -105q34 -41 15 -107l-3 -12q-24 -83 -66 -119t-111 -36h-47q-79 0 -108 49t-8 123l13 45h125l-17 -58q-8 -27 17 -27h38q20 0 28 27l10 34q7 27 -18 27h-53l35 120h58q11 0 17 6.5t10 20.5l11 36q7 25 -20 25h-36
q-21 0 -28 -27l-16 -57h-125l17 61q24 83 66.5 119t111.5 36h43z" />
    <glyph glyph-name="uni0438" unicode="&#x438;" horiz-adv-x="470" 
d="M129 550h138l-40 -141l-43 -129h5l175 270h135l-157 -550h-138l40 141l43 129h-5l-175 -270h-135z" />
    <glyph glyph-name="uni0439" unicode="&#x439;" horiz-adv-x="470" 
d="M467 676q-14 -49 -38.5 -70t-65.5 -21h-89q-46 0 -63 28.5t-4 72.5l5 19h100l-3 -10q-3 -12 0.5 -17t15.5 -5h25q17 0 23 23l2 9h100zM129 550h138l-40 -141l-43 -129h5l175 270h135l-157 -550h-138l40 141l43 129h-5l-175 -270h-135z" />
    <glyph glyph-name="uni043A" unicode="&#x43a;" horiz-adv-x="432" 
d="M333 271l7 -271h-145l1 208h-20l-59 -208h-145l157 550h145l-59 -208h16l123 208h147z" />
    <glyph glyph-name="uni043B" unicode="&#x43b;" horiz-adv-x="457" 
d="M329 0h-145l119 418h-54l-30 -100q-50 -165 -69 -205q-29 -65 -72 -92t-114 -23l-32 2l38 132h26q23 0 38 33t63 196l57 189h332z" />
    <glyph glyph-name="uni043C" unicode="&#x43c;" horiz-adv-x="585" 
d="M609 550l-157 -550h-135l47 163l52 157h-4l-132 -239h-84l-1 239h-4l-32 -157l-47 -163h-135l157 550h151l5 -258l151 258h168z" />
    <glyph glyph-name="uni043D" unicode="&#x43d;" horiz-adv-x="465" 
d="M494 550l-157 -550h-145l59 208h-75l-59 -208h-145l157 550h145l-59 -208h75l59 208h145z" />
    <glyph glyph-name="uni043E" unicode="&#x43e;" horiz-adv-x="455" 
d="M131 -5q-79 0 -108 49t-8 123l66 233q24 83 66.5 119t111.5 36h67q78 0 107 -49t8 -123l-66 -233q-24 -83 -66 -119t-111 -36h-67zM203 127q21 0 28 27l69 242q8 27 -17 27h-30q-20 0 -28 -27l-70 -244q-6 -25 20 -25h28z" />
    <glyph glyph-name="uni043F" unicode="&#x43f;" horiz-adv-x="462" 
d="M334 0h-145l119 418h-72l-119 -418h-145l157 550h362z" />
    <glyph glyph-name="uni0440" unicode="&#x440;" 
d="M354 555q66 0 90 -49t2 -123l-66 -233q-44 -155 -168 -155h-3q-53 0 -80 46l-56 -196h-145l201 705h110v-47q59 52 109 52h6zM305 396q7 27 -17 27h-30q-20 0 -28 -27l-70 -244q-6 -25 20 -25h28q20 0 28 27z" />
    <glyph glyph-name="uni0441" unicode="&#x441;" horiz-adv-x="455" 
d="M375 150q-24 -83 -66 -119t-111 -36h-67q-79 0 -108 49t-8 123l66 233q24 83 66.5 119t111.5 36h67q78 0 107 -49t8 -123l-20 -73h-145l24 86q8 27 -17 27h-30q-20 0 -28 -27l-70 -244q-6 -25 20 -25h28q21 0 28 27l22 76h145z" />
    <glyph glyph-name="uni0442" unicode="&#x442;" horiz-adv-x="382" 
d="M408 416h-104l-119 -416h-144l119 416h-104l38 134h352z" />
    <glyph glyph-name="uni0443" unicode="&#x443;" horiz-adv-x="419" 
d="M485 550l-250 -562q-28 -63 -75.5 -103t-101.5 -40h-103l36 128h45q22 0 30 16l30 561h144l-31 -243l-22 -147h4l148 390h146z" />
    <glyph glyph-name="uni0444" unicode="&#x444;" horiz-adv-x="666" 
d="M569 555q62 0 84 -50.5t-1 -121.5l-66 -233q-44 -155 -166 -155h-3q-52 0 -79 44l-55 -194h-144l57 199q-47 -49 -91 -49h-6q-62 0 -84 50.5t0 121.5l66 233q45 155 167 155h3q50 0 78 -43l55 193h144l-57 -200q50 50 92 50h6zM297 398q7 25 -20 25h-24q-21 0 -28 -27
l-69 -242q-8 -27 17 -27h26q20 0 28 27zM511 396q7 27 -17 27h-26q-20 0 -28 -27l-70 -244q-6 -25 20 -25h24q20 0 28 27z" />
    <glyph glyph-name="uni0445" unicode="&#x445;" horiz-adv-x="435" 
d="M299 274l43 -274h-138l-16 146h-5l-89 -146h-157l208 297l-43 253h137l16 -142h4l86 142h146z" />
    <glyph glyph-name="uni0446" unicode="&#x446;" horiz-adv-x="473" 
d="M363 132h55l-64 -222h-110v90h-271l157 550h145l-119 -418h62l119 418h145z" />
    <glyph glyph-name="uni0447" unicode="&#x447;" horiz-adv-x="451" 
d="M480 550l-157 -550h-145l54 190h-51q-78 0 -107.5 49t-8.5 123l54 188h143l-57 -199q-7 -27 18 -27h47l65 226h145z" />
    <glyph glyph-name="uni0448" unicode="&#x448;" horiz-adv-x="666" 
d="M695 550l-157 -550h-566l157 550h145l-119 -418h66l119 418h144l-119 -418h66l119 418h145z" />
    <glyph glyph-name="uni0449" unicode="&#x449;" horiz-adv-x="686" 
d="M576 132h55l-64 -222h-110v90h-485l157 550h145l-119 -418h66l119 418h144l-119 -418h66l119 418h145z" />
    <glyph glyph-name="uni044A" unicode="&#x44a;" horiz-adv-x="483" 
d="M308 350q79 0 108 -49t8 -123l-7 -23q-24 -83 -66 -119t-111 -36h-213l119 416h-95l38 134h238l-57 -200h38zM290 209q8 27 -18 27h-35l-31 -110h40q20 0 28 27z" />
    <glyph glyph-name="uni044B" unicode="&#x44b;" horiz-adv-x="629" 
d="M-28 0l157 550h143l-57 -200h38q79 0 108 -49t8 -123l-7 -23q-24 -83 -66 -119t-111 -36h-213zM356 0l157 550h145l-157 -550h-145zM151 126h40q21 0 28 27l16 56q7 27 -18 27h-35z" />
    <glyph glyph-name="uni044C" unicode="&#x44c;" horiz-adv-x="428" 
d="M253 350q79 0 108 -49t8 -123l-7 -23q-24 -83 -66 -119t-111 -36h-213l157 550h143l-57 -200h38zM235 209q7 27 -18 27h-35l-31 -110h40q21 0 28 27z" />
    <glyph glyph-name="uni044D" unicode="&#x44d;" horiz-adv-x="425" 
d="M296 555q78 0 107 -49t8 -123l-66 -233q-24 -83 -66 -119t-111 -36h-57q-79 0 -108 49t-8 123l13 45h134l-17 -58q-7 -27 17 -27h39q20 0 28 27l18 61h-80l35 120h79l18 63q7 25 -20 25h-37q-20 0 -28 -27l-16 -57h-130l17 61q24 83 66.5 119t111.5 36h53z" />
    <glyph glyph-name="uni044E" unicode="&#x44e;" horiz-adv-x="654" 
d="M525 555q78 0 107 -49t8 -123l-66 -233q-24 -83 -66 -119t-111 -36h-56q-79 0 -108 49t-8 123l12 41h-61l-59 -208h-145l157 550h145l-59 -208h60l16 58q24 83 66.5 119t111.5 36h56zM499 396q7 27 -17 27h-25q-20 0 -28 -27l-70 -244q-6 -25 20 -25h23q20 0 28 27z" />
    <glyph glyph-name="uni044F" unicode="&#x44f;" horiz-adv-x="441" 
d="M-65 0l154 233q-47 43 -25 122l12 40q24 83 66 119t111 36h217l-157 -550h-140l52 183h-23l-114 -183h-153zM216 297h42l35 123h-47q-20 0 -28 -27l-19 -69q-9 -27 17 -27z" />
    <glyph glyph-name="uni0451" unicode="&#x451;" horiz-adv-x="439" 
d="M292 585h-132l35 120h131zM488 705l-34 -120h-132l35 120h131zM310 555q78 0 107 -49t8 -123l-42 -150h-207l-24 -83q-7 -25 20 -25h22q20 0 27 27l10 34h138l-10 -36q-24 -83 -66 -119t-111 -36h-51q-79 0 -108 49t-8 123l66 233q24 83 66.5 119t111.5 36h51zM206 337
h69l17 61q8 27 -18 27h-24q-20 0 -27 -27z" />
    <glyph glyph-name="uni0454" unicode="&#x454;" horiz-adv-x="425" 
d="M316 555q78 0 107 -49t8 -123l-12 -45h-134l16 58q8 27 -17 27h-39q-20 0 -28 -27l-17 -61h79l-35 -120h-79l-18 -63q-6 -25 20 -25h37q20 0 28 27l16 57h134l-17 -61q-24 -83 -66 -119t-111 -36h-57q-79 0 -108 49t-8 123l66 233q24 83 66.5 119t111.5 36h57z" />
    <glyph glyph-name="uni0456" unicode="&#x456;" horiz-adv-x="245" 
d="M319 705l-34 -120h-146l34 120h146zM274 550l-157 -550h-145l157 550h145z" />
    <glyph glyph-name="uni0457" unicode="&#x457;" horiz-adv-x="220" 
d="M231 705l-34 -120h-132l35 120h131zM393 705l-34 -120h-132l35 120h131zM274 550l-157 -550h-145l157 550h145z" />
    <glyph glyph-name="uni045E" unicode="&#x45e;" horiz-adv-x="419" 
d="M250 585q-46 0 -63 28.5t-4 72.5l5 19h100l-3 -10q-3 -12 0.5 -17t15.5 -5h25q17 0 23 23l2 9h100l-8 -29q-14 -49 -38.5 -70t-65.5 -21h-89zM485 550l-250 -562q-28 -63 -75.5 -103t-101.5 -40h-103l36 128h45q22 0 30 16l30 561h144l-31 -243l-22 -147h4l148 390h146z
" />
    <glyph glyph-name="uni0490" unicode="&#x490;" horiz-adv-x="361" 
d="M-23 0l200 700h183l57 100h104l-68 -240h-166l-160 -560h-150z" />
    <glyph glyph-name="uni0491" unicode="&#x491;" horiz-adv-x="350" 
d="M414 550l-38 -134h-140l-119 -416h-145l157 550h139l62 90h109z" />
    <glyph glyph-name="Wgrave" unicode="&#x1e80;" horiz-adv-x="650" 
d="M441 855l58 -120h-120l-81 120h143zM277 700l-36 -251l-35 -179h4l153 351h108l-39 -351h4l72 186l102 244h152l-304 -700h-159l30 290h-4l-132 -290h-159l98 700h145z" />
    <glyph glyph-name="wgrave" unicode="&#x1e81;" horiz-adv-x="600" 
d="M373 705l58 -120h-120l-81 120h143zM234 550l-39 -229l-22 -106h5l131 273h103l-21 -273h5l34 99l92 236h142l-239 -550h-145l8 211h-5l-107 -211h-155l73 550h140z" />
    <glyph glyph-name="Wacute" unicode="&#x1e82;" horiz-adv-x="650" 
d="M472 855h141l-105 -120h-112zM277 700l-36 -251l-35 -179h4l153 351h108l-39 -351h4l72 186l102 244h152l-304 -700h-159l30 290h-4l-132 -290h-159l98 700h145z" />
    <glyph glyph-name="wacute" unicode="&#x1e83;" horiz-adv-x="600" 
d="M404 705h141l-105 -120h-112zM234 550l-39 -229l-22 -106h5l131 273h103l-21 -273h5l34 99l92 236h142l-239 -550h-145l8 211h-5l-107 -211h-155l73 550h140z" />
    <glyph glyph-name="Wdieresis" unicode="&#x1e84;" horiz-adv-x="650" 
d="M476 855l-34 -120h-132l35 120h131zM638 855l-34 -120h-132l35 120h131zM277 700l-36 -251l-35 -179h4l153 351h108l-39 -351h4l72 186l102 244h152l-304 -700h-159l30 290h-4l-132 -290h-159l98 700h145z" />
    <glyph glyph-name="wdieresis" unicode="&#x1e85;" horiz-adv-x="600" 
d="M408 705l-34 -120h-132l35 120h131zM570 705l-34 -120h-132l35 120h131zM234 550l-39 -229l-22 -106h5l131 273h103l-21 -273h5l34 99l92 236h142l-239 -550h-145l8 211h-5l-107 -211h-155l73 550h140z" />
    <glyph glyph-name="uni1E9E" unicode="&#x1e9e;" horiz-adv-x="598" 
d="M622 575l-143 -143q59 -12 79.5 -58t1.5 -111l-32 -113q-24 -83 -66 -119t-111 -36h-33q-73 0 -99.5 49t-5.5 123l18 65h116l-23 -80q-8 -27 19 -27h13q20 0 27 27l39 134q7 25 -20 25h-125l29 103l152 153h-142q-17 0 -25.5 -9.5t-14.5 -29.5l-151 -528h-148l157 550
q24 83 66 119t111 36h348z" />
    <glyph glyph-name="Ygrave" unicode="&#x1ef2;" horiz-adv-x="462" 
d="M285 735l-81 120h143l58 -120h-120zM298 242l-69 -242h-150l69 240l-16 460h154l-7 -156l-13 -134h5l139 290h164z" />
    <glyph glyph-name="ygrave" unicode="&#x1ef3;" horiz-adv-x="419" 
d="M222 585l-81 120h143l58 -120h-120zM485 550l-250 -562q-28 -63 -75.5 -103t-101.5 -40h-103l36 128h45q22 0 30 16l30 561h144l-31 -243l-22 -147h4l148 390h146z" />
    <glyph glyph-name="endash" unicode="&#x2013;" horiz-adv-x="450" 
d="M402 245h-370l37 130h370z" />
    <glyph glyph-name="emdash" unicode="&#x2014;" horiz-adv-x="640" 
d="M592 245h-560l37 130h560z" />
    <glyph glyph-name="quoteleft" unicode="&#x2018;" horiz-adv-x="230" 
d="M180 705h112l-74 -257h-145z" />
    <glyph glyph-name="quoteright" unicode="&#x2019;" horiz-adv-x="230" 
d="M204 448h-112l74 257h145z" />
    <glyph glyph-name="quotesinglbase" unicode="&#x201a;" horiz-adv-x="230" 
d="M58 -90h-112l74 257h145z" />
    <glyph glyph-name="quotedblleft" unicode="&#x201c;" horiz-adv-x="420" 
d="M187 705h112l-74 -257h-145zM377 705h112l-74 -257h-145z" />
    <glyph glyph-name="quotedblright" unicode="&#x201d;" horiz-adv-x="420" 
d="M211 448h-112l74 257h145zM401 448h-112l74 257h145z" />
    <glyph glyph-name="quotedblbase" unicode="&#x201e;" horiz-adv-x="420" 
d="M58 -90h-112l74 257h145zM248 -90h-112l74 257h145z" />
    <glyph glyph-name="dagger" unicode="&#x2020;" 
d="M477 432h-140l-123 -432h-124l123 432h-140l38 130h140l39 138h124l-39 -138h140z" />
    <glyph glyph-name="daggerdbl" unicode="&#x2021;" 
d="M337 432l-46 -164h140l-38 -130h-140l-39 -138h-124l39 138h-140l38 130h140l46 164h-140l38 130h140l39 138h124l-39 -138h140l-38 -130h-140z" />
    <glyph glyph-name="bullet" unicode="&#x2022;" horiz-adv-x="470" 
d="M242 180q-55 0 -92.5 37.5t-37.5 92.5t37.5 92.5t92.5 37.5t92.5 -37.5t37.5 -92.5t-37.5 -92.5t-92.5 -37.5z" />
    <glyph glyph-name="ellipsis" unicode="&#x2026;" horiz-adv-x="650" 
d="M127 0h-155l48 167h155zM357 0h-155l48 167h155zM587 0h-155l48 167h155z" />
    <glyph glyph-name="perthousand" unicode="&#x2030;" horiz-adv-x="846" 
d="M127 613q27 92 111 92h47q45 0 65.5 -28t7.5 -73l-32 -111q-27 -92 -110 -92h-49q-44 0 -64.5 28t-7.5 73zM641 700l-576 -700h-96l576 700h96zM185 494q-4 -12 10 -12h27q7 0 9 2t4 11l34 116q3 13 -11 13h-26q-10 0 -14 -14zM284 207q27 92 110 92h48q45 0 65.5 -28
t7.5 -73l-32 -111q-27 -92 -111 -92h-48q-45 0 -65 28t-7 73zM564 207q27 92 110 92h48q45 0 65.5 -28t7.5 -73l-32 -111q-27 -92 -111 -92h-48q-45 0 -65 28t-7 73zM341 88q-2 -7 0 -9.5t11 -2.5h27q6 0 8 2t4 11l34 116q3 13 -10 13h-26q-11 0 -15 -14zM621 88
q-2 -7 0 -9.5t11 -2.5h27q6 0 8 2t4 11l34 116q3 13 -10 13h-26q-11 0 -15 -14z" />
    <glyph glyph-name="guilsinglleft" unicode="&#x2039;" horiz-adv-x="286" 
d="M166 305l34 -159h-112l-36 134l19 65l99 129h123z" />
    <glyph glyph-name="guilsinglright" unicode="&#x203a;" horiz-adv-x="286" 
d="M255 340l-18 -65l-100 -129h-123l127 169l-34 159h112z" />
    <glyph glyph-name="Euro" unicode="&#x20ac;" horiz-adv-x="440" 
d="M399 705q79 0 108 -49t8 -123l-11 -40h-134l15 53q7 27 -18 27h-47q-20 0 -28 -27l-23 -81h138l-26 -90h-138l-14 -50h138l-26 -90h-138l-22 -79q-7 -25 19 -25h46q20 0 28 27l14 49h134l-16 -57q-24 -84 -64.5 -119.5t-109.5 -35.5h-70q-79 0 -108 49t-8 123l19 68h-59
l26 90h59l14 50h-59l26 90h59l24 85q24 83 66 119t111 36h67z" />
    <glyph glyph-name="uni20B4" unicode="&#x20b4;" 
d="M361 705q87 0 120.5 -38t19.5 -86l-6 -22q-7 -24 -70 -94h65l-26 -90h-123l-46 -50h155l-26 -90h-212l-14 -15q-25 -27 -34 -56l-8 -27q-2 -8 2 -12t16 -4h55q24 0 33 32l10 37h129l-11 -40q-24 -83 -66 -119t-111 -36h-76q-79 0 -112.5 34t-18.5 86l7 26q9 31 64 94h-53
l26 90h110l46 50h-142l26 90h200l30 33q31 33 37 52l4 15q3 8 -1 12t-16 4h-48q-22 0 -31 -30l-11 -41h-139l11 40q24 83 66 119t111 36h58z" />
    <glyph glyph-name="uni20BD" unicode="&#x20bd;" horiz-adv-x="481" 
d="M409 700q79 0 108 -49t8 -123l-28 -98q-24 -83 -66 -119t-111 -36h-92l-15 -50h173l-25 -90h-173l-39 -135h-138l39 135h-84l25 90h84l15 50h-84l25 90h84l96 335h198zM387 536q7 27 -18 27h-59l-49 -170h65q20 0 28 27z" />
    <glyph glyph-name="uni2116" unicode="&#x2116;" horiz-adv-x="752" 
d="M599 617q25 88 102 88h54q41 0 60 -26.5t7 -68.5l-38 -135q-25 -88 -104 -88h-54q-41 0 -59.5 26t-5.5 69zM179 700h133l16 -340h5l39 160l51 180h136l-200 -700h-133l-16 340h-5l-39 -160l-51 -180h-136zM654 482q-1 -5 4 -5h29q4 0 6 5l36 128q1 3 0 4t-6 1h-28
q-3 0 -5 -5zM736 347l-28 -98h-204l28 98h204z" />
    <glyph glyph-name="trademark" unicode="&#x2122;" horiz-adv-x="475" 
d="M245 634l-58 -204h-71l58 204h-51l19 66h173l-19 -66h-51zM582 700l-77 -270h-66l22 80l26 77h-2l-65 -117h-41v117h-2l-16 -77l-23 -80h-66l77 270h74l2 -127l74 127h83z" />
    <glyph glyph-name="minus" unicode="&#x2212;" 
d="M403 250h-360l35 120h360z" />
    <glyph glyph-name="approxequal" unicode="&#x2248;" 
d="M84 410q17 60 42.5 85.5t68.5 25.5q26 0 41.5 -8t36.5 -28l35 -36q2 -1 6.5 -6t9 -9.5t5.5 -4.5t3 6l25 86h119l-32 -111q-17 -59 -42 -85t-68 -26q-26 0 -42.5 8.5t-35.5 27.5l-36 36l-3 3l-6 8t-6.5 7t-4.5 3l-3 -3l-25 -90h-119zM15 170q17 60 42.5 85.5t68.5 25.5
q26 0 41.5 -8t36.5 -28l35 -36q2 -1 6.5 -6t9 -9.5t5.5 -4.5q2 0 3 6l25 86h119l-32 -111q-17 -59 -42 -85t-68 -26q-26 0 -42.5 8.5t-35.5 27.5l-36 36l-3 3l-6 8t-6.5 7t-4.5 3l-3 -3l-25 -90h-119z" />
    <glyph glyph-name="notequal" unicode="&#x2260;" 
d="M19 50l57 100h-61l34 120h95l45 80h-117l34 120h151l45 80h134l-45 -80h75l-34 -120h-109l-45 -80h131l-34 -120h-165l-57 -100h-134z" />
    <glyph glyph-name="lessequal" unicode="&#x2264;" 
d="M439 411l-180 -64l144 -64l-36 -123l-300 138l32 114l380 138zM-2 120h360l-35 -120h-360z" />
    <glyph glyph-name="greaterequal" unicode="&#x2265;" 
d="M439 411l-32 -114l-380 -138l40 139l180 64l-144 64l36 123zM17 120h360l-35 -120h-360z" />
    <glyph glyph-name="i.loclTRK" horiz-adv-x="220" 
d="M319 705l-34 -120h-146l34 120h146zM274 550l-157 -550h-145l157 550h145z" />
    <glyph glyph-name="a.ss01" 
d="M489 550l-157 -550h-110v47q-55 -52 -108 -52h-6q-66 0 -90 49t-3 123l66 233q45 155 169 155h3q64 0 97 -55l29 50h110zM301 398q7 25 -20 25h-28q-21 0 -28 -27l-69 -242q-8 -27 17 -27h30q20 0 28 27z" />
    <glyph glyph-name="zero.osf" 
d="M380 150q-24 -83 -66 -119t-111 -36h-72q-79 0 -108 49t-8 123l66 233q24 83 66.5 119t111.5 36h72q78 0 107 -49t8 -123zM303 388q10 37 -27 37h-14q-17 0 -25.5 -9.5t-14.5 -29.5l-64 -224q-10 -37 27 -37h14q17 0 25.5 9.5t14.5 29.5z" />
    <glyph glyph-name="one.osf" horiz-adv-x="308" 
d="M177 0h-145l118 412h-84l39 138h229z" />
    <glyph glyph-name="two.osf" 
d="M-28 0l17 61q14 48 31 80t51 54l212 143q24 17 31 42l3 12q10 37 -26 37h-26q-29 0 -41 -39l-14 -51h-141l17 61q24 83 66.5 119t111.5 36h70q79 0 108.5 -46t9.5 -116l-4 -15q-23 -79 -91 -124l-180 -117h200l-39 -137h-366z" />
    <glyph glyph-name="three.osf" horiz-adv-x="440" 
d="M317 555q78 0 107.5 -49t8.5 -123l-21 -79q-20 -74 -83 -104q47 -35 27 -106l-27 -94q-24 -83 -66 -119t-111 -36h-65q-79 0 -108 49t-8 123l22 78h132l-25 -87q-10 -37 27 -37h22q17 0 25.5 9.5t14.5 29.5l24 85q10 37 -26 37h-51l39 138h54q17 0 25.5 9.5t14.5 29.5
l24 83q10 37 -27 37h-17q-17 0 -25.5 -9.5t-14.5 -29.5l-19 -69h-132l22 79q24 83 66 119t111 36h60z" />
    <glyph glyph-name="four.osf" horiz-adv-x="442" 
d="M327 102h66l-36 -127h-66l-36 -125h-134l36 125h-219l34 121l325 454h87l-2 -3l3 3h70zM193 102l33 117l41 119h-5l-149 -236h80z" />
    <glyph glyph-name="five.osf" horiz-adv-x="441" 
d="M228 412l-35 -106q52 38 97 38h13q55 0 80 -40.5t6 -105.5l-56 -198q-24 -83 -66 -119t-111 -36h-68q-79 0 -108 49t-8 123l25 88h141l-28 -98q-10 -37 26 -37h14q17 0 25.5 9.5t14.5 29.5l50 173q10 37 -27 37h-9q-11 0 -19.5 -5.5t-12.5 -11.5t-12 -22h-138l119 370
h328l-39 -138h-202z" />
    <glyph glyph-name="six.osf" horiz-adv-x="448" 
d="M377 705q79 0 108 -49t8 -123l-12 -42h-130l13 45q10 37 -26 37h-29q-17 0 -25.5 -9.5t-14.5 -29.5l-36 -125q43 38 86 38h26q56 0 79.5 -40.5t4.5 -105.5l-43 -151q-24 -83 -66 -119t-111 -36h-65q-79 0 -108 49t-8 123l109 383q24 83 66 119t111 36h63zM240 331
q-29 0 -41 -39l-36 -128q-5 -19 1.5 -28t27.5 -9h13q17 0 25.5 9.5t14.5 29.5l37 128q10 37 -27 37h-15z" />
    <glyph glyph-name="seven.osf" horiz-adv-x="401" 
d="M457 550l-30 -110l-338 -590h-157l337 562h-208l39 138h357z" />
    <glyph glyph-name="eight.osf" 
d="M368 705q79 0 108 -49t8 -123l-22 -78q-13 -46 -31 -70t-47 -36q42 -39 23 -104l-27 -95q-24 -83 -66 -119t-111 -36h-72q-79 0 -108 48.5t-8 123.5l22 78q14 49 33 73t52 36q-38 37 -20 101l27 95q24 84 66 119.5t111 35.5h62zM348 542q10 37 -27 37h-16
q-17 0 -25.5 -9.5t-14.5 -29.5l-26 -92q-10 -37 26 -37h16q29 0 41 39zM264 252q10 37 -26 37h-14q-29 0 -41 -39l-26 -92q-10 -37 27 -37h14q17 0 25.5 9.5t14.5 29.5z" />
    <glyph glyph-name="nine.osf" horiz-adv-x="448" 
d="M305 555q79 0 108 -49t8 -123l-109 -383q-24 -83 -66 -119t-111 -36h-63q-79 0 -108 49t-8 123l12 42h130l-13 -45q-10 -37 26 -37h29q17 0 25.5 9.5t14.5 29.5l36 125q-43 -38 -86 -38h-26q-56 0 -79.5 40.5t-4.5 105.5l43 151q24 83 66 119t111 36h65zM286 386
q5 19 -1.5 28t-27.5 9h-13q-17 0 -25.5 -9.5t-14.5 -29.5l-37 -128q-10 -37 27 -37h15q29 0 41 39z" />
    <glyph glyph-name="zero.tf" 
d="M380 150q-24 -83 -66 -119t-111 -36h-72q-79 0 -108 49t-8 123l109 383q24 83 66 119t111 36h72q79 0 108 -49t8 -123zM346 538q10 37 -27 37h-14q-17 0 -25.5 -9.5t-14.5 -29.5l-107 -374q-10 -37 27 -37h14q17 0 25.5 9.5t14.5 29.5z" />
    <glyph glyph-name="one.tf" 
d="M266 138h110l-39 -138h-360l39 138h105l122 424h-105l39 138h250z" />
    <glyph glyph-name="two.tf" 
d="M7 116q22 76 81 134l226 218q20 20 27 43l9 31q10 37 -27 37h-17q-17 0 -25.5 -9.5t-14.5 -29.5l-23 -80h-138l26 90q24 83 66 119t111 36h66q79 0 108 -49t8 -123l-8 -30q-17 -58 -66 -106l-223 -217q-20 -20 -25 -38l-2 -4h211l-39 -138h-364z" />
    <glyph glyph-name="three.tf" 
d="M355 705q78 0 107.5 -49t8.5 -123l-21 -79q-20 -74 -83 -104q47 -35 27 -106l-27 -94q-24 -83 -66 -119t-111 -36h-65q-79 0 -108 49t-8 123l22 78h132l-25 -87q-10 -37 27 -37h22q17 0 25.5 9.5t14.5 29.5l24 85q10 37 -26 37h-51l39 138h54q17 0 25.5 9.5t14.5 29.5
l24 83q10 37 -27 37h-17q-17 0 -25.5 -9.5t-14.5 -29.5l-19 -69h-132l22 79q24 83 66 119t111 36h60z" />
    <glyph glyph-name="four.tf" 
d="M372 252h66l-36 -127h-66l-36 -125h-134l36 125h-229l34 121l335 454h87l-2 -3l3 3h70zM238 252l33 117l41 119h-5l-159 -236h90z" />
    <glyph glyph-name="five.tf" 
d="M275 562l-35 -106q52 38 97 38h13q55 0 80 -40.5t6 -105.5l-56 -198q-24 -83 -66 -119t-111 -36h-68q-79 0 -108 49t-8 123l25 88h141l-28 -98q-10 -37 26 -37h14q17 0 25.5 9.5t14.5 29.5l50 173q10 37 -27 37h-9q-11 0 -19.5 -5.5t-12.5 -11.5t-12 -22h-138l119 370
h328l-39 -138h-202z" />
    <glyph glyph-name="six.tf" 
d="M370 705q79 0 108 -49t8 -123l-12 -42h-130l13 45q10 37 -26 37h-29q-17 0 -25.5 -9.5t-14.5 -29.5l-36 -125q43 38 86 38h26q56 0 79.5 -40.5t4.5 -105.5l-43 -151q-24 -83 -66 -119t-111 -36h-65q-79 0 -108 49t-8 123l109 383q24 83 66 119t111 36h63zM233 331
q-29 0 -41 -39l-36 -128q-5 -19 1.5 -28t27.5 -9h13q17 0 25.5 9.5t14.5 29.5l37 128q10 37 -27 37h-15z" />
    <glyph glyph-name="seven.tf" 
d="M543 700l-30 -110l-358 -590h-157l355 562h-226l39 138h377z" />
    <glyph glyph-name="eight.tf" 
d="M368 705q79 0 108 -49t8 -123l-22 -78q-13 -46 -31 -70t-47 -36q42 -39 23 -104l-27 -95q-24 -83 -66 -119t-111 -36h-72q-79 0 -108 48.5t-8 123.5l22 78q14 49 33 73t52 36q-38 37 -20 101l27 95q24 84 66 119.5t111 35.5h62zM348 542q10 37 -27 37h-16
q-17 0 -25.5 -9.5t-14.5 -29.5l-26 -92q-10 -37 26 -37h16q29 0 41 39zM264 252q10 37 -26 37h-14q-29 0 -41 -39l-26 -92q-10 -37 27 -37h14q17 0 25.5 9.5t14.5 29.5z" />
    <glyph glyph-name="nine.tf" 
d="M367 705q79 0 108 -49t8 -123l-109 -383q-24 -83 -66 -119t-111 -36h-63q-79 0 -108 49t-8 123l12 42h130l-13 -45q-10 -37 26 -37h29q17 0 25.5 9.5t14.5 29.5l36 125q-43 -38 -86 -38h-26q-56 0 -79.5 40.5t-4.5 105.5l43 151q24 83 66 119t111 36h65zM348 536
q5 19 -1.5 28t-27.5 9h-13q-17 0 -25.5 -9.5t-14.5 -29.5l-37 -128q-10 -37 27 -37h15q29 0 41 39z" />
    <glyph glyph-name="zero.tosf" 
d="M380 150q-24 -83 -66 -119t-111 -36h-72q-79 0 -108 49t-8 123l66 233q24 83 66.5 119t111.5 36h72q78 0 107 -49t8 -123zM303 388q10 37 -27 37h-14q-17 0 -25.5 -9.5t-14.5 -29.5l-64 -224q-10 -37 27 -37h14q17 0 25.5 9.5t14.5 29.5z" />
    <glyph glyph-name="one.tosf" 
d="M266 138h110l-39 -138h-360l39 138h105l79 274h-105l39 138h250z" />
    <glyph glyph-name="two.tosf" 
d="M-28 0l17 61q14 48 31 80t51 54l212 143q24 17 31 42l3 12q10 37 -26 37h-26q-29 0 -41 -39l-14 -51h-141l17 61q24 83 66.5 119t111.5 36h70q79 0 108.5 -46t9.5 -116l-4 -15q-23 -79 -91 -124l-180 -117h200l-39 -137h-366z" />
    <glyph glyph-name="three.tosf" 
d="M312 555q78 0 107.5 -49t8.5 -123l-21 -79q-20 -74 -83 -104q47 -35 27 -106l-27 -94q-24 -83 -66 -119t-111 -36h-65q-79 0 -108 49t-8 123l22 78h132l-25 -87q-10 -37 27 -37h22q17 0 25.5 9.5t14.5 29.5l24 85q10 37 -26 37h-51l39 138h54q17 0 25.5 9.5t14.5 29.5
l24 83q10 37 -27 37h-17q-17 0 -25.5 -9.5t-14.5 -29.5l-19 -69h-132l22 79q24 83 66 119t111 36h60z" />
    <glyph glyph-name="four.tosf" 
d="M329 102h66l-36 -127h-66l-36 -125h-134l36 125h-229l34 121l335 454h87l-2 -3l3 3h70zM195 102l33 117l41 119h-5l-159 -236h90z" />
    <glyph glyph-name="five.tosf" 
d="M232 412l-35 -106q52 38 97 38h13q55 0 80 -40.5t6 -105.5l-56 -198q-24 -83 -66 -119t-111 -36h-68q-79 0 -108 49t-8 123l25 88h141l-28 -98q-10 -37 26 -37h14q17 0 25.5 9.5t14.5 29.5l50 173q10 37 -27 37h-9q-11 0 -19.5 -5.5t-12.5 -11.5t-12 -22h-138l119 370
h328l-39 -138h-202z" />
    <glyph glyph-name="six.tosf" 
d="M327 555q79 0 108 -49t8 -123l-12 -42h-130l13 45q10 37 -26 37h-29q-17 0 -25.5 -9.5t-14.5 -29.5l-36 -125q43 38 86 38h26q56 0 79.5 -40.5t4.5 -105.5l-43 -151q-24 -83 -66 -119t-111 -36h-65q-79 0 -108 49t-8 123l109 383q24 83 66 119t111 36h63zM190 181
q-29 0 -41 -39l-36 -128q-5 -19 1.5 -28t27.5 -9h13q17 0 25.5 9.5t14.5 29.5l37 128q10 37 -27 37h-15z" />
    <glyph glyph-name="seven.tosf" 
d="M500 550l-30 -110l-358 -590h-157l355 562h-226l39 138h377z" />
    <glyph glyph-name="eight.tosf" 
d="M325 555q79 0 108 -49t8 -123l-22 -78q-13 -46 -31 -70t-47 -36q42 -39 23 -104l-27 -95q-24 -83 -66 -119t-111 -36h-72q-79 0 -108 48.5t-8 123.5l22 78q14 49 33 73t52 36q-38 37 -20 101l27 95q24 84 66 119.5t111 35.5h62zM305 392q10 37 -27 37h-16
q-17 0 -25.5 -9.5t-14.5 -29.5l-26 -92q-10 -37 26 -37h16q29 0 41 39zM221 102q10 37 -26 37h-14q-29 0 -41 -39l-26 -92q-10 -37 27 -37h14q17 0 25.5 9.5t14.5 29.5z" />
    <glyph glyph-name="nine.tosf" 
d="M324 555q79 0 108 -49t8 -123l-109 -383q-24 -83 -66 -119t-111 -36h-63q-79 0 -108 49t-8 123l12 42h130l-13 -45q-10 -37 26 -37h29q17 0 25.5 9.5t14.5 29.5l36 125q-43 -38 -86 -38h-26q-56 0 -79.5 40.5t-4.5 105.5l43 151q24 83 66 119t111 36h65zM305 386
q5 19 -1.5 28t-27.5 9h-13q-17 0 -25.5 -9.5t-14.5 -29.5l-37 -128q-10 -37 27 -37h15q29 0 41 39z" />
    <glyph glyph-name="at.case" horiz-adv-x="670" 
d="M136 -5q-79 0 -108 49t-8 123l109 383q24 83 66 119t111 36h272q79 0 108 -49t8 -123l-77 -269q-24 -83 -65.5 -119t-110.5 -36h-93v41q-48 -45 -88 -45h-8q-53 0 -73.5 37.5t-4.5 94.5l6 22q16 53 45 77t80 44l81 30q17 7 21 22l10 32q6 22 -18 22h-17q-18 0 -24 -24
l-12 -41h-113l10 36q21 73 57.5 104t96.5 31h39q68 0 93.5 -42.5t7.5 -107.5l-77 -268h1q27 1 48.5 26t32.5 64l77 269q15 52 0 79.5t-59 27.5h-272q-57 0 -84 -90l-109 -383q-15 -52 0 -79.5t59 -27.5h235l-18 -65h-235zM304 212h27q18 0 25 23l24 86l-52 -22
q-17 -8 -23 -26l-10 -38q-8 -23 9 -23z" />
    <glyph glyph-name="brevecombcy.n" horiz-adv-x="0" 
d="M37 676q-14 -49 -38.5 -70t-65.5 -21h-89q-46 0 -63 28.5t-4 72.5l5 19h100l-3 -10q-3 -12 0.5 -17t15.5 -5h25q17 0 23 23l2 9h100z" />
    <glyph glyph-name="PariMatch" horiz-adv-x="2506" 
d="M255 700h497q58 0 82 -32.5t8 -88.5l-9 -32q-25 -86 -115 -86h-115l-25 -88h-416zM959 700h164v-327h-94v55h-123l-31 -55h-109zM1231 700h178q58 0 82.5 -32t8.5 -89l-9 -29q-18 -65 -70 -81l29 -96h-101l-27 90h-61l-26 -90h-98zM1570 700h98l-93 -327h-98zM732 541
l19 71h-105l-20 -71h106zM1389 541l20 71h-105l-21 -71h106zM1029 507v104h-19l-59 -104h78zM468 327h417l45 -131l111 131h127l-93 -327h-98l54 187l-92 -107h-63l-34 100l-51 -180h-416zM1289 327h164v-327h-94v55h-123l-31 -55h-109zM1500 327h297l-27 -94h-92l-66 -233
h-98l66 233h-107zM1792 240q25 87 115 87h158l-27 -94h-148l-41 -140h149l-27 -93h-123q-58 0 -82.5 32t-8.5 89zM2092 327h98l-33 -117h112l33 117h98l-93 -327h-98l33 117h-112l-33 -117h-98zM1359 134v104h-19l-59 -104h78z" />
    <glyph glyph-name="NULL" horiz-adv-x="0" 
 />
    </font>
</defs>
</svg>
