<svg width="200" height="200" viewBox="0 0 200 200" fill="none" xmlns="http://www.w3.org/2000/svg">
<path fill-rule="evenodd" clip-rule="evenodd" d="M200 0H0V200H200V0ZM194.323 76.527C195.937 81.7172 194.616 87.3005 190.877 91.1048L157.591 124.974C156.172 126.42 155.521 128.496 155.856 130.534L163.712 178.353C164.409 182.555 163.355 186.657 160.741 189.885C158.12 193.134 154.308 195 150.286 195C148.083 195 145.949 194.444 143.948 193.344L102.802 170.765C101.086 169.831 98.9214 169.823 97.2017 170.765L56.0596 193.344C50.3984 196.449 43.3184 194.917 39.2627 189.885C36.6528 186.657 35.5952 182.563 36.2915 178.353L44.144 130.534C44.4788 128.5 43.8281 126.42 42.4092 124.974L9.12329 91.1088C5.38354 87.3045 4.06323 81.7211 5.67651 76.5309C7.29346 71.3408 11.5088 67.6318 16.6792 66.8495L62.6833 59.8723C64.6426 59.5745 66.3396 58.2918 67.2146 56.4373L87.7856 12.9263C90.095 8.03784 94.782 5 100.002 5C105.226 5 109.913 8.03784 112.222 12.9263L132.789 56.4333C133.664 58.2878 135.357 59.5705 137.317 59.8683L183.321 66.8455C188.495 67.6318 192.707 71.3368 194.323 76.527Z" fill="white"/>
</svg>
