<svg width="55" height="55" viewBox="0 0 55 55" fill="none" xmlns="http://www.w3.org/2000/svg">
<g clip-path="url(#clip0)">
<path d="M37.4778 55L31.255 44.2021L23.5723 49.8974V22L48.7151 39.7031L38.9848 41.1304L45.115 51.7124L37.4778 55ZM32.2937 39.9039L38.8843 51.3164L40.8706 50.468L34.2501 39.0376L41.529 38.0078L26.7151 27.6141V44.0921L32.2937 39.9039Z" fill="url(#paint0_linear)"/>
<path d="M32.2937 39.9039L38.8843 51.3164L40.8706 50.468L34.2501 39.0376L41.529 38.0078L26.7151 27.6141V44.0921L32.2937 39.9039Z" fill="url(#paint1_linear)"/>
</g>
<mask id="path-2-inside-1" fill="white">
<path d="M36.6197 27.9978C38.5873 25.4042 39.5441 22.3236 39.3475 19.2153C39.1509 16.1071 37.8113 13.1376 35.5286 10.7499C33.2459 8.36211 30.1423 6.68389 26.6806 5.96545C23.2189 5.24702 19.5845 5.52686 16.3194 6.76326C13.0543 7.99965 10.3334 10.1264 8.56235 12.8263C6.79132 15.5262 6.06505 18.6546 6.49184 21.7452C6.91864 24.8357 8.47563 27.7228 10.9307 29.9759C13.3857 32.2289 16.6072 33.7273 20.1149 34.2476L20.7138 31.1568C17.9677 30.7495 15.4457 29.5764 13.5238 27.8126C11.6018 26.0487 10.3829 23.7886 10.0488 21.3691C9.71466 18.9496 10.2832 16.5005 11.6697 14.3868C13.0562 12.2732 15.1863 10.6083 17.7424 9.64035C20.2985 8.67243 23.1437 8.45335 25.8538 9.01578C28.5638 9.57822 30.9935 10.892 32.7805 12.7613C34.5675 14.6306 35.6162 16.9552 35.7701 19.3886C35.9241 21.8219 35.175 24.2336 33.6346 26.2641L36.6197 27.9978Z"/>
</mask>
<path d="M36.6197 27.9978C38.5873 25.4042 39.5441 22.3236 39.3475 19.2153C39.1509 16.1071 37.8113 13.1376 35.5286 10.7499C33.2459 8.36211 30.1423 6.68389 26.6806 5.96545C23.2189 5.24702 19.5845 5.52686 16.3194 6.76326C13.0543 7.99965 10.3334 10.1264 8.56235 12.8263C6.79132 15.5262 6.06505 18.6546 6.49184 21.7452C6.91864 24.8357 8.47563 27.7228 10.9307 29.9759C13.3857 32.2289 16.6072 33.7273 20.1149 34.2476L20.7138 31.1568C17.9677 30.7495 15.4457 29.5764 13.5238 27.8126C11.6018 26.0487 10.3829 23.7886 10.0488 21.3691C9.71466 18.9496 10.2832 16.5005 11.6697 14.3868C13.0562 12.2732 15.1863 10.6083 17.7424 9.64035C20.2985 8.67243 23.1437 8.45335 25.8538 9.01578C28.5638 9.57822 30.9935 10.892 32.7805 12.7613C34.5675 14.6306 35.6162 16.9552 35.7701 19.3886C35.9241 21.8219 35.175 24.2336 33.6346 26.2641L36.6197 27.9978Z" fill="url(#paint2_linear)" stroke="url(#paint3_linear)" stroke-width="2" mask="url(#path-2-inside-1)"/>
<mask id="path-3-inside-2" fill="white">
<path d="M31.6005 25.0287C32.8763 23.347 33.4967 21.3495 33.3692 19.3342C33.2417 17.3188 32.3732 15.3935 30.8931 13.8452C29.413 12.297 27.4007 11.2089 25.1561 10.7431C22.9116 10.2772 20.5551 10.4587 18.438 11.2604C16.321 12.062 14.5567 13.441 13.4084 15.1916C12.2601 16.9421 11.7892 18.9706 12.0659 20.9745C12.3426 22.9784 13.3522 24.8503 14.944 26.3112C16.5358 27.7721 18.6246 28.7436 20.899 29.081L21.3057 26.9819C19.5486 26.7213 17.9348 25.9707 16.705 24.8421C15.4752 23.7134 14.6953 22.2672 14.4815 20.7191C14.2677 19.171 14.6315 17.6038 15.5187 16.2514C16.4058 14.8989 17.7688 13.8336 19.4044 13.2143C21.04 12.5949 22.8605 12.4547 24.5946 12.8146C26.3286 13.1745 27.8833 14.0152 29.0268 15.2113C30.1703 16.4074 30.8413 17.8948 30.9398 19.4518C31.0382 21.0088 30.5589 22.552 29.5733 23.8512L31.6005 25.0287Z"/>
</mask>
<path d="M31.6005 25.0287C32.8763 23.347 33.4967 21.3495 33.3692 19.3342C33.2417 17.3188 32.3732 15.3935 30.8931 13.8452C29.413 12.297 27.4007 11.2089 25.1561 10.7431C22.9116 10.2772 20.5551 10.4587 18.438 11.2604C16.321 12.062 14.5567 13.441 13.4084 15.1916C12.2601 16.9421 11.7892 18.9706 12.0659 20.9745C12.3426 22.9784 13.3522 24.8503 14.944 26.3112C16.5358 27.7721 18.6246 28.7436 20.899 29.081L21.3057 26.9819C19.5486 26.7213 17.9348 25.9707 16.705 24.8421C15.4752 23.7134 14.6953 22.2672 14.4815 20.7191C14.2677 19.171 14.6315 17.6038 15.5187 16.2514C16.4058 14.8989 17.7688 13.8336 19.4044 13.2143C21.04 12.5949 22.8605 12.4547 24.5946 12.8146C26.3286 13.1745 27.8833 14.0152 29.0268 15.2113C30.1703 16.4074 30.8413 17.8948 30.9398 19.4518C31.0382 21.0088 30.5589 22.552 29.5733 23.8512L31.6005 25.0287Z" fill="url(#paint4_linear)" stroke="url(#paint5_linear)" stroke-width="2" mask="url(#path-3-inside-2)"/>
<defs>
<linearGradient id="paint0_linear" x1="36.1437" y1="22" x2="36.1437" y2="55" gradientUnits="userSpaceOnUse">
<stop stop-color="#EC0008"/>
<stop offset="1" stop-color="#B72126"/>
</linearGradient>
<linearGradient id="paint1_linear" x1="36.1437" y1="22" x2="36.1437" y2="55" gradientUnits="userSpaceOnUse">
<stop stop-color="#EC0008"/>
<stop offset="1" stop-color="#B72126"/>
</linearGradient>
<linearGradient id="paint2_linear" x1="31.998" y1="7.98461" x2="16.9459" y2="33.8996" gradientUnits="userSpaceOnUse">
<stop stop-color="#EC0008"/>
<stop offset="1" stop-color="#B72126"/>
</linearGradient>
<linearGradient id="paint3_linear" x1="31.998" y1="7.98461" x2="16.9459" y2="33.8996" gradientUnits="userSpaceOnUse">
<stop stop-color="#EC0008"/>
<stop offset="1" stop-color="#B72126"/>
</linearGradient>
<linearGradient id="paint4_linear" x1="28.6038" y1="12.0523" x2="18.8442" y2="28.8553" gradientUnits="userSpaceOnUse">
<stop stop-color="#EC0008"/>
<stop offset="1" stop-color="#B72126"/>
</linearGradient>
<linearGradient id="paint5_linear" x1="28.6038" y1="12.0523" x2="18.8442" y2="28.8553" gradientUnits="userSpaceOnUse">
<stop stop-color="#EC0008"/>
<stop offset="1" stop-color="#B72126"/>
</linearGradient>
<clipPath id="clip0">
<rect width="37.7143" height="33" fill="white" transform="translate(17.2861 22)"/>
</clipPath>
</defs>
</svg>
