<svg width="55" height="55" viewBox="0 0 55 55" fill="none" xmlns="http://www.w3.org/2000/svg">
<g clip-path="url(#clip0)">
<path fill-rule="evenodd" clip-rule="evenodd" d="M50.1683 52C50.1683 51.4477 49.7206 51 49.1683 51H46.9996C46.4473 51 45.9996 50.5523 45.9996 50V1C45.9996 0.447715 45.5519 0 44.9996 0H9.75163C9.19934 0 8.75163 0.447716 8.75163 1V50.2789C8.75163 50.8312 8.30391 51.2789 7.75163 51.2789H5.33494C4.78266 51.2789 4.33494 51.7266 4.33494 52.2789V54C4.33494 54.5523 4.78266 55 5.33494 55H49.1683C49.7206 55 50.1683 54.5523 50.1683 54V52ZM12.7516 5C12.7516 4.44772 13.1993 4 13.7516 4H40.9996L21.2352 6.82339C20.7425 6.89377 20.3766 7.31569 20.3766 7.81334V47.3503C20.3766 47.8535 20.7505 48.2783 21.2496 48.3422L41.9996 51L13.7612 51.2693C13.2052 51.2746 12.7516 50.8254 12.7516 50.2693V5ZM22.6683 28.319C22.6683 27.8427 23.0042 27.4325 23.4712 27.3386L23.9996 27.2324V10L41.9996 8V47L23.9996 44.8746V29.5241L23.8653 29.5511C23.2463 29.6755 22.6683 29.2021 22.6683 28.5707V28.319Z" fill="url(#paint0_linear)"/>
<path d="M23.4712 27.3386C23.0042 27.4325 22.6683 27.8427 22.6683 28.319V28.5707C22.6683 29.2021 23.2463 29.6755 23.8653 29.5511L23.9996 29.5241V27.2324L23.4712 27.3386Z" fill="url(#paint1_linear)"/>
<path d="M29.4996 29.2917C30.0519 29.2917 30.4996 28.844 30.4996 28.2917V28C30.4996 27.4477 30.0519 27 29.4996 27H27.2475V29.2917H29.4996Z" fill="url(#paint2_linear)"/>
<path d="M26.9955 29.2917C26.4432 29.2917 25.9955 28.844 25.9955 28.2917V28C25.9955 27.4477 26.4432 27 26.9955 27H29.2475V29.2917H26.9955Z" fill="url(#paint3_linear)"/>
</g>
<defs>
<linearGradient id="paint0_linear" x1="27.2516" y1="0" x2="27.2516" y2="55" gradientUnits="userSpaceOnUse">
<stop stop-color="#EC0008"/>
<stop offset="1" stop-color="#B72126"/>
</linearGradient>
<linearGradient id="paint1_linear" x1="27.2516" y1="0" x2="27.2516" y2="55" gradientUnits="userSpaceOnUse">
<stop stop-color="#EC0008"/>
<stop offset="1" stop-color="#B72126"/>
</linearGradient>
<linearGradient id="paint2_linear" x1="27.2516" y1="0" x2="27.2516" y2="55" gradientUnits="userSpaceOnUse">
<stop stop-color="#EC0008"/>
<stop offset="1" stop-color="#B72126"/>
</linearGradient>
<linearGradient id="paint3_linear" x1="27.2516" y1="0" x2="27.2516" y2="55" gradientUnits="userSpaceOnUse">
<stop stop-color="#EC0008"/>
<stop offset="1" stop-color="#B72126"/>
</linearGradient>
<clipPath id="clip0">
<rect width="55" height="55" fill="white"/>
</clipPath>
</defs>
</svg>
