<svg width="55" height="55" viewBox="0 0 55 55" fill="none" xmlns="http://www.w3.org/2000/svg">
<path d="M13.7503 27.5H36.667V29.7917H13.7503V27.5ZM31.662 20.625H13.7503V22.9167H34.483C33.4518 22.2681 32.5053 21.5004 31.662 20.625ZM13.7503 16.0417H28.6462C28.3391 15.3083 28.103 14.5383 27.9151 13.75H13.7503V16.0417ZM43.542 25.151V31.036C43.542 40.4479 29.792 36.6667 29.792 36.6667C29.792 36.6667 33.2707 50.4167 23.7466 50.4167H6.87533V4.58333H28.6462C29.3612 2.86688 30.3947 1.32 31.662 0H2.29199V55H25.6418C32.8903 55 48.1253 38.4473 48.1253 32.9679V24.0625C46.6976 24.6583 45.153 25.0273 43.542 25.151ZM42.3962 0C36.7059 0 32.0837 4.61771 32.0837 10.3125C32.0837 16.0073 36.7059 20.625 42.3962 20.625C48.0864 20.625 52.7087 16.0073 52.7087 10.3125C52.7087 4.61771 48.0864 0 42.3962 0ZM47.2591 7.07208L44.0187 10.3125L47.2591 13.5529L45.6366 15.1731L42.3962 11.9327L39.1557 15.1731L37.5355 13.5529L40.7759 10.3125L37.5355 7.07208L39.1557 5.44958L42.3962 8.69L45.6366 5.44958L47.2591 7.07208Z" fill="url(#paint0_linear)"/>
<defs>
<linearGradient id="paint0_linear" x1="27.5003" y1="0" x2="27.5003" y2="55" gradientUnits="userSpaceOnUse">
<stop stop-color="#EC0008"/>
<stop offset="1" stop-color="#B72126"/>
</linearGradient>
</defs>
</svg>
