<svg width="55" height="55" viewBox="0 0 55 55" fill="none" xmlns="http://www.w3.org/2000/svg">
<path d="M33.2298 34.3085L33.5007 31V18L45.0007 12L48.1257 10.1085L46.918 8.15375L44.5007 9.5L40.5792 11.4148L28.0007 4.91104L25.5505 3.58875L23.1282 4.91104L26.0007 6L38.0836 12.6981L32.1344 15.7598L20.0007 9.5L17.3509 8.06208L16.1386 10.0146L19.0007 12L30.0007 17.7742V31L30.9382 34.2558L33.2298 34.3085Z" fill="url(#paint0_linear)"/>
<path d="M30.9382 34.2558L30.0007 31L19.0007 25V12L16.1386 10.0146V26.361L30.9382 34.2558Z" fill="url(#paint1_linear)"/>
<path d="M33.2298 34.3085L48.1257 26.361V10.1085L45.0007 12V25L33.5007 31L33.2298 34.3085Z" fill="url(#paint2_linear)"/>
<path d="M23.1282 4.91104L17.3509 8.06208L20.0007 9.5L26.0007 6L23.1282 4.91104Z" fill="url(#paint3_linear)"/>
<path fill-rule="evenodd" clip-rule="evenodd" d="M32.1321 0L33.0007 0.5H31.2151L25.5505 3.58875L28.0007 4.91104L32.0007 2.5L44.5007 9.5L46.918 8.15375L32.1321 0Z" fill="url(#paint4_linear)"/>
<path d="M18.5007 39C19.1673 38.6667 22.0007 37.5 22.0007 37.5C22.0007 37.5 23.5007 37 26.0007 37.5C26.907 37.8021 28.1788 38.1682 29.5139 38.5526C31.8616 39.2284 34.4048 39.9605 35.5007 40.5C37.2197 41.3463 37.0007 42.5 35.2007 42C34.6556 41.8486 34.1931 41.6972 33.6882 41.5319C32.5256 41.1514 31.1381 40.6972 28.0007 40C23.5007 39 23.0007 44 26.5007 45C30.0007 46 31.8686 46.6915 31.8686 46.6915C31.8686 46.6915 33.4427 47.1649 34.7217 47.2748C36.0007 47.3848 37.9814 47.0934 39.0007 46.5L47.5007 38.5C48.5007 37.5 49.1132 38.8874 48.5007 39.5C48.3237 39.677 47.77 40.3281 47.0054 41.2272C45.1235 43.4401 41.9643 47.1551 40.0007 49C38.3029 50.7897 36.7131 52.4462 36.5007 52.5C35.6779 52.7083 34.6162 52.7083 34.0007 52.7083C33.5083 52.7083 31.377 52.2361 30.5007 52L25.3727 50.7008L18.5007 49V39Z" fill="url(#paint5_linear)"/>
<path fill-rule="evenodd" clip-rule="evenodd" d="M16.0423 37.7254L19.5394 36.0685C23.4952 34.2805 25.8924 35.2057 29.1315 36.4559L29.1338 36.4568L29.1542 36.4647L29.1559 36.4653C29.2243 36.4917 29.293 36.5182 29.3622 36.5449C29.4099 36.5633 29.4578 36.5817 29.5059 36.6002C31.641 37.4227 33.0553 37.9485 34.1633 38.3605C35.096 38.7073 35.8116 38.9734 36.5573 39.2677C39.4861 40.4273 38.134 44.2567 35.2007 43.4798C34.4471 43.2803 33.1795 42.924 31.8686 42.5555C30.0778 42.0522 28.2064 41.5262 27.4548 41.3463C25.9881 40.9933 25.3236 42.7258 26.7146 43.2208C29.0628 44.0552 32.2981 44.8975 34.2756 45.4123L34.7217 45.5285C36.6261 46.0281 37.6894 45.1963 39.0323 44.1283C41.1086 42.4783 45.834 37.4619 45.834 37.4619C47.7636 35.6308 50.3967 37.1525 50.3967 39.1119C50.3967 39.639 50.2065 40.1981 49.7642 40.7321C44.4292 47.1327 42.7517 49.0783 39.2959 52.7083C37.8682 54.2094 36.2204 54.9404 34.245 54.9404C33.2321 54.9404 32.1321 54.7479 30.9382 54.3675C26.7559 53.036 21.3773 51.3585 16.0423 50.7008V37.7254ZM18.5007 39C19.1673 38.6667 22.0007 37.5 22.0007 37.5C22.0007 37.5 23.5007 37 26.0007 37.5C26.907 37.8021 28.1788 38.1682 29.5139 38.5526C31.8616 39.2284 34.4048 39.9605 35.5007 40.5C37.2197 41.3463 37.0007 42.5 35.2007 42C34.6556 41.8486 34.1931 41.6972 33.6882 41.5319C32.5256 41.1514 31.1381 40.6972 28.0007 40C23.5007 39 23.0007 44 26.5007 45C30.0007 46 31.8686 46.6915 31.8686 46.6915C31.8686 46.6915 33.4427 47.1649 34.7217 47.2748C36.0007 47.3848 37.9814 47.0934 39.0007 46.5L47.5007 38.5C48.5007 37.5 49.1132 38.8874 48.5007 39.5C48.3237 39.677 47.77 40.3281 47.0054 41.2272C45.1235 43.4401 41.9643 47.1551 40.0007 49C38.3029 50.7897 36.7131 52.4462 36.5007 52.5C35.6779 52.7083 34.6162 52.7083 34.0007 52.7083C33.5083 52.7083 31.377 52.2361 30.5007 52L25.3727 50.7008L18.5007 49V39Z" fill="url(#paint6_linear)"/>
<path d="M13.7507 52.7083H4.58398V34.375H13.7507V52.7083Z" fill="url(#paint7_linear)"/>
<path d="M12 36H6V51H12V36Z" stroke="url(#paint8_linear)"/>
<defs>
<linearGradient id="paint0_linear" x1="27.4903" y1="0" x2="27.4903" y2="54.9404" gradientUnits="userSpaceOnUse">
<stop stop-color="#EC0008"/>
<stop offset="1" stop-color="#B72126"/>
</linearGradient>
<linearGradient id="paint1_linear" x1="27.4903" y1="0" x2="27.4903" y2="54.9404" gradientUnits="userSpaceOnUse">
<stop stop-color="#EC0008"/>
<stop offset="1" stop-color="#B72126"/>
</linearGradient>
<linearGradient id="paint2_linear" x1="27.4903" y1="0" x2="27.4903" y2="54.9404" gradientUnits="userSpaceOnUse">
<stop stop-color="#EC0008"/>
<stop offset="1" stop-color="#B72126"/>
</linearGradient>
<linearGradient id="paint3_linear" x1="27.4903" y1="0" x2="27.4903" y2="54.9404" gradientUnits="userSpaceOnUse">
<stop stop-color="#EC0008"/>
<stop offset="1" stop-color="#B72126"/>
</linearGradient>
<linearGradient id="paint4_linear" x1="27.4903" y1="0" x2="27.4903" y2="54.9404" gradientUnits="userSpaceOnUse">
<stop stop-color="#EC0008"/>
<stop offset="1" stop-color="#B72126"/>
</linearGradient>
<linearGradient id="paint5_linear" x1="27.4903" y1="0" x2="27.4903" y2="54.9404" gradientUnits="userSpaceOnUse">
<stop stop-color="#EC0008"/>
<stop offset="1" stop-color="#B72126"/>
</linearGradient>
<linearGradient id="paint6_linear" x1="27.4903" y1="0" x2="27.4903" y2="54.9404" gradientUnits="userSpaceOnUse">
<stop stop-color="#EC0008"/>
<stop offset="1" stop-color="#B72126"/>
</linearGradient>
<linearGradient id="paint7_linear" x1="27.4903" y1="0" x2="27.4903" y2="54.9404" gradientUnits="userSpaceOnUse">
<stop stop-color="#EC0008"/>
<stop offset="1" stop-color="#B72126"/>
</linearGradient>
<linearGradient id="paint8_linear" x1="9" y1="36" x2="9" y2="51" gradientUnits="userSpaceOnUse">
<stop stop-color="#EC0008"/>
<stop offset="1" stop-color="#B72126"/>
</linearGradient>
</defs>
</svg>
